<svg width="1440" height="310" viewBox="0 0 1440 310" fill="none" xmlns="http://www.w3.org/2000/svg">
<rect width="1440" height="310" fill="white"/>
<path d="M466.209 81.9091V111H461.522L447.814 91.1847H447.573V111H442.303V81.9091H447.019L460.712 101.739H460.968V81.9091H466.209ZM485.63 101.824V89.1818H490.772V111H485.787V107.122H485.559C485.067 108.344 484.257 109.343 483.13 110.119C482.013 110.896 480.635 111.284 478.997 111.284C477.567 111.284 476.303 110.967 475.204 110.332C474.115 109.688 473.263 108.756 472.647 107.534C472.032 106.303 471.724 104.816 471.724 103.074V89.1818H476.866V102.278C476.866 103.661 477.245 104.759 478.002 105.574C478.76 106.388 479.754 106.795 480.985 106.795C481.743 106.795 482.477 106.611 483.187 106.241C483.897 105.872 484.48 105.323 484.934 104.594C485.398 103.855 485.63 102.932 485.63 101.824ZM504.157 111.384C502.443 111.384 500.908 110.943 499.554 110.062C498.2 109.182 497.13 107.903 496.344 106.227C495.558 104.551 495.165 102.515 495.165 100.119C495.165 97.6951 495.563 95.6496 496.358 93.983C497.163 92.3068 498.248 91.0426 499.611 90.1903C500.975 89.3286 502.495 88.8977 504.171 88.8977C505.449 88.8977 506.5 89.1155 507.324 89.5511C508.148 89.9773 508.801 90.4934 509.284 91.0994C509.767 91.696 510.141 92.2595 510.407 92.7898H510.62V81.9091H515.776V111H510.719V107.562H510.407C510.141 108.093 509.758 108.656 509.256 109.253C508.754 109.84 508.091 110.342 507.267 110.759C506.444 111.175 505.407 111.384 504.157 111.384ZM505.591 107.165C506.68 107.165 507.608 106.871 508.375 106.284C509.142 105.687 509.725 104.859 510.123 103.798C510.52 102.738 510.719 101.502 510.719 100.091C510.719 98.6799 510.52 97.4536 510.123 96.4119C509.734 95.3703 509.157 94.5606 508.39 93.983C507.632 93.4053 506.699 93.1165 505.591 93.1165C504.445 93.1165 503.489 93.4148 502.722 94.0114C501.955 94.608 501.377 95.4318 500.989 96.483C500.601 97.5341 500.407 98.7367 500.407 100.091C500.407 101.455 500.601 102.671 500.989 103.741C501.387 104.802 501.969 105.64 502.736 106.256C503.513 106.862 504.464 107.165 505.591 107.165ZM530.744 119.636C528.897 119.636 527.311 119.385 525.985 118.884C524.66 118.391 523.594 117.728 522.789 116.895C521.984 116.062 521.426 115.138 521.113 114.125L525.744 113.003C525.952 113.429 526.255 113.85 526.653 114.267C527.051 114.693 527.586 115.044 528.258 115.318C528.94 115.602 529.797 115.744 530.829 115.744C532.288 115.744 533.495 115.389 534.451 114.679C535.408 113.978 535.886 112.823 535.886 111.213V107.08H535.63C535.365 107.61 534.977 108.154 534.466 108.713C533.964 109.272 533.296 109.741 532.463 110.119C531.639 110.498 530.602 110.688 529.352 110.688C527.676 110.688 526.156 110.295 524.792 109.509C523.438 108.713 522.359 107.529 521.554 105.957C520.758 104.376 520.36 102.397 520.36 100.02C520.36 97.6241 520.758 95.6023 521.554 93.9545C522.359 92.2973 523.443 91.0426 524.806 90.1903C526.17 89.3286 527.69 88.8977 529.366 88.8977C530.645 88.8977 531.696 89.1155 532.52 89.5511C533.353 89.9773 534.016 90.4934 534.508 91.0994C535.001 91.696 535.375 92.2595 535.63 92.7898H535.914V89.1818H540.985V111.355C540.985 113.221 540.54 114.764 539.65 115.986C538.76 117.207 537.543 118.121 536 118.727C534.456 119.333 532.704 119.636 530.744 119.636ZM530.787 106.653C531.876 106.653 532.804 106.388 533.571 105.858C534.338 105.328 534.92 104.565 535.318 103.571C535.716 102.577 535.914 101.384 535.914 99.9915C535.914 98.6184 535.716 97.4157 535.318 96.3835C534.93 95.3513 534.352 94.5511 533.585 93.983C532.827 93.4053 531.895 93.1165 530.787 93.1165C529.641 93.1165 528.684 93.4148 527.917 94.0114C527.15 94.608 526.573 95.4271 526.184 96.4688C525.796 97.5009 525.602 98.6752 525.602 99.9915C525.602 101.327 525.796 102.496 526.184 103.5C526.582 104.494 527.164 105.271 527.931 105.83C528.708 106.379 529.66 106.653 530.787 106.653ZM555.914 111.426C553.727 111.426 551.838 110.972 550.247 110.062C548.665 109.144 547.449 107.847 546.596 106.17C545.744 104.485 545.318 102.501 545.318 100.219C545.318 97.9744 545.744 96.0047 546.596 94.3097C547.458 92.6051 548.661 91.2794 550.204 90.3324C551.748 89.3759 553.561 88.8977 555.645 88.8977C556.989 88.8977 558.258 89.1155 559.451 89.5511C560.654 89.9773 561.715 90.6402 562.633 91.5398C563.561 92.4394 564.29 93.5852 564.821 94.9773C565.351 96.3598 565.616 98.0076 565.616 99.9205V101.497H547.733V98.0312H560.687C560.678 97.0464 560.465 96.1705 560.048 95.4034C559.631 94.6269 559.049 94.0161 558.301 93.571C557.562 93.1259 556.7 92.9034 555.716 92.9034C554.664 92.9034 553.741 93.1591 552.946 93.6705C552.15 94.1723 551.53 94.8352 551.085 95.6591C550.649 96.4735 550.427 97.3684 550.417 98.3438V101.369C550.417 102.638 550.649 103.727 551.113 104.636C551.577 105.536 552.226 106.227 553.059 106.71C553.893 107.184 554.868 107.42 555.985 107.42C556.734 107.42 557.411 107.316 558.017 107.108C558.623 106.89 559.148 106.573 559.593 106.156C560.038 105.74 560.375 105.223 560.602 104.608L565.403 105.148C565.1 106.417 564.522 107.525 563.67 108.472C562.827 109.409 561.748 110.138 560.431 110.659C559.115 111.17 557.609 111.426 555.914 111.426ZM583.084 119.182C582.383 119.182 581.735 119.125 581.138 119.011C580.551 118.907 580.082 118.784 579.732 118.642L580.925 114.636C581.673 114.854 582.341 114.958 582.928 114.949C583.515 114.939 584.031 114.755 584.476 114.395C584.931 114.045 585.314 113.457 585.627 112.634L586.067 111.455L578.155 89.1818H583.61L588.638 105.659H588.865L593.908 89.1818H599.377L590.641 113.642C590.234 114.797 589.694 115.787 589.022 116.611C588.349 117.444 587.525 118.079 586.55 118.514C585.584 118.959 584.429 119.182 583.084 119.182ZM611.71 111.426C609.579 111.426 607.733 110.957 606.17 110.02C604.608 109.082 603.395 107.771 602.534 106.085C601.681 104.4 601.255 102.43 601.255 100.176C601.255 97.9223 601.681 95.9479 602.534 94.2528C603.395 92.5578 604.608 91.2415 606.17 90.304C607.733 89.3665 609.579 88.8977 611.71 88.8977C613.841 88.8977 615.687 89.3665 617.25 90.304C618.812 91.2415 620.02 92.5578 620.872 94.2528C621.734 95.9479 622.164 97.9223 622.164 100.176C622.164 102.43 621.734 104.4 620.872 106.085C620.02 107.771 618.812 109.082 617.25 110.02C615.687 110.957 613.841 111.426 611.71 111.426ZM611.738 107.307C612.894 107.307 613.859 106.99 614.636 106.355C615.413 105.711 615.99 104.849 616.369 103.77C616.757 102.69 616.951 101.488 616.951 100.162C616.951 98.8267 616.757 97.6193 616.369 96.5398C615.99 95.4508 615.413 94.5843 614.636 93.9403C613.859 93.2964 612.894 92.9744 611.738 92.9744C610.555 92.9744 609.57 93.2964 608.784 93.9403C608.007 94.5843 607.425 95.4508 607.037 96.5398C606.658 97.6193 606.468 98.8267 606.468 100.162C606.468 101.488 606.658 102.69 607.037 103.77C607.425 104.849 608.007 105.711 608.784 106.355C609.57 106.99 610.555 107.307 611.738 107.307ZM640.435 101.824V89.1818H645.577V111H640.591V107.122H640.364C639.872 108.344 639.062 109.343 637.935 110.119C636.818 110.896 635.44 111.284 633.801 111.284C632.372 111.284 631.107 110.967 630.009 110.332C628.92 109.688 628.068 108.756 627.452 107.534C626.837 106.303 626.529 104.816 626.529 103.074V89.1818H631.671V102.278C631.671 103.661 632.05 104.759 632.807 105.574C633.565 106.388 634.559 106.795 635.79 106.795C636.548 106.795 637.282 106.611 637.992 106.241C638.702 105.872 639.284 105.323 639.739 104.594C640.203 103.855 640.435 102.932 640.435 101.824ZM650.865 111V89.1818H655.85V92.8182H656.078C656.475 91.5587 657.157 90.5881 658.123 89.9062C659.099 89.215 660.211 88.8693 661.461 88.8693C661.745 88.8693 662.063 88.8835 662.413 88.9119C662.773 88.9309 663.071 88.964 663.308 89.0114V93.7415C663.09 93.6657 662.744 93.5994 662.271 93.5426C661.807 93.4763 661.357 93.4432 660.922 93.4432C659.984 93.4432 659.141 93.6468 658.393 94.054C657.654 94.4517 657.072 95.0057 656.646 95.7159C656.22 96.4261 656.007 97.2453 656.007 98.1733V111H650.865ZM676.646 111V89.1818H681.632V92.8182H681.859C682.257 91.5587 682.939 90.5881 683.904 89.9062C684.88 89.215 685.993 88.8693 687.243 88.8693C687.527 88.8693 687.844 88.8835 688.194 88.9119C688.554 88.9309 688.852 88.964 689.089 89.0114V93.7415C688.871 93.6657 688.526 93.5994 688.052 93.5426C687.588 93.4763 687.138 93.4432 686.703 93.4432C685.765 93.4432 684.922 93.6468 684.174 94.054C683.436 94.4517 682.853 95.0057 682.427 95.7159C682.001 96.4261 681.788 97.2453 681.788 98.1733V111H676.646ZM701.266 111.426C699.078 111.426 697.189 110.972 695.598 110.062C694.017 109.144 692.8 107.847 691.948 106.17C691.096 104.485 690.669 102.501 690.669 100.219C690.669 97.9744 691.096 96.0047 691.948 94.3097C692.81 92.6051 694.012 91.2794 695.556 90.3324C697.099 89.3759 698.913 88.8977 700.996 88.8977C702.341 88.8977 703.61 89.1155 704.803 89.5511C706.006 89.9773 707.066 90.6402 707.985 91.5398C708.913 92.4394 709.642 93.5852 710.172 94.9773C710.703 96.3598 710.968 98.0076 710.968 99.9205V101.497H693.084V98.0312H706.039C706.029 97.0464 705.816 96.1705 705.4 95.4034C704.983 94.6269 704.4 94.0161 703.652 93.571C702.914 93.1259 702.052 92.9034 701.067 92.9034C700.016 92.9034 699.093 93.1591 698.297 93.6705C697.502 94.1723 696.882 94.8352 696.436 95.6591C696.001 96.4735 695.778 97.3684 695.769 98.3438V101.369C695.769 102.638 696.001 103.727 696.465 104.636C696.929 105.536 697.578 106.227 698.411 106.71C699.244 107.184 700.22 107.42 701.337 107.42C702.085 107.42 702.762 107.316 703.368 107.108C703.974 106.89 704.5 106.573 704.945 106.156C705.39 105.74 705.726 105.223 705.953 104.608L710.755 105.148C710.452 106.417 709.874 107.525 709.022 108.472C708.179 109.409 707.099 110.138 705.783 110.659C704.467 111.17 702.961 111.426 701.266 111.426ZM721.596 111.44C720.214 111.44 718.968 111.194 717.86 110.702C716.762 110.2 715.891 109.461 715.247 108.486C714.612 107.51 714.295 106.308 714.295 104.878C714.295 103.647 714.522 102.629 714.977 101.824C715.431 101.019 716.052 100.375 716.838 99.892C717.624 99.4091 718.509 99.0445 719.494 98.7983C720.488 98.5426 721.516 98.358 722.576 98.2443C723.855 98.1117 724.892 97.9934 725.687 97.8892C726.483 97.7756 727.06 97.6051 727.42 97.3778C727.789 97.1411 727.974 96.7765 727.974 96.2841V96.1989C727.974 95.1288 727.657 94.3002 727.022 93.7131C726.388 93.1259 725.474 92.8324 724.281 92.8324C723.021 92.8324 722.022 93.107 721.284 93.6562C720.555 94.2055 720.062 94.8542 719.806 95.6023L715.005 94.9205C715.384 93.5947 716.009 92.4867 716.88 91.5966C717.752 90.697 718.817 90.0246 720.076 89.5795C721.336 89.125 722.728 88.8977 724.252 88.8977C725.304 88.8977 726.35 89.0208 727.392 89.267C728.433 89.5133 729.385 89.9205 730.247 90.4886C731.109 91.0473 731.8 91.8097 732.321 92.7756C732.851 93.7415 733.116 94.9489 733.116 96.3977V111H728.173V108.003H728.002C727.69 108.609 727.25 109.177 726.681 109.707C726.123 110.228 725.417 110.65 724.565 110.972C723.722 111.284 722.733 111.44 721.596 111.44ZM722.931 107.662C723.964 107.662 724.859 107.458 725.616 107.051C726.374 106.634 726.956 106.085 727.363 105.403C727.78 104.722 727.988 103.978 727.988 103.173V100.602C727.827 100.735 727.553 100.858 727.164 100.972C726.786 101.085 726.359 101.185 725.886 101.27C725.413 101.355 724.944 101.431 724.48 101.497C724.016 101.563 723.613 101.62 723.272 101.668C722.505 101.772 721.819 101.942 721.213 102.179C720.607 102.416 720.128 102.747 719.778 103.173C719.428 103.59 719.252 104.13 719.252 104.793C719.252 105.74 719.598 106.455 720.289 106.938C720.981 107.42 721.861 107.662 722.931 107.662ZM746.383 111.384C744.669 111.384 743.135 110.943 741.781 110.062C740.427 109.182 739.357 107.903 738.571 106.227C737.785 104.551 737.392 102.515 737.392 100.119C737.392 97.6951 737.789 95.6496 738.585 93.983C739.39 92.3068 740.474 91.0426 741.838 90.1903C743.201 89.3286 744.721 88.8977 746.397 88.8977C747.676 88.8977 748.727 89.1155 749.551 89.5511C750.375 89.9773 751.028 90.4934 751.511 91.0994C751.994 91.696 752.368 92.2595 752.633 92.7898H752.846V81.9091H758.002V111H752.946V107.562H752.633C752.368 108.093 751.984 108.656 751.483 109.253C750.981 109.84 750.318 110.342 749.494 110.759C748.67 111.175 747.633 111.384 746.383 111.384ZM747.818 107.165C748.907 107.165 749.835 106.871 750.602 106.284C751.369 105.687 751.951 104.859 752.349 103.798C752.747 102.738 752.946 101.502 752.946 100.091C752.946 98.6799 752.747 97.4536 752.349 96.4119C751.961 95.3703 751.383 94.5606 750.616 93.983C749.859 93.4053 748.926 93.1165 747.818 93.1165C746.672 93.1165 745.716 93.4148 744.949 94.0114C744.181 94.608 743.604 95.4318 743.216 96.483C742.827 97.5341 742.633 98.7367 742.633 100.091C742.633 101.455 742.827 102.671 743.216 103.741C743.613 104.802 744.196 105.64 744.963 106.256C745.739 106.862 746.691 107.165 747.818 107.165ZM773.141 111.426C770.953 111.426 769.064 110.972 767.473 110.062C765.892 109.144 764.675 107.847 763.823 106.17C762.971 104.485 762.544 102.501 762.544 100.219C762.544 97.9744 762.971 96.0047 763.823 94.3097C764.685 92.6051 765.887 91.2794 767.431 90.3324C768.974 89.3759 770.788 88.8977 772.871 88.8977C774.216 88.8977 775.485 89.1155 776.678 89.5511C777.881 89.9773 778.941 90.6402 779.86 91.5398C780.788 92.4394 781.517 93.5852 782.047 94.9773C782.578 96.3598 782.843 98.0076 782.843 99.9205V101.497H764.959V98.0312H777.914C777.904 97.0464 777.691 96.1705 777.275 95.4034C776.858 94.6269 776.275 94.0161 775.527 93.571C774.789 93.1259 773.927 92.9034 772.942 92.9034C771.891 92.9034 770.968 93.1591 770.172 93.6705C769.377 94.1723 768.757 94.8352 768.311 95.6591C767.876 96.4735 767.653 97.3684 767.644 98.3438V101.369C767.644 102.638 767.876 103.727 768.34 104.636C768.804 105.536 769.453 106.227 770.286 106.71C771.119 107.184 772.095 107.42 773.212 107.42C773.96 107.42 774.637 107.316 775.243 107.108C775.849 106.89 776.375 106.573 776.82 106.156C777.265 105.74 777.601 105.223 777.828 104.608L782.63 105.148C782.327 106.417 781.749 107.525 780.897 108.472C780.054 109.409 778.974 110.138 777.658 110.659C776.342 111.17 774.836 111.426 773.141 111.426ZM787.193 111V89.1818H792.179V92.8182H792.406C792.804 91.5587 793.485 90.5881 794.451 89.9062C795.427 89.215 796.539 88.8693 797.789 88.8693C798.074 88.8693 798.391 88.8835 798.741 88.9119C799.101 88.9309 799.399 88.964 799.636 89.0114V93.7415C799.418 93.6657 799.073 93.5994 798.599 93.5426C798.135 93.4763 797.685 93.4432 797.25 93.4432C796.312 93.4432 795.469 93.6468 794.721 94.054C793.983 94.4517 793.4 95.0057 792.974 95.7159C792.548 96.4261 792.335 97.2453 792.335 98.1733V111H787.193ZM823.869 89.1818V93.1591H811.326V89.1818H823.869ZM814.423 83.9545H819.565V104.438C819.565 105.129 819.669 105.659 819.877 106.028C820.095 106.388 820.379 106.634 820.73 106.767C821.08 106.9 821.468 106.966 821.895 106.966C822.217 106.966 822.51 106.942 822.775 106.895C823.05 106.848 823.258 106.805 823.4 106.767L824.267 110.787C823.992 110.882 823.599 110.986 823.088 111.099C822.586 111.213 821.97 111.279 821.241 111.298C819.953 111.336 818.793 111.142 817.761 110.716C816.729 110.28 815.91 109.608 815.304 108.699C814.707 107.79 814.413 106.653 814.423 105.29V83.9545ZM837.452 111.426C835.321 111.426 833.475 110.957 831.912 110.02C830.35 109.082 829.138 107.771 828.276 106.085C827.424 104.4 826.998 102.43 826.998 100.176C826.998 97.9223 827.424 95.9479 828.276 94.2528C829.138 92.5578 830.35 91.2415 831.912 90.304C833.475 89.3665 835.321 88.8977 837.452 88.8977C839.583 88.8977 841.429 89.3665 842.992 90.304C844.554 91.2415 845.762 92.5578 846.614 94.2528C847.476 95.9479 847.907 97.9223 847.907 100.176C847.907 102.43 847.476 104.4 846.614 106.085C845.762 107.771 844.554 109.082 842.992 110.02C841.429 110.957 839.583 111.426 837.452 111.426ZM837.48 107.307C838.636 107.307 839.602 106.99 840.378 106.355C841.155 105.711 841.732 104.849 842.111 103.77C842.499 102.69 842.694 101.488 842.694 100.162C842.694 98.8267 842.499 97.6193 842.111 96.5398C841.732 95.4508 841.155 94.5843 840.378 93.9403C839.602 93.2964 838.636 92.9744 837.48 92.9744C836.297 92.9744 835.312 93.2964 834.526 93.9403C833.749 94.5843 833.167 95.4508 832.779 96.5398C832.4 97.6193 832.211 98.8267 832.211 100.162C832.211 101.488 832.4 102.69 832.779 103.77C833.167 104.849 833.749 105.711 834.526 106.355C835.312 106.99 836.297 107.307 837.48 107.307ZM879.437 94.9489L874.75 95.4602C874.617 94.9867 874.385 94.5417 874.054 94.125C873.732 93.7083 873.296 93.3722 872.747 93.1165C872.198 92.8608 871.525 92.733 870.73 92.733C869.66 92.733 868.76 92.965 868.031 93.429C867.311 93.893 866.956 94.4943 866.966 95.233C866.956 95.8674 867.188 96.3835 867.662 96.7812C868.145 97.179 868.94 97.5057 870.048 97.7614L873.77 98.5568C875.834 99.0019 877.368 99.7074 878.372 100.673C879.385 101.639 879.896 102.903 879.906 104.466C879.896 105.839 879.494 107.051 878.699 108.102C877.913 109.144 876.819 109.958 875.417 110.545C874.016 111.133 872.406 111.426 870.588 111.426C867.917 111.426 865.768 110.867 864.139 109.75C862.51 108.623 861.539 107.056 861.227 105.048L866.241 104.565C866.468 105.55 866.951 106.294 867.69 106.795C868.429 107.297 869.39 107.548 870.574 107.548C871.795 107.548 872.775 107.297 873.514 106.795C874.262 106.294 874.636 105.673 874.636 104.935C874.636 104.31 874.395 103.794 873.912 103.386C873.438 102.979 872.699 102.667 871.696 102.449L867.974 101.668C865.881 101.232 864.333 100.498 863.329 99.4659C862.325 98.4242 861.828 97.108 861.838 95.517C861.828 94.1723 862.193 93.0076 862.931 92.0227C863.68 91.0284 864.717 90.2614 866.042 89.7216C867.377 89.1723 868.916 88.8977 870.659 88.8977C873.216 88.8977 875.228 89.4422 876.696 90.5312C878.173 91.6203 879.087 93.0928 879.437 94.9489ZM884.146 111V89.1818H889.288V111H884.146ZM886.731 86.0852C885.917 86.0852 885.216 85.8153 884.629 85.2756C884.042 84.7263 883.748 84.0682 883.748 83.3011C883.748 82.5246 884.042 81.8665 884.629 81.3267C885.216 80.7775 885.917 80.5028 886.731 80.5028C887.555 80.5028 888.256 80.7775 888.833 81.3267C889.421 81.8665 889.714 82.5246 889.714 83.3011C889.714 84.0682 889.421 84.7263 888.833 85.2756C888.256 85.8153 887.555 86.0852 886.731 86.0852ZM904.064 119.636C902.218 119.636 900.632 119.385 899.306 118.884C897.98 118.391 896.915 117.728 896.11 116.895C895.305 116.062 894.746 115.138 894.434 114.125L899.064 113.003C899.273 113.429 899.576 113.85 899.973 114.267C900.371 114.693 900.906 115.044 901.578 115.318C902.26 115.602 903.117 115.744 904.15 115.744C905.608 115.744 906.815 115.389 907.772 114.679C908.728 113.978 909.206 112.823 909.206 111.213V107.08H908.951C908.685 107.61 908.297 108.154 907.786 108.713C907.284 109.272 906.616 109.741 905.783 110.119C904.959 110.498 903.922 110.688 902.672 110.688C900.996 110.688 899.476 110.295 898.113 109.509C896.758 108.713 895.679 107.529 894.874 105.957C894.078 104.376 893.681 102.397 893.681 100.02C893.681 97.6241 894.078 95.6023 894.874 93.9545C895.679 92.2973 896.763 91.0426 898.127 90.1903C899.49 89.3286 901.01 88.8977 902.686 88.8977C903.965 88.8977 905.016 89.1155 905.84 89.5511C906.673 89.9773 907.336 90.4934 907.828 91.0994C908.321 91.696 908.695 92.2595 908.951 92.7898H909.235V89.1818H914.306V111.355C914.306 113.221 913.861 114.764 912.971 115.986C912.08 117.207 910.864 118.121 909.32 118.727C907.776 119.333 906.025 119.636 904.064 119.636ZM904.107 106.653C905.196 106.653 906.124 106.388 906.891 105.858C907.658 105.328 908.24 104.565 908.638 103.571C909.036 102.577 909.235 101.384 909.235 99.9915C909.235 98.6184 909.036 97.4157 908.638 96.3835C908.25 95.3513 907.672 94.5511 906.905 93.983C906.148 93.4053 905.215 93.1165 904.107 93.1165C902.961 93.1165 902.005 93.4148 901.238 94.0114C900.471 94.608 899.893 95.4271 899.505 96.4688C899.116 97.5009 898.922 98.6752 898.922 99.9915C898.922 101.327 899.116 102.496 899.505 103.5C899.902 104.494 900.485 105.271 901.252 105.83C902.028 106.379 902.98 106.653 904.107 106.653ZM924.718 98.2159V111H919.576V89.1818H924.49V92.8892H924.746C925.248 91.6676 926.048 90.697 927.147 89.9773C928.255 89.2576 929.623 88.8977 931.252 88.8977C932.757 88.8977 934.069 89.2197 935.186 89.8636C936.313 90.5076 937.185 91.4403 937.8 92.6619C938.425 93.8835 938.733 95.3655 938.723 97.108V111H933.581V97.9034C933.581 96.4451 933.203 95.304 932.445 94.4801C931.697 93.6562 930.66 93.2443 929.334 93.2443C928.435 93.2443 927.634 93.4432 926.934 93.8409C926.242 94.2292 925.698 94.7926 925.3 95.5312C924.912 96.2699 924.718 97.1648 924.718 98.2159ZM967.779 101.824V89.1818H972.921V111H967.935V107.122H967.708C967.215 108.344 966.406 109.343 965.279 110.119C964.161 110.896 962.783 111.284 961.145 111.284C959.715 111.284 958.451 110.967 957.353 110.332C956.264 109.688 955.411 108.756 954.796 107.534C954.18 106.303 953.873 104.816 953.873 103.074V89.1818H959.015V102.278C959.015 103.661 959.393 104.759 960.151 105.574C960.908 106.388 961.903 106.795 963.134 106.795C963.891 106.795 964.625 106.611 965.336 106.241C966.046 105.872 966.628 105.323 967.083 104.594C967.547 103.855 967.779 102.932 967.779 101.824ZM978.208 119.182V89.1818H983.265V92.7898H983.564C983.829 92.2595 984.203 91.696 984.686 91.0994C985.169 90.4934 985.822 89.9773 986.646 89.5511C987.47 89.1155 988.521 88.8977 989.799 88.8977C991.485 88.8977 993.005 89.3286 994.359 90.1903C995.723 91.0426 996.802 92.3068 997.598 93.983C998.403 95.6496 998.805 97.6951 998.805 100.119C998.805 102.515 998.412 104.551 997.626 106.227C996.84 107.903 995.77 109.182 994.416 110.062C993.062 110.943 991.528 111.384 989.814 111.384C988.564 111.384 987.527 111.175 986.703 110.759C985.879 110.342 985.216 109.84 984.714 109.253C984.222 108.656 983.838 108.093 983.564 107.562H983.35V119.182H978.208ZM983.251 100.091C983.251 101.502 983.45 102.738 983.848 103.798C984.255 104.859 984.837 105.687 985.595 106.284C986.362 106.871 987.29 107.165 988.379 107.165C989.515 107.165 990.467 106.862 991.234 106.256C992.001 105.64 992.579 104.802 992.967 103.741C993.365 102.671 993.564 101.455 993.564 100.091C993.564 98.7367 993.369 97.5341 992.981 96.483C992.593 95.4318 992.015 94.608 991.248 94.0114C990.481 93.4148 989.525 93.1165 988.379 93.1165C987.28 93.1165 986.348 93.4053 985.581 93.983C984.814 94.5606 984.231 95.3703 983.833 96.4119C983.445 97.4536 983.251 98.6799 983.251 100.091Z" fill="black"/>
<path d="M370.5 184C370.5 178.753 374.753 174.5 380 174.5H757C762.247 174.5 766.5 178.753 766.5 184V220C766.5 225.247 762.247 229.5 757 229.5H380C374.753 229.5 370.5 225.247 370.5 220V184Z" fill="white" stroke="#D9D9D9"/>
<path d="M398.114 210V192.545H408.648V194.42H400.227V200.318H408.102V202.193H400.227V208.125H408.784V210H398.114ZM414.196 202.125V210H412.185V196.909H414.128V198.955H414.298C414.605 198.29 415.071 197.756 415.696 197.352C416.321 196.943 417.128 196.739 418.116 196.739C419.003 196.739 419.778 196.92 420.443 197.284C421.108 197.642 421.625 198.188 421.994 198.92C422.364 199.648 422.548 200.568 422.548 201.682V210H420.537V201.818C420.537 200.79 420.27 199.989 419.736 199.415C419.202 198.835 418.469 198.545 417.537 198.545C416.895 198.545 416.321 198.685 415.815 198.963C415.315 199.241 414.92 199.648 414.631 200.182C414.341 200.716 414.196 201.364 414.196 202.125ZM431.917 196.909V198.614H425.133V196.909H431.917ZM427.11 193.773H429.121V206.25C429.121 206.818 429.204 207.244 429.369 207.528C429.539 207.807 429.755 207.994 430.016 208.091C430.283 208.182 430.565 208.227 430.86 208.227C431.082 208.227 431.263 208.216 431.406 208.193C431.548 208.165 431.661 208.142 431.746 208.125L432.156 209.932C432.019 209.983 431.829 210.034 431.585 210.085C431.34 210.142 431.031 210.17 430.656 210.17C430.087 210.17 429.531 210.048 428.985 209.804C428.445 209.56 427.996 209.188 427.638 208.688C427.286 208.188 427.11 207.557 427.11 206.795V193.773ZM440.29 210.273C439.029 210.273 437.941 209.994 437.026 209.438C436.117 208.875 435.415 208.091 434.921 207.085C434.433 206.074 434.188 204.898 434.188 203.557C434.188 202.216 434.433 201.034 434.921 200.011C435.415 198.983 436.103 198.182 436.984 197.608C437.87 197.028 438.904 196.739 440.086 196.739C440.768 196.739 441.441 196.852 442.106 197.08C442.771 197.307 443.376 197.676 443.921 198.188C444.467 198.693 444.901 199.364 445.225 200.199C445.549 201.034 445.711 202.062 445.711 203.284V204.136H435.62V202.398H443.665C443.665 201.659 443.518 201 443.222 200.42C442.933 199.841 442.518 199.384 441.978 199.048C441.444 198.713 440.813 198.545 440.086 198.545C439.285 198.545 438.592 198.744 438.006 199.142C437.427 199.534 436.981 200.045 436.668 200.676C436.356 201.307 436.2 201.983 436.2 202.705V203.864C436.2 204.852 436.37 205.69 436.711 206.378C437.058 207.06 437.538 207.58 438.151 207.938C438.765 208.29 439.478 208.466 440.29 208.466C440.819 208.466 441.296 208.392 441.722 208.244C442.154 208.091 442.526 207.864 442.839 207.562C443.151 207.256 443.393 206.875 443.563 206.42L445.506 206.966C445.302 207.625 444.958 208.205 444.475 208.705C443.992 209.199 443.396 209.585 442.685 209.864C441.975 210.136 441.177 210.273 440.29 210.273ZM448.771 210V196.909H450.714V198.886H450.85C451.089 198.239 451.521 197.713 452.146 197.31C452.771 196.906 453.475 196.705 454.259 196.705C454.407 196.705 454.592 196.707 454.813 196.713C455.035 196.719 455.202 196.727 455.316 196.739V198.784C455.248 198.767 455.092 198.741 454.847 198.707C454.609 198.668 454.356 198.648 454.089 198.648C453.452 198.648 452.884 198.781 452.384 199.048C451.89 199.31 451.498 199.673 451.208 200.139C450.924 200.599 450.782 201.125 450.782 201.716V210H448.771ZM465.746 214.909C465.405 214.909 465.101 214.881 464.834 214.824C464.567 214.773 464.382 214.722 464.28 214.67L464.791 212.898C465.28 213.023 465.712 213.068 466.087 213.034C466.462 213 466.794 212.832 467.084 212.531C467.379 212.236 467.649 211.756 467.893 211.091L468.268 210.068L463.428 196.909H465.609L469.223 207.341H469.359L472.973 196.909H475.155L469.598 211.909C469.348 212.585 469.038 213.145 468.669 213.588C468.3 214.037 467.871 214.369 467.382 214.585C466.899 214.801 466.354 214.909 465.746 214.909ZM482.659 210.273C481.477 210.273 480.44 209.991 479.548 209.429C478.662 208.866 477.969 208.08 477.469 207.068C476.974 206.057 476.727 204.875 476.727 203.523C476.727 202.159 476.974 200.969 477.469 199.952C477.969 198.935 478.662 198.145 479.548 197.582C480.44 197.02 481.477 196.739 482.659 196.739C483.841 196.739 484.875 197.02 485.761 197.582C486.653 198.145 487.347 198.935 487.841 199.952C488.341 200.969 488.591 202.159 488.591 203.523C488.591 204.875 488.341 206.057 487.841 207.068C487.347 208.08 486.653 208.866 485.761 209.429C484.875 209.991 483.841 210.273 482.659 210.273ZM482.659 208.466C483.557 208.466 484.295 208.236 484.875 207.776C485.455 207.315 485.884 206.71 486.162 205.96C486.44 205.21 486.58 204.398 486.58 203.523C486.58 202.648 486.44 201.832 486.162 201.077C485.884 200.321 485.455 199.71 484.875 199.244C484.295 198.778 483.557 198.545 482.659 198.545C481.761 198.545 481.023 198.778 480.443 199.244C479.864 199.71 479.435 200.321 479.156 201.077C478.878 201.832 478.739 202.648 478.739 203.523C478.739 204.398 478.878 205.21 479.156 205.96C479.435 206.71 479.864 207.315 480.443 207.776C481.023 208.236 481.761 208.466 482.659 208.466ZM499.911 204.648V196.909H501.923V210H499.911V207.784H499.775C499.468 208.449 498.991 209.014 498.343 209.48C497.695 209.94 496.877 210.17 495.888 210.17C495.07 210.17 494.343 209.991 493.707 209.634C493.07 209.27 492.57 208.724 492.207 207.997C491.843 207.264 491.661 206.341 491.661 205.227V196.909H493.673V205.091C493.673 206.045 493.94 206.807 494.474 207.375C495.013 207.943 495.701 208.227 496.536 208.227C497.036 208.227 497.545 208.099 498.062 207.844C498.585 207.588 499.022 207.196 499.374 206.668C499.732 206.139 499.911 205.466 499.911 204.648ZM505.607 210V196.909H507.55V198.886H507.686C507.925 198.239 508.357 197.713 508.982 197.31C509.607 196.906 510.311 196.705 511.095 196.705C511.243 196.705 511.428 196.707 511.649 196.713C511.871 196.719 512.038 196.727 512.152 196.739V198.784C512.084 198.767 511.928 198.741 511.683 198.707C511.445 198.668 511.192 198.648 510.925 198.648C510.288 198.648 509.72 198.781 509.22 199.048C508.726 199.31 508.334 199.673 508.044 200.139C507.76 200.599 507.618 201.125 507.618 201.716V210H505.607ZM526.775 210.273C525.513 210.273 524.425 209.994 523.511 209.438C522.602 208.875 521.9 208.091 521.406 207.085C520.917 206.074 520.673 204.898 520.673 203.557C520.673 202.216 520.917 201.034 521.406 200.011C521.9 198.983 522.587 198.182 523.468 197.608C524.354 197.028 525.388 196.739 526.57 196.739C527.252 196.739 527.925 196.852 528.59 197.08C529.255 197.307 529.86 197.676 530.406 198.188C530.951 198.693 531.386 199.364 531.71 200.199C532.033 201.034 532.195 202.062 532.195 203.284V204.136H522.104V202.398H530.15C530.15 201.659 530.002 201 529.707 200.42C529.417 199.841 529.002 199.384 528.462 199.048C527.928 198.713 527.298 198.545 526.57 198.545C525.769 198.545 525.076 198.744 524.491 199.142C523.911 199.534 523.465 200.045 523.153 200.676C522.84 201.307 522.684 201.983 522.684 202.705V203.864C522.684 204.852 522.854 205.69 523.195 206.378C523.542 207.06 524.022 207.58 524.636 207.938C525.249 208.29 525.962 208.466 526.775 208.466C527.303 208.466 527.781 208.392 528.207 208.244C528.638 208.091 529.011 207.864 529.323 207.562C529.636 207.256 529.877 206.875 530.048 206.42L531.991 206.966C531.786 207.625 531.442 208.205 530.96 208.705C530.477 209.199 529.88 209.585 529.17 209.864C528.46 210.136 527.661 210.273 526.775 210.273ZM535.255 210V196.909H537.198V198.955H537.369C537.641 198.256 538.082 197.713 538.69 197.327C539.298 196.935 540.028 196.739 540.88 196.739C541.744 196.739 542.462 196.935 543.036 197.327C543.616 197.713 544.067 198.256 544.391 198.955H544.528C544.863 198.278 545.366 197.741 546.036 197.344C546.707 196.94 547.511 196.739 548.448 196.739C549.619 196.739 550.576 197.105 551.32 197.838C552.065 198.565 552.437 199.699 552.437 201.239V210H550.425V201.239C550.425 200.273 550.161 199.582 549.633 199.168C549.104 198.753 548.482 198.545 547.766 198.545C546.846 198.545 546.133 198.824 545.627 199.381C545.121 199.932 544.869 200.631 544.869 201.477V210H542.823V201.034C542.823 200.29 542.582 199.69 542.099 199.236C541.616 198.776 540.994 198.545 540.232 198.545C539.71 198.545 539.221 198.685 538.766 198.963C538.317 199.241 537.954 199.628 537.675 200.122C537.403 200.611 537.266 201.176 537.266 201.818V210H535.255ZM559.967 210.307C559.137 210.307 558.384 210.151 557.708 209.838C557.032 209.52 556.495 209.062 556.097 208.466C555.7 207.864 555.501 207.136 555.501 206.284C555.501 205.534 555.648 204.926 555.944 204.46C556.239 203.989 556.634 203.619 557.129 203.352C557.623 203.085 558.168 202.886 558.765 202.756C559.367 202.619 559.972 202.511 560.58 202.432C561.376 202.33 562.021 202.253 562.515 202.202C563.015 202.145 563.379 202.051 563.606 201.92C563.839 201.79 563.955 201.562 563.955 201.239V201.17C563.955 200.33 563.725 199.676 563.265 199.21C562.81 198.744 562.12 198.511 561.194 198.511C560.234 198.511 559.481 198.722 558.935 199.142C558.39 199.562 558.006 200.011 557.785 200.489L555.876 199.807C556.217 199.011 556.671 198.392 557.239 197.949C557.813 197.5 558.438 197.187 559.114 197.011C559.796 196.83 560.467 196.739 561.126 196.739C561.546 196.739 562.029 196.79 562.575 196.892C563.126 196.989 563.657 197.19 564.168 197.497C564.685 197.804 565.114 198.267 565.455 198.886C565.796 199.506 565.967 200.335 565.967 201.375V210H563.955V208.227H563.853C563.717 208.511 563.489 208.815 563.171 209.139C562.853 209.463 562.43 209.739 561.901 209.966C561.373 210.193 560.728 210.307 559.967 210.307ZM560.273 208.5C561.069 208.5 561.739 208.344 562.285 208.031C562.836 207.719 563.251 207.315 563.529 206.821C563.813 206.327 563.955 205.807 563.955 205.261V203.42C563.87 203.523 563.683 203.616 563.393 203.702C563.109 203.781 562.779 203.852 562.404 203.915C562.035 203.972 561.674 204.023 561.322 204.068C560.975 204.108 560.694 204.142 560.478 204.17C559.955 204.239 559.467 204.349 559.012 204.503C558.563 204.651 558.2 204.875 557.921 205.176C557.648 205.472 557.512 205.875 557.512 206.386C557.512 207.085 557.771 207.614 558.288 207.972C558.81 208.324 559.472 208.5 560.273 208.5ZM569.638 210V196.909H571.649V210H569.638ZM570.661 194.727C570.268 194.727 569.93 194.594 569.646 194.327C569.368 194.06 569.229 193.739 569.229 193.364C569.229 192.989 569.368 192.668 569.646 192.401C569.93 192.134 570.268 192 570.661 192C571.053 192 571.388 192.134 571.666 192.401C571.95 192.668 572.092 192.989 572.092 193.364C572.092 193.739 571.95 194.06 571.666 194.327C571.388 194.594 571.053 194.727 570.661 194.727ZM577.344 192.545V210H575.333V192.545H577.344Z" fill="black"/>
<path d="M791 184C791 178.477 795.477 174 801 174H1060C1065.52 174 1070 178.477 1070 184V220C1070 225.523 1065.52 230 1060 230H801C795.477 230 791 225.523 791 220V184Z" fill="#D9D9D9"/>
<path d="M820.641 192.545V210H818.528V192.545H820.641ZM826.618 202.125V210H824.607V196.909H826.55V198.955H826.72C827.027 198.29 827.493 197.756 828.118 197.352C828.743 196.943 829.55 196.739 830.538 196.739C831.425 196.739 832.2 196.92 832.865 197.284C833.53 197.642 834.047 198.188 834.416 198.92C834.786 199.648 834.97 200.568 834.97 201.682V210H832.959V201.818C832.959 200.79 832.692 199.989 832.158 199.415C831.624 198.835 830.891 198.545 829.959 198.545C829.317 198.545 828.743 198.685 828.237 198.963C827.737 199.241 827.342 199.648 827.053 200.182C826.763 200.716 826.618 201.364 826.618 202.125ZM847.918 199.841L846.112 200.352C845.998 200.051 845.83 199.759 845.609 199.474C845.393 199.185 845.097 198.946 844.722 198.759C844.347 198.571 843.867 198.477 843.282 198.477C842.481 198.477 841.813 198.662 841.279 199.031C840.751 199.395 840.487 199.858 840.487 200.42C840.487 200.92 840.668 201.315 841.032 201.605C841.396 201.895 841.964 202.136 842.737 202.33L844.68 202.807C845.85 203.091 846.722 203.526 847.296 204.111C847.87 204.69 848.157 205.437 848.157 206.352C848.157 207.102 847.941 207.773 847.509 208.364C847.083 208.955 846.487 209.42 845.719 209.761C844.952 210.102 844.06 210.273 843.043 210.273C841.708 210.273 840.603 209.983 839.728 209.403C838.853 208.824 838.299 207.977 838.066 206.864L839.975 206.386C840.157 207.091 840.501 207.619 841.006 207.972C841.518 208.324 842.185 208.5 843.009 208.5C843.947 208.5 844.691 208.301 845.242 207.903C845.799 207.5 846.077 207.017 846.077 206.455C846.077 206 845.918 205.619 845.6 205.312C845.282 205 844.793 204.767 844.134 204.614L841.952 204.102C840.754 203.818 839.873 203.378 839.31 202.781C838.754 202.179 838.475 201.426 838.475 200.523C838.475 199.784 838.683 199.131 839.097 198.562C839.518 197.994 840.089 197.548 840.81 197.224C841.538 196.901 842.362 196.739 843.282 196.739C844.577 196.739 845.594 197.023 846.333 197.591C847.077 198.159 847.606 198.909 847.918 199.841ZM856.673 210.273C855.412 210.273 854.324 209.994 853.409 209.438C852.5 208.875 851.798 208.091 851.304 207.085C850.815 206.074 850.571 204.898 850.571 203.557C850.571 202.216 850.815 201.034 851.304 200.011C851.798 198.983 852.486 198.182 853.366 197.608C854.253 197.028 855.287 196.739 856.469 196.739C857.151 196.739 857.824 196.852 858.489 197.08C859.153 197.307 859.759 197.676 860.304 198.188C860.849 198.693 861.284 199.364 861.608 200.199C861.932 201.034 862.094 202.062 862.094 203.284V204.136H852.003V202.398H860.048C860.048 201.659 859.901 201 859.605 200.42C859.315 199.841 858.901 199.384 858.361 199.048C857.827 198.713 857.196 198.545 856.469 198.545C855.668 198.545 854.974 198.744 854.389 199.142C853.81 199.534 853.364 200.045 853.051 200.676C852.739 201.307 852.582 201.983 852.582 202.705V203.864C852.582 204.852 852.753 205.69 853.094 206.378C853.44 207.06 853.92 207.58 854.534 207.938C855.148 208.29 855.861 208.466 856.673 208.466C857.202 208.466 857.679 208.392 858.105 208.244C858.537 208.091 858.909 207.864 859.222 207.562C859.534 207.256 859.776 206.875 859.946 206.42L861.889 206.966C861.685 207.625 861.341 208.205 860.858 208.705C860.375 209.199 859.778 209.585 859.068 209.864C858.358 210.136 857.56 210.273 856.673 210.273ZM865.153 210V196.909H867.097V198.886H867.233C867.472 198.239 867.903 197.713 868.528 197.31C869.153 196.906 869.858 196.705 870.642 196.705C870.79 196.705 870.974 196.707 871.196 196.713C871.418 196.719 871.585 196.727 871.699 196.739V198.784C871.631 198.767 871.474 198.741 871.23 198.707C870.991 198.668 870.739 198.648 870.472 198.648C869.835 198.648 869.267 198.781 868.767 199.048C868.273 199.31 867.881 199.673 867.591 200.139C867.307 200.599 867.165 201.125 867.165 201.716V210H865.153ZM880.597 196.909V198.614H873.812V196.909H880.597ZM875.79 193.773H877.801V206.25C877.801 206.818 877.884 207.244 878.048 207.528C878.219 207.807 878.435 207.994 878.696 208.091C878.963 208.182 879.244 208.227 879.54 208.227C879.761 208.227 879.943 208.216 880.085 208.193C880.227 208.165 880.341 208.142 880.426 208.125L880.835 209.932C880.699 209.983 880.509 210.034 880.264 210.085C880.02 210.142 879.71 210.17 879.335 210.17C878.767 210.17 878.21 210.048 877.665 209.804C877.125 209.56 876.676 209.188 876.318 208.688C875.966 208.188 875.79 207.557 875.79 206.795V193.773ZM904.69 198H902.577C902.452 197.392 902.233 196.858 901.92 196.398C901.614 195.938 901.239 195.551 900.795 195.239C900.358 194.92 899.872 194.682 899.338 194.523C898.804 194.364 898.247 194.284 897.668 194.284C896.611 194.284 895.653 194.551 894.795 195.085C893.943 195.619 893.264 196.406 892.759 197.446C892.259 198.486 892.009 199.761 892.009 201.273C892.009 202.784 892.259 204.06 892.759 205.099C893.264 206.139 893.943 206.926 894.795 207.46C895.653 207.994 896.611 208.261 897.668 208.261C898.247 208.261 898.804 208.182 899.338 208.023C899.872 207.864 900.358 207.628 900.795 207.315C901.239 206.997 901.614 206.608 901.92 206.148C902.233 205.682 902.452 205.148 902.577 204.545H904.69C904.531 205.437 904.241 206.236 903.821 206.94C903.401 207.645 902.878 208.244 902.253 208.739C901.628 209.227 900.926 209.599 900.148 209.855C899.375 210.111 898.548 210.239 897.668 210.239C896.179 210.239 894.855 209.875 893.696 209.148C892.537 208.42 891.625 207.386 890.96 206.045C890.295 204.705 889.963 203.114 889.963 201.273C889.963 199.432 890.295 197.841 890.96 196.5C891.625 195.159 892.537 194.125 893.696 193.398C894.855 192.67 896.179 192.307 897.668 192.307C898.548 192.307 899.375 192.435 900.148 192.69C900.926 192.946 901.628 193.321 902.253 193.815C902.878 194.304 903.401 194.901 903.821 195.605C904.241 196.304 904.531 197.102 904.69 198ZM911.685 210.307C910.856 210.307 910.103 210.151 909.427 209.838C908.751 209.52 908.214 209.062 907.816 208.466C907.418 207.864 907.219 207.136 907.219 206.284C907.219 205.534 907.367 204.926 907.663 204.46C907.958 203.989 908.353 203.619 908.847 203.352C909.342 203.085 909.887 202.886 910.484 202.756C911.086 202.619 911.691 202.511 912.299 202.432C913.094 202.33 913.739 202.253 914.234 202.202C914.734 202.145 915.097 202.051 915.325 201.92C915.558 201.79 915.674 201.562 915.674 201.239V201.17C915.674 200.33 915.444 199.676 914.984 199.21C914.529 198.744 913.839 198.511 912.913 198.511C911.952 198.511 911.2 198.722 910.654 199.142C910.109 199.562 909.725 200.011 909.504 200.489L907.594 199.807C907.935 199.011 908.39 198.392 908.958 197.949C909.532 197.5 910.157 197.187 910.833 197.011C911.515 196.83 912.185 196.739 912.844 196.739C913.265 196.739 913.748 196.79 914.293 196.892C914.844 196.989 915.376 197.19 915.887 197.497C916.404 197.804 916.833 198.267 917.174 198.886C917.515 199.506 917.685 200.335 917.685 201.375V210H915.674V208.227H915.572C915.435 208.511 915.208 208.815 914.89 209.139C914.572 209.463 914.148 209.739 913.62 209.966C913.092 210.193 912.447 210.307 911.685 210.307ZM911.992 208.5C912.788 208.5 913.458 208.344 914.004 208.031C914.555 207.719 914.969 207.315 915.248 206.821C915.532 206.327 915.674 205.807 915.674 205.261V203.42C915.589 203.523 915.401 203.616 915.112 203.702C914.827 203.781 914.498 203.852 914.123 203.915C913.754 203.972 913.393 204.023 913.04 204.068C912.694 204.108 912.413 204.142 912.197 204.17C911.674 204.239 911.185 204.349 910.731 204.503C910.282 204.651 909.918 204.875 909.64 205.176C909.367 205.472 909.231 205.875 909.231 206.386C909.231 207.085 909.489 207.614 910.006 207.972C910.529 208.324 911.191 208.5 911.992 208.5ZM923.368 192.545V210H921.357V192.545H923.368ZM929.063 192.545V210H927.052V192.545H929.063ZM940.247 201.58V203.455H932.611V201.58H940.247ZM949.479 196.909V198.614H942.695V196.909H949.479ZM944.673 193.773H946.684V206.25C946.684 206.818 946.766 207.244 946.931 207.528C947.102 207.807 947.317 207.994 947.579 208.091C947.846 208.182 948.127 208.227 948.423 208.227C948.644 208.227 948.826 208.216 948.968 208.193C949.11 208.165 949.224 208.142 949.309 208.125L949.718 209.932C949.582 209.983 949.391 210.034 949.147 210.085C948.903 210.142 948.593 210.17 948.218 210.17C947.65 210.17 947.093 210.048 946.548 209.804C946.008 209.56 945.559 209.188 945.201 208.688C944.849 208.188 944.673 207.557 944.673 206.795V193.773ZM957.683 210.273C956.501 210.273 955.464 209.991 954.572 209.429C953.685 208.866 952.992 208.08 952.492 207.068C951.998 206.057 951.751 204.875 951.751 203.523C951.751 202.159 951.998 200.969 952.492 199.952C952.992 198.935 953.685 198.145 954.572 197.582C955.464 197.02 956.501 196.739 957.683 196.739C958.864 196.739 959.898 197.02 960.785 197.582C961.677 198.145 962.37 198.935 962.864 199.952C963.364 200.969 963.614 202.159 963.614 203.523C963.614 204.875 963.364 206.057 962.864 207.068C962.37 208.08 961.677 208.866 960.785 209.429C959.898 209.991 958.864 210.273 957.683 210.273ZM957.683 208.466C958.58 208.466 959.319 208.236 959.898 207.776C960.478 207.315 960.907 206.71 961.185 205.96C961.464 205.21 961.603 204.398 961.603 203.523C961.603 202.648 961.464 201.832 961.185 201.077C960.907 200.321 960.478 199.71 959.898 199.244C959.319 198.778 958.58 198.545 957.683 198.545C956.785 198.545 956.046 198.778 955.467 199.244C954.887 199.71 954.458 200.321 954.18 201.077C953.901 201.832 953.762 202.648 953.762 203.523C953.762 204.398 953.901 205.21 954.18 205.96C954.458 206.71 954.887 207.315 955.467 207.776C956.046 208.236 956.785 208.466 957.683 208.466ZM974.185 201.58V203.455H966.548V201.58H974.185ZM981.576 210.307C980.746 210.307 979.994 210.151 979.317 209.838C978.641 209.52 978.104 209.062 977.707 208.466C977.309 207.864 977.11 207.136 977.11 206.284C977.11 205.534 977.258 204.926 977.553 204.46C977.849 203.989 978.244 203.619 978.738 203.352C979.232 203.085 979.778 202.886 980.374 202.756C980.977 202.619 981.582 202.511 982.19 202.432C982.985 202.33 983.63 202.253 984.124 202.202C984.624 202.145 984.988 202.051 985.215 201.92C985.448 201.79 985.565 201.562 985.565 201.239V201.17C985.565 200.33 985.335 199.676 984.874 199.21C984.42 198.744 983.729 198.511 982.803 198.511C981.843 198.511 981.09 198.722 980.545 199.142C979.999 199.562 979.616 200.011 979.394 200.489L977.485 199.807C977.826 199.011 978.281 198.392 978.849 197.949C979.423 197.5 980.048 197.187 980.724 197.011C981.406 196.83 982.076 196.739 982.735 196.739C983.156 196.739 983.638 196.79 984.184 196.892C984.735 196.989 985.266 197.19 985.778 197.497C986.295 197.804 986.724 198.267 987.065 198.886C987.406 199.506 987.576 200.335 987.576 201.375V210H985.565V208.227H985.462C985.326 208.511 985.099 208.815 984.781 209.139C984.462 209.463 984.039 209.739 983.511 209.966C982.982 210.193 982.337 210.307 981.576 210.307ZM981.883 208.5C982.678 208.5 983.349 208.344 983.894 208.031C984.445 207.719 984.86 207.315 985.138 206.821C985.423 206.327 985.565 205.807 985.565 205.261V203.42C985.479 203.523 985.292 203.616 985.002 203.702C984.718 203.781 984.388 203.852 984.013 203.915C983.644 203.972 983.283 204.023 982.931 204.068C982.585 204.108 982.303 204.142 982.087 204.17C981.565 204.239 981.076 204.349 980.621 204.503C980.173 204.651 979.809 204.875 979.531 205.176C979.258 205.472 979.121 205.875 979.121 206.386C979.121 207.085 979.38 207.614 979.897 207.972C980.42 208.324 981.082 208.5 981.883 208.5ZM996.565 210.273C995.338 210.273 994.281 209.983 993.395 209.403C992.509 208.824 991.827 208.026 991.349 207.009C990.872 205.991 990.634 204.83 990.634 203.523C990.634 202.193 990.878 201.02 991.366 200.003C991.861 198.98 992.548 198.182 993.429 197.608C994.315 197.028 995.349 196.739 996.531 196.739C997.452 196.739 998.281 196.909 999.02 197.25C999.759 197.591 1000.36 198.068 1000.84 198.682C1001.31 199.295 1001.6 200.011 1001.71 200.83H999.702C999.548 200.233 999.207 199.705 998.679 199.244C998.156 198.778 997.452 198.545 996.565 198.545C995.781 198.545 995.094 198.75 994.503 199.159C993.918 199.562 993.46 200.134 993.131 200.872C992.807 201.605 992.645 202.466 992.645 203.455C992.645 204.466 992.804 205.347 993.122 206.097C993.446 206.847 993.901 207.429 994.486 207.844C995.077 208.259 995.77 208.466 996.565 208.466C997.088 208.466 997.562 208.375 997.989 208.193C998.415 208.011 998.776 207.75 999.071 207.409C999.366 207.068 999.577 206.659 999.702 206.182H1001.71C1001.6 206.955 1001.32 207.651 1000.87 208.27C1000.43 208.884 999.838 209.372 999.105 209.736C998.378 210.094 997.531 210.273 996.565 210.273ZM1010.35 196.909V198.614H1003.56V196.909H1010.35ZM1005.54 193.773H1007.55V206.25C1007.55 206.818 1007.63 207.244 1007.8 207.528C1007.97 207.807 1008.18 207.994 1008.45 208.091C1008.71 208.182 1008.99 208.227 1009.29 208.227C1009.51 208.227 1009.69 208.216 1009.84 208.193C1009.98 208.165 1010.09 208.142 1010.18 208.125L1010.59 209.932C1010.45 209.983 1010.26 210.034 1010.01 210.085C1009.77 210.142 1009.46 210.17 1009.09 210.17C1008.52 210.17 1007.96 210.048 1007.41 209.804C1006.88 209.56 1006.43 209.188 1006.07 208.688C1005.72 208.188 1005.54 207.557 1005.54 206.795V193.773ZM1013.37 210V196.909H1015.38V210H1013.37ZM1014.39 194.727C1014 194.727 1013.66 194.594 1013.38 194.327C1013.1 194.06 1012.96 193.739 1012.96 193.364C1012.96 192.989 1013.1 192.668 1013.38 192.401C1013.66 192.134 1014 192 1014.39 192C1014.79 192 1015.12 192.134 1015.4 192.401C1015.68 192.668 1015.83 192.989 1015.83 193.364C1015.83 193.739 1015.68 194.06 1015.4 194.327C1015.12 194.594 1014.79 194.727 1014.39 194.727ZM1024.39 210.273C1023.2 210.273 1022.17 209.991 1021.27 209.429C1020.39 208.866 1019.7 208.08 1019.2 207.068C1018.7 206.057 1018.45 204.875 1018.45 203.523C1018.45 202.159 1018.7 200.969 1019.2 199.952C1019.7 198.935 1020.39 198.145 1021.27 197.582C1022.17 197.02 1023.2 196.739 1024.39 196.739C1025.57 196.739 1026.6 197.02 1027.49 197.582C1028.38 198.145 1029.07 198.935 1029.57 199.952C1030.07 200.969 1030.32 202.159 1030.32 203.523C1030.32 204.875 1030.07 206.057 1029.57 207.068C1029.07 208.08 1028.38 208.866 1027.49 209.429C1026.6 209.991 1025.57 210.273 1024.39 210.273ZM1024.39 208.466C1025.28 208.466 1026.02 208.236 1026.6 207.776C1027.18 207.315 1027.61 206.71 1027.89 205.96C1028.17 205.21 1028.31 204.398 1028.31 203.523C1028.31 202.648 1028.17 201.832 1027.89 201.077C1027.61 200.321 1027.18 199.71 1026.6 199.244C1026.02 198.778 1025.28 198.545 1024.39 198.545C1023.49 198.545 1022.75 198.778 1022.17 199.244C1021.59 199.71 1021.16 200.321 1020.88 201.077C1020.6 201.832 1020.47 202.648 1020.47 203.523C1020.47 204.398 1020.6 205.21 1020.88 205.96C1021.16 206.71 1021.59 207.315 1022.17 207.776C1022.75 208.236 1023.49 208.466 1024.39 208.466ZM1035.4 202.125V210H1033.39V196.909H1035.33V198.955H1035.5C1035.81 198.29 1036.27 197.756 1036.9 197.352C1037.52 196.943 1038.33 196.739 1039.32 196.739C1040.21 196.739 1040.98 196.92 1041.65 197.284C1042.31 197.642 1042.83 198.188 1043.2 198.92C1043.57 199.648 1043.75 200.568 1043.75 201.682V210H1041.74V201.818C1041.74 200.79 1041.47 199.989 1040.94 199.415C1040.4 198.835 1039.67 198.545 1038.74 198.545C1038.1 198.545 1037.52 198.685 1037.02 198.963C1036.52 199.241 1036.12 199.648 1035.83 200.182C1035.54 200.716 1035.4 201.364 1035.4 202.125Z" fill="black"/>
</svg>
