<svg width="1440" height="96" viewBox="0 0 1440 96" fill="none" xmlns="http://www.w3.org/2000/svg">
<rect width="1440" height="96" fill="white"/>
<path d="M426 28C426 22.4772 430.477 18 436 18H1003C1008.52 18 1013 22.4772 1013 28V70C1013 75.5228 1008.52 80 1003 80H436C430.477 80 426 75.5228 426 70V28Z" fill="#D9D9D9"/>
<path d="M606.036 39.6364V60H602.964V39.6364H606.036ZM613.245 50.9318V60H610.272V44.7273H613.126V47.2131H613.315C613.666 46.4044 614.216 45.7547 614.965 45.2642C615.721 44.7737 616.672 44.5284 617.819 44.5284C618.86 44.5284 619.771 44.7472 620.553 45.1847C621.335 45.6155 621.942 46.2585 622.373 47.1136C622.804 47.9687 623.019 49.026 623.019 50.2855V60H620.046V50.6435C620.046 49.5365 619.758 48.6714 619.181 48.0483C618.604 47.4186 617.812 47.1037 616.805 47.1037C616.115 47.1037 615.502 47.2528 614.965 47.5511C614.435 47.8494 614.014 48.2869 613.702 48.8636C613.397 49.4337 613.245 50.1231 613.245 50.9318ZM638.451 48.456L635.756 48.9332C635.644 48.5885 635.465 48.2604 635.219 47.9489C634.981 47.6373 634.656 47.3821 634.245 47.1832C633.834 46.9844 633.32 46.8849 632.704 46.8849C631.862 46.8849 631.159 47.0739 630.596 47.4517C630.032 47.8229 629.751 48.3035 629.751 48.8935C629.751 49.4039 629.94 49.8149 630.317 50.1264C630.695 50.438 631.305 50.6932 632.147 50.892L634.573 51.4489C635.978 51.7737 637.026 52.2741 637.715 52.9503C638.405 53.6264 638.749 54.5047 638.749 55.5852C638.749 56.5 638.484 57.3153 637.954 58.0312C637.43 58.7405 636.698 59.2973 635.756 59.7017C634.822 60.1061 633.738 60.3082 632.505 60.3082C630.795 60.3082 629.399 59.9437 628.319 59.2145C627.238 58.4787 626.576 57.4347 626.33 56.0824L629.204 55.6449C629.383 56.3939 629.751 56.9607 630.308 57.3452C630.864 57.723 631.59 57.9119 632.485 57.9119C633.46 57.9119 634.238 57.7098 634.822 57.3054C635.405 56.8944 635.697 56.3939 635.697 55.804C635.697 55.3267 635.518 54.9257 635.16 54.6009C634.808 54.276 634.268 54.0308 633.539 53.8651L630.954 53.2983C629.529 52.9735 628.475 52.4564 627.792 51.7472C627.116 51.0379 626.778 50.1397 626.778 49.0526C626.778 48.151 627.03 47.3622 627.533 46.6861C628.037 46.0099 628.733 45.483 629.621 45.1051C630.51 44.7206 631.527 44.5284 632.674 44.5284C634.325 44.5284 635.624 44.8864 636.572 45.6023C637.52 46.3116 638.146 47.2628 638.451 48.456ZM648.6 60.3082C647.096 60.3082 645.8 59.9867 644.713 59.3438C643.632 58.6941 642.797 57.7827 642.207 56.6094C641.624 55.4295 641.332 54.0473 641.332 52.4631C641.332 50.8987 641.624 49.5199 642.207 48.3267C642.797 47.1335 643.619 46.2022 644.673 45.5327C645.734 44.8632 646.973 44.5284 648.392 44.5284C649.253 44.5284 650.089 44.6709 650.897 44.956C651.706 45.241 652.432 45.6884 653.075 46.2983C653.718 46.9081 654.225 47.7003 654.596 48.6747C654.967 49.6425 655.153 50.8191 655.153 52.2045V53.2585H643.012V51.0312H652.24C652.24 50.2491 652.081 49.5563 651.762 48.9531C651.444 48.3433 650.997 47.8627 650.42 47.5114C649.85 47.16 649.181 46.9844 648.412 46.9844C647.576 46.9844 646.847 47.1899 646.224 47.6009C645.608 48.0052 645.13 48.5355 644.792 49.1918C644.461 49.8414 644.295 50.5473 644.295 51.3097V53.0497C644.295 54.0705 644.474 54.9389 644.832 55.6548C645.197 56.3707 645.704 56.9176 646.353 57.2955C647.003 57.6667 647.762 57.8523 648.63 57.8523C649.194 57.8523 649.708 57.7727 650.172 57.6136C650.636 57.4479 651.037 57.2027 651.375 56.8778C651.713 56.553 651.971 56.152 652.15 55.6747L654.964 56.1818C654.739 57.0104 654.334 57.7363 653.751 58.3594C653.174 58.9759 652.449 59.4564 651.574 59.8011C650.705 60.1392 649.714 60.3082 648.6 60.3082ZM658.452 60V44.7273H661.325V47.1534H661.484C661.763 46.3314 662.253 45.6851 662.956 45.2145C663.665 44.7372 664.467 44.4986 665.362 44.4986C665.548 44.4986 665.767 44.5052 666.018 44.5185C666.277 44.5317 666.479 44.5483 666.625 44.5682V47.4119C666.506 47.3788 666.294 47.3423 665.989 47.3026C665.684 47.2562 665.379 47.233 665.074 47.233C664.371 47.233 663.745 47.3821 663.195 47.6804C662.651 47.9721 662.22 48.3797 661.902 48.9034C661.584 49.4205 661.425 50.0104 661.425 50.6733V60H658.452ZM677.229 44.7273V47.1136H668.887V44.7273H677.229ZM671.124 41.0682H674.097V55.5156C674.097 56.0923 674.183 56.5265 674.356 56.8182C674.528 57.1032 674.75 57.2988 675.022 57.4048C675.3 57.5043 675.602 57.554 675.927 57.554C676.165 57.554 676.374 57.5374 676.553 57.5043C676.732 57.4711 676.871 57.4446 676.971 57.4247L677.508 59.8807C677.335 59.947 677.09 60.0133 676.772 60.0795C676.454 60.1525 676.056 60.1922 675.579 60.1989C674.797 60.2121 674.067 60.0729 673.391 59.7812C672.715 59.4896 672.168 59.0388 671.751 58.429C671.333 57.8191 671.124 57.0535 671.124 56.1321V41.0682ZM705.08 46.2585H701.978C701.859 45.5956 701.637 45.0123 701.312 44.5085C700.987 44.0047 700.589 43.5772 700.119 43.2259C699.648 42.8745 699.121 42.6094 698.538 42.4304C697.961 42.2514 697.348 42.1619 696.698 42.1619C695.525 42.1619 694.474 42.4569 693.546 43.0469C692.625 43.6368 691.896 44.5019 691.359 45.642C690.828 46.7822 690.563 48.1742 690.563 49.8182C690.563 51.4754 690.828 52.8741 691.359 54.0142C691.896 55.1544 692.628 56.0161 693.556 56.5994C694.484 57.1828 695.528 57.4744 696.688 57.4744C697.331 57.4744 697.941 57.3883 698.518 57.2159C699.101 57.0369 699.628 56.7751 700.099 56.4304C700.569 56.0857 700.967 55.6648 701.292 55.1676C701.623 54.6638 701.852 54.0871 701.978 53.4375L705.08 53.4474C704.915 54.4484 704.593 55.3698 704.116 56.2116C703.645 57.0469 703.039 57.7694 702.296 58.3793C701.56 58.9825 700.719 59.4498 699.771 59.7812C698.823 60.1127 697.789 60.2784 696.668 60.2784C694.905 60.2784 693.334 59.8608 691.955 59.0256C690.576 58.1837 689.489 56.9806 688.694 55.4162C687.905 53.8518 687.511 51.9858 687.511 49.8182C687.511 47.6439 687.908 45.7779 688.704 44.2202C689.499 42.6558 690.586 41.456 691.965 40.6207C693.344 39.7789 694.912 39.358 696.668 39.358C697.749 39.358 698.756 39.5137 699.691 39.8253C700.632 40.1302 701.478 40.581 702.227 41.1776C702.976 41.7675 703.595 42.4901 704.086 43.3452C704.576 44.1937 704.908 45.1648 705.08 46.2585ZM707.752 42.2812V39.6364H723.512V42.2812H717.159V60H714.096V42.2812H707.752ZM726.309 60H723.048L730.376 39.6364H733.925L741.254 60H737.992L732.235 43.3352H732.076L726.309 60ZM726.856 52.0256H737.435V54.6108H726.856V52.0256ZM751.604 60V39.6364H754.677V48.4858H764.829V39.6364H767.911V60H764.829V51.1207H754.677V60H751.604ZM778.729 60.3082C777.225 60.3082 775.929 59.9867 774.842 59.3438C773.761 58.6941 772.926 57.7827 772.336 56.6094C771.753 55.4295 771.461 54.0473 771.461 52.4631C771.461 50.8987 771.753 49.5199 772.336 48.3267C772.926 47.1335 773.748 46.2022 774.802 45.5327C775.862 44.8632 777.102 44.5284 778.521 44.5284C779.382 44.5284 780.218 44.6709 781.026 44.956C781.835 45.241 782.561 45.6884 783.204 46.2983C783.847 46.9081 784.354 47.7003 784.725 48.6747C785.096 49.6425 785.282 50.8191 785.282 52.2045V53.2585H773.141V51.0312H782.369C782.369 50.2491 782.21 49.5563 781.891 48.9531C781.573 48.3433 781.126 47.8627 780.549 47.5114C779.979 47.16 779.309 46.9844 778.54 46.9844C777.705 46.9844 776.976 47.1899 776.353 47.6009C775.737 48.0052 775.259 48.5355 774.921 49.1918C774.59 49.8414 774.424 50.5473 774.424 51.3097V53.0497C774.424 54.0705 774.603 54.9389 774.961 55.6548C775.326 56.3707 775.833 56.9176 776.482 57.2955C777.132 57.6667 777.891 57.8523 778.759 57.8523C779.323 57.8523 779.836 57.7727 780.3 57.6136C780.764 57.4479 781.165 57.2027 781.504 56.8778C781.842 56.553 782.1 56.152 782.279 55.6747L785.093 56.1818C784.868 57.0104 784.463 57.7363 783.88 58.3594C783.303 58.9759 782.577 59.4564 781.702 59.8011C780.834 60.1392 779.843 60.3082 778.729 60.3082ZM788.581 60V44.7273H791.454V47.1534H791.613C791.892 46.3314 792.382 45.6851 793.085 45.2145C793.794 44.7372 794.596 44.4986 795.491 44.4986C795.677 44.4986 795.895 44.5052 796.147 44.5185C796.406 44.5317 796.608 44.5483 796.754 44.5682V47.4119C796.635 47.3788 796.422 47.3423 796.118 47.3026C795.813 47.2562 795.508 47.233 795.203 47.233C794.5 47.233 793.874 47.3821 793.324 47.6804C792.78 47.9721 792.349 48.3797 792.031 48.9034C791.713 49.4205 791.554 50.0104 791.554 50.6733V60H788.581ZM805.362 60.3082C803.857 60.3082 802.562 59.9867 801.474 59.3438C800.394 58.6941 799.559 57.7827 798.969 56.6094C798.385 55.4295 798.094 54.0473 798.094 52.4631C798.094 50.8987 798.385 49.5199 798.969 48.3267C799.559 47.1335 800.381 46.2022 801.435 45.5327C802.495 44.8632 803.735 44.5284 805.153 44.5284C806.015 44.5284 806.85 44.6709 807.659 44.956C808.468 45.241 809.194 45.6884 809.837 46.2983C810.48 46.9081 810.987 47.7003 811.358 48.6747C811.729 49.6425 811.915 50.8191 811.915 52.2045V53.2585H799.774V51.0312H809.001C809.001 50.2491 808.842 49.5563 808.524 48.9531C808.206 48.3433 807.759 47.8627 807.182 47.5114C806.612 47.16 805.942 46.9844 805.173 46.9844C804.338 46.9844 803.609 47.1899 802.986 47.6009C802.369 48.0052 801.892 48.5355 801.554 49.1918C801.223 49.8414 801.057 50.5473 801.057 51.3097V53.0497C801.057 54.0705 801.236 54.9389 801.594 55.6548C801.958 56.3707 802.465 56.9176 803.115 57.2955C803.765 57.6667 804.524 57.8523 805.392 57.8523C805.955 57.8523 806.469 57.7727 806.933 57.6136C807.397 57.4479 807.798 57.2027 808.136 56.8778C808.474 56.553 808.733 56.152 808.912 55.6747L811.726 56.1818C811.5 57.0104 811.096 57.7363 810.513 58.3594C809.936 58.9759 809.21 59.4564 808.335 59.8011C807.467 60.1392 806.476 60.3082 805.362 60.3082ZM836.554 53.0994L823.349 59.5028V56.4602L833.094 52.0256L832.994 52.1946V51.767L833.094 51.946L823.349 47.5014V44.4688L836.554 50.8722V53.0994Z" fill="black"/>
</svg>
