<svg width="1440" height="345" viewBox="0 0 1440 345" fill="none" xmlns="http://www.w3.org/2000/svg">
<rect width="1440" height="345" fill="white"/>
<path d="M313.225 108.369H308.793C308.623 107.422 308.306 106.589 307.842 105.869C307.378 105.15 306.809 104.539 306.137 104.037C305.465 103.535 304.712 103.156 303.879 102.901C303.055 102.645 302.179 102.517 301.251 102.517C299.575 102.517 298.074 102.938 296.748 103.781C295.432 104.624 294.39 105.86 293.623 107.489C292.865 109.117 292.487 111.106 292.487 113.455C292.487 115.822 292.865 117.82 293.623 119.449C294.39 121.078 295.436 122.309 296.762 123.142C298.088 123.975 299.579 124.392 301.237 124.392C302.155 124.392 303.026 124.269 303.85 124.023C304.683 123.767 305.436 123.393 306.109 122.901C306.781 122.408 307.349 121.807 307.813 121.097C308.287 120.377 308.613 119.553 308.793 118.625L313.225 118.639C312.988 120.069 312.529 121.385 311.847 122.588C311.175 123.781 310.308 124.813 309.248 125.685C308.197 126.546 306.994 127.214 305.64 127.688C304.286 128.161 302.808 128.398 301.208 128.398C298.689 128.398 296.445 127.801 294.475 126.608C292.505 125.405 290.952 123.687 289.816 121.452C288.689 119.217 288.126 116.551 288.126 113.455C288.126 110.348 288.694 107.683 289.83 105.457C290.967 103.223 292.52 101.509 294.489 100.315C296.459 99.1127 298.699 98.5114 301.208 98.5114C302.752 98.5114 304.191 98.7339 305.526 99.179C306.871 99.6146 308.078 100.259 309.148 101.111C310.219 101.954 311.104 102.986 311.805 104.207C312.505 105.42 312.979 106.807 313.225 108.369ZM318.136 128V106.182H322.241V109.648H322.469C322.866 108.473 323.567 107.55 324.571 106.878C325.584 106.196 326.73 105.855 328.009 105.855C328.274 105.855 328.586 105.865 328.946 105.884C329.315 105.902 329.604 105.926 329.812 105.955V110.017C329.642 109.97 329.339 109.918 328.903 109.861C328.468 109.795 328.032 109.761 327.597 109.761C326.593 109.761 325.698 109.974 324.912 110.401C324.135 110.817 323.52 111.4 323.065 112.148C322.611 112.886 322.384 113.729 322.384 114.676V128H318.136ZM333.488 128V106.182H337.735V128H333.488ZM335.633 102.815C334.894 102.815 334.26 102.569 333.729 102.077C333.209 101.575 332.948 100.978 332.948 100.287C332.948 99.5862 333.209 98.9896 333.729 98.4972C334.26 97.9953 334.894 97.7443 335.633 97.7443C336.371 97.7443 337.001 97.9953 337.522 98.4972C338.052 98.9896 338.317 99.5862 338.317 100.287C338.317 100.978 338.052 101.575 337.522 102.077C337.001 102.569 336.371 102.815 335.633 102.815ZM359.798 111.509L355.949 112.19C355.788 111.698 355.532 111.229 355.182 110.784C354.841 110.339 354.377 109.974 353.79 109.69C353.203 109.406 352.469 109.264 351.588 109.264C350.385 109.264 349.382 109.534 348.577 110.074C347.772 110.604 347.369 111.291 347.369 112.134C347.369 112.863 347.639 113.45 348.179 113.895C348.719 114.34 349.59 114.705 350.793 114.989L354.259 115.784C356.266 116.248 357.762 116.963 358.747 117.929C359.732 118.895 360.224 120.15 360.224 121.693C360.224 123 359.846 124.165 359.088 125.188C358.34 126.201 357.294 126.996 355.949 127.574C354.614 128.152 353.065 128.44 351.304 128.44C348.861 128.44 346.867 127.92 345.324 126.878C343.78 125.827 342.833 124.335 342.483 122.403L346.588 121.778C346.844 122.848 347.369 123.658 348.165 124.207C348.96 124.747 349.997 125.017 351.276 125.017C352.668 125.017 353.78 124.728 354.614 124.151C355.447 123.563 355.864 122.848 355.864 122.006C355.864 121.324 355.608 120.751 355.097 120.287C354.595 119.823 353.823 119.473 352.781 119.236L349.088 118.426C347.052 117.962 345.546 117.223 344.571 116.21C343.605 115.197 343.122 113.914 343.122 112.361C343.122 111.073 343.482 109.946 344.202 108.98C344.921 108.014 345.916 107.261 347.185 106.722C348.454 106.172 349.907 105.898 351.545 105.898C353.903 105.898 355.759 106.409 357.114 107.432C358.468 108.445 359.363 109.804 359.798 111.509ZM364.894 136.182V106.182H369.042V109.719H369.397C369.643 109.264 369.998 108.739 370.462 108.142C370.926 107.545 371.57 107.025 372.394 106.58C373.218 106.125 374.307 105.898 375.661 105.898C377.423 105.898 378.995 106.343 380.377 107.233C381.76 108.123 382.844 109.406 383.63 111.082C384.425 112.759 384.823 114.776 384.823 117.134C384.823 119.491 384.43 121.513 383.644 123.199C382.858 124.875 381.779 126.168 380.406 127.077C379.032 127.976 377.465 128.426 375.704 128.426C374.378 128.426 373.294 128.204 372.451 127.759C371.618 127.313 370.964 126.793 370.491 126.196C370.017 125.599 369.653 125.069 369.397 124.605H369.141V136.182H364.894ZM369.056 117.091C369.056 118.625 369.279 119.97 369.724 121.125C370.169 122.28 370.813 123.185 371.656 123.838C372.498 124.482 373.531 124.804 374.752 124.804C376.021 124.804 377.082 124.468 377.934 123.795C378.786 123.114 379.43 122.19 379.866 121.026C380.311 119.861 380.533 118.549 380.533 117.091C380.533 115.652 380.316 114.359 379.88 113.213C379.454 112.067 378.81 111.163 377.948 110.5C377.096 109.837 376.031 109.506 374.752 109.506C373.521 109.506 372.479 109.823 371.627 110.457C370.784 111.092 370.145 111.977 369.71 113.114C369.274 114.25 369.056 115.576 369.056 117.091ZM393.829 98.9091V128H389.582V98.9091H393.829ZM402.227 136.182C401.593 136.182 401.015 136.13 400.494 136.026C399.973 135.931 399.585 135.827 399.33 135.713L400.352 132.233C401.129 132.441 401.82 132.531 402.426 132.503C403.032 132.474 403.567 132.247 404.031 131.821C404.505 131.395 404.921 130.699 405.281 129.733L405.807 128.284L397.824 106.182H402.369L407.895 123.114H408.122L413.648 106.182H418.207L409.216 130.912C408.799 132.048 408.269 133.009 407.625 133.795C406.981 134.591 406.214 135.188 405.324 135.585C404.434 135.983 403.402 136.182 402.227 136.182ZM439.134 128.483C437.752 128.483 436.502 128.227 435.384 127.716C434.267 127.195 433.381 126.442 432.728 125.457C432.084 124.473 431.762 123.265 431.762 121.835C431.762 120.604 431.999 119.591 432.472 118.795C432.946 118 433.585 117.37 434.39 116.906C435.195 116.442 436.094 116.092 437.089 115.855C438.083 115.618 439.096 115.438 440.129 115.315C441.435 115.164 442.496 115.041 443.31 114.946C444.125 114.842 444.717 114.676 445.086 114.449C445.455 114.222 445.64 113.852 445.64 113.341V113.241C445.64 112.001 445.29 111.04 444.589 110.358C443.897 109.676 442.865 109.335 441.492 109.335C440.062 109.335 438.935 109.652 438.112 110.287C437.297 110.912 436.734 111.608 436.421 112.375L432.43 111.466C432.903 110.14 433.594 109.07 434.504 108.256C435.422 107.432 436.478 106.835 437.671 106.466C438.864 106.087 440.119 105.898 441.435 105.898C442.307 105.898 443.23 106.002 444.205 106.21C445.19 106.409 446.109 106.778 446.961 107.318C447.823 107.858 448.528 108.63 449.077 109.634C449.627 110.628 449.901 111.92 449.901 113.511V128H445.754V125.017H445.583C445.308 125.566 444.897 126.106 444.347 126.636C443.798 127.167 443.093 127.607 442.231 127.957C441.369 128.308 440.337 128.483 439.134 128.483ZM440.058 125.074C441.232 125.074 442.236 124.842 443.069 124.378C443.912 123.914 444.551 123.308 444.987 122.56C445.432 121.802 445.654 120.992 445.654 120.131V117.318C445.503 117.47 445.209 117.612 444.773 117.744C444.347 117.867 443.86 117.976 443.31 118.071C442.761 118.156 442.226 118.237 441.705 118.312C441.184 118.379 440.749 118.436 440.398 118.483C439.575 118.587 438.822 118.762 438.14 119.009C437.468 119.255 436.928 119.61 436.521 120.074C436.123 120.528 435.924 121.134 435.924 121.892C435.924 122.943 436.312 123.739 437.089 124.278C437.865 124.809 438.855 125.074 440.058 125.074ZM459.805 115.045V128H455.558V106.182H459.635V109.733H459.905C460.407 108.578 461.193 107.65 462.263 106.949C463.342 106.248 464.701 105.898 466.339 105.898C467.826 105.898 469.128 106.21 470.246 106.835C471.363 107.451 472.23 108.369 472.845 109.591C473.461 110.812 473.768 112.323 473.768 114.122V128H469.521V114.634C469.521 113.052 469.109 111.816 468.286 110.926C467.462 110.027 466.33 109.577 464.891 109.577C463.906 109.577 463.03 109.79 462.263 110.216C461.505 110.642 460.904 111.267 460.459 112.091C460.023 112.905 459.805 113.89 459.805 115.045ZM487.632 128.426C485.871 128.426 484.299 127.976 482.916 127.077C481.543 126.168 480.464 124.875 479.678 123.199C478.901 121.513 478.513 119.491 478.513 117.134C478.513 114.776 478.906 112.759 479.692 111.082C480.487 109.406 481.576 108.123 482.959 107.233C484.341 106.343 485.909 105.898 487.661 105.898C489.015 105.898 490.104 106.125 490.928 106.58C491.761 107.025 492.405 107.545 492.859 108.142C493.323 108.739 493.683 109.264 493.939 109.719H494.195V98.9091H498.442V128H494.294V124.605H493.939C493.683 125.069 493.314 125.599 492.831 126.196C492.357 126.793 491.704 127.313 490.871 127.759C490.037 128.204 488.958 128.426 487.632 128.426ZM488.57 124.804C489.791 124.804 490.823 124.482 491.666 123.838C492.518 123.185 493.162 122.28 493.598 121.125C494.043 119.97 494.266 118.625 494.266 117.091C494.266 115.576 494.048 114.25 493.612 113.114C493.177 111.977 492.537 111.092 491.695 110.457C490.852 109.823 489.81 109.506 488.57 109.506C487.291 109.506 486.226 109.837 485.374 110.5C484.521 111.163 483.877 112.067 483.442 113.213C483.016 114.359 482.803 115.652 482.803 117.091C482.803 118.549 483.02 119.861 483.456 121.026C483.892 122.19 484.536 123.114 485.388 123.795C486.25 124.468 487.31 124.804 488.57 124.804ZM524.28 128.44C522.168 128.44 520.35 127.962 518.825 127.006C517.31 126.04 516.145 124.709 515.331 123.014C514.517 121.319 514.109 119.378 514.109 117.19C514.109 114.974 514.526 113.019 515.359 111.324C516.193 109.619 517.367 108.289 518.882 107.332C520.397 106.376 522.182 105.898 524.237 105.898C525.894 105.898 527.372 106.205 528.669 106.821C529.966 107.427 531.013 108.279 531.808 109.378C532.613 110.476 533.091 111.759 533.243 113.227H529.109C528.882 112.205 528.361 111.324 527.547 110.585C526.742 109.847 525.662 109.477 524.308 109.477C523.125 109.477 522.088 109.79 521.197 110.415C520.317 111.03 519.63 111.911 519.138 113.057C518.645 114.193 518.399 115.538 518.399 117.091C518.399 118.682 518.641 120.055 519.124 121.21C519.607 122.366 520.288 123.26 521.169 123.895C522.059 124.529 523.106 124.847 524.308 124.847C525.113 124.847 525.842 124.7 526.496 124.406C527.159 124.103 527.713 123.672 528.158 123.114C528.612 122.555 528.929 121.883 529.109 121.097H533.243C533.091 122.508 532.632 123.767 531.865 124.875C531.098 125.983 530.071 126.854 528.783 127.489C527.504 128.123 526.003 128.44 524.28 128.44ZM542.032 98.9091V128H537.785V98.9091H542.032ZM557.149 128.44C555 128.44 553.148 127.981 551.595 127.062C550.052 126.134 548.858 124.832 548.016 123.156C547.182 121.471 546.766 119.496 546.766 117.233C546.766 114.998 547.182 113.028 548.016 111.324C548.858 109.619 550.033 108.289 551.538 107.332C553.054 106.376 554.824 105.898 556.851 105.898C558.082 105.898 559.275 106.101 560.43 106.509C561.586 106.916 562.623 107.555 563.541 108.426C564.46 109.297 565.184 110.429 565.714 111.821C566.245 113.204 566.51 114.884 566.51 116.864V118.369H549.166V115.188H562.348C562.348 114.07 562.121 113.08 561.666 112.219C561.212 111.348 560.572 110.661 559.749 110.159C558.934 109.657 557.978 109.406 556.879 109.406C555.686 109.406 554.644 109.7 553.754 110.287C552.874 110.865 552.192 111.622 551.709 112.56C551.235 113.488 550.999 114.496 550.999 115.585V118.071C550.999 119.529 551.254 120.77 551.766 121.793C552.286 122.815 553.011 123.597 553.939 124.136C554.867 124.667 555.951 124.932 557.192 124.932C557.997 124.932 558.731 124.818 559.393 124.591C560.056 124.354 560.629 124.004 561.112 123.54C561.595 123.076 561.964 122.503 562.22 121.821L566.24 122.545C565.918 123.729 565.34 124.766 564.507 125.656C563.683 126.537 562.646 127.223 561.396 127.716C560.156 128.199 558.74 128.44 557.149 128.44ZM577.572 128.483C576.189 128.483 574.939 128.227 573.822 127.716C572.704 127.195 571.819 126.442 571.165 125.457C570.522 124.473 570.2 123.265 570.2 121.835C570.2 120.604 570.436 119.591 570.91 118.795C571.383 118 572.022 117.37 572.827 116.906C573.632 116.442 574.532 116.092 575.526 115.855C576.521 115.618 577.534 115.438 578.566 115.315C579.873 115.164 580.933 115.041 581.748 114.946C582.562 114.842 583.154 114.676 583.523 114.449C583.893 114.222 584.077 113.852 584.077 113.341V113.241C584.077 112.001 583.727 111.04 583.026 110.358C582.335 109.676 581.303 109.335 579.93 109.335C578.5 109.335 577.373 109.652 576.549 110.287C575.735 110.912 575.171 111.608 574.859 112.375L570.867 111.466C571.341 110.14 572.032 109.07 572.941 108.256C573.86 107.432 574.915 106.835 576.109 106.466C577.302 106.087 578.557 105.898 579.873 105.898C580.744 105.898 581.667 106.002 582.643 106.21C583.628 106.409 584.546 106.778 585.398 107.318C586.26 107.858 586.966 108.63 587.515 109.634C588.064 110.628 588.339 111.92 588.339 113.511V128H584.191V125.017H584.021C583.746 125.566 583.334 126.106 582.785 126.636C582.236 127.167 581.53 127.607 580.668 127.957C579.807 128.308 578.774 128.483 577.572 128.483ZM578.495 125.074C579.669 125.074 580.673 124.842 581.506 124.378C582.349 123.914 582.988 123.308 583.424 122.56C583.869 121.802 584.092 120.992 584.092 120.131V117.318C583.94 117.47 583.647 117.612 583.211 117.744C582.785 117.867 582.297 117.976 581.748 118.071C581.199 118.156 580.664 118.237 580.143 118.312C579.622 118.379 579.186 118.436 578.836 118.483C578.012 118.587 577.259 118.762 576.577 119.009C575.905 119.255 575.365 119.61 574.958 120.074C574.56 120.528 574.362 121.134 574.362 121.892C574.362 122.943 574.75 123.739 575.526 124.278C576.303 124.809 577.292 125.074 578.495 125.074ZM593.996 128V106.182H598.101V109.648H598.328C598.726 108.473 599.427 107.55 600.43 106.878C601.444 106.196 602.589 105.855 603.868 105.855C604.133 105.855 604.446 105.865 604.805 105.884C605.175 105.902 605.464 105.926 605.672 105.955V110.017C605.501 109.97 605.198 109.918 604.763 109.861C604.327 109.795 603.892 109.761 603.456 109.761C602.452 109.761 601.557 109.974 600.771 110.401C599.995 110.817 599.379 111.4 598.925 112.148C598.47 112.886 598.243 113.729 598.243 114.676V128H593.996ZM613.594 98.9091V128H609.347V98.9091H613.594ZM621.993 136.182C621.358 136.182 620.781 136.13 620.26 136.026C619.739 135.931 619.351 135.827 619.095 135.713L620.118 132.233C620.894 132.441 621.586 132.531 622.192 132.503C622.798 132.474 623.333 132.247 623.797 131.821C624.27 131.395 624.687 130.699 625.047 129.733L625.572 128.284L617.589 106.182H622.135L627.661 123.114H627.888L633.413 106.182H637.973L628.982 130.912C628.565 132.048 628.035 133.009 627.391 133.795C626.747 134.591 625.98 135.188 625.089 135.585C624.199 135.983 623.167 136.182 621.993 136.182ZM661.741 128.44C659.629 128.44 657.811 127.962 656.286 127.006C654.771 126.04 653.606 124.709 652.792 123.014C651.978 121.319 651.57 119.378 651.57 117.19C651.57 114.974 651.987 113.019 652.82 111.324C653.654 109.619 654.828 108.289 656.343 107.332C657.858 106.376 659.643 105.898 661.698 105.898C663.355 105.898 664.833 106.205 666.13 106.821C667.427 107.427 668.474 108.279 669.269 109.378C670.074 110.476 670.552 111.759 670.704 113.227H666.57C666.343 112.205 665.822 111.324 665.008 110.585C664.203 109.847 663.123 109.477 661.769 109.477C660.585 109.477 659.549 109.79 658.658 110.415C657.778 111.03 657.091 111.911 656.599 113.057C656.106 114.193 655.86 115.538 655.86 117.091C655.86 118.682 656.102 120.055 656.585 121.21C657.067 122.366 657.749 123.26 658.63 123.895C659.52 124.529 660.567 124.847 661.769 124.847C662.574 124.847 663.303 124.7 663.957 124.406C664.62 124.103 665.174 123.672 665.619 123.114C666.073 122.555 666.39 121.883 666.57 121.097H670.704C670.552 122.508 670.093 123.767 669.326 124.875C668.559 125.983 667.531 126.854 666.244 127.489C664.965 128.123 663.464 128.44 661.741 128.44ZM684.436 128.44C682.391 128.44 680.606 127.972 679.081 127.034C677.556 126.097 676.373 124.785 675.53 123.099C674.687 121.414 674.266 119.444 674.266 117.19C674.266 114.927 674.687 112.948 675.53 111.253C676.373 109.558 677.556 108.241 679.081 107.304C680.606 106.366 682.391 105.898 684.436 105.898C686.482 105.898 688.267 106.366 689.791 107.304C691.316 108.241 692.5 109.558 693.342 111.253C694.185 112.948 694.607 114.927 694.607 117.19C694.607 119.444 694.185 121.414 693.342 123.099C692.5 124.785 691.316 126.097 689.791 127.034C688.267 127.972 686.482 128.44 684.436 128.44ZM684.45 124.875C685.776 124.875 686.875 124.525 687.746 123.824C688.617 123.123 689.261 122.19 689.678 121.026C690.104 119.861 690.317 118.578 690.317 117.176C690.317 115.784 690.104 114.506 689.678 113.341C689.261 112.167 688.617 111.224 687.746 110.514C686.875 109.804 685.776 109.449 684.45 109.449C683.115 109.449 682.007 109.804 681.126 110.514C680.255 111.224 679.607 112.167 679.18 113.341C678.764 114.506 678.555 115.784 678.555 117.176C678.555 118.578 678.764 119.861 679.18 121.026C679.607 122.19 680.255 123.123 681.126 123.824C682.007 124.525 683.115 124.875 684.45 124.875ZM699.347 128V106.182H703.424V109.733H703.694C704.148 108.53 704.892 107.593 705.924 106.92C706.956 106.239 708.192 105.898 709.631 105.898C711.09 105.898 712.311 106.239 713.296 106.92C714.29 107.602 715.024 108.54 715.498 109.733H715.725C716.246 108.568 717.075 107.64 718.211 106.949C719.347 106.248 720.701 105.898 722.273 105.898C724.253 105.898 725.867 106.518 727.117 107.759C728.377 108.999 729.006 110.869 729.006 113.369V128H724.759V113.767C724.759 112.29 724.357 111.22 723.552 110.557C722.747 109.894 721.786 109.562 720.668 109.562C719.286 109.562 718.211 109.989 717.444 110.841C716.677 111.684 716.293 112.768 716.293 114.094V128H712.06V113.497C712.06 112.313 711.691 111.362 710.952 110.642C710.214 109.922 709.253 109.562 708.069 109.562C707.264 109.562 706.521 109.776 705.839 110.202C705.166 110.618 704.622 111.201 704.205 111.949C703.798 112.697 703.594 113.563 703.594 114.548V128H699.347ZM734.699 128V106.182H738.776V109.733H739.045C739.5 108.53 740.243 107.593 741.276 106.92C742.308 106.239 743.544 105.898 744.983 105.898C746.441 105.898 747.663 106.239 748.648 106.92C749.642 107.602 750.376 108.54 750.849 109.733H751.077C751.598 108.568 752.426 107.64 753.562 106.949C754.699 106.248 756.053 105.898 757.625 105.898C759.604 105.898 761.219 106.518 762.469 107.759C763.728 108.999 764.358 110.869 764.358 113.369V128H760.111V113.767C760.111 112.29 759.708 111.22 758.903 110.557C758.098 109.894 757.137 109.562 756.02 109.562C754.637 109.562 753.562 109.989 752.795 110.841C752.028 111.684 751.645 112.768 751.645 114.094V128H747.412V113.497C747.412 112.313 747.043 111.362 746.304 110.642C745.565 109.922 744.604 109.562 743.42 109.562C742.616 109.562 741.872 109.776 741.19 110.202C740.518 110.618 739.973 111.201 739.557 111.949C739.15 112.697 738.946 113.563 738.946 114.548V128H734.699ZM783.871 118.952V106.182H788.133V128H783.957V124.222H783.729C783.228 125.386 782.423 126.357 781.315 127.134C780.216 127.901 778.848 128.284 777.21 128.284C775.808 128.284 774.567 127.976 773.488 127.361C772.418 126.736 771.575 125.812 770.96 124.591C770.353 123.369 770.05 121.859 770.05 120.06V106.182H774.298V119.548C774.298 121.035 774.71 122.219 775.533 123.099C776.357 123.98 777.427 124.42 778.744 124.42C779.539 124.42 780.33 124.222 781.116 123.824C781.911 123.426 782.569 122.825 783.09 122.02C783.621 121.215 783.881 120.192 783.871 118.952ZM798.087 115.045V128H793.839V106.182H797.916V109.733H798.186C798.688 108.578 799.474 107.65 800.544 106.949C801.624 106.248 802.982 105.898 804.621 105.898C806.107 105.898 807.41 106.21 808.527 106.835C809.644 107.451 810.511 108.369 811.126 109.591C811.742 110.812 812.05 112.323 812.05 114.122V128H807.803V114.634C807.803 113.052 807.391 111.816 806.567 110.926C805.743 110.027 804.611 109.577 803.172 109.577C802.187 109.577 801.311 109.79 800.544 110.216C799.786 110.642 799.185 111.267 798.74 112.091C798.304 112.905 798.087 113.89 798.087 115.045ZM817.746 128V106.182H821.993V128H817.746ZM819.891 102.815C819.152 102.815 818.518 102.569 817.987 102.077C817.466 101.575 817.206 100.978 817.206 100.287C817.206 99.5862 817.466 98.9896 817.987 98.4972C818.518 97.9953 819.152 97.7443 819.891 97.7443C820.629 97.7443 821.259 97.9953 821.78 98.4972C822.31 98.9896 822.575 99.5862 822.575 100.287C822.575 100.978 822.31 101.575 821.78 102.077C821.259 102.569 820.629 102.815 819.891 102.815ZM836.897 128.44C834.785 128.44 832.967 127.962 831.442 127.006C829.927 126.04 828.763 124.709 827.948 123.014C827.134 121.319 826.727 119.378 826.727 117.19C826.727 114.974 827.143 113.019 827.977 111.324C828.81 109.619 829.984 108.289 831.499 107.332C833.014 106.376 834.799 105.898 836.854 105.898C838.512 105.898 839.989 106.205 841.286 106.821C842.584 107.427 843.63 108.279 844.425 109.378C845.23 110.476 845.709 111.759 845.86 113.227H841.727C841.499 112.205 840.978 111.324 840.164 110.585C839.359 109.847 838.28 109.477 836.925 109.477C835.742 109.477 834.705 109.79 833.815 110.415C832.934 111.03 832.247 111.911 831.755 113.057C831.263 114.193 831.016 115.538 831.016 117.091C831.016 118.682 831.258 120.055 831.741 121.21C832.224 122.366 832.906 123.26 833.786 123.895C834.676 124.529 835.723 124.847 836.925 124.847C837.73 124.847 838.46 124.7 839.113 124.406C839.776 124.103 840.33 123.672 840.775 123.114C841.229 122.555 841.547 121.883 841.727 121.097H845.86C845.709 122.508 845.249 123.767 844.482 124.875C843.715 125.983 842.688 126.854 841.4 127.489C840.121 128.123 838.621 128.44 836.897 128.44ZM856.751 128.483C855.369 128.483 854.119 128.227 853.001 127.716C851.884 127.195 850.999 126.442 850.345 125.457C849.701 124.473 849.379 123.265 849.379 121.835C849.379 120.604 849.616 119.591 850.089 118.795C850.563 118 851.202 117.37 852.007 116.906C852.812 116.442 853.712 116.092 854.706 115.855C855.7 115.618 856.714 115.438 857.746 115.315C859.053 115.164 860.113 115.041 860.928 114.946C861.742 114.842 862.334 114.676 862.703 114.449C863.072 114.222 863.257 113.852 863.257 113.341V113.241C863.257 112.001 862.907 111.04 862.206 110.358C861.515 109.676 860.482 109.335 859.109 109.335C857.679 109.335 856.553 109.652 855.729 110.287C854.914 110.912 854.351 111.608 854.038 112.375L850.047 111.466C850.52 110.14 851.212 109.07 852.121 108.256C853.039 107.432 854.095 106.835 855.288 106.466C856.482 106.087 857.736 105.898 859.053 105.898C859.924 105.898 860.847 106.002 861.822 106.21C862.807 106.409 863.726 106.778 864.578 107.318C865.44 107.858 866.145 108.63 866.695 109.634C867.244 110.628 867.518 111.92 867.518 113.511V128H863.371V125.017H863.2C862.926 125.566 862.514 126.106 861.964 126.636C861.415 127.167 860.71 127.607 859.848 127.957C858.986 128.308 857.954 128.483 856.751 128.483ZM857.675 125.074C858.849 125.074 859.853 124.842 860.686 124.378C861.529 123.914 862.168 123.308 862.604 122.56C863.049 121.802 863.271 120.992 863.271 120.131V117.318C863.12 117.47 862.826 117.612 862.391 117.744C861.964 117.867 861.477 117.976 860.928 118.071C860.378 118.156 859.843 118.237 859.322 118.312C858.802 118.379 858.366 118.436 858.016 118.483C857.192 118.587 856.439 118.762 855.757 119.009C855.085 119.255 854.545 119.61 854.138 120.074C853.74 120.528 853.541 121.134 853.541 121.892C853.541 122.943 853.929 123.739 854.706 124.278C855.482 124.809 856.472 125.074 857.675 125.074ZM883.36 106.182V109.591H871.442V106.182H883.36ZM874.638 100.955H878.886V121.594C878.886 122.418 879.009 123.038 879.255 123.455C879.501 123.862 879.818 124.141 880.207 124.293C880.604 124.435 881.035 124.506 881.499 124.506C881.84 124.506 882.138 124.482 882.394 124.435C882.65 124.387 882.849 124.349 882.991 124.321L883.758 127.83C883.512 127.924 883.161 128.019 882.707 128.114C882.252 128.218 881.684 128.275 881.002 128.284C879.885 128.303 878.843 128.104 877.877 127.688C876.911 127.271 876.13 126.627 875.533 125.756C874.937 124.884 874.638 123.791 874.638 122.474V100.955ZM897.227 128.44C895.078 128.44 893.226 127.981 891.673 127.062C890.13 126.134 888.937 124.832 888.094 123.156C887.26 121.471 886.844 119.496 886.844 117.233C886.844 114.998 887.26 113.028 888.094 111.324C888.937 109.619 890.111 108.289 891.616 107.332C893.132 106.376 894.902 105.898 896.929 105.898C898.16 105.898 899.353 106.101 900.509 106.509C901.664 106.916 902.701 107.555 903.619 108.426C904.538 109.297 905.262 110.429 905.793 111.821C906.323 113.204 906.588 114.884 906.588 116.864V118.369H889.244V115.188H902.426C902.426 114.07 902.199 113.08 901.744 112.219C901.29 111.348 900.651 110.661 899.827 110.159C899.012 109.657 898.056 109.406 896.957 109.406C895.764 109.406 894.723 109.7 893.832 110.287C892.952 110.865 892.27 111.622 891.787 112.56C891.313 113.488 891.077 114.496 891.077 115.585V118.071C891.077 119.529 891.332 120.77 891.844 121.793C892.365 122.815 893.089 123.597 894.017 124.136C894.945 124.667 896.029 124.932 897.27 124.932C898.075 124.932 898.809 124.818 899.472 124.591C900.134 124.354 900.707 124.004 901.19 123.54C901.673 123.076 902.043 122.503 902.298 121.821L906.318 122.545C905.996 123.729 905.419 124.766 904.585 125.656C903.761 126.537 902.724 127.223 901.474 127.716C900.234 128.199 898.818 128.44 897.227 128.44ZM924.571 136.182C923.937 136.182 923.359 136.13 922.838 136.026C922.317 135.931 921.929 135.827 921.673 135.713L922.696 132.233C923.473 132.441 924.164 132.531 924.77 132.503C925.376 132.474 925.911 132.247 926.375 131.821C926.848 131.395 927.265 130.699 927.625 129.733L928.151 128.284L920.168 106.182H924.713L930.239 123.114H930.466L935.991 106.182H940.551L931.56 130.912C931.143 132.048 930.613 133.009 929.969 133.795C929.325 134.591 928.558 135.188 927.668 135.585C926.777 135.983 925.745 136.182 924.571 136.182ZM952.991 128.44C950.945 128.44 949.16 127.972 947.636 127.034C946.111 126.097 944.927 124.785 944.085 123.099C943.242 121.414 942.82 119.444 942.82 117.19C942.82 114.927 943.242 112.948 944.085 111.253C944.927 109.558 946.111 108.241 947.636 107.304C949.16 106.366 950.945 105.898 952.991 105.898C955.036 105.898 956.821 106.366 958.346 107.304C959.871 108.241 961.054 109.558 961.897 111.253C962.74 112.948 963.161 114.927 963.161 117.19C963.161 119.444 962.74 121.414 961.897 123.099C961.054 124.785 959.871 126.097 958.346 127.034C956.821 127.972 955.036 128.44 952.991 128.44ZM953.005 124.875C954.331 124.875 955.429 124.525 956.3 123.824C957.172 123.123 957.816 122.19 958.232 121.026C958.658 119.861 958.871 118.578 958.871 117.176C958.871 115.784 958.658 114.506 958.232 113.341C957.816 112.167 957.172 111.224 956.3 110.514C955.429 109.804 954.331 109.449 953.005 109.449C951.67 109.449 950.562 109.804 949.681 110.514C948.81 111.224 948.161 112.167 947.735 113.341C947.318 114.506 947.11 115.784 947.11 117.176C947.11 118.578 947.318 119.861 947.735 121.026C948.161 122.19 948.81 123.123 949.681 123.824C950.562 124.525 951.67 124.875 953.005 124.875ZM981.723 118.952V106.182H985.984V128H981.808V124.222H981.581C981.079 125.386 980.274 126.357 979.166 127.134C978.068 127.901 976.699 128.284 975.061 128.284C973.66 128.284 972.419 127.976 971.339 127.361C970.269 126.736 969.427 125.812 968.811 124.591C968.205 123.369 967.902 121.859 967.902 120.06V106.182H972.149V119.548C972.149 121.035 972.561 122.219 973.385 123.099C974.209 123.98 975.279 124.42 976.595 124.42C977.391 124.42 978.181 124.222 978.967 123.824C979.763 123.426 980.421 122.825 980.942 122.02C981.472 121.215 981.732 120.192 981.723 118.952ZM991.691 128V106.182H995.796V109.648H996.023C996.421 108.473 997.122 107.55 998.126 106.878C999.139 106.196 1000.28 105.855 1001.56 105.855C1001.83 105.855 1002.14 105.865 1002.5 105.884C1002.87 105.902 1003.16 105.926 1003.37 105.955V110.017C1003.2 109.97 1002.89 109.918 1002.46 109.861C1002.02 109.795 1001.59 109.761 1001.15 109.761C1000.15 109.761 999.253 109.974 998.467 110.401C997.69 110.817 997.075 111.4 996.62 112.148C996.165 112.886 995.938 113.729 995.938 114.676V128H991.691ZM1017.97 128V98.9091H1022.22V109.719H1022.47C1022.72 109.264 1023.07 108.739 1023.54 108.142C1024 107.545 1024.65 107.025 1025.47 106.58C1026.29 106.125 1027.38 105.898 1028.74 105.898C1030.5 105.898 1032.07 106.343 1033.45 107.233C1034.83 108.123 1035.92 109.406 1036.71 111.082C1037.5 112.759 1037.9 114.776 1037.9 117.134C1037.9 119.491 1037.51 121.513 1036.72 123.199C1035.93 124.875 1034.85 126.168 1033.48 127.077C1032.11 127.976 1030.54 128.426 1028.78 128.426C1027.45 128.426 1026.37 128.204 1025.53 127.759C1024.69 127.313 1024.04 126.793 1023.57 126.196C1023.09 125.599 1022.73 125.069 1022.47 124.605H1022.12V128H1017.97ZM1022.13 117.091C1022.13 118.625 1022.35 119.97 1022.8 121.125C1023.24 122.28 1023.89 123.185 1024.73 123.838C1025.57 124.482 1026.61 124.804 1027.83 124.804C1029.1 124.804 1030.16 124.468 1031.01 123.795C1031.86 123.114 1032.51 122.19 1032.94 121.026C1033.39 119.861 1033.61 118.549 1033.61 117.091C1033.61 115.652 1033.39 114.359 1032.96 113.213C1032.53 112.067 1031.89 111.163 1031.02 110.5C1030.17 109.837 1029.11 109.506 1027.83 109.506C1026.6 109.506 1025.55 109.823 1024.7 110.457C1023.86 111.092 1023.22 111.977 1022.78 113.114C1022.35 114.25 1022.13 115.576 1022.13 117.091ZM1042.67 128V106.182H1046.77V109.648H1047C1047.4 108.473 1048.1 107.55 1049.1 106.878C1050.12 106.196 1051.26 105.855 1052.54 105.855C1052.8 105.855 1053.12 105.865 1053.48 105.884C1053.85 105.902 1054.14 105.926 1054.34 105.955V110.017C1054.17 109.97 1053.87 109.918 1053.43 109.861C1053 109.795 1052.56 109.761 1052.13 109.761C1051.12 109.761 1050.23 109.974 1049.44 110.401C1048.67 110.817 1048.05 111.4 1047.6 112.148C1047.14 112.886 1046.91 113.729 1046.91 114.676V128H1042.67ZM1064.17 128.483C1062.79 128.483 1061.54 128.227 1060.42 127.716C1059.31 127.195 1058.42 126.442 1057.77 125.457C1057.12 124.473 1056.8 123.265 1056.8 121.835C1056.8 120.604 1057.04 119.591 1057.51 118.795C1057.98 118 1058.62 117.37 1059.43 116.906C1060.23 116.442 1061.13 116.092 1062.13 115.855C1063.12 115.618 1064.14 115.438 1065.17 115.315C1066.47 115.164 1067.54 115.041 1068.35 114.946C1069.16 114.842 1069.76 114.676 1070.12 114.449C1070.49 114.222 1070.68 113.852 1070.68 113.341V113.241C1070.68 112.001 1070.33 111.04 1069.63 110.358C1068.94 109.676 1067.9 109.335 1066.53 109.335C1065.1 109.335 1063.97 109.652 1063.15 110.287C1062.34 110.912 1061.77 111.608 1061.46 112.375L1057.47 111.466C1057.94 110.14 1058.63 109.07 1059.54 108.256C1060.46 107.432 1061.52 106.835 1062.71 106.466C1063.9 106.087 1065.16 105.898 1066.47 105.898C1067.35 105.898 1068.27 106.002 1069.24 106.21C1070.23 106.409 1071.15 106.778 1072 107.318C1072.86 107.858 1073.57 108.63 1074.12 109.634C1074.67 110.628 1074.94 111.92 1074.94 113.511V128H1070.79V125.017H1070.62C1070.35 125.566 1069.94 126.106 1069.39 126.636C1068.84 127.167 1068.13 127.607 1067.27 127.957C1066.41 128.308 1065.38 128.483 1064.17 128.483ZM1065.1 125.074C1066.27 125.074 1067.27 124.842 1068.11 124.378C1068.95 123.914 1069.59 123.308 1070.03 122.56C1070.47 121.802 1070.69 120.992 1070.69 120.131V117.318C1070.54 117.47 1070.25 117.612 1069.81 117.744C1069.39 117.867 1068.9 117.976 1068.35 118.071C1067.8 118.156 1067.27 118.237 1066.74 118.312C1066.22 118.379 1065.79 118.436 1065.44 118.483C1064.61 118.587 1063.86 118.762 1063.18 119.009C1062.51 119.255 1061.97 119.61 1061.56 120.074C1061.16 120.528 1060.96 121.134 1060.96 121.892C1060.96 122.943 1061.35 123.739 1062.13 124.278C1062.9 124.809 1063.89 125.074 1065.1 125.074ZM1084.84 115.045V128H1080.6V106.182H1084.67V109.733H1084.94C1085.45 108.578 1086.23 107.65 1087.3 106.949C1088.38 106.248 1089.74 105.898 1091.38 105.898C1092.87 105.898 1094.17 106.21 1095.28 106.835C1096.4 107.451 1097.27 108.369 1097.88 109.591C1098.5 110.812 1098.81 112.323 1098.81 114.122V128H1094.56V114.634C1094.56 113.052 1094.15 111.816 1093.32 110.926C1092.5 110.027 1091.37 109.577 1089.93 109.577C1088.94 109.577 1088.07 109.79 1087.3 110.216C1086.54 110.642 1085.94 111.267 1085.5 112.091C1085.06 112.905 1084.84 113.89 1084.84 115.045ZM1112.67 128.426C1110.91 128.426 1109.34 127.976 1107.96 127.077C1106.58 126.168 1105.5 124.875 1104.72 123.199C1103.94 121.513 1103.55 119.491 1103.55 117.134C1103.55 114.776 1103.94 112.759 1104.73 111.082C1105.53 109.406 1106.62 108.123 1108 107.233C1109.38 106.343 1110.95 105.898 1112.7 105.898C1114.05 105.898 1115.14 106.125 1115.97 106.58C1116.8 107.025 1117.44 107.545 1117.9 108.142C1118.36 108.739 1118.72 109.264 1118.98 109.719H1119.23V98.9091H1123.48V128H1119.33V124.605H1118.98C1118.72 125.069 1118.35 125.599 1117.87 126.196C1117.4 126.793 1116.74 127.313 1115.91 127.759C1115.08 128.204 1114 128.426 1112.67 128.426ZM1113.61 124.804C1114.83 124.804 1115.86 124.482 1116.71 123.838C1117.56 123.185 1118.2 122.28 1118.64 121.125C1119.08 119.97 1119.3 118.625 1119.3 117.091C1119.3 115.576 1119.09 114.25 1118.65 113.114C1118.22 111.977 1117.58 111.092 1116.73 110.457C1115.89 109.823 1114.85 109.506 1113.61 109.506C1112.33 109.506 1111.26 109.837 1110.41 110.5C1109.56 111.163 1108.92 112.067 1108.48 113.213C1108.05 114.359 1107.84 115.652 1107.84 117.091C1107.84 118.549 1108.06 119.861 1108.5 121.026C1108.93 122.19 1109.57 123.114 1110.43 123.795C1111.29 124.468 1112.35 124.804 1113.61 124.804ZM1133.19 98.9091V101.636C1133.19 102.441 1133.04 103.289 1132.74 104.179C1132.45 105.06 1132.03 105.907 1131.49 106.722C1130.95 107.536 1130.31 108.237 1129.59 108.824L1127.48 107.318C1128.04 106.504 1128.52 105.637 1128.93 104.719C1129.35 103.8 1129.56 102.787 1129.56 101.679V98.9091H1133.19ZM1150.89 111.509L1147.04 112.19C1146.88 111.698 1146.63 111.229 1146.28 110.784C1145.93 110.339 1145.47 109.974 1144.88 109.69C1144.3 109.406 1143.56 109.264 1142.68 109.264C1141.48 109.264 1140.48 109.534 1139.67 110.074C1138.87 110.604 1138.46 111.291 1138.46 112.134C1138.46 112.863 1138.73 113.45 1139.27 113.895C1139.81 114.34 1140.68 114.705 1141.89 114.989L1145.35 115.784C1147.36 116.248 1148.86 116.963 1149.84 117.929C1150.83 118.895 1151.32 120.15 1151.32 121.693C1151.32 123 1150.94 124.165 1150.18 125.188C1149.43 126.201 1148.39 126.996 1147.04 127.574C1145.71 128.152 1144.16 128.44 1142.4 128.44C1139.95 128.44 1137.96 127.92 1136.42 126.878C1134.87 125.827 1133.93 124.335 1133.58 122.403L1137.68 121.778C1137.94 122.848 1138.46 123.658 1139.26 124.207C1140.05 124.747 1141.09 125.017 1142.37 125.017C1143.76 125.017 1144.87 124.728 1145.71 124.151C1146.54 123.563 1146.96 122.848 1146.96 122.006C1146.96 121.324 1146.7 120.751 1146.19 120.287C1145.69 119.823 1144.92 119.473 1143.88 119.236L1140.18 118.426C1138.15 117.962 1136.64 117.223 1135.66 116.21C1134.7 115.197 1134.22 113.914 1134.22 112.361C1134.22 111.073 1134.58 109.946 1135.3 108.98C1136.02 108.014 1137.01 107.261 1138.28 106.722C1139.55 106.172 1141 105.898 1142.64 105.898C1145 105.898 1146.85 106.409 1148.21 107.432C1149.56 108.445 1150.46 109.804 1150.89 111.509ZM268.644 184V162.182H272.721V165.733H272.991C273.445 164.53 274.189 163.593 275.221 162.92C276.253 162.239 277.489 161.898 278.928 161.898C280.387 161.898 281.608 162.239 282.593 162.92C283.587 163.602 284.321 164.54 284.795 165.733H285.022C285.543 164.568 286.371 163.64 287.508 162.949C288.644 162.248 289.998 161.898 291.57 161.898C293.549 161.898 295.164 162.518 296.414 163.759C297.674 164.999 298.303 166.869 298.303 169.369V184H294.056V169.767C294.056 168.29 293.654 167.22 292.849 166.557C292.044 165.894 291.083 165.562 289.965 165.562C288.583 165.562 287.508 165.989 286.741 166.841C285.974 167.684 285.59 168.768 285.59 170.094V184H281.357V169.497C281.357 168.313 280.988 167.362 280.249 166.642C279.511 165.922 278.549 165.562 277.366 165.562C276.561 165.562 275.817 165.776 275.136 166.202C274.463 166.618 273.919 167.201 273.502 167.949C273.095 168.697 272.891 169.563 272.891 170.548V184H268.644ZM313.399 184.44C311.25 184.44 309.398 183.981 307.845 183.062C306.302 182.134 305.108 180.832 304.266 179.156C303.432 177.471 303.016 175.496 303.016 173.233C303.016 170.998 303.432 169.028 304.266 167.324C305.108 165.619 306.283 164.289 307.788 163.332C309.304 162.376 311.074 161.898 313.101 161.898C314.332 161.898 315.525 162.101 316.68 162.509C317.836 162.916 318.873 163.555 319.791 164.426C320.71 165.297 321.434 166.429 321.964 167.821C322.495 169.204 322.76 170.884 322.76 172.864V174.369H305.416V171.188H318.598C318.598 170.07 318.371 169.08 317.916 168.219C317.462 167.348 316.822 166.661 315.999 166.159C315.184 165.657 314.228 165.406 313.129 165.406C311.936 165.406 310.894 165.7 310.004 166.287C309.124 166.865 308.442 167.622 307.959 168.56C307.485 169.488 307.249 170.496 307.249 171.585V174.071C307.249 175.529 307.504 176.77 308.016 177.793C308.536 178.815 309.261 179.597 310.189 180.136C311.117 180.667 312.201 180.932 313.442 180.932C314.247 180.932 314.981 180.818 315.643 180.591C316.306 180.354 316.879 180.004 317.362 179.54C317.845 179.076 318.214 178.503 318.47 177.821L322.49 178.545C322.168 179.729 321.59 180.766 320.757 181.656C319.933 182.537 318.896 183.223 317.646 183.716C316.406 184.199 314.99 184.44 313.399 184.44ZM343.822 167.509L339.972 168.19C339.811 167.698 339.556 167.229 339.205 166.784C338.864 166.339 338.4 165.974 337.813 165.69C337.226 165.406 336.492 165.264 335.612 165.264C334.409 165.264 333.405 165.534 332.6 166.074C331.795 166.604 331.393 167.291 331.393 168.134C331.393 168.863 331.663 169.45 332.202 169.895C332.742 170.34 333.613 170.705 334.816 170.989L338.282 171.784C340.29 172.248 341.786 172.963 342.771 173.929C343.755 174.895 344.248 176.15 344.248 177.693C344.248 179 343.869 180.165 343.112 181.188C342.363 182.201 341.317 182.996 339.972 183.574C338.637 184.152 337.089 184.44 335.327 184.44C332.884 184.44 330.891 183.92 329.347 182.878C327.804 181.827 326.857 180.335 326.506 178.403L330.612 177.778C330.867 178.848 331.393 179.658 332.188 180.207C332.984 180.747 334.021 181.017 335.299 181.017C336.691 181.017 337.804 180.728 338.637 180.151C339.47 179.563 339.887 178.848 339.887 178.006C339.887 177.324 339.631 176.751 339.12 176.287C338.618 175.823 337.846 175.473 336.805 175.236L333.112 174.426C331.076 173.962 329.57 173.223 328.594 172.21C327.629 171.197 327.146 169.914 327.146 168.361C327.146 167.073 327.505 165.946 328.225 164.98C328.945 164.014 329.939 163.261 331.208 162.722C332.477 162.172 333.931 161.898 335.569 161.898C337.927 161.898 339.783 162.409 341.137 163.432C342.491 164.445 343.386 165.804 343.822 167.509ZM365.267 167.509L361.418 168.19C361.257 167.698 361.001 167.229 360.651 166.784C360.31 166.339 359.846 165.974 359.259 165.69C358.671 165.406 357.938 165.264 357.057 165.264C355.854 165.264 354.85 165.534 354.045 166.074C353.241 166.604 352.838 167.291 352.838 168.134C352.838 168.863 353.108 169.45 353.648 169.895C354.188 170.34 355.059 170.705 356.261 170.989L359.727 171.784C361.735 172.248 363.231 172.963 364.216 173.929C365.201 174.895 365.693 176.15 365.693 177.693C365.693 179 365.314 180.165 364.557 181.188C363.809 182.201 362.762 182.996 361.418 183.574C360.082 184.152 358.534 184.44 356.773 184.44C354.33 184.44 352.336 183.92 350.793 182.878C349.249 181.827 348.302 180.335 347.952 178.403L352.057 177.778C352.313 178.848 352.838 179.658 353.634 180.207C354.429 180.747 355.466 181.017 356.744 181.017C358.136 181.017 359.249 180.728 360.082 180.151C360.916 179.563 361.332 178.848 361.332 178.006C361.332 177.324 361.077 176.751 360.565 176.287C360.063 175.823 359.292 175.473 358.25 175.236L354.557 174.426C352.521 173.962 351.015 173.223 350.04 172.21C349.074 171.197 348.591 169.914 348.591 168.361C348.591 167.073 348.951 165.946 349.67 164.98C350.39 164.014 351.384 163.261 352.653 162.722C353.922 162.172 355.376 161.898 357.014 161.898C359.372 161.898 361.228 162.409 362.582 163.432C363.937 164.445 364.831 165.804 365.267 167.509ZM376.712 184.483C375.33 184.483 374.08 184.227 372.962 183.716C371.845 183.195 370.96 182.442 370.306 181.457C369.662 180.473 369.34 179.265 369.34 177.835C369.34 176.604 369.577 175.591 370.05 174.795C370.524 174 371.163 173.37 371.968 172.906C372.773 172.442 373.673 172.092 374.667 171.855C375.661 171.618 376.674 171.438 377.707 171.315C379.013 171.164 380.074 171.041 380.888 170.946C381.703 170.842 382.295 170.676 382.664 170.449C383.033 170.222 383.218 169.852 383.218 169.341V169.241C383.218 168.001 382.868 167.04 382.167 166.358C381.476 165.676 380.443 165.335 379.07 165.335C377.64 165.335 376.513 165.652 375.69 166.287C374.875 166.912 374.312 167.608 373.999 168.375L370.008 167.466C370.481 166.14 371.173 165.07 372.082 164.256C373 163.432 374.056 162.835 375.249 162.466C376.442 162.087 377.697 161.898 379.013 161.898C379.885 161.898 380.808 162.002 381.783 162.21C382.768 162.409 383.687 162.778 384.539 163.318C385.401 163.858 386.106 164.63 386.656 165.634C387.205 166.628 387.479 167.92 387.479 169.511V184H383.332V181.017H383.161C382.887 181.566 382.475 182.106 381.925 182.636C381.376 183.167 380.671 183.607 379.809 183.957C378.947 184.308 377.915 184.483 376.712 184.483ZM377.636 181.074C378.81 181.074 379.814 180.842 380.647 180.378C381.49 179.914 382.129 179.308 382.565 178.56C383.01 177.802 383.232 176.992 383.232 176.131V173.318C383.081 173.47 382.787 173.612 382.352 173.744C381.925 173.867 381.438 173.976 380.888 174.071C380.339 174.156 379.804 174.237 379.283 174.312C378.763 174.379 378.327 174.436 377.977 174.483C377.153 174.587 376.4 174.762 375.718 175.009C375.046 175.255 374.506 175.61 374.099 176.074C373.701 176.528 373.502 177.134 373.502 177.892C373.502 178.943 373.89 179.739 374.667 180.278C375.443 180.809 376.433 181.074 377.636 181.074ZM402.284 192.636C400.551 192.636 399.06 192.409 397.81 191.955C396.569 191.5 395.556 190.899 394.77 190.151C393.984 189.402 393.397 188.583 393.009 187.693L396.659 186.188C396.915 186.604 397.256 187.045 397.682 187.509C398.117 187.982 398.705 188.384 399.443 188.716C400.191 189.047 401.152 189.213 402.327 189.213C403.937 189.213 405.267 188.82 406.318 188.034C407.369 187.258 407.895 186.017 407.895 184.312V180.023H407.625C407.369 180.487 407 181.003 406.517 181.571C406.044 182.139 405.39 182.632 404.557 183.048C403.723 183.465 402.639 183.673 401.304 183.673C399.58 183.673 398.027 183.271 396.645 182.466C395.272 181.652 394.183 180.454 393.378 178.872C392.582 177.281 392.185 175.326 392.185 173.006C392.185 170.686 392.578 168.697 393.364 167.04C394.159 165.383 395.248 164.114 396.631 163.233C398.013 162.343 399.58 161.898 401.332 161.898C402.687 161.898 403.78 162.125 404.614 162.58C405.447 163.025 406.096 163.545 406.56 164.142C407.033 164.739 407.398 165.264 407.653 165.719H407.966V162.182H412.128V184.483C412.128 186.358 411.692 187.897 410.821 189.099C409.95 190.302 408.771 191.192 407.284 191.77C405.807 192.348 404.14 192.636 402.284 192.636ZM402.241 180.151C403.463 180.151 404.495 179.866 405.338 179.298C406.19 178.721 406.834 177.897 407.27 176.827C407.715 175.747 407.938 174.455 407.938 172.949C407.938 171.481 407.72 170.188 407.284 169.071C406.848 167.954 406.209 167.082 405.366 166.457C404.524 165.823 403.482 165.506 402.241 165.506C400.963 165.506 399.898 165.837 399.045 166.5C398.193 167.153 397.549 168.044 397.114 169.17C396.688 170.297 396.474 171.557 396.474 172.949C396.474 174.379 396.692 175.634 397.128 176.713C397.563 177.793 398.207 178.635 399.06 179.241C399.921 179.848 400.982 180.151 402.241 180.151ZM427.227 184.44C425.078 184.44 423.226 183.981 421.673 183.062C420.13 182.134 418.937 180.832 418.094 179.156C417.26 177.471 416.844 175.496 416.844 173.233C416.844 170.998 417.26 169.028 418.094 167.324C418.937 165.619 420.111 164.289 421.616 163.332C423.132 162.376 424.902 161.898 426.929 161.898C428.16 161.898 429.353 162.101 430.509 162.509C431.664 162.916 432.701 163.555 433.619 164.426C434.538 165.297 435.262 166.429 435.793 167.821C436.323 169.204 436.588 170.884 436.588 172.864V174.369H419.244V171.188H432.426C432.426 170.07 432.199 169.08 431.744 168.219C431.29 167.348 430.651 166.661 429.827 166.159C429.012 165.657 428.056 165.406 426.957 165.406C425.764 165.406 424.723 165.7 423.832 166.287C422.952 166.865 422.27 167.622 421.787 168.56C421.313 169.488 421.077 170.496 421.077 171.585V174.071C421.077 175.529 421.332 176.77 421.844 177.793C422.365 178.815 423.089 179.597 424.017 180.136C424.945 180.667 426.029 180.932 427.27 180.932C428.075 180.932 428.809 180.818 429.472 180.591C430.134 180.354 430.707 180.004 431.19 179.54C431.673 179.076 432.043 178.503 432.298 177.821L436.318 178.545C435.996 179.729 435.419 180.766 434.585 181.656C433.761 182.537 432.724 183.223 431.474 183.716C430.234 184.199 428.818 184.44 427.227 184.44ZM458.236 184.483C456.853 184.483 455.603 184.227 454.486 183.716C453.368 183.195 452.483 182.442 451.83 181.457C451.186 180.473 450.864 179.265 450.864 177.835C450.864 176.604 451.1 175.591 451.574 174.795C452.047 174 452.687 173.37 453.491 172.906C454.296 172.442 455.196 172.092 456.19 171.855C457.185 171.618 458.198 171.438 459.23 171.315C460.537 171.164 461.598 171.041 462.412 170.946C463.226 170.842 463.818 170.676 464.188 170.449C464.557 170.222 464.741 169.852 464.741 169.341V169.241C464.741 168.001 464.391 167.04 463.69 166.358C462.999 165.676 461.967 165.335 460.594 165.335C459.164 165.335 458.037 165.652 457.213 166.287C456.399 166.912 455.835 167.608 455.523 168.375L451.531 167.466C452.005 166.14 452.696 165.07 453.605 164.256C454.524 163.432 455.58 162.835 456.773 162.466C457.966 162.087 459.221 161.898 460.537 161.898C461.408 161.898 462.331 162.002 463.307 162.21C464.292 162.409 465.21 162.778 466.062 163.318C466.924 163.858 467.63 164.63 468.179 165.634C468.728 166.628 469.003 167.92 469.003 169.511V184H464.855V181.017H464.685C464.41 181.566 463.998 182.106 463.449 182.636C462.9 183.167 462.194 183.607 461.332 183.957C460.471 184.308 459.438 184.483 458.236 184.483ZM459.159 181.074C460.333 181.074 461.337 180.842 462.17 180.378C463.013 179.914 463.652 179.308 464.088 178.56C464.533 177.802 464.756 176.992 464.756 176.131V173.318C464.604 173.47 464.311 173.612 463.875 173.744C463.449 173.867 462.961 173.976 462.412 174.071C461.863 174.156 461.328 174.237 460.807 174.312C460.286 174.379 459.85 174.436 459.5 174.483C458.676 174.587 457.923 174.762 457.241 175.009C456.569 175.255 456.029 175.61 455.622 176.074C455.224 176.528 455.026 177.134 455.026 177.892C455.026 178.943 455.414 179.739 456.19 180.278C456.967 180.809 457.956 181.074 459.159 181.074ZM478.907 171.045V184H474.66V162.182H478.737V165.733H479.006C479.508 164.578 480.294 163.65 481.364 162.949C482.444 162.248 483.803 161.898 485.441 161.898C486.928 161.898 488.23 162.21 489.347 162.835C490.465 163.451 491.331 164.369 491.947 165.591C492.562 166.812 492.87 168.323 492.87 170.122V184H488.623V170.634C488.623 169.052 488.211 167.816 487.387 166.926C486.563 166.027 485.432 165.577 483.992 165.577C483.007 165.577 482.131 165.79 481.364 166.216C480.607 166.642 480.005 167.267 479.56 168.091C479.125 168.905 478.907 169.89 478.907 171.045ZM506.734 184.426C504.972 184.426 503.4 183.976 502.018 183.077C500.645 182.168 499.565 180.875 498.779 179.199C498.003 177.513 497.614 175.491 497.614 173.134C497.614 170.776 498.007 168.759 498.793 167.082C499.589 165.406 500.678 164.123 502.06 163.233C503.443 162.343 505.01 161.898 506.762 161.898C508.116 161.898 509.205 162.125 510.029 162.58C510.862 163.025 511.506 163.545 511.961 164.142C512.425 164.739 512.785 165.264 513.04 165.719H513.296V154.909H517.543V184H513.396V180.605H513.04C512.785 181.069 512.415 181.599 511.933 182.196C511.459 182.793 510.806 183.313 509.972 183.759C509.139 184.204 508.059 184.426 506.734 184.426ZM507.671 180.804C508.893 180.804 509.925 180.482 510.768 179.838C511.62 179.185 512.264 178.28 512.7 177.125C513.145 175.97 513.367 174.625 513.367 173.091C513.367 171.576 513.149 170.25 512.714 169.114C512.278 167.977 511.639 167.092 510.796 166.457C509.953 165.823 508.912 165.506 507.671 165.506C506.393 165.506 505.327 165.837 504.475 166.5C503.623 167.163 502.979 168.067 502.543 169.213C502.117 170.359 501.904 171.652 501.904 173.091C501.904 174.549 502.122 175.861 502.558 177.026C502.993 178.19 503.637 179.114 504.489 179.795C505.351 180.468 506.412 180.804 507.671 180.804ZM538.921 184L532.501 162.182H536.89L541.165 178.205H541.379L545.668 162.182H550.058L554.319 178.134H554.532L558.779 162.182H563.168L556.762 184H552.43L547.998 168.247H547.671L543.239 184H538.921ZM571.446 171.045V184H567.199V154.909H571.389V165.733H571.659C572.17 164.559 572.952 163.626 574.003 162.935C575.054 162.243 576.427 161.898 578.122 161.898C579.618 161.898 580.925 162.205 582.043 162.821C583.17 163.437 584.041 164.355 584.656 165.577C585.281 166.789 585.594 168.304 585.594 170.122V184H581.347V170.634C581.347 169.033 580.935 167.793 580.111 166.912C579.287 166.022 578.141 165.577 576.673 165.577C575.67 165.577 574.77 165.79 573.974 166.216C573.188 166.642 572.568 167.267 572.114 168.091C571.669 168.905 571.446 169.89 571.446 171.045ZM597.611 184.483C596.228 184.483 594.978 184.227 593.861 183.716C592.743 183.195 591.858 182.442 591.205 181.457C590.561 180.473 590.239 179.265 590.239 177.835C590.239 176.604 590.475 175.591 590.949 174.795C591.422 174 592.062 173.37 592.866 172.906C593.671 172.442 594.571 172.092 595.565 171.855C596.56 171.618 597.573 171.438 598.605 171.315C599.912 171.164 600.973 171.041 601.787 170.946C602.601 170.842 603.193 170.676 603.562 170.449C603.932 170.222 604.116 169.852 604.116 169.341V169.241C604.116 168.001 603.766 167.04 603.065 166.358C602.374 165.676 601.342 165.335 599.969 165.335C598.539 165.335 597.412 165.652 596.588 166.287C595.774 166.912 595.21 167.608 594.898 168.375L590.906 167.466C591.38 166.14 592.071 165.07 592.98 164.256C593.899 163.432 594.955 162.835 596.148 162.466C597.341 162.087 598.596 161.898 599.912 161.898C600.783 161.898 601.706 162.002 602.682 162.21C603.667 162.409 604.585 162.778 605.438 163.318C606.299 163.858 607.005 164.63 607.554 165.634C608.103 166.628 608.378 167.92 608.378 169.511V184H604.23V181.017H604.06C603.785 181.566 603.373 182.106 602.824 182.636C602.275 183.167 601.569 183.607 600.707 183.957C599.846 184.308 598.813 184.483 597.611 184.483ZM598.534 181.074C599.708 181.074 600.712 180.842 601.545 180.378C602.388 179.914 603.027 179.308 603.463 178.56C603.908 177.802 604.131 176.992 604.131 176.131V173.318C603.979 173.47 603.686 173.612 603.25 173.744C602.824 173.867 602.336 173.976 601.787 174.071C601.238 174.156 600.703 174.237 600.182 174.312C599.661 174.379 599.225 174.436 598.875 174.483C598.051 174.587 597.298 174.762 596.616 175.009C595.944 175.255 595.404 175.61 594.997 176.074C594.599 176.528 594.401 177.134 594.401 177.892C594.401 178.943 594.789 179.739 595.565 180.278C596.342 180.809 597.331 181.074 598.534 181.074ZM624.219 162.182V165.591H612.302V162.182H624.219ZM615.498 156.955H619.745V177.594C619.745 178.418 619.868 179.038 620.114 179.455C620.361 179.862 620.678 180.141 621.066 180.293C621.464 180.435 621.895 180.506 622.359 180.506C622.7 180.506 622.998 180.482 623.254 180.435C623.509 180.387 623.708 180.349 623.85 180.321L624.617 183.83C624.371 183.924 624.021 184.019 623.566 184.114C623.112 184.218 622.543 184.275 621.862 184.284C620.744 184.303 619.702 184.104 618.737 183.688C617.771 183.271 616.989 182.627 616.393 181.756C615.796 180.884 615.498 179.791 615.498 178.474V156.955ZM639.504 184V162.182H643.751V184H639.504ZM641.648 158.815C640.91 158.815 640.275 158.569 639.745 158.077C639.224 157.575 638.964 156.978 638.964 156.287C638.964 155.586 639.224 154.99 639.745 154.497C640.275 153.995 640.91 153.744 641.648 153.744C642.387 153.744 643.017 153.995 643.538 154.497C644.068 154.99 644.333 155.586 644.333 156.287C644.333 156.978 644.068 157.575 643.538 158.077C643.017 158.569 642.387 158.815 641.648 158.815ZM659.649 162.182V165.591H647.732V162.182H659.649ZM650.928 156.955H655.175V177.594C655.175 178.418 655.298 179.038 655.544 179.455C655.79 179.862 656.107 180.141 656.496 180.293C656.893 180.435 657.324 180.506 657.788 180.506C658.129 180.506 658.428 180.482 658.683 180.435C658.939 180.387 659.138 180.349 659.28 180.321L660.047 183.83C659.801 183.924 659.45 184.019 658.996 184.114C658.541 184.218 657.973 184.275 657.291 184.284C656.174 184.303 655.132 184.104 654.166 183.688C653.2 183.271 652.419 182.627 651.822 181.756C651.226 180.884 650.928 179.791 650.928 178.474V156.955ZM691.283 167.509L687.433 168.19C687.272 167.698 687.017 167.229 686.666 166.784C686.325 166.339 685.861 165.974 685.274 165.69C684.687 165.406 683.953 165.264 683.072 165.264C681.87 165.264 680.866 165.534 680.061 166.074C679.256 166.604 678.854 167.291 678.854 168.134C678.854 168.863 679.124 169.45 679.663 169.895C680.203 170.34 681.074 170.705 682.277 170.989L685.743 171.784C687.75 172.248 689.247 172.963 690.232 173.929C691.216 174.895 691.709 176.15 691.709 177.693C691.709 179 691.33 180.165 690.572 181.188C689.824 182.201 688.778 182.996 687.433 183.574C686.098 184.152 684.55 184.44 682.788 184.44C680.345 184.44 678.352 183.92 676.808 182.878C675.265 181.827 674.318 180.335 673.967 178.403L678.072 177.778C678.328 178.848 678.854 179.658 679.649 180.207C680.445 180.747 681.482 181.017 682.76 181.017C684.152 181.017 685.265 180.728 686.098 180.151C686.931 179.563 687.348 178.848 687.348 178.006C687.348 177.324 687.092 176.751 686.581 176.287C686.079 175.823 685.307 175.473 684.266 175.236L680.572 174.426C678.536 173.962 677.031 173.223 676.055 172.21C675.089 171.197 674.607 169.914 674.607 168.361C674.607 167.073 674.966 165.946 675.686 164.98C676.406 164.014 677.4 163.261 678.669 162.722C679.938 162.172 681.392 161.898 683.03 161.898C685.388 161.898 687.244 162.409 688.598 163.432C689.952 164.445 690.847 165.804 691.283 167.509ZM706.563 162.182V165.591H694.646V162.182H706.563ZM697.842 156.955H702.089V177.594C702.089 178.418 702.212 179.038 702.458 179.455C702.704 179.862 703.022 180.141 703.41 180.293C703.808 180.435 704.238 180.506 704.702 180.506C705.043 180.506 705.342 180.482 705.597 180.435C705.853 180.387 706.052 180.349 706.194 180.321L706.961 183.83C706.715 183.924 706.364 184.019 705.91 184.114C705.455 184.218 704.887 184.275 704.205 184.284C703.088 184.303 702.046 184.104 701.08 183.688C700.114 183.271 699.333 182.627 698.737 181.756C698.14 180.884 697.842 179.791 697.842 178.474V156.955ZM717.611 184.483C716.228 184.483 714.978 184.227 713.861 183.716C712.743 183.195 711.858 182.442 711.205 181.457C710.561 180.473 710.239 179.265 710.239 177.835C710.239 176.604 710.475 175.591 710.949 174.795C711.422 174 712.062 173.37 712.866 172.906C713.671 172.442 714.571 172.092 715.565 171.855C716.56 171.618 717.573 171.438 718.605 171.315C719.912 171.164 720.973 171.041 721.787 170.946C722.601 170.842 723.193 170.676 723.562 170.449C723.932 170.222 724.116 169.852 724.116 169.341V169.241C724.116 168.001 723.766 167.04 723.065 166.358C722.374 165.676 721.342 165.335 719.969 165.335C718.539 165.335 717.412 165.652 716.588 166.287C715.774 166.912 715.21 167.608 714.898 168.375L710.906 167.466C711.38 166.14 712.071 165.07 712.98 164.256C713.899 163.432 714.955 162.835 716.148 162.466C717.341 162.087 718.596 161.898 719.912 161.898C720.783 161.898 721.706 162.002 722.682 162.21C723.667 162.409 724.585 162.778 725.438 163.318C726.299 163.858 727.005 164.63 727.554 165.634C728.103 166.628 728.378 167.92 728.378 169.511V184H724.23V181.017H724.06C723.785 181.566 723.373 182.106 722.824 182.636C722.275 183.167 721.569 183.607 720.707 183.957C719.846 184.308 718.813 184.483 717.611 184.483ZM718.534 181.074C719.708 181.074 720.712 180.842 721.545 180.378C722.388 179.914 723.027 179.308 723.463 178.56C723.908 177.802 724.131 176.992 724.131 176.131V173.318C723.979 173.47 723.686 173.612 723.25 173.744C722.824 173.867 722.336 173.976 721.787 174.071C721.238 174.156 720.703 174.237 720.182 174.312C719.661 174.379 719.225 174.436 718.875 174.483C718.051 174.587 717.298 174.762 716.616 175.009C715.944 175.255 715.404 175.61 714.997 176.074C714.599 176.528 714.401 177.134 714.401 177.892C714.401 178.943 714.789 179.739 715.565 180.278C716.342 180.809 717.331 181.074 718.534 181.074ZM738.282 171.045V184H734.035V162.182H738.112V165.733H738.381C738.883 164.578 739.669 163.65 740.739 162.949C741.819 162.248 743.178 161.898 744.816 161.898C746.303 161.898 747.605 162.21 748.722 162.835C749.84 163.451 750.706 164.369 751.322 165.591C751.937 166.812 752.245 168.323 752.245 170.122V184H747.998V170.634C747.998 169.052 747.586 167.816 746.762 166.926C745.938 166.027 744.807 165.577 743.367 165.577C742.382 165.577 741.506 165.79 740.739 166.216C739.982 166.642 739.38 167.267 738.935 168.091C738.5 168.905 738.282 169.89 738.282 171.045ZM766.109 184.426C764.347 184.426 762.775 183.976 761.393 183.077C760.02 182.168 758.94 180.875 758.154 179.199C757.378 177.513 756.989 175.491 756.989 173.134C756.989 170.776 757.382 168.759 758.168 167.082C758.964 165.406 760.053 164.123 761.435 163.233C762.818 162.343 764.385 161.898 766.137 161.898C767.491 161.898 768.58 162.125 769.404 162.58C770.237 163.025 770.881 163.545 771.336 164.142C771.8 164.739 772.16 165.264 772.415 165.719H772.671V154.909H776.918V184H772.771V180.605H772.415C772.16 181.069 771.79 181.599 771.308 182.196C770.834 182.793 770.181 183.313 769.347 183.759C768.514 184.204 767.434 184.426 766.109 184.426ZM767.046 180.804C768.268 180.804 769.3 180.482 770.143 179.838C770.995 179.185 771.639 178.28 772.075 177.125C772.52 175.97 772.742 174.625 772.742 173.091C772.742 171.576 772.524 170.25 772.089 169.114C771.653 167.977 771.014 167.092 770.171 166.457C769.328 165.823 768.287 165.506 767.046 165.506C765.768 165.506 764.702 165.837 763.85 166.5C762.998 167.163 762.354 168.067 761.918 169.213C761.492 170.359 761.279 171.652 761.279 173.091C761.279 174.549 761.497 175.861 761.933 177.026C762.368 178.19 763.012 179.114 763.864 179.795C764.726 180.468 765.787 180.804 767.046 180.804ZM799.33 167.509L795.48 168.19C795.319 167.698 795.063 167.229 794.713 166.784C794.372 166.339 793.908 165.974 793.321 165.69C792.734 165.406 792 165.264 791.119 165.264C789.917 165.264 788.913 165.534 788.108 166.074C787.303 166.604 786.901 167.291 786.901 168.134C786.901 168.863 787.17 169.45 787.71 169.895C788.25 170.34 789.121 170.705 790.324 170.989L793.79 171.784C795.797 172.248 797.294 172.963 798.278 173.929C799.263 174.895 799.756 176.15 799.756 177.693C799.756 179 799.377 180.165 798.619 181.188C797.871 182.201 796.825 182.996 795.48 183.574C794.145 184.152 792.597 184.44 790.835 184.44C788.392 184.44 786.399 183.92 784.855 182.878C783.312 181.827 782.365 180.335 782.014 178.403L786.119 177.778C786.375 178.848 786.901 179.658 787.696 180.207C788.491 180.747 789.528 181.017 790.807 181.017C792.199 181.017 793.312 180.728 794.145 180.151C794.978 179.563 795.395 178.848 795.395 178.006C795.395 177.324 795.139 176.751 794.628 176.287C794.126 175.823 793.354 175.473 792.312 175.236L788.619 174.426C786.583 173.962 785.078 173.223 784.102 172.21C783.136 171.197 782.653 169.914 782.653 168.361C782.653 167.073 783.013 165.946 783.733 164.98C784.453 164.014 785.447 163.261 786.716 162.722C787.985 162.172 789.438 161.898 791.077 161.898C793.435 161.898 795.291 162.409 796.645 163.432C797.999 164.445 798.894 165.804 799.33 167.509ZM825.395 162.182V165.591H813.065V162.182H825.395ZM816.446 184V159.653C816.446 158.29 816.744 157.158 817.341 156.259C817.938 155.349 818.728 154.672 819.713 154.227C820.698 153.773 821.768 153.545 822.923 153.545C823.776 153.545 824.505 153.616 825.111 153.759C825.717 153.891 826.167 154.014 826.46 154.128L825.466 157.565C825.267 157.509 825.011 157.442 824.699 157.366C824.386 157.281 824.008 157.239 823.562 157.239C822.53 157.239 821.792 157.494 821.347 158.006C820.911 158.517 820.693 159.256 820.693 160.222V184H816.446ZM838.108 184.44C836.063 184.44 834.277 183.972 832.753 183.034C831.228 182.097 830.045 180.785 829.202 179.099C828.359 177.414 827.938 175.444 827.938 173.19C827.938 170.927 828.359 168.948 829.202 167.253C830.045 165.558 831.228 164.241 832.753 163.304C834.277 162.366 836.063 161.898 838.108 161.898C840.153 161.898 841.938 162.366 843.463 163.304C844.988 164.241 846.171 165.558 847.014 167.253C847.857 168.948 848.278 170.927 848.278 173.19C848.278 175.444 847.857 177.414 847.014 179.099C846.171 180.785 844.988 182.097 843.463 183.034C841.938 183.972 840.153 184.44 838.108 184.44ZM838.122 180.875C839.448 180.875 840.546 180.525 841.418 179.824C842.289 179.123 842.933 178.19 843.349 177.026C843.776 175.861 843.989 174.578 843.989 173.176C843.989 171.784 843.776 170.506 843.349 169.341C842.933 168.167 842.289 167.224 841.418 166.514C840.546 165.804 839.448 165.449 838.122 165.449C836.787 165.449 835.679 165.804 834.798 166.514C833.927 167.224 833.278 168.167 832.852 169.341C832.436 170.506 832.227 171.784 832.227 173.176C832.227 174.578 832.436 175.861 832.852 177.026C833.278 178.19 833.927 179.123 834.798 179.824C835.679 180.525 836.787 180.875 838.122 180.875ZM853.019 184V162.182H857.124V165.648H857.352C857.749 164.473 858.45 163.55 859.454 162.878C860.467 162.196 861.613 161.855 862.891 161.855C863.156 161.855 863.469 161.865 863.829 161.884C864.198 161.902 864.487 161.926 864.695 161.955V166.017C864.525 165.97 864.222 165.918 863.786 165.861C863.351 165.795 862.915 165.761 862.479 165.761C861.476 165.761 860.581 165.974 859.795 166.401C859.018 166.817 858.403 167.4 857.948 168.148C857.494 168.886 857.266 169.729 857.266 170.676V184H853.019ZM871.396 180.023L871.183 181.571C871.041 182.707 870.8 183.891 870.459 185.122C870.127 186.363 869.782 187.513 869.422 188.574C869.071 189.634 868.783 190.477 868.555 191.102H865.544C865.667 190.515 865.838 189.72 866.055 188.716C866.273 187.722 866.486 186.609 866.695 185.378C866.903 184.147 867.059 182.892 867.163 181.614L867.305 180.023H871.396ZM887.511 184V162.182H891.759V184H887.511ZM889.656 158.815C888.918 158.815 888.283 158.569 887.753 158.077C887.232 157.575 886.972 156.978 886.972 156.287C886.972 155.586 887.232 154.99 887.753 154.497C888.283 153.995 888.918 153.744 889.656 153.744C890.395 153.744 891.025 153.995 891.545 154.497C892.076 154.99 892.341 155.586 892.341 156.287C892.341 156.978 892.076 157.575 891.545 158.077C891.025 158.569 890.395 158.815 889.656 158.815ZM901.719 171.045V184H897.472V162.182H901.549V165.733H901.819C902.321 164.578 903.107 163.65 904.177 162.949C905.256 162.248 906.615 161.898 908.254 161.898C909.74 161.898 911.042 162.21 912.16 162.835C913.277 163.451 914.144 164.369 914.759 165.591C915.375 166.812 915.683 168.323 915.683 170.122V184H911.435V170.634C911.435 169.052 911.023 167.816 910.2 166.926C909.376 166.027 908.244 165.577 906.805 165.577C905.82 165.577 904.944 165.79 904.177 166.216C903.419 166.642 902.818 167.267 902.373 168.091C901.937 168.905 901.719 169.89 901.719 171.045ZM941.155 184.44C939.109 184.44 937.324 183.972 935.8 183.034C934.275 182.097 933.091 180.785 932.249 179.099C931.406 177.414 930.984 175.444 930.984 173.19C930.984 170.927 931.406 168.948 932.249 167.253C933.091 165.558 934.275 164.241 935.8 163.304C937.324 162.366 939.109 161.898 941.155 161.898C943.2 161.898 944.985 162.366 946.51 163.304C948.035 164.241 949.218 165.558 950.061 167.253C950.904 168.948 951.325 170.927 951.325 173.19C951.325 175.444 950.904 177.414 950.061 179.099C949.218 180.785 948.035 182.097 946.51 183.034C944.985 183.972 943.2 184.44 941.155 184.44ZM941.169 180.875C942.495 180.875 943.593 180.525 944.464 179.824C945.336 179.123 945.98 178.19 946.396 177.026C946.822 175.861 947.036 174.578 947.036 173.176C947.036 171.784 946.822 170.506 946.396 169.341C945.98 168.167 945.336 167.224 944.464 166.514C943.593 165.804 942.495 165.449 941.169 165.449C939.834 165.449 938.726 165.804 937.845 166.514C936.974 167.224 936.325 168.167 935.899 169.341C935.482 170.506 935.274 171.784 935.274 173.176C935.274 174.578 935.482 175.861 935.899 177.026C936.325 178.19 936.974 179.123 937.845 179.824C938.726 180.525 939.834 180.875 941.169 180.875ZM960.313 171.045V184H956.066V162.182H960.143V165.733H960.413C960.915 164.578 961.701 163.65 962.771 162.949C963.85 162.248 965.209 161.898 966.847 161.898C968.334 161.898 969.636 162.21 970.754 162.835C971.871 163.451 972.737 164.369 973.353 165.591C973.969 166.812 974.276 168.323 974.276 170.122V184H970.029V170.634C970.029 169.052 969.617 167.816 968.793 166.926C967.969 166.027 966.838 165.577 965.398 165.577C964.414 165.577 963.538 165.79 962.771 166.216C962.013 166.642 961.412 167.267 960.967 168.091C960.531 168.905 960.313 169.89 960.313 171.045ZM989.376 184.44C987.226 184.44 985.375 183.981 983.822 183.062C982.278 182.134 981.085 180.832 980.242 179.156C979.409 177.471 978.992 175.496 978.992 173.233C978.992 170.998 979.409 169.028 980.242 167.324C981.085 165.619 982.259 164.289 983.765 163.332C985.28 162.376 987.051 161.898 989.077 161.898C990.308 161.898 991.502 162.101 992.657 162.509C993.812 162.916 994.849 163.555 995.768 164.426C996.686 165.297 997.411 166.429 997.941 167.821C998.471 169.204 998.737 170.884 998.737 172.864V174.369H981.393V171.188H994.575C994.575 170.07 994.347 169.08 993.893 168.219C993.438 167.348 992.799 166.661 991.975 166.159C991.161 165.657 990.204 165.406 989.106 165.406C987.913 165.406 986.871 165.7 985.981 166.287C985.1 166.865 984.418 167.622 983.935 168.56C983.462 169.488 983.225 170.496 983.225 171.585V174.071C983.225 175.529 983.481 176.77 983.992 177.793C984.513 178.815 985.237 179.597 986.165 180.136C987.094 180.667 988.178 180.932 989.418 180.932C990.223 180.932 990.957 180.818 991.62 180.591C992.283 180.354 992.856 180.004 993.339 179.54C993.822 179.076 994.191 178.503 994.447 177.821L998.467 178.545C998.145 179.729 997.567 180.766 996.734 181.656C995.91 182.537 994.873 183.223 993.623 183.716C992.382 184.199 990.967 184.44 989.376 184.44ZM1014.38 184V154.909H1018.62V165.719H1018.88C1019.12 165.264 1019.48 164.739 1019.94 164.142C1020.41 163.545 1021.05 163.025 1021.88 162.58C1022.7 162.125 1023.79 161.898 1025.14 161.898C1026.9 161.898 1028.48 162.343 1029.86 163.233C1031.24 164.123 1032.33 165.406 1033.11 167.082C1033.91 168.759 1034.3 170.776 1034.3 173.134C1034.3 175.491 1033.91 177.513 1033.13 179.199C1032.34 180.875 1031.26 182.168 1029.89 183.077C1028.51 183.976 1026.95 184.426 1025.19 184.426C1023.86 184.426 1022.78 184.204 1021.93 183.759C1021.1 183.313 1020.45 182.793 1019.97 182.196C1019.5 181.599 1019.13 181.069 1018.88 180.605H1018.52V184H1014.38ZM1018.54 173.091C1018.54 174.625 1018.76 175.97 1019.21 177.125C1019.65 178.28 1020.29 179.185 1021.14 179.838C1021.98 180.482 1023.01 180.804 1024.23 180.804C1025.5 180.804 1026.56 180.468 1027.42 179.795C1028.27 179.114 1028.91 178.19 1029.35 177.026C1029.79 175.861 1030.01 174.549 1030.01 173.091C1030.01 171.652 1029.8 170.359 1029.36 169.213C1028.94 168.067 1028.29 167.163 1027.43 166.5C1026.58 165.837 1025.51 165.506 1024.23 165.506C1023 165.506 1021.96 165.823 1021.11 166.457C1020.27 167.092 1019.63 167.977 1019.19 169.114C1018.76 170.25 1018.54 171.576 1018.54 173.091ZM1048.26 184.44C1046.22 184.44 1044.43 183.972 1042.91 183.034C1041.38 182.097 1040.2 180.785 1039.36 179.099C1038.52 177.414 1038.09 175.444 1038.09 173.19C1038.09 170.927 1038.52 168.948 1039.36 167.253C1040.2 165.558 1041.38 164.241 1042.91 163.304C1044.43 162.366 1046.22 161.898 1048.26 161.898C1050.31 161.898 1052.09 162.366 1053.62 163.304C1055.14 164.241 1056.33 165.558 1057.17 167.253C1058.01 168.948 1058.43 170.927 1058.43 173.19C1058.43 175.444 1058.01 177.414 1057.17 179.099C1056.33 180.785 1055.14 182.097 1053.62 183.034C1052.09 183.972 1050.31 184.44 1048.26 184.44ZM1048.28 180.875C1049.6 180.875 1050.7 180.525 1051.57 179.824C1052.45 179.123 1053.09 178.19 1053.51 177.026C1053.93 175.861 1054.14 174.578 1054.14 173.176C1054.14 171.784 1053.93 170.506 1053.51 169.341C1053.09 168.167 1052.45 167.224 1051.57 166.514C1050.7 165.804 1049.6 165.449 1048.28 165.449C1046.94 165.449 1045.84 165.804 1044.95 166.514C1044.08 167.224 1043.43 168.167 1043.01 169.341C1042.59 170.506 1042.38 171.784 1042.38 173.176C1042.38 174.578 1042.59 175.861 1043.01 177.026C1043.43 178.19 1044.08 179.123 1044.95 179.824C1045.84 180.525 1046.94 180.875 1048.28 180.875ZM1067.42 154.909V184H1063.18V154.909H1067.42ZM1081.3 184.426C1079.54 184.426 1077.97 183.976 1076.59 183.077C1075.21 182.168 1074.14 180.875 1073.35 179.199C1072.57 177.513 1072.18 175.491 1072.18 173.134C1072.18 170.776 1072.58 168.759 1073.36 167.082C1074.16 165.406 1075.25 164.123 1076.63 163.233C1078.01 162.343 1079.58 161.898 1081.33 161.898C1082.69 161.898 1083.78 162.125 1084.6 162.58C1085.43 163.025 1086.08 163.545 1086.53 164.142C1087 164.739 1087.36 165.264 1087.61 165.719H1087.87V154.909H1092.11V184H1087.97V180.605H1087.61C1087.36 181.069 1086.99 181.599 1086.5 182.196C1086.03 182.793 1085.38 183.313 1084.54 183.759C1083.71 184.204 1082.63 184.426 1081.3 184.426ZM1082.24 180.804C1083.46 180.804 1084.5 180.482 1085.34 179.838C1086.19 179.185 1086.83 178.28 1087.27 177.125C1087.71 175.97 1087.94 174.625 1087.94 173.091C1087.94 171.576 1087.72 170.25 1087.28 169.114C1086.85 167.977 1086.21 167.092 1085.37 166.457C1084.52 165.823 1083.48 165.506 1082.24 165.506C1080.96 165.506 1079.9 165.837 1079.05 166.5C1078.19 167.163 1077.55 168.067 1077.11 169.213C1076.69 170.359 1076.47 171.652 1076.47 173.091C1076.47 174.549 1076.69 175.861 1077.13 177.026C1077.56 178.19 1078.21 179.114 1079.06 179.795C1079.92 180.468 1080.98 180.804 1082.24 180.804ZM1113.01 154.909V184H1108.76V154.909H1113.01ZM1118.72 184V162.182H1122.97V184H1118.72ZM1120.87 158.815C1120.13 158.815 1119.49 158.569 1118.96 158.077C1118.44 157.575 1118.18 156.978 1118.18 156.287C1118.18 155.586 1118.44 154.99 1118.96 154.497C1119.49 153.995 1120.13 153.744 1120.87 153.744C1121.61 153.744 1122.24 153.995 1122.76 154.497C1123.29 154.99 1123.55 155.586 1123.55 156.287C1123.55 156.978 1123.29 157.575 1122.76 158.077C1122.24 158.569 1121.61 158.815 1120.87 158.815ZM1132.93 171.045V184H1128.68V162.182H1132.76V165.733H1133.03C1133.53 164.578 1134.32 163.65 1135.39 162.949C1136.47 162.248 1137.83 161.898 1139.46 161.898C1140.95 161.898 1142.25 162.21 1143.37 162.835C1144.49 163.451 1145.35 164.369 1145.97 165.591C1146.59 166.812 1146.89 168.323 1146.89 170.122V184H1142.65V170.634C1142.65 169.052 1142.23 167.816 1141.41 166.926C1140.59 166.027 1139.46 165.577 1138.02 165.577C1137.03 165.577 1136.15 165.79 1135.39 166.216C1134.63 166.642 1134.03 167.267 1133.58 168.091C1133.15 168.905 1132.93 169.89 1132.93 171.045ZM1161.99 184.44C1159.84 184.44 1157.99 183.981 1156.44 183.062C1154.9 182.134 1153.7 180.832 1152.86 179.156C1152.03 177.471 1151.61 175.496 1151.61 173.233C1151.61 170.998 1152.03 169.028 1152.86 167.324C1153.7 165.619 1154.88 164.289 1156.38 163.332C1157.9 162.376 1159.67 161.898 1161.69 161.898C1162.93 161.898 1164.12 162.101 1165.27 162.509C1166.43 162.916 1167.47 163.555 1168.38 164.426C1169.3 165.297 1170.03 166.429 1170.56 167.821C1171.09 169.204 1171.35 170.884 1171.35 172.864V174.369H1154.01V171.188H1167.19C1167.19 170.07 1166.96 169.08 1166.51 168.219C1166.06 167.348 1165.42 166.661 1164.59 166.159C1163.78 165.657 1162.82 165.406 1161.72 165.406C1160.53 165.406 1159.49 165.7 1158.6 166.287C1157.72 166.865 1157.04 167.622 1156.55 168.56C1156.08 169.488 1155.84 170.496 1155.84 171.585V174.071C1155.84 175.529 1156.1 176.77 1156.61 177.793C1157.13 178.815 1157.85 179.597 1158.78 180.136C1159.71 180.667 1160.79 180.932 1162.04 180.932C1162.84 180.932 1163.57 180.818 1164.24 180.591C1164.9 180.354 1165.47 180.004 1165.96 179.54C1166.44 179.076 1166.81 178.503 1167.06 177.821L1171.08 178.545C1170.76 179.729 1170.18 180.766 1169.35 181.656C1168.53 182.537 1167.49 183.223 1166.24 183.716C1165 184.199 1163.58 184.44 1161.99 184.44Z" fill="black"/>
<path d="M664.92 245.276C664.844 244.603 664.532 244.082 663.982 243.713C663.433 243.339 662.742 243.152 661.909 243.152C661.312 243.152 660.796 243.247 660.36 243.436C659.925 243.621 659.586 243.876 659.345 244.203C659.108 244.525 658.99 244.892 658.99 245.304C658.99 245.65 659.07 245.948 659.231 246.199C659.397 246.45 659.612 246.661 659.877 246.831C660.147 246.997 660.436 247.136 660.744 247.25C661.052 247.359 661.347 247.449 661.632 247.52L663.052 247.889C663.516 248.003 663.992 248.157 664.48 248.351C664.967 248.545 665.419 248.801 665.836 249.118C666.253 249.435 666.589 249.828 666.845 250.297C667.105 250.766 667.235 251.327 667.235 251.98C667.235 252.804 667.022 253.536 666.596 254.175C666.175 254.814 665.561 255.318 664.757 255.688C663.956 256.057 662.988 256.241 661.852 256.241C660.763 256.241 659.82 256.069 659.025 255.723C658.23 255.377 657.607 254.887 657.157 254.253C656.707 253.614 656.459 252.856 656.411 251.98H658.613C658.656 252.506 658.826 252.944 659.124 253.294C659.427 253.64 659.813 253.898 660.282 254.068C660.756 254.234 661.274 254.317 661.838 254.317C662.458 254.317 663.009 254.22 663.492 254.026C663.98 253.827 664.364 253.552 664.643 253.202C664.922 252.847 665.062 252.432 665.062 251.959C665.062 251.528 664.939 251.175 664.693 250.901C664.451 250.626 664.122 250.399 663.705 250.219C663.294 250.039 662.827 249.88 662.306 249.743L660.588 249.274C659.423 248.957 658.499 248.491 657.818 247.875C657.141 247.259 656.802 246.445 656.802 245.432C656.802 244.594 657.029 243.862 657.484 243.237C657.938 242.612 658.554 242.127 659.33 241.781C660.107 241.431 660.983 241.256 661.958 241.256C662.943 241.256 663.812 241.429 664.565 241.774C665.322 242.12 665.919 242.596 666.355 243.202C666.79 243.803 667.017 244.494 667.036 245.276H664.92ZM674.282 256.22C673.26 256.22 672.367 255.986 671.605 255.517C670.843 255.048 670.251 254.393 669.829 253.55C669.408 252.707 669.197 251.722 669.197 250.595C669.197 249.464 669.408 248.474 669.829 247.626C670.251 246.779 670.843 246.121 671.605 245.652C672.367 245.183 673.26 244.949 674.282 244.949C675.305 244.949 676.198 245.183 676.96 245.652C677.722 246.121 678.314 246.779 678.736 247.626C679.157 248.474 679.368 249.464 679.368 250.595C679.368 251.722 679.157 252.707 678.736 253.55C678.314 254.393 677.722 255.048 676.96 255.517C676.198 255.986 675.305 256.22 674.282 256.22ZM674.29 254.438C674.952 254.438 675.502 254.262 675.937 253.912C676.373 253.562 676.695 253.095 676.903 252.513C677.116 251.93 677.223 251.289 677.223 250.588C677.223 249.892 677.116 249.253 676.903 248.67C676.695 248.083 676.373 247.612 675.937 247.257C675.502 246.902 674.952 246.724 674.29 246.724C673.622 246.724 673.068 246.902 672.628 247.257C672.192 247.612 671.868 248.083 671.655 248.67C671.446 249.253 671.342 249.892 671.342 250.588C671.342 251.289 671.446 251.93 671.655 252.513C671.868 253.095 672.192 253.562 672.628 253.912C673.068 254.262 673.622 254.438 674.29 254.438ZM688.649 251.476V245.091H690.779V256H688.691V254.111H688.578C688.327 254.693 687.924 255.179 687.37 255.567C686.821 255.95 686.137 256.142 685.318 256.142C684.617 256.142 683.997 255.988 683.457 255.68C682.922 255.368 682.5 254.906 682.193 254.295C681.89 253.685 681.738 252.929 681.738 252.03V245.091H683.862V251.774C683.862 252.518 684.068 253.109 684.48 253.55C684.892 253.99 685.427 254.21 686.085 254.21C686.482 254.21 686.878 254.111 687.271 253.912C687.669 253.713 687.998 253.412 688.258 253.01C688.523 252.607 688.653 252.096 688.649 251.476ZM693.633 256V245.091H695.685V246.824H695.799C695.998 246.237 696.348 245.775 696.85 245.439C697.357 245.098 697.93 244.928 698.569 244.928C698.701 244.928 698.858 244.932 699.037 244.942C699.222 244.951 699.367 244.963 699.471 244.977V247.009C699.385 246.985 699.234 246.959 699.016 246.93C698.798 246.897 698.581 246.881 698.363 246.881C697.861 246.881 697.413 246.987 697.02 247.2C696.632 247.409 696.324 247.7 696.097 248.074C695.87 248.443 695.756 248.865 695.756 249.338V256H693.633ZM705.513 256.22C704.457 256.22 703.548 255.981 702.786 255.503C702.028 255.02 701.446 254.355 701.039 253.507C700.631 252.66 700.428 251.689 700.428 250.595C700.428 249.487 700.636 248.509 701.053 247.662C701.469 246.81 702.057 246.144 702.814 245.666C703.572 245.188 704.464 244.949 705.492 244.949C706.32 244.949 707.059 245.103 707.708 245.411C708.356 245.714 708.879 246.14 709.277 246.689C709.68 247.238 709.919 247.88 709.994 248.614H707.928C707.814 248.102 707.554 247.662 707.146 247.293C706.744 246.923 706.204 246.739 705.527 246.739C704.935 246.739 704.417 246.895 703.972 247.207C703.531 247.515 703.188 247.955 702.942 248.528C702.696 249.097 702.573 249.769 702.573 250.545C702.573 251.341 702.693 252.027 702.935 252.605C703.176 253.183 703.517 253.63 703.958 253.947C704.403 254.265 704.926 254.423 705.527 254.423C705.93 254.423 706.294 254.35 706.621 254.203C706.952 254.052 707.229 253.836 707.452 253.557C707.679 253.277 707.838 252.941 707.928 252.548H709.994C709.919 253.254 709.689 253.884 709.306 254.438C708.922 254.991 708.408 255.427 707.764 255.744C707.125 256.062 706.375 256.22 705.513 256.22ZM716.967 256.22C715.892 256.22 714.967 255.991 714.19 255.531C713.418 255.067 712.822 254.416 712.4 253.578C711.984 252.735 711.775 251.748 711.775 250.616C711.775 249.499 711.984 248.514 712.4 247.662C712.822 246.81 713.409 246.144 714.162 245.666C714.919 245.188 715.805 244.949 716.818 244.949C717.434 244.949 718.03 245.051 718.608 245.254C719.185 245.458 719.704 245.777 720.163 246.213C720.622 246.649 720.985 247.214 721.25 247.911C721.515 248.602 721.648 249.442 721.648 250.432V251.185H712.976V249.594H719.567C719.567 249.035 719.453 248.54 719.226 248.109C718.998 247.674 718.679 247.33 718.267 247.08C717.86 246.829 717.381 246.703 716.832 246.703C716.236 246.703 715.715 246.85 715.27 247.143C714.829 247.432 714.488 247.811 714.247 248.28C714.01 248.744 713.892 249.248 713.892 249.793V251.036C713.892 251.765 714.02 252.385 714.275 252.896C714.536 253.408 714.898 253.798 715.362 254.068C715.826 254.333 716.368 254.466 716.988 254.466C717.391 254.466 717.758 254.409 718.089 254.295C718.421 254.177 718.707 254.002 718.949 253.77C719.19 253.538 719.375 253.251 719.503 252.911L721.513 253.273C721.352 253.865 721.063 254.383 720.646 254.828C720.234 255.268 719.716 255.612 719.091 255.858C718.47 256.099 717.763 256.22 716.967 256.22ZM741.207 241.455V256H739.19L731.797 245.332H731.662V256H729.467V241.455H731.498L738.899 252.136H739.034V241.455H741.207ZM747.413 256.241C746.722 256.241 746.097 256.114 745.538 255.858C744.979 255.598 744.536 255.221 744.21 254.729C743.888 254.236 743.727 253.633 743.727 252.918C743.727 252.302 743.845 251.795 744.082 251.398C744.319 251 744.638 250.685 745.041 250.453C745.443 250.221 745.893 250.046 746.39 249.928C746.887 249.809 747.394 249.719 747.91 249.658C748.563 249.582 749.094 249.52 749.501 249.473C749.908 249.421 750.204 249.338 750.389 249.224C750.573 249.111 750.666 248.926 750.666 248.67V248.621C750.666 248 750.49 247.52 750.14 247.179C749.794 246.838 749.278 246.668 748.592 246.668C747.877 246.668 747.313 246.826 746.901 247.143C746.494 247.456 746.213 247.804 746.056 248.188L744.061 247.733C744.297 247.07 744.643 246.535 745.097 246.128C745.557 245.716 746.085 245.418 746.681 245.233C747.278 245.044 747.905 244.949 748.563 244.949C748.999 244.949 749.461 245.001 749.948 245.105C750.441 245.205 750.9 245.389 751.326 245.659C751.757 245.929 752.11 246.315 752.384 246.817C752.659 247.314 752.796 247.96 752.796 248.756V256H750.722V254.509H750.637C750.5 254.783 750.294 255.053 750.019 255.318C749.745 255.583 749.392 255.804 748.961 255.979C748.53 256.154 748.014 256.241 747.413 256.241ZM747.874 254.537C748.462 254.537 748.963 254.421 749.38 254.189C749.802 253.957 750.121 253.654 750.339 253.28C750.561 252.901 750.673 252.496 750.673 252.065V250.659C750.597 250.735 750.45 250.806 750.232 250.872C750.019 250.934 749.776 250.988 749.501 251.036C749.226 251.078 748.959 251.118 748.698 251.156C748.438 251.189 748.22 251.218 748.045 251.241C747.633 251.294 747.257 251.381 746.916 251.504C746.579 251.627 746.31 251.805 746.106 252.037C745.907 252.264 745.808 252.567 745.808 252.946C745.808 253.472 746.002 253.869 746.39 254.139C746.778 254.404 747.273 254.537 747.874 254.537ZM755.625 256V245.091H757.663V246.866H757.798C758.025 246.265 758.397 245.796 758.913 245.46C759.429 245.119 760.047 244.949 760.767 244.949C761.496 244.949 762.107 245.119 762.599 245.46C763.096 245.801 763.463 246.27 763.7 246.866H763.814C764.074 246.284 764.488 245.82 765.057 245.474C765.625 245.124 766.302 244.949 767.088 244.949C768.077 244.949 768.885 245.259 769.51 245.879C770.14 246.5 770.454 247.435 770.454 248.685V256H768.331V248.884C768.331 248.145 768.13 247.61 767.727 247.278C767.325 246.947 766.844 246.781 766.285 246.781C765.594 246.781 765.057 246.994 764.673 247.42C764.29 247.842 764.098 248.384 764.098 249.047V256H761.981V248.749C761.981 248.157 761.797 247.681 761.427 247.321C761.058 246.961 760.577 246.781 759.986 246.781C759.583 246.781 759.211 246.888 758.871 247.101C758.534 247.309 758.262 247.6 758.054 247.974C757.85 248.348 757.748 248.782 757.748 249.274V256H755.625ZM778.002 256.22C776.927 256.22 776.002 255.991 775.225 255.531C774.454 255.067 773.857 254.416 773.436 253.578C773.019 252.735 772.811 251.748 772.811 250.616C772.811 249.499 773.019 248.514 773.436 247.662C773.857 246.81 774.444 246.144 775.197 245.666C775.954 245.188 776.84 244.949 777.853 244.949C778.469 244.949 779.065 245.051 779.643 245.254C780.221 245.458 780.739 245.777 781.198 246.213C781.658 246.649 782.02 247.214 782.285 247.911C782.55 248.602 782.683 249.442 782.683 250.432V251.185H774.011V249.594H780.602C780.602 249.035 780.488 248.54 780.261 248.109C780.034 247.674 779.714 247.33 779.302 247.08C778.895 246.829 778.417 246.703 777.867 246.703C777.271 246.703 776.75 246.85 776.305 247.143C775.865 247.432 775.524 247.811 775.282 248.28C775.045 248.744 774.927 249.248 774.927 249.793V251.036C774.927 251.765 775.055 252.385 775.311 252.896C775.571 253.408 775.933 253.798 776.397 254.068C776.861 254.333 777.403 254.466 778.024 254.466C778.426 254.466 778.793 254.409 779.124 254.295C779.456 254.177 779.742 254.002 779.984 253.77C780.225 253.538 780.41 253.251 780.538 252.911L782.548 253.273C782.387 253.865 782.098 254.383 781.681 254.828C781.269 255.268 780.751 255.612 780.126 255.858C779.506 256.099 778.798 256.22 778.002 256.22Z" fill="black"/>
</svg>
