<svg width="1440" height="201" viewBox="0 0 1440 201" fill="none" xmlns="http://www.w3.org/2000/svg">
<rect width="1440" height="201" fill="white"/>
<path d="M159.918 74V56.5455H162.551V64.1307H171.253V56.5455H173.895V74H171.253V66.3892H162.551V74H159.918ZM183.168 74.2642C181.878 74.2642 180.767 73.9886 179.835 73.4375C178.909 72.8807 178.193 72.0994 177.688 71.0938C177.188 70.0824 176.938 68.8977 176.938 67.5398C176.938 66.1989 177.188 65.017 177.688 63.9943C178.193 62.9716 178.898 62.1733 179.801 61.5994C180.71 61.0256 181.773 60.7386 182.989 60.7386C183.727 60.7386 184.443 60.8608 185.136 61.1051C185.83 61.3494 186.452 61.733 187.003 62.2557C187.554 62.7784 187.989 63.4574 188.307 64.2926C188.625 65.1222 188.784 66.1307 188.784 67.3182V68.2216H178.378V66.3125H186.287C186.287 65.642 186.151 65.0483 185.878 64.5312C185.605 64.0085 185.222 63.5966 184.727 63.2955C184.239 62.9943 183.665 62.8438 183.006 62.8438C182.29 62.8438 181.665 63.0199 181.131 63.3722C180.602 63.7187 180.193 64.1733 179.903 64.7358C179.619 65.2926 179.477 65.8977 179.477 66.5511V68.0426C179.477 68.9176 179.631 69.6619 179.938 70.2756C180.25 70.8892 180.685 71.358 181.241 71.6818C181.798 72 182.449 72.1591 183.193 72.1591C183.676 72.1591 184.116 72.0909 184.514 71.9545C184.912 71.8125 185.256 71.6023 185.545 71.3239C185.835 71.0455 186.057 70.7017 186.21 70.2926L188.622 70.7273C188.429 71.4375 188.082 72.0597 187.582 72.5938C187.088 73.1222 186.466 73.5341 185.716 73.8295C184.972 74.1193 184.122 74.2642 183.168 74.2642ZM195.421 74.2898C194.592 74.2898 193.842 74.1364 193.171 73.8295C192.501 73.517 191.969 73.0653 191.577 72.4744C191.191 71.8835 190.998 71.1591 190.998 70.3011C190.998 69.5625 191.14 68.9545 191.424 68.4773C191.708 68 192.092 67.6222 192.575 67.3438C193.058 67.0653 193.597 66.8551 194.194 66.7131C194.79 66.571 195.398 66.4631 196.018 66.3892C196.802 66.2983 197.438 66.2244 197.927 66.1676C198.415 66.1051 198.771 66.0057 198.992 65.8693C199.214 65.733 199.325 65.5114 199.325 65.2045V65.1449C199.325 64.4006 199.114 63.8239 198.694 63.4148C198.279 63.0057 197.66 62.8011 196.836 62.8011C195.978 62.8011 195.302 62.9915 194.808 63.3722C194.319 63.7472 193.981 64.1648 193.793 64.625L191.398 64.0795C191.683 63.2841 192.097 62.642 192.643 62.1534C193.194 61.6591 193.827 61.3011 194.543 61.0795C195.259 60.8523 196.012 60.7386 196.802 60.7386C197.325 60.7386 197.879 60.8011 198.464 60.9261C199.055 61.0455 199.606 61.267 200.117 61.5909C200.634 61.9148 201.058 62.3778 201.387 62.9801C201.717 63.5767 201.881 64.3523 201.881 65.3068V74H199.393V72.2102H199.29C199.126 72.5398 198.879 72.8636 198.549 73.1818C198.219 73.5 197.796 73.7642 197.279 73.9744C196.762 74.1847 196.143 74.2898 195.421 74.2898ZM195.975 72.2443C196.68 72.2443 197.282 72.1051 197.782 71.8267C198.288 71.5483 198.671 71.1847 198.933 70.7358C199.2 70.2812 199.333 69.7955 199.333 69.2784V67.5909C199.242 67.6818 199.066 67.767 198.805 67.8466C198.549 67.9205 198.256 67.9858 197.927 68.0426C197.597 68.0937 197.276 68.142 196.964 68.1875C196.651 68.2273 196.39 68.2614 196.18 68.2898C195.685 68.3523 195.234 68.4574 194.825 68.6051C194.421 68.7528 194.097 68.9659 193.853 69.2443C193.614 69.517 193.495 69.8807 193.495 70.3352C193.495 70.9659 193.728 71.4432 194.194 71.767C194.66 72.0852 195.254 72.2443 195.975 72.2443ZM210.176 74.2557C209.119 74.2557 208.176 73.9858 207.347 73.446C206.523 72.9006 205.875 72.125 205.403 71.1193C204.938 70.108 204.705 68.8949 204.705 67.4801C204.705 66.0653 204.94 64.8551 205.412 63.8494C205.889 62.8437 206.543 62.0739 207.372 61.5398C208.202 61.0057 209.142 60.7386 210.193 60.7386C211.006 60.7386 211.659 60.875 212.153 61.1477C212.653 61.4148 213.04 61.7273 213.312 62.0852C213.591 62.4432 213.807 62.7585 213.96 63.0312H214.114V56.5455H216.662V74H214.173V71.9631H213.96C213.807 72.2415 213.585 72.5597 213.295 72.9176C213.011 73.2756 212.619 73.5881 212.119 73.8551C211.619 74.1222 210.972 74.2557 210.176 74.2557ZM210.739 72.0824C211.472 72.0824 212.091 71.8892 212.597 71.5028C213.108 71.1108 213.494 70.5682 213.756 69.875C214.023 69.1818 214.156 68.375 214.156 67.4545C214.156 66.5455 214.026 65.75 213.764 65.0682C213.503 64.3864 213.119 63.8551 212.614 63.4744C212.108 63.0937 211.483 62.9034 210.739 62.9034C209.972 62.9034 209.332 63.1023 208.821 63.5C208.31 63.8977 207.923 64.4403 207.662 65.1278C207.406 65.8153 207.278 66.5909 207.278 67.4545C207.278 68.3295 207.409 69.1165 207.67 69.8153C207.932 70.5142 208.318 71.0682 208.83 71.4773C209.347 71.8807 209.983 72.0824 210.739 72.0824ZM225.941 74.2642C224.651 74.2642 223.54 73.9886 222.609 73.4375C221.683 72.8807 220.967 72.0994 220.461 71.0938C219.961 70.0824 219.711 68.8977 219.711 67.5398C219.711 66.1989 219.961 65.017 220.461 63.9943C220.967 62.9716 221.671 62.1733 222.575 61.5994C223.484 61.0256 224.546 60.7386 225.762 60.7386C226.501 60.7386 227.217 60.8608 227.91 61.1051C228.603 61.3494 229.225 61.733 229.776 62.2557C230.327 62.7784 230.762 63.4574 231.08 64.2926C231.398 65.1222 231.558 66.1307 231.558 67.3182V68.2216H221.151V66.3125H229.06C229.06 65.642 228.924 65.0483 228.651 64.5312C228.379 64.0085 227.995 63.5966 227.501 63.2955C227.012 62.9943 226.438 62.8438 225.779 62.8438C225.063 62.8438 224.438 63.0199 223.904 63.3722C223.376 63.7187 222.967 64.1733 222.677 64.7358C222.393 65.2926 222.251 65.8977 222.251 66.5511V68.0426C222.251 68.9176 222.404 69.6619 222.711 70.2756C223.023 70.8892 223.458 71.358 224.015 71.6818C224.572 72 225.222 72.1591 225.967 72.1591C226.45 72.1591 226.89 72.0909 227.288 71.9545C227.685 71.8125 228.029 71.6023 228.319 71.3239C228.609 71.0455 228.83 70.7017 228.984 70.2926L231.396 70.7273C231.202 71.4375 230.856 72.0597 230.356 72.5938C229.862 73.1222 229.239 73.5341 228.489 73.8295C227.745 74.1193 226.896 74.2642 225.941 74.2642ZM234.385 74V60.9091H236.848V62.9886H236.984C237.223 62.2841 237.643 61.7301 238.246 61.3267C238.854 60.9176 239.541 60.7131 240.308 60.7131C240.467 60.7131 240.655 60.7187 240.871 60.7301C241.092 60.7415 241.266 60.7557 241.391 60.7727V63.2102C241.288 63.1818 241.107 63.1506 240.845 63.1165C240.584 63.0767 240.322 63.0568 240.061 63.0568C239.459 63.0568 238.922 63.1847 238.45 63.4403C237.984 63.6903 237.615 64.0398 237.342 64.4886C237.07 64.9318 236.933 65.4375 236.933 66.0057V74H234.385ZM253.757 74.2898C252.928 74.2898 252.178 74.1364 251.507 73.8295C250.837 73.517 250.305 73.0653 249.913 72.4744C249.527 71.8835 249.334 71.1591 249.334 70.3011C249.334 69.5625 249.476 68.9545 249.76 68.4773C250.044 68 250.428 67.6222 250.911 67.3438C251.393 67.0653 251.933 66.8551 252.53 66.7131C253.126 66.571 253.734 66.4631 254.354 66.3892C255.138 66.2983 255.774 66.2244 256.263 66.1676C256.751 66.1051 257.107 66.0057 257.328 65.8693C257.55 65.733 257.661 65.5114 257.661 65.2045V65.1449C257.661 64.4006 257.45 63.8239 257.03 63.4148C256.615 63.0057 255.996 62.8011 255.172 62.8011C254.314 62.8011 253.638 62.9915 253.143 63.3722C252.655 63.7472 252.317 64.1648 252.129 64.625L249.734 64.0795C250.018 63.2841 250.433 62.642 250.979 62.1534C251.53 61.6591 252.163 61.3011 252.879 61.0795C253.595 60.8523 254.348 60.7386 255.138 60.7386C255.661 60.7386 256.214 60.8011 256.8 60.9261C257.391 61.0455 257.942 61.267 258.453 61.5909C258.97 61.9148 259.393 62.3778 259.723 62.9801C260.053 63.5767 260.217 64.3523 260.217 65.3068V74H257.729V72.2102H257.626C257.462 72.5398 257.214 72.8636 256.885 73.1818C256.555 73.5 256.132 73.7642 255.615 73.9744C255.098 74.1847 254.479 74.2898 253.757 74.2898ZM254.311 72.2443C255.016 72.2443 255.618 72.1051 256.118 71.8267C256.624 71.5483 257.007 71.1847 257.268 70.7358C257.536 70.2812 257.669 69.7955 257.669 69.2784V67.5909C257.578 67.6818 257.402 67.767 257.141 67.8466C256.885 67.9205 256.592 67.9858 256.263 68.0426C255.933 68.0937 255.612 68.142 255.3 68.1875C254.987 68.2273 254.726 68.2614 254.516 68.2898C254.021 68.3523 253.57 68.4574 253.161 68.6051C252.757 68.7528 252.433 68.9659 252.189 69.2443C251.95 69.517 251.831 69.8807 251.831 70.3352C251.831 70.9659 252.064 71.4432 252.53 71.767C252.996 72.0852 253.589 72.2443 254.311 72.2443ZM263.816 74V56.5455H266.364V63.0312H266.518C266.665 62.7585 266.879 62.4432 267.157 62.0852C267.435 61.7273 267.822 61.4148 268.316 61.1477C268.81 60.875 269.464 60.7386 270.276 60.7386C271.333 60.7386 272.276 61.0057 273.106 61.5398C273.935 62.0739 274.586 62.8437 275.058 63.8494C275.535 64.8551 275.773 66.0653 275.773 67.4801C275.773 68.8949 275.538 70.108 275.066 71.1193C274.594 72.125 273.947 72.9006 273.123 73.446C272.299 73.9858 271.359 74.2557 270.302 74.2557C269.506 74.2557 268.856 74.1222 268.35 73.8551C267.85 73.5881 267.458 73.2756 267.174 72.9176C266.89 72.5597 266.671 72.2415 266.518 71.9631H266.305V74H263.816ZM266.313 67.4545C266.313 68.375 266.447 69.1818 266.714 69.875C266.981 70.5682 267.367 71.1108 267.873 71.5028C268.379 71.8892 268.998 72.0824 269.731 72.0824C270.492 72.0824 271.129 71.8807 271.64 71.4773C272.151 71.0682 272.538 70.5142 272.799 69.8153C273.066 69.1165 273.2 68.3295 273.2 67.4545C273.2 66.5909 273.069 65.8153 272.808 65.1278C272.552 64.4403 272.165 63.8977 271.648 63.5C271.137 63.1023 270.498 62.9034 269.731 62.9034C268.992 62.9034 268.367 63.0937 267.856 63.4744C267.35 63.8551 266.967 64.3864 266.705 65.0682C266.444 65.75 266.313 66.5455 266.313 67.4545ZM284.149 74.2642C282.922 74.2642 281.851 73.983 280.936 73.4205C280.021 72.858 279.311 72.071 278.805 71.0597C278.3 70.0483 278.047 68.8665 278.047 67.5142C278.047 66.1562 278.3 64.9687 278.805 63.9517C279.311 62.9347 280.021 62.1449 280.936 61.5824C281.851 61.0199 282.922 60.7386 284.149 60.7386C285.376 60.7386 286.447 61.0199 287.362 61.5824C288.277 62.1449 288.987 62.9347 289.493 63.9517C289.999 64.9687 290.251 66.1562 290.251 67.5142C290.251 68.8665 289.999 70.0483 289.493 71.0597C288.987 72.071 288.277 72.858 287.362 73.4205C286.447 73.983 285.376 74.2642 284.149 74.2642ZM284.158 72.125C284.953 72.125 285.612 71.9148 286.135 71.4943C286.658 71.0739 287.044 70.5142 287.294 69.8153C287.55 69.1165 287.678 68.3466 287.678 67.5057C287.678 66.6705 287.55 65.9034 287.294 65.2045C287.044 64.5 286.658 63.9347 286.135 63.5085C285.612 63.0824 284.953 62.8693 284.158 62.8693C283.357 62.8693 282.692 63.0824 282.163 63.5085C281.641 63.9347 281.251 64.5 280.996 65.2045C280.746 65.9034 280.621 66.6705 280.621 67.5057C280.621 68.3466 280.746 69.1165 280.996 69.8153C281.251 70.5142 281.641 71.0739 282.163 71.4943C282.692 71.9148 283.357 72.125 284.158 72.125ZM301.388 68.571V60.9091H303.945V74H301.44V71.733H301.303C301.002 72.4318 300.519 73.0142 299.854 73.4801C299.195 73.9403 298.374 74.1705 297.391 74.1705C296.55 74.1705 295.806 73.9858 295.158 73.6165C294.516 73.2415 294.011 72.6875 293.641 71.9545C293.278 71.2216 293.096 70.3153 293.096 69.2358V60.9091H295.644V68.929C295.644 69.821 295.891 70.5312 296.386 71.0597C296.88 71.5881 297.522 71.8523 298.312 71.8523C298.789 71.8523 299.263 71.733 299.735 71.4943C300.212 71.2557 300.607 70.8949 300.92 70.4119C301.238 69.929 301.394 69.3153 301.388 68.571ZM313.48 60.9091V62.9545H306.33V60.9091H313.48ZM308.247 57.7727H310.795V70.1562C310.795 70.6506 310.869 71.0227 311.017 71.2727C311.165 71.517 311.355 71.6847 311.588 71.7756C311.827 71.8608 312.085 71.9034 312.364 71.9034C312.568 71.9034 312.747 71.8892 312.901 71.8608C313.054 71.8324 313.173 71.8097 313.259 71.7926L313.719 73.8977C313.571 73.9545 313.361 74.0114 313.088 74.0682C312.815 74.1307 312.474 74.1648 312.065 74.1705C311.395 74.1818 310.77 74.0625 310.19 73.8125C309.611 73.5625 309.142 73.1761 308.784 72.6534C308.426 72.1307 308.247 71.4744 308.247 70.6847V57.7727ZM328.761 60.9091V62.9545H321.611V60.9091H328.761ZM323.528 57.7727H326.077V70.1562C326.077 70.6506 326.151 71.0227 326.298 71.2727C326.446 71.517 326.636 71.6847 326.869 71.7756C327.108 71.8608 327.366 71.9034 327.645 71.9034C327.849 71.9034 328.028 71.8892 328.182 71.8608C328.335 71.8324 328.455 71.8097 328.54 71.7926L329 73.8977C328.852 73.9545 328.642 74.0114 328.369 74.0682C328.097 74.1307 327.756 74.1648 327.347 74.1705C326.676 74.1818 326.051 74.0625 325.472 73.8125C324.892 73.5625 324.423 73.1761 324.065 72.6534C323.707 72.1307 323.528 71.4744 323.528 70.6847V57.7727ZM334.41 66.2273V74H331.862V56.5455H334.376V63.0398H334.538C334.844 62.3352 335.313 61.7756 335.944 61.3608C336.575 60.946 337.398 60.7386 338.415 60.7386C339.313 60.7386 340.097 60.9233 340.768 61.2926C341.444 61.6619 341.967 62.2131 342.336 62.946C342.711 63.6733 342.898 64.5824 342.898 65.6733V74H340.35V65.9801C340.35 65.0199 340.103 64.2756 339.609 63.7472C339.114 63.2131 338.427 62.946 337.546 62.946C336.944 62.946 336.404 63.0739 335.927 63.3295C335.455 63.5852 335.083 63.9602 334.81 64.4545C334.543 64.9432 334.41 65.5341 334.41 66.2273ZM351.941 74.2642C350.651 74.2642 349.54 73.9886 348.609 73.4375C347.683 72.8807 346.967 72.0994 346.461 71.0938C345.961 70.0824 345.711 68.8977 345.711 67.5398C345.711 66.1989 345.961 65.017 346.461 63.9943C346.967 62.9716 347.671 62.1733 348.575 61.5994C349.484 61.0256 350.546 60.7386 351.762 60.7386C352.501 60.7386 353.217 60.8608 353.91 61.1051C354.603 61.3494 355.225 61.733 355.776 62.2557C356.327 62.7784 356.762 63.4574 357.08 64.2926C357.398 65.1222 357.558 66.1307 357.558 67.3182V68.2216H347.151V66.3125H355.06C355.06 65.642 354.924 65.0483 354.651 64.5312C354.379 64.0085 353.995 63.5966 353.501 63.2955C353.012 62.9943 352.438 62.8438 351.779 62.8438C351.063 62.8438 350.438 63.0199 349.904 63.3722C349.376 63.7187 348.967 64.1733 348.677 64.7358C348.393 65.2926 348.251 65.8977 348.251 66.5511V68.0426C348.251 68.9176 348.404 69.6619 348.711 70.2756C349.023 70.8892 349.458 71.358 350.015 71.6818C350.572 72 351.222 72.1591 351.967 72.1591C352.45 72.1591 352.89 72.0909 353.288 71.9545C353.685 71.8125 354.029 71.6023 354.319 71.3239C354.609 71.0455 354.83 70.7017 354.984 70.2926L357.396 70.7273C357.202 71.4375 356.856 72.0597 356.356 72.5938C355.862 73.1222 355.239 73.5341 354.489 73.8295C353.745 74.1193 352.896 74.2642 351.941 74.2642ZM169.523 98.1051L167.213 98.5142C167.116 98.2187 166.963 97.9375 166.753 97.6705C166.548 97.4034 166.27 97.1847 165.918 97.0142C165.565 96.8437 165.125 96.7585 164.597 96.7585C163.875 96.7585 163.273 96.9205 162.79 97.2443C162.307 97.5625 162.065 97.9744 162.065 98.4801C162.065 98.9176 162.227 99.2699 162.551 99.5369C162.875 99.804 163.398 100.023 164.119 100.193L166.199 100.67C167.403 100.949 168.301 101.378 168.892 101.957C169.483 102.537 169.778 103.29 169.778 104.216C169.778 105 169.551 105.699 169.097 106.312C168.648 106.92 168.02 107.398 167.213 107.744C166.412 108.091 165.483 108.264 164.426 108.264C162.96 108.264 161.764 107.952 160.838 107.327C159.912 106.696 159.344 105.801 159.134 104.642L161.597 104.267C161.75 104.909 162.065 105.395 162.543 105.724C163.02 106.048 163.642 106.21 164.409 106.21C165.244 106.21 165.912 106.037 166.412 105.69C166.912 105.338 167.162 104.909 167.162 104.403C167.162 103.994 167.009 103.651 166.702 103.372C166.401 103.094 165.938 102.884 165.312 102.741L163.097 102.256C161.875 101.977 160.972 101.534 160.386 100.926C159.807 100.318 159.517 99.5483 159.517 98.6165C159.517 97.8437 159.733 97.1676 160.165 96.5881C160.597 96.0085 161.193 95.5568 161.955 95.233C162.716 94.9034 163.588 94.7386 164.571 94.7386C165.986 94.7386 167.099 95.0455 167.912 95.6591C168.724 96.267 169.261 97.0824 169.523 98.1051ZM180.873 102.571V94.9091H183.43V108H180.924V105.733H180.788C180.487 106.432 180.004 107.014 179.339 107.48C178.68 107.94 177.859 108.17 176.876 108.17C176.035 108.17 175.29 107.986 174.643 107.616C174.001 107.241 173.495 106.688 173.126 105.955C172.762 105.222 172.58 104.315 172.58 103.236V94.9091H175.129V102.929C175.129 103.821 175.376 104.531 175.87 105.06C176.364 105.588 177.006 105.852 177.796 105.852C178.273 105.852 178.748 105.733 179.219 105.494C179.697 105.256 180.092 104.895 180.404 104.412C180.722 103.929 180.879 103.315 180.873 102.571ZM192.368 108.264C191.101 108.264 190.01 107.977 189.095 107.403C188.186 106.824 187.487 106.026 186.999 105.009C186.51 103.991 186.266 102.827 186.266 101.514C186.266 100.185 186.516 99.0114 187.016 97.9943C187.516 96.9716 188.22 96.1733 189.129 95.5994C190.038 95.0256 191.109 94.7386 192.342 94.7386C193.337 94.7386 194.223 94.9233 195.001 95.2926C195.78 95.6562 196.408 96.1676 196.885 96.8267C197.368 97.4858 197.655 98.2557 197.746 99.1364H195.266C195.129 98.5227 194.817 97.9943 194.328 97.5511C193.845 97.108 193.197 96.8864 192.385 96.8864C191.675 96.8864 191.053 97.0739 190.518 97.4489C189.99 97.8182 189.578 98.3466 189.283 99.0341C188.987 99.7159 188.839 100.523 188.839 101.455C188.839 102.409 188.984 103.233 189.274 103.926C189.564 104.619 189.973 105.156 190.501 105.537C191.036 105.918 191.663 106.108 192.385 106.108C192.868 106.108 193.305 106.02 193.697 105.844C194.095 105.662 194.428 105.403 194.695 105.068C194.967 104.733 195.158 104.33 195.266 103.858H197.746C197.655 104.705 197.379 105.46 196.919 106.125C196.459 106.79 195.842 107.312 195.07 107.693C194.303 108.074 193.402 108.264 192.368 108.264ZM205.985 108.264C204.718 108.264 203.627 107.977 202.712 107.403C201.803 106.824 201.104 106.026 200.616 105.009C200.127 103.991 199.883 102.827 199.883 101.514C199.883 100.185 200.133 99.0114 200.633 97.9943C201.133 96.9716 201.837 96.1733 202.746 95.5994C203.656 95.0256 204.727 94.7386 205.96 94.7386C206.954 94.7386 207.84 94.9233 208.619 95.2926C209.397 95.6562 210.025 96.1676 210.502 96.8267C210.985 97.4858 211.272 98.2557 211.363 99.1364H208.883C208.746 98.5227 208.434 97.9943 207.945 97.5511C207.462 97.108 206.815 96.8864 206.002 96.8864C205.292 96.8864 204.67 97.0739 204.136 97.4489C203.607 97.8182 203.195 98.3466 202.9 99.0341C202.604 99.7159 202.457 100.523 202.457 101.455C202.457 102.409 202.602 103.233 202.891 103.926C203.181 104.619 203.59 105.156 204.119 105.537C204.653 105.918 205.281 106.108 206.002 106.108C206.485 106.108 206.923 106.02 207.315 105.844C207.712 105.662 208.045 105.403 208.312 105.068C208.585 104.733 208.775 104.33 208.883 103.858H211.363C211.272 104.705 210.996 105.46 210.536 106.125C210.076 106.79 209.46 107.312 208.687 107.693C207.92 108.074 207.019 108.264 205.985 108.264ZM219.73 108.264C218.44 108.264 217.33 107.989 216.398 107.438C215.472 106.881 214.756 106.099 214.25 105.094C213.75 104.082 213.5 102.898 213.5 101.54C213.5 100.199 213.75 99.017 214.25 97.9943C214.756 96.9716 215.46 96.1733 216.364 95.5994C217.273 95.0256 218.335 94.7386 219.551 94.7386C220.29 94.7386 221.006 94.8608 221.699 95.1051C222.392 95.3494 223.014 95.733 223.565 96.2557C224.116 96.7784 224.551 97.4574 224.869 98.2926C225.188 99.1222 225.347 100.131 225.347 101.318V102.222H214.94V100.312H222.849C222.849 99.642 222.713 99.0483 222.44 98.5312C222.168 98.0085 221.784 97.5966 221.29 97.2955C220.801 96.9943 220.227 96.8438 219.568 96.8438C218.852 96.8438 218.227 97.0199 217.693 97.3722C217.165 97.7187 216.756 98.1733 216.466 98.7358C216.182 99.2926 216.04 99.8977 216.04 100.551V102.043C216.04 102.918 216.193 103.662 216.5 104.276C216.812 104.889 217.247 105.358 217.804 105.682C218.361 106 219.011 106.159 219.756 106.159C220.239 106.159 220.679 106.091 221.077 105.955C221.474 105.812 221.818 105.602 222.108 105.324C222.398 105.045 222.619 104.702 222.773 104.293L225.185 104.727C224.991 105.437 224.645 106.06 224.145 106.594C223.651 107.122 223.028 107.534 222.278 107.83C221.534 108.119 220.685 108.264 219.73 108.264ZM237.984 98.1051L235.674 98.5142C235.577 98.2187 235.424 97.9375 235.214 97.6705C235.009 97.4034 234.731 97.1847 234.379 97.0142C234.026 96.8437 233.586 96.7585 233.058 96.7585C232.336 96.7585 231.734 96.9205 231.251 97.2443C230.768 97.5625 230.526 97.9744 230.526 98.4801C230.526 98.9176 230.688 99.2699 231.012 99.5369C231.336 99.804 231.859 100.023 232.58 100.193L234.66 100.67C235.864 100.949 236.762 101.378 237.353 101.957C237.944 102.537 238.239 103.29 238.239 104.216C238.239 105 238.012 105.699 237.558 106.312C237.109 106.92 236.481 107.398 235.674 107.744C234.873 108.091 233.944 108.264 232.887 108.264C231.421 108.264 230.225 107.952 229.299 107.327C228.373 106.696 227.805 105.801 227.594 104.642L230.058 104.267C230.211 104.909 230.526 105.395 231.004 105.724C231.481 106.048 232.103 106.21 232.87 106.21C233.705 106.21 234.373 106.037 234.873 105.69C235.373 105.338 235.623 104.909 235.623 104.403C235.623 103.994 235.469 103.651 235.163 103.372C234.862 103.094 234.398 102.884 233.773 102.741L231.558 102.256C230.336 101.977 229.433 101.534 228.847 100.926C228.268 100.318 227.978 99.5483 227.978 98.6165C227.978 97.8437 228.194 97.1676 228.626 96.5881C229.058 96.0085 229.654 95.5568 230.415 95.233C231.177 94.9034 232.049 94.7386 233.032 94.7386C234.447 94.7386 235.56 95.0455 236.373 95.6591C237.185 96.267 237.722 97.0824 237.984 98.1051ZM250.851 98.1051L248.541 98.5142C248.445 98.2187 248.291 97.9375 248.081 97.6705C247.876 97.4034 247.598 97.1847 247.246 97.0142C246.893 96.8437 246.453 96.7585 245.925 96.7585C245.203 96.7585 244.601 96.9205 244.118 97.2443C243.635 97.5625 243.393 97.9744 243.393 98.4801C243.393 98.9176 243.555 99.2699 243.879 99.5369C244.203 99.804 244.726 100.023 245.447 100.193L247.527 100.67C248.732 100.949 249.629 101.378 250.22 101.957C250.811 102.537 251.107 103.29 251.107 104.216C251.107 105 250.879 105.699 250.425 106.312C249.976 106.92 249.348 107.398 248.541 107.744C247.74 108.091 246.811 108.264 245.754 108.264C244.288 108.264 243.092 107.952 242.166 107.327C241.24 106.696 240.672 105.801 240.462 104.642L242.925 104.267C243.078 104.909 243.393 105.395 243.871 105.724C244.348 106.048 244.97 106.21 245.737 106.21C246.572 106.21 247.24 106.037 247.74 105.69C248.24 105.338 248.49 104.909 248.49 104.403C248.49 103.994 248.337 103.651 248.03 103.372C247.729 103.094 247.266 102.884 246.641 102.741L244.425 102.256C243.203 101.977 242.3 101.534 241.714 100.926C241.135 100.318 240.845 99.5483 240.845 98.6165C240.845 97.8437 241.061 97.1676 241.493 96.5881C241.925 96.0085 242.521 95.5568 243.283 95.233C244.044 94.9034 244.916 94.7386 245.899 94.7386C247.314 94.7386 248.428 95.0455 249.24 95.6591C250.053 96.267 250.589 97.0824 250.851 98.1051ZM260.138 94.9091V96.9545H252.741V94.9091H260.138ZM254.769 108V93.392C254.769 92.5739 254.948 91.8949 255.306 91.3551C255.664 90.8097 256.138 90.4034 256.729 90.1364C257.32 89.8636 257.962 89.7273 258.656 89.7273C259.167 89.7273 259.604 89.7699 259.968 89.8551C260.332 89.9347 260.602 90.0085 260.778 90.0767L260.181 92.1392C260.062 92.1051 259.908 92.0653 259.721 92.0199C259.533 91.9687 259.306 91.9432 259.039 91.9432C258.42 91.9432 257.977 92.0966 257.71 92.4034C257.448 92.7102 257.317 93.1534 257.317 93.733V108H254.769ZM271.06 102.571V94.9091H273.617V108H271.112V105.733H270.975C270.674 106.432 270.191 107.014 269.526 107.48C268.867 107.94 268.046 108.17 267.063 108.17C266.222 108.17 265.478 107.986 264.83 107.616C264.188 107.241 263.683 106.688 263.313 105.955C262.95 105.222 262.768 104.315 262.768 103.236V94.9091H265.316V102.929C265.316 103.821 265.563 104.531 266.058 105.06C266.552 105.588 267.194 105.852 267.984 105.852C268.461 105.852 268.935 105.733 269.407 105.494C269.884 105.256 270.279 104.895 270.592 104.412C270.91 103.929 271.066 103.315 271.06 102.571ZM279.589 90.5455V108H277.041V90.5455H279.589ZM294.884 108.264C293.616 108.264 292.526 107.977 291.611 107.403C290.702 106.824 290.003 106.026 289.514 105.009C289.026 103.991 288.781 102.827 288.781 101.514C288.781 100.185 289.031 99.0114 289.531 97.9943C290.031 96.9716 290.736 96.1733 291.645 95.5994C292.554 95.0256 293.625 94.7386 294.858 94.7386C295.852 94.7386 296.739 94.9233 297.517 95.2926C298.295 95.6562 298.923 96.1676 299.401 96.8267C299.884 97.4858 300.17 98.2557 300.261 99.1364H297.781C297.645 98.5227 297.332 97.9943 296.844 97.5511C296.361 97.108 295.713 96.8864 294.901 96.8864C294.19 96.8864 293.568 97.0739 293.034 97.4489C292.506 97.8182 292.094 98.3466 291.798 99.0341C291.503 99.7159 291.355 100.523 291.355 101.455C291.355 102.409 291.5 103.233 291.79 103.926C292.08 104.619 292.489 105.156 293.017 105.537C293.551 105.918 294.179 106.108 294.901 106.108C295.384 106.108 295.821 106.02 296.213 105.844C296.611 105.662 296.943 105.403 297.21 105.068C297.483 104.733 297.673 104.33 297.781 103.858H300.261C300.17 104.705 299.895 105.46 299.435 106.125C298.974 106.79 298.358 107.312 297.585 107.693C296.818 108.074 295.918 108.264 294.884 108.264ZM308.501 108.264C307.273 108.264 306.202 107.983 305.288 107.42C304.373 106.858 303.663 106.071 303.157 105.06C302.651 104.048 302.398 102.866 302.398 101.514C302.398 100.156 302.651 98.9687 303.157 97.9517C303.663 96.9347 304.373 96.1449 305.288 95.5824C306.202 95.0199 307.273 94.7386 308.501 94.7386C309.728 94.7386 310.799 95.0199 311.714 95.5824C312.629 96.1449 313.339 96.9347 313.844 97.9517C314.35 98.9687 314.603 100.156 314.603 101.514C314.603 102.866 314.35 104.048 313.844 105.06C313.339 106.071 312.629 106.858 311.714 107.42C310.799 107.983 309.728 108.264 308.501 108.264ZM308.509 106.125C309.305 106.125 309.964 105.915 310.487 105.494C311.009 105.074 311.396 104.514 311.646 103.815C311.901 103.116 312.029 102.347 312.029 101.506C312.029 100.67 311.901 99.9034 311.646 99.2045C311.396 98.5 311.009 97.9347 310.487 97.5085C309.964 97.0824 309.305 96.8693 308.509 96.8693C307.708 96.8693 307.043 97.0824 306.515 97.5085C305.992 97.9347 305.603 98.5 305.347 99.2045C305.097 99.9034 304.972 100.67 304.972 101.506C304.972 102.347 305.097 103.116 305.347 103.815C305.603 104.514 305.992 105.074 306.515 105.494C307.043 105.915 307.708 106.125 308.509 106.125ZM319.996 90.5455V108H317.447V90.5455H319.996ZM325.972 90.5455V108H323.424V90.5455H325.972ZM333.21 108.29C332.381 108.29 331.631 108.136 330.96 107.83C330.29 107.517 329.759 107.065 329.366 106.474C328.98 105.884 328.787 105.159 328.787 104.301C328.787 103.562 328.929 102.955 329.213 102.477C329.497 102 329.881 101.622 330.364 101.344C330.847 101.065 331.386 100.855 331.983 100.713C332.58 100.571 333.188 100.463 333.807 100.389C334.591 100.298 335.227 100.224 335.716 100.168C336.205 100.105 336.56 100.006 336.781 99.8693C337.003 99.733 337.114 99.5114 337.114 99.2045V99.1449C337.114 98.4006 336.903 97.8239 336.483 97.4148C336.068 97.0057 335.449 96.8011 334.625 96.8011C333.767 96.8011 333.091 96.9915 332.597 97.3722C332.108 97.7472 331.77 98.1648 331.582 98.625L329.188 98.0795C329.472 97.2841 329.886 96.642 330.432 96.1534C330.983 95.6591 331.616 95.3011 332.332 95.0795C333.048 94.8523 333.801 94.7386 334.591 94.7386C335.114 94.7386 335.668 94.8011 336.253 94.9261C336.844 95.0455 337.395 95.267 337.906 95.5909C338.423 95.9148 338.847 96.3778 339.176 96.9801C339.506 97.5767 339.67 98.3523 339.67 99.3068V108H337.182V106.21H337.08C336.915 106.54 336.668 106.864 336.338 107.182C336.009 107.5 335.585 107.764 335.068 107.974C334.551 108.185 333.932 108.29 333.21 108.29ZM333.764 106.244C334.469 106.244 335.071 106.105 335.571 105.827C336.077 105.548 336.46 105.185 336.722 104.736C336.989 104.281 337.122 103.795 337.122 103.278V101.591C337.031 101.682 336.855 101.767 336.594 101.847C336.338 101.92 336.045 101.986 335.716 102.043C335.386 102.094 335.065 102.142 334.753 102.188C334.44 102.227 334.179 102.261 333.969 102.29C333.474 102.352 333.023 102.457 332.614 102.605C332.21 102.753 331.886 102.966 331.642 103.244C331.403 103.517 331.284 103.881 331.284 104.335C331.284 104.966 331.517 105.443 331.983 105.767C332.449 106.085 333.043 106.244 333.764 106.244ZM343.269 108V90.5455H345.817V97.0312H345.971C346.119 96.7585 346.332 96.4432 346.61 96.0852C346.888 95.7273 347.275 95.4148 347.769 95.1477C348.263 94.875 348.917 94.7386 349.729 94.7386C350.786 94.7386 351.729 95.0057 352.559 95.5398C353.388 96.0739 354.039 96.8437 354.511 97.8494C354.988 98.8551 355.227 100.065 355.227 101.48C355.227 102.895 354.991 104.108 354.519 105.119C354.048 106.125 353.4 106.901 352.576 107.446C351.752 107.986 350.812 108.256 349.755 108.256C348.96 108.256 348.309 108.122 347.803 107.855C347.303 107.588 346.911 107.276 346.627 106.918C346.343 106.56 346.124 106.241 345.971 105.963H345.758V108H343.269ZM345.766 101.455C345.766 102.375 345.9 103.182 346.167 103.875C346.434 104.568 346.82 105.111 347.326 105.503C347.832 105.889 348.451 106.082 349.184 106.082C349.945 106.082 350.582 105.881 351.093 105.477C351.604 105.068 351.991 104.514 352.252 103.815C352.519 103.116 352.653 102.33 352.653 101.455C352.653 100.591 352.522 99.8153 352.261 99.1278C352.005 98.4403 351.619 97.8977 351.102 97.5C350.59 97.1023 349.951 96.9034 349.184 96.9034C348.445 96.9034 347.82 97.0937 347.309 97.4744C346.803 97.8551 346.42 98.3864 346.158 99.0682C345.897 99.75 345.766 100.545 345.766 101.455ZM363.602 108.264C362.375 108.264 361.304 107.983 360.389 107.42C359.474 106.858 358.764 106.071 358.259 105.06C357.753 104.048 357.5 102.866 357.5 101.514C357.5 100.156 357.753 98.9687 358.259 97.9517C358.764 96.9347 359.474 96.1449 360.389 95.5824C361.304 95.0199 362.375 94.7386 363.602 94.7386C364.83 94.7386 365.901 95.0199 366.815 95.5824C367.73 96.1449 368.44 96.9347 368.946 97.9517C369.452 98.9687 369.705 100.156 369.705 101.514C369.705 102.866 369.452 104.048 368.946 105.06C368.44 106.071 367.73 106.858 366.815 107.42C365.901 107.983 364.83 108.264 363.602 108.264ZM363.611 106.125C364.406 106.125 365.065 105.915 365.588 105.494C366.111 105.074 366.497 104.514 366.747 103.815C367.003 103.116 367.131 102.347 367.131 101.506C367.131 100.67 367.003 99.9034 366.747 99.2045C366.497 98.5 366.111 97.9347 365.588 97.5085C365.065 97.0824 364.406 96.8693 363.611 96.8693C362.81 96.8693 362.145 97.0824 361.616 97.5085C361.094 97.9347 360.705 98.5 360.449 99.2045C360.199 99.9034 360.074 100.67 360.074 101.506C360.074 102.347 360.199 103.116 360.449 103.815C360.705 104.514 361.094 105.074 361.616 105.494C362.145 105.915 362.81 106.125 363.611 106.125ZM372.549 108V94.9091H375.012V96.9886H375.148C375.387 96.2841 375.808 95.7301 376.41 95.3267C377.018 94.9176 377.705 94.7131 378.472 94.7131C378.631 94.7131 378.819 94.7187 379.035 94.7301C379.256 94.7415 379.43 94.7557 379.555 94.7727V97.2102C379.452 97.1818 379.271 97.1506 379.009 97.1165C378.748 97.0767 378.487 97.0568 378.225 97.0568C377.623 97.0568 377.086 97.1847 376.614 97.4403C376.148 97.6903 375.779 98.0398 375.506 98.4886C375.234 98.9318 375.097 99.4375 375.097 100.006V108H372.549ZM385.452 108.29C384.623 108.29 383.873 108.136 383.202 107.83C382.532 107.517 382.001 107.065 381.609 106.474C381.222 105.884 381.029 105.159 381.029 104.301C381.029 103.562 381.171 102.955 381.455 102.477C381.739 102 382.123 101.622 382.606 101.344C383.089 101.065 383.629 100.855 384.225 100.713C384.822 100.571 385.43 100.463 386.049 100.389C386.833 100.298 387.469 100.224 387.958 100.168C388.447 100.105 388.802 100.006 389.023 99.8693C389.245 99.733 389.356 99.5114 389.356 99.2045V99.1449C389.356 98.4006 389.146 97.8239 388.725 97.4148C388.31 97.0057 387.691 96.8011 386.867 96.8011C386.009 96.8011 385.333 96.9915 384.839 97.3722C384.35 97.7472 384.012 98.1648 383.825 98.625L381.43 98.0795C381.714 97.2841 382.129 96.642 382.674 96.1534C383.225 95.6591 383.859 95.3011 384.575 95.0795C385.29 94.8523 386.043 94.7386 386.833 94.7386C387.356 94.7386 387.91 94.8011 388.495 94.9261C389.086 95.0455 389.637 95.267 390.148 95.5909C390.665 95.9148 391.089 96.3778 391.418 96.9801C391.748 97.5767 391.913 98.3523 391.913 99.3068V108H389.424V106.21H389.322C389.157 106.54 388.91 106.864 388.58 107.182C388.251 107.5 387.827 107.764 387.31 107.974C386.793 108.185 386.174 108.29 385.452 108.29ZM386.006 106.244C386.711 106.244 387.313 106.105 387.813 105.827C388.319 105.548 388.702 105.185 388.964 104.736C389.231 104.281 389.364 103.795 389.364 103.278V101.591C389.273 101.682 389.097 101.767 388.836 101.847C388.58 101.92 388.288 101.986 387.958 102.043C387.629 102.094 387.308 102.142 386.995 102.188C386.683 102.227 386.421 102.261 386.211 102.29C385.717 102.352 385.265 102.457 384.856 102.605C384.452 102.753 384.129 102.966 383.884 103.244C383.646 103.517 383.526 103.881 383.526 104.335C383.526 104.966 383.759 105.443 384.225 105.767C384.691 106.085 385.285 106.244 386.006 106.244ZM401.418 94.9091V96.9545H394.267V94.9091H401.418ZM396.185 91.7727H398.733V104.156C398.733 104.651 398.807 105.023 398.955 105.273C399.102 105.517 399.293 105.685 399.526 105.776C399.764 105.861 400.023 105.903 400.301 105.903C400.506 105.903 400.685 105.889 400.838 105.861C400.991 105.832 401.111 105.81 401.196 105.793L401.656 107.898C401.509 107.955 401.298 108.011 401.026 108.068C400.753 108.131 400.412 108.165 400.003 108.17C399.332 108.182 398.707 108.062 398.128 107.812C397.548 107.562 397.08 107.176 396.722 106.653C396.364 106.131 396.185 105.474 396.185 104.685V91.7727ZM404.237 108V94.9091H406.785V108H404.237ZM405.523 92.8892C405.08 92.8892 404.7 92.7415 404.381 92.446C404.069 92.1449 403.913 91.7869 403.913 91.3722C403.913 90.9517 404.069 90.5937 404.381 90.2983C404.7 89.9972 405.08 89.8466 405.523 89.8466C405.967 89.8466 406.344 89.9972 406.657 90.2983C406.975 90.5937 407.134 90.9517 407.134 91.3722C407.134 91.7869 406.975 92.1449 406.657 92.446C406.344 92.7415 405.967 92.8892 405.523 92.8892ZM415.727 108.264C414.5 108.264 413.429 107.983 412.514 107.42C411.599 106.858 410.889 106.071 410.384 105.06C409.878 104.048 409.625 102.866 409.625 101.514C409.625 100.156 409.878 98.9687 410.384 97.9517C410.889 96.9347 411.599 96.1449 412.514 95.5824C413.429 95.0199 414.5 94.7386 415.727 94.7386C416.955 94.7386 418.026 95.0199 418.94 95.5824C419.855 96.1449 420.565 96.9347 421.071 97.9517C421.577 98.9687 421.83 100.156 421.83 101.514C421.83 102.866 421.577 104.048 421.071 105.06C420.565 106.071 419.855 106.858 418.94 107.42C418.026 107.983 416.955 108.264 415.727 108.264ZM415.736 106.125C416.531 106.125 417.19 105.915 417.713 105.494C418.236 105.074 418.622 104.514 418.872 103.815C419.128 103.116 419.256 102.347 419.256 101.506C419.256 100.67 419.128 99.9034 418.872 99.2045C418.622 98.5 418.236 97.9347 417.713 97.5085C417.19 97.0824 416.531 96.8693 415.736 96.8693C414.935 96.8693 414.27 97.0824 413.741 97.5085C413.219 97.9347 412.83 98.5 412.574 99.2045C412.324 99.9034 412.199 100.67 412.199 101.506C412.199 102.347 412.324 103.116 412.574 103.815C412.83 104.514 413.219 105.074 413.741 105.494C414.27 105.915 414.935 106.125 415.736 106.125ZM427.222 100.227V108H424.674V94.9091H427.12V97.0398H427.282C427.583 96.3466 428.055 95.7898 428.697 95.3693C429.344 94.9489 430.16 94.7386 431.143 94.7386C432.035 94.7386 432.816 94.9261 433.487 95.3011C434.157 95.6705 434.677 96.2216 435.046 96.9545C435.415 97.6875 435.6 98.5937 435.6 99.6733V108H433.052V99.9801C433.052 99.0312 432.805 98.2898 432.31 97.7557C431.816 97.2159 431.137 96.946 430.273 96.946C429.683 96.946 429.157 97.0739 428.697 97.3295C428.242 97.5852 427.881 97.9602 427.614 98.4545C427.353 98.9432 427.222 99.5341 427.222 100.227ZM448.827 98.1051L446.518 98.5142C446.421 98.2187 446.268 97.9375 446.058 97.6705C445.853 97.4034 445.575 97.1847 445.222 97.0142C444.87 96.8437 444.43 96.7585 443.901 96.7585C443.18 96.7585 442.577 96.9205 442.094 97.2443C441.612 97.5625 441.37 97.9744 441.37 98.4801C441.37 98.9176 441.532 99.2699 441.856 99.5369C442.18 99.804 442.702 100.023 443.424 100.193L445.504 100.67C446.708 100.949 447.606 101.378 448.197 101.957C448.788 102.537 449.083 103.29 449.083 104.216C449.083 105 448.856 105.699 448.401 106.312C447.952 106.92 447.325 107.398 446.518 107.744C445.717 108.091 444.788 108.264 443.731 108.264C442.265 108.264 441.069 107.952 440.143 107.327C439.217 106.696 438.648 105.801 438.438 104.642L440.901 104.267C441.055 104.909 441.37 105.395 441.847 105.724C442.325 106.048 442.947 106.21 443.714 106.21C444.549 106.21 445.217 106.037 445.717 105.69C446.217 105.338 446.467 104.909 446.467 104.403C446.467 103.994 446.313 103.651 446.006 103.372C445.705 103.094 445.242 102.884 444.617 102.741L442.401 102.256C441.18 101.977 440.276 101.534 439.691 100.926C439.112 100.318 438.822 99.5483 438.822 98.6165C438.822 97.8437 439.038 97.1676 439.469 96.5881C439.901 96.0085 440.498 95.5568 441.259 95.233C442.021 94.9034 442.893 94.7386 443.876 94.7386C445.29 94.7386 446.404 95.0455 447.217 95.6591C448.029 96.267 448.566 97.0824 448.827 98.1051ZM162.551 142L158.699 128.909H161.332L163.898 138.523H164.026L166.599 128.909H169.233L171.79 138.48H171.918L174.466 128.909H177.099L173.256 142H170.656L167.997 132.548H167.801L165.142 142H162.551ZM179.518 142V128.909H182.066V142H179.518ZM180.805 126.889C180.362 126.889 179.981 126.741 179.663 126.446C179.35 126.145 179.194 125.787 179.194 125.372C179.194 124.952 179.35 124.594 179.663 124.298C179.981 123.997 180.362 123.847 180.805 123.847C181.248 123.847 181.626 123.997 181.938 124.298C182.256 124.594 182.415 124.952 182.415 125.372C182.415 125.787 182.256 126.145 181.938 126.446C181.626 126.741 181.248 126.889 180.805 126.889ZM191.605 128.909V130.955H184.455V128.909H191.605ZM186.372 125.773H188.92V138.156C188.92 138.651 188.994 139.023 189.142 139.273C189.29 139.517 189.48 139.685 189.713 139.776C189.952 139.861 190.21 139.903 190.489 139.903C190.693 139.903 190.872 139.889 191.026 139.861C191.179 139.832 191.298 139.81 191.384 139.793L191.844 141.898C191.696 141.955 191.486 142.011 191.213 142.068C190.94 142.131 190.599 142.165 190.19 142.17C189.52 142.182 188.895 142.062 188.315 141.812C187.736 141.562 187.267 141.176 186.909 140.653C186.551 140.131 186.372 139.474 186.372 138.685V125.773ZM197.254 134.227V142H194.705V124.545H197.219V131.04H197.381C197.688 130.335 198.157 129.776 198.788 129.361C199.418 128.946 200.242 128.739 201.259 128.739C202.157 128.739 202.941 128.923 203.612 129.293C204.288 129.662 204.81 130.213 205.18 130.946C205.555 131.673 205.742 132.582 205.742 133.673V142H203.194V133.98C203.194 133.02 202.947 132.276 202.452 131.747C201.958 131.213 201.271 130.946 200.39 130.946C199.788 130.946 199.248 131.074 198.771 131.33C198.299 131.585 197.927 131.96 197.654 132.455C197.387 132.943 197.254 133.534 197.254 134.227ZM217.105 146.909C216.724 146.909 216.378 146.878 216.065 146.815C215.753 146.759 215.52 146.696 215.366 146.628L215.98 144.54C216.446 144.665 216.861 144.719 217.224 144.702C217.588 144.685 217.909 144.548 218.188 144.293C218.472 144.037 218.722 143.619 218.938 143.04L219.253 142.17L214.463 128.909H217.19L220.506 139.068H220.642L223.957 128.909H226.693L221.298 143.747C221.048 144.429 220.73 145.006 220.344 145.477C219.957 145.955 219.497 146.313 218.963 146.551C218.429 146.79 217.81 146.909 217.105 146.909ZM234.157 142.264C232.93 142.264 231.859 141.983 230.944 141.42C230.029 140.858 229.319 140.071 228.813 139.06C228.308 138.048 228.055 136.866 228.055 135.514C228.055 134.156 228.308 132.969 228.813 131.952C229.319 130.935 230.029 130.145 230.944 129.582C231.859 129.02 232.93 128.739 234.157 128.739C235.384 128.739 236.455 129.02 237.37 129.582C238.285 130.145 238.995 130.935 239.501 131.952C240.006 132.969 240.259 134.156 240.259 135.514C240.259 136.866 240.006 138.048 239.501 139.06C238.995 140.071 238.285 140.858 237.37 141.42C236.455 141.983 235.384 142.264 234.157 142.264ZM234.165 140.125C234.961 140.125 235.62 139.915 236.143 139.494C236.665 139.074 237.052 138.514 237.302 137.815C237.558 137.116 237.685 136.347 237.685 135.506C237.685 134.67 237.558 133.903 237.302 133.205C237.052 132.5 236.665 131.935 236.143 131.509C235.62 131.082 234.961 130.869 234.165 130.869C233.364 130.869 232.7 131.082 232.171 131.509C231.648 131.935 231.259 132.5 231.004 133.205C230.754 133.903 230.629 134.67 230.629 135.506C230.629 136.347 230.754 137.116 231.004 137.815C231.259 138.514 231.648 139.074 232.171 139.494C232.7 139.915 233.364 140.125 234.165 140.125ZM251.396 136.571V128.909H253.953V142H251.447V139.733H251.311C251.01 140.432 250.527 141.014 249.862 141.48C249.203 141.94 248.382 142.17 247.399 142.17C246.558 142.17 245.814 141.986 245.166 141.616C244.524 141.241 244.018 140.688 243.649 139.955C243.286 139.222 243.104 138.315 243.104 137.236V128.909H245.652V136.929C245.652 137.821 245.899 138.531 246.393 139.06C246.888 139.588 247.53 139.852 248.32 139.852C248.797 139.852 249.271 139.733 249.743 139.494C250.22 139.256 250.615 138.895 250.928 138.412C251.246 137.929 251.402 137.315 251.396 136.571ZM257.377 142V128.909H259.84V130.989H259.977C260.215 130.284 260.636 129.73 261.238 129.327C261.846 128.918 262.533 128.713 263.3 128.713C263.46 128.713 263.647 128.719 263.863 128.73C264.085 128.741 264.258 128.756 264.383 128.773V131.21C264.281 131.182 264.099 131.151 263.837 131.116C263.576 131.077 263.315 131.057 263.053 131.057C262.451 131.057 261.914 131.185 261.442 131.44C260.977 131.69 260.607 132.04 260.335 132.489C260.062 132.932 259.925 133.437 259.925 134.006V142H257.377ZM278.454 142.264C277.187 142.264 276.096 141.977 275.181 141.403C274.272 140.824 273.573 140.026 273.085 139.009C272.596 137.991 272.352 136.827 272.352 135.514C272.352 134.185 272.602 133.011 273.102 131.994C273.602 130.972 274.306 130.173 275.215 129.599C276.124 129.026 277.195 128.739 278.428 128.739C279.423 128.739 280.309 128.923 281.087 129.293C281.866 129.656 282.494 130.168 282.971 130.827C283.454 131.486 283.741 132.256 283.832 133.136H281.352C281.215 132.523 280.903 131.994 280.414 131.551C279.931 131.108 279.283 130.886 278.471 130.886C277.761 130.886 277.138 131.074 276.604 131.449C276.076 131.818 275.664 132.347 275.369 133.034C275.073 133.716 274.925 134.523 274.925 135.455C274.925 136.409 275.07 137.233 275.36 137.926C275.65 138.619 276.059 139.156 276.587 139.537C277.121 139.918 277.749 140.108 278.471 140.108C278.954 140.108 279.391 140.02 279.783 139.844C280.181 139.662 280.513 139.403 280.781 139.068C281.053 138.733 281.244 138.33 281.352 137.858H283.832C283.741 138.705 283.465 139.46 283.005 140.125C282.545 140.79 281.928 141.312 281.156 141.693C280.388 142.074 279.488 142.264 278.454 142.264ZM289.105 124.545V142H286.557V124.545H289.105ZM292.533 142V128.909H295.082V142H292.533ZM293.82 126.889C293.377 126.889 292.996 126.741 292.678 126.446C292.366 126.145 292.21 125.787 292.21 125.372C292.21 124.952 292.366 124.594 292.678 124.298C292.996 123.997 293.377 123.847 293.82 123.847C294.263 123.847 294.641 123.997 294.954 124.298C295.272 124.594 295.431 124.952 295.431 125.372C295.431 125.787 295.272 126.145 294.954 126.446C294.641 126.741 294.263 126.889 293.82 126.889ZM304.152 142.264C302.862 142.264 301.751 141.989 300.82 141.438C299.893 140.881 299.178 140.099 298.672 139.094C298.172 138.082 297.922 136.898 297.922 135.54C297.922 134.199 298.172 133.017 298.672 131.994C299.178 130.972 299.882 130.173 300.786 129.599C301.695 129.026 302.757 128.739 303.973 128.739C304.712 128.739 305.428 128.861 306.121 129.105C306.814 129.349 307.436 129.733 307.987 130.256C308.538 130.778 308.973 131.457 309.291 132.293C309.609 133.122 309.768 134.131 309.768 135.318V136.222H299.362V134.312H307.271C307.271 133.642 307.135 133.048 306.862 132.531C306.589 132.009 306.206 131.597 305.712 131.295C305.223 130.994 304.649 130.844 303.99 130.844C303.274 130.844 302.649 131.02 302.115 131.372C301.587 131.719 301.178 132.173 300.888 132.736C300.604 133.293 300.462 133.898 300.462 134.551V136.043C300.462 136.918 300.615 137.662 300.922 138.276C301.234 138.889 301.669 139.358 302.226 139.682C302.783 140 303.433 140.159 304.178 140.159C304.661 140.159 305.101 140.091 305.499 139.955C305.896 139.812 306.24 139.602 306.53 139.324C306.82 139.045 307.041 138.702 307.195 138.293L309.607 138.727C309.413 139.437 309.067 140.06 308.567 140.594C308.072 141.122 307.45 141.534 306.7 141.83C305.956 142.119 305.107 142.264 304.152 142.264ZM315.144 134.227V142H312.596V128.909H315.042V131.04H315.204C315.505 130.347 315.977 129.79 316.619 129.369C317.266 128.949 318.082 128.739 319.065 128.739C319.957 128.739 320.738 128.926 321.408 129.301C322.079 129.67 322.599 130.222 322.968 130.955C323.337 131.687 323.522 132.594 323.522 133.673V142H320.974V133.98C320.974 133.031 320.727 132.29 320.232 131.756C319.738 131.216 319.059 130.946 318.195 130.946C317.604 130.946 317.079 131.074 316.619 131.33C316.164 131.585 315.803 131.96 315.536 132.455C315.275 132.943 315.144 133.534 315.144 134.227ZM333.05 128.909V130.955H325.9V128.909H333.05ZM327.817 125.773H330.366V138.156C330.366 138.651 330.44 139.023 330.587 139.273C330.735 139.517 330.925 139.685 331.158 139.776C331.397 139.861 331.656 139.903 331.934 139.903C332.138 139.903 332.317 139.889 332.471 139.861C332.624 139.832 332.744 139.81 332.829 139.793L333.289 141.898C333.141 141.955 332.931 142.011 332.658 142.068C332.386 142.131 332.045 142.165 331.636 142.17C330.965 142.182 330.34 142.062 329.761 141.812C329.181 141.562 328.712 141.176 328.354 140.653C327.996 140.131 327.817 139.474 327.817 138.685V125.773ZM345.468 132.105L343.158 132.514C343.062 132.219 342.908 131.937 342.698 131.67C342.494 131.403 342.215 131.185 341.863 131.014C341.511 130.844 341.07 130.759 340.542 130.759C339.82 130.759 339.218 130.92 338.735 131.244C338.252 131.562 338.011 131.974 338.011 132.48C338.011 132.918 338.173 133.27 338.496 133.537C338.82 133.804 339.343 134.023 340.065 134.193L342.144 134.67C343.349 134.949 344.246 135.378 344.837 135.957C345.428 136.537 345.724 137.29 345.724 138.216C345.724 139 345.496 139.699 345.042 140.312C344.593 140.92 343.965 141.398 343.158 141.744C342.357 142.091 341.428 142.264 340.371 142.264C338.906 142.264 337.71 141.952 336.783 141.327C335.857 140.696 335.289 139.801 335.079 138.642L337.542 138.267C337.695 138.909 338.011 139.395 338.488 139.724C338.965 140.048 339.587 140.21 340.354 140.21C341.19 140.21 341.857 140.037 342.357 139.69C342.857 139.338 343.107 138.909 343.107 138.403C343.107 137.994 342.954 137.651 342.647 137.372C342.346 137.094 341.883 136.884 341.258 136.741L339.042 136.256C337.82 135.977 336.917 135.534 336.332 134.926C335.752 134.318 335.462 133.548 335.462 132.616C335.462 131.844 335.678 131.168 336.11 130.588C336.542 130.009 337.138 129.557 337.9 129.233C338.661 128.903 339.533 128.739 340.516 128.739C341.931 128.739 343.045 129.045 343.857 129.659C344.67 130.267 345.207 131.082 345.468 132.105Z" fill="black"/>
<rect x="582.5" y="74.5" width="133" height="54" rx="9.5" stroke="#999999" stroke-dasharray="4 4"/>
<path d="M617.902 109V95.9091H619.877V107.3H625.809V109H617.902ZM638.924 102.455C638.924 103.852 638.668 105.054 638.157 106.06C637.646 107.061 636.945 107.832 636.054 108.374C635.168 108.911 634.16 109.179 633.03 109.179C631.897 109.179 630.885 108.911 629.994 108.374C629.108 107.832 628.409 107.059 627.898 106.053C627.386 105.048 627.131 103.848 627.131 102.455C627.131 101.057 627.386 99.8572 627.898 98.8558C628.409 97.8501 629.108 97.0788 629.994 96.5419C630.885 96.0007 631.897 95.7301 633.03 95.7301C634.16 95.7301 635.168 96.0007 636.054 96.5419C636.945 97.0788 637.646 97.8501 638.157 98.8558C638.668 99.8572 638.924 101.057 638.924 102.455ZM636.968 102.455C636.968 101.389 636.795 100.492 636.45 99.7635C636.109 99.0305 635.641 98.4766 635.044 98.1016C634.452 97.7223 633.78 97.5327 633.03 97.5327C632.276 97.5327 631.603 97.7223 631.011 98.1016C630.418 98.4766 629.949 99.0305 629.604 99.7635C629.263 100.492 629.093 101.389 629.093 102.455C629.093 103.52 629.263 104.419 629.604 105.152C629.949 105.881 630.418 106.435 631.011 106.814C631.603 107.189 632.276 107.376 633.03 107.376C633.78 107.376 634.452 107.189 635.044 106.814C635.641 106.435 636.109 105.881 636.45 105.152C636.795 104.419 636.968 103.52 636.968 102.455ZM650.246 100.045C650.122 99.657 649.956 99.3097 649.747 99.0028C649.543 98.6918 649.298 98.4276 649.012 98.2102C648.727 97.9886 648.401 97.8203 648.034 97.7053C647.672 97.5902 647.274 97.5327 646.839 97.5327C646.102 97.5327 645.437 97.7223 644.845 98.1016C644.252 98.4808 643.783 99.0369 643.438 99.7699C643.097 100.499 642.927 101.391 642.927 102.448C642.927 103.509 643.1 104.406 643.445 105.139C643.79 105.872 644.263 106.428 644.864 106.808C645.465 107.187 646.149 107.376 646.916 107.376C647.627 107.376 648.247 107.232 648.776 106.942C649.308 106.652 649.72 106.243 650.009 105.714C650.303 105.182 650.45 104.555 650.45 103.835L650.962 103.931H647.216V102.301H652.362V103.79C652.362 104.89 652.127 105.844 651.658 106.654C651.194 107.46 650.551 108.082 649.728 108.521C648.91 108.96 647.972 109.179 646.916 109.179C645.731 109.179 644.691 108.906 643.796 108.361C642.906 107.815 642.211 107.042 641.712 106.04C641.214 105.035 640.965 103.842 640.965 102.461C640.965 101.417 641.109 100.479 641.399 99.6484C641.689 98.8175 642.096 98.1122 642.62 97.5327C643.149 96.9489 643.769 96.5036 644.48 96.1967C645.196 95.8857 645.978 95.7301 646.826 95.7301C647.533 95.7301 648.192 95.8345 648.801 96.0433C649.415 96.2521 649.96 96.5483 650.438 96.9318C650.919 97.3153 651.318 97.7713 651.633 98.2997C651.948 98.8239 652.161 99.4055 652.272 100.045H650.246ZM666.24 102.455C666.24 103.852 665.985 105.054 665.473 106.06C664.962 107.061 664.261 107.832 663.37 108.374C662.484 108.911 661.476 109.179 660.347 109.179C659.213 109.179 658.201 108.911 657.311 108.374C656.424 107.832 655.725 107.059 655.214 106.053C654.703 105.048 654.447 103.848 654.447 102.455C654.447 101.057 654.703 99.8572 655.214 98.8558C655.725 97.8501 656.424 97.0788 657.311 96.5419C658.201 96.0007 659.213 95.7301 660.347 95.7301C661.476 95.7301 662.484 96.0007 663.37 96.5419C664.261 97.0788 664.962 97.8501 665.473 98.8558C665.985 99.8572 666.24 101.057 666.24 102.455ZM664.284 102.455C664.284 101.389 664.112 100.492 663.767 99.7635C663.426 99.0305 662.957 98.4766 662.36 98.1016C661.768 97.7223 661.097 97.5327 660.347 97.5327C659.593 97.5327 658.919 97.7223 658.327 98.1016C657.735 98.4766 657.266 99.0305 656.921 99.7635C656.58 100.492 656.409 101.389 656.409 102.455C656.409 103.52 656.58 104.419 656.921 105.152C657.266 105.881 657.735 106.435 658.327 106.814C658.919 107.189 659.593 107.376 660.347 107.376C661.097 107.376 661.768 107.189 662.36 106.814C662.957 106.435 663.426 105.881 663.767 105.152C664.112 104.419 664.284 103.52 664.284 102.455ZM678.254 95.9091V109H676.273V97.8906H676.196L673.064 99.9361V98.044L676.33 95.9091H678.254Z" fill="#999999"/>
<rect x="771.5" y="74.5" width="133" height="54" rx="9.5" stroke="#999999" stroke-dasharray="4 4"/>
<path d="M805.636 109V95.9091H807.612V107.3H813.543V109H805.636ZM826.658 102.455C826.658 103.852 826.403 105.054 825.891 106.06C825.38 107.061 824.679 107.832 823.788 108.374C822.902 108.911 821.894 109.179 820.765 109.179C819.631 109.179 818.619 108.911 817.729 108.374C816.842 107.832 816.143 107.059 815.632 106.053C815.121 105.048 814.865 103.848 814.865 102.455C814.865 101.057 815.121 99.8572 815.632 98.8558C816.143 97.8501 816.842 97.0788 817.729 96.5419C818.619 96.0007 819.631 95.7301 820.765 95.7301C821.894 95.7301 822.902 96.0007 823.788 96.5419C824.679 97.0788 825.38 97.8501 825.891 98.8558C826.403 99.8572 826.658 101.057 826.658 102.455ZM824.702 102.455C824.702 101.389 824.53 100.492 824.185 99.7635C823.844 99.0305 823.375 98.4766 822.778 98.1016C822.186 97.7223 821.515 97.5327 820.765 97.5327C820.011 97.5327 819.337 97.7223 818.745 98.1016C818.153 98.4766 817.684 99.0305 817.339 99.7635C816.998 100.492 816.827 101.389 816.827 102.455C816.827 103.52 816.998 104.419 817.339 105.152C817.684 105.881 818.153 106.435 818.745 106.814C819.337 107.189 820.011 107.376 820.765 107.376C821.515 107.376 822.186 107.189 822.778 106.814C823.375 106.435 823.844 105.881 824.185 105.152C824.53 104.419 824.702 103.52 824.702 102.455ZM837.98 100.045C837.857 99.657 837.69 99.3097 837.482 99.0028C837.277 98.6918 837.032 98.4276 836.747 98.2102C836.461 97.9886 836.135 97.8203 835.769 97.7053C835.406 97.5902 835.008 97.5327 834.573 97.5327C833.836 97.5327 833.171 97.7223 832.579 98.1016C831.987 98.4808 831.518 99.0369 831.173 99.7699C830.832 100.499 830.661 101.391 830.661 102.448C830.661 103.509 830.834 104.406 831.179 105.139C831.524 105.872 831.997 106.428 832.598 106.808C833.199 107.187 833.883 107.376 834.65 107.376C835.362 107.376 835.982 107.232 836.51 106.942C837.043 106.652 837.454 106.243 837.744 105.714C838.038 105.182 838.185 104.555 838.185 103.835L838.696 103.931H834.95V102.301H840.096V103.79C840.096 104.89 839.862 105.844 839.393 106.654C838.928 107.46 838.285 108.082 837.462 108.521C836.644 108.96 835.707 109.179 834.65 109.179C833.465 109.179 832.426 108.906 831.531 108.361C830.64 107.815 829.945 107.042 829.447 106.04C828.948 105.035 828.699 103.842 828.699 102.461C828.699 101.417 828.844 100.479 829.134 99.6484C829.423 98.8175 829.83 98.1122 830.354 97.5327C830.883 96.9489 831.503 96.5036 832.215 96.1967C832.93 95.8857 833.712 95.7301 834.56 95.7301C835.268 95.7301 835.926 95.8345 836.536 96.0433C837.149 96.2521 837.695 96.5483 838.172 96.9318C838.653 97.3153 839.052 97.7713 839.367 98.2997C839.683 98.8239 839.896 99.4055 840.006 100.045H837.98ZM853.975 102.455C853.975 103.852 853.719 105.054 853.208 106.06C852.696 107.061 851.995 107.832 851.105 108.374C850.218 108.911 849.21 109.179 848.081 109.179C846.948 109.179 845.936 108.911 845.045 108.374C844.159 107.832 843.46 107.059 842.948 106.053C842.437 105.048 842.181 103.848 842.181 102.455C842.181 101.057 842.437 99.8572 842.948 98.8558C843.46 97.8501 844.159 97.0788 845.045 96.5419C845.936 96.0007 846.948 95.7301 848.081 95.7301C849.21 95.7301 850.218 96.0007 851.105 96.5419C851.995 97.0788 852.696 97.8501 853.208 98.8558C853.719 99.8572 853.975 101.057 853.975 102.455ZM852.019 102.455C852.019 101.389 851.846 100.492 851.501 99.7635C851.16 99.0305 850.691 98.4766 850.095 98.1016C849.502 97.7223 848.831 97.5327 848.081 97.5327C847.327 97.5327 846.654 97.7223 846.061 98.1016C845.469 98.4766 845 99.0305 844.655 99.7635C844.314 100.492 844.144 101.389 844.144 102.455C844.144 103.52 844.314 104.419 844.655 105.152C845 105.881 845.469 106.435 846.061 106.814C846.654 107.189 847.327 107.376 848.081 107.376C848.831 107.376 849.502 107.189 850.095 106.814C850.691 106.435 851.16 105.881 851.501 105.152C851.846 104.419 852.019 103.52 852.019 102.455ZM861.022 109V107.568L865.452 102.979C865.925 102.48 866.315 102.043 866.621 101.668C866.932 101.289 867.165 100.929 867.318 100.588C867.472 100.247 867.548 99.8849 867.548 99.5014C867.548 99.0668 867.446 98.6918 867.241 98.3764C867.037 98.0568 866.758 97.8118 866.404 97.6413C866.05 97.4666 865.652 97.3793 865.209 97.3793C864.74 97.3793 864.331 97.4751 863.981 97.6669C863.632 97.8587 863.364 98.1293 863.176 98.4787C862.989 98.8281 862.895 99.2372 862.895 99.706H861.009C861.009 98.9091 861.192 98.2124 861.559 97.6158C861.925 97.0192 862.428 96.5568 863.067 96.2287C863.707 95.8963 864.433 95.7301 865.247 95.7301C866.07 95.7301 866.794 95.8942 867.42 96.2223C868.051 96.5462 868.543 96.9893 868.897 97.5518C869.251 98.1101 869.427 98.7408 869.427 99.4439C869.427 99.9297 869.336 100.405 869.153 100.869C868.974 101.334 868.66 101.852 868.213 102.423C867.766 102.989 867.143 103.678 866.347 104.487L863.745 107.21V107.306H869.638V109H861.022Z" fill="#999999"/>
<rect x="960.5" y="74.5" width="133" height="54" rx="9.5" stroke="#999999" stroke-dasharray="4 4"/>
<path d="M994.355 109V95.9091H996.33V107.3H1002.26V109H994.355ZM1015.38 102.455C1015.38 103.852 1015.12 105.054 1014.61 106.06C1014.1 107.061 1013.4 107.832 1012.51 108.374C1011.62 108.911 1010.61 109.179 1009.48 109.179C1008.35 109.179 1007.34 108.911 1006.45 108.374C1005.56 107.832 1004.86 107.059 1004.35 106.053C1003.84 105.048 1003.58 103.848 1003.58 102.455C1003.58 101.057 1003.84 99.8572 1004.35 98.8558C1004.86 97.8501 1005.56 97.0788 1006.45 96.5419C1007.34 96.0007 1008.35 95.7301 1009.48 95.7301C1010.61 95.7301 1011.62 96.0007 1012.51 96.5419C1013.4 97.0788 1014.1 97.8501 1014.61 98.8558C1015.12 99.8572 1015.38 101.057 1015.38 102.455ZM1013.42 102.455C1013.42 101.389 1013.25 100.492 1012.9 99.7635C1012.56 99.0305 1012.09 98.4766 1011.5 98.1016C1010.9 97.7223 1010.23 97.5327 1009.48 97.5327C1008.73 97.5327 1008.06 97.7223 1007.46 98.1016C1006.87 98.4766 1006.4 99.0305 1006.06 99.7635C1005.72 100.492 1005.55 101.389 1005.55 102.455C1005.55 103.52 1005.72 104.419 1006.06 105.152C1006.4 105.881 1006.87 106.435 1007.46 106.814C1008.06 107.189 1008.73 107.376 1009.48 107.376C1010.23 107.376 1010.9 107.189 1011.5 106.814C1012.09 106.435 1012.56 105.881 1012.9 105.152C1013.25 104.419 1013.42 103.52 1013.42 102.455ZM1026.7 100.045C1026.58 99.657 1026.41 99.3097 1026.2 99.0028C1026 98.6918 1025.75 98.4276 1025.47 98.2102C1025.18 97.9886 1024.85 97.8203 1024.49 97.7053C1024.13 97.5902 1023.73 97.5327 1023.29 97.5327C1022.55 97.5327 1021.89 97.7223 1021.3 98.1016C1020.71 98.4808 1020.24 99.0369 1019.89 99.7699C1019.55 100.499 1019.38 101.391 1019.38 102.448C1019.38 103.509 1019.55 104.406 1019.9 105.139C1020.24 105.872 1020.72 106.428 1021.32 106.808C1021.92 107.187 1022.6 107.376 1023.37 107.376C1024.08 107.376 1024.7 107.232 1025.23 106.942C1025.76 106.652 1026.17 106.243 1026.46 105.714C1026.76 105.182 1026.9 104.555 1026.9 103.835L1027.41 103.931H1023.67V102.301H1028.81V103.79C1028.81 104.89 1028.58 105.844 1028.11 106.654C1027.65 107.46 1027 108.082 1026.18 108.521C1025.36 108.96 1024.43 109.179 1023.37 109.179C1022.18 109.179 1021.14 108.906 1020.25 108.361C1019.36 107.815 1018.66 107.042 1018.17 106.04C1017.67 105.035 1017.42 103.842 1017.42 102.461C1017.42 101.417 1017.56 100.479 1017.85 99.6484C1018.14 98.8175 1018.55 98.1122 1019.07 97.5327C1019.6 96.9489 1020.22 96.5036 1020.93 96.1967C1021.65 95.8857 1022.43 95.7301 1023.28 95.7301C1023.99 95.7301 1024.64 95.8345 1025.25 96.0433C1025.87 96.2521 1026.41 96.5483 1026.89 96.9318C1027.37 97.3153 1027.77 97.7713 1028.09 98.2997C1028.4 98.8239 1028.61 99.4055 1028.73 100.045H1026.7ZM1042.69 102.455C1042.69 103.852 1042.44 105.054 1041.93 106.06C1041.42 107.061 1040.71 107.832 1039.82 108.374C1038.94 108.911 1037.93 109.179 1036.8 109.179C1035.67 109.179 1034.65 108.911 1033.76 108.374C1032.88 107.832 1032.18 107.059 1031.67 106.053C1031.16 105.048 1030.9 103.848 1030.9 102.455C1030.9 101.057 1031.16 99.8572 1031.67 98.8558C1032.18 97.8501 1032.88 97.0788 1033.76 96.5419C1034.65 96.0007 1035.67 95.7301 1036.8 95.7301C1037.93 95.7301 1038.94 96.0007 1039.82 96.5419C1040.71 97.0788 1041.42 97.8501 1041.93 98.8558C1042.44 99.8572 1042.69 101.057 1042.69 102.455ZM1040.74 102.455C1040.74 101.389 1040.56 100.492 1040.22 99.7635C1039.88 99.0305 1039.41 98.4766 1038.81 98.1016C1038.22 97.7223 1037.55 97.5327 1036.8 97.5327C1036.05 97.5327 1035.37 97.7223 1034.78 98.1016C1034.19 98.4766 1033.72 99.0305 1033.37 99.7635C1033.03 100.492 1032.86 101.389 1032.86 102.455C1032.86 103.52 1033.03 104.419 1033.37 105.152C1033.72 105.881 1034.19 106.435 1034.78 106.814C1035.37 107.189 1036.05 107.376 1036.8 107.376C1037.55 107.376 1038.22 107.189 1038.81 106.814C1039.41 106.435 1039.88 105.881 1040.22 105.152C1040.56 104.419 1040.74 103.52 1040.74 102.455ZM1054.3 109.179C1053.42 109.179 1052.64 109.028 1051.95 108.725C1051.26 108.423 1050.72 108.003 1050.32 107.466C1049.92 106.925 1049.71 106.298 1049.68 105.587H1051.68C1051.71 105.974 1051.84 106.311 1052.07 106.597C1052.31 106.878 1052.62 107.095 1053.01 107.249C1053.39 107.402 1053.82 107.479 1054.29 107.479C1054.8 107.479 1055.26 107.389 1055.65 107.21C1056.05 107.031 1056.37 106.782 1056.59 106.462C1056.82 106.138 1056.93 105.766 1056.93 105.344C1056.93 104.905 1056.82 104.519 1056.59 104.187C1056.37 103.85 1056.05 103.586 1055.61 103.394C1055.19 103.202 1054.67 103.107 1054.07 103.107H1052.96V101.496H1054.07C1054.55 101.496 1054.98 101.408 1055.35 101.234C1055.72 101.059 1056.01 100.816 1056.22 100.505C1056.42 100.19 1056.53 99.821 1056.53 99.3991C1056.53 98.9943 1056.44 98.6428 1056.25 98.3445C1056.08 98.0419 1055.82 97.8054 1055.49 97.6349C1055.16 97.4645 1054.77 97.3793 1054.32 97.3793C1053.9 97.3793 1053.5 97.4581 1053.13 97.6158C1052.76 97.7692 1052.46 97.9908 1052.23 98.2805C1052 98.5661 1051.88 98.9091 1051.86 99.3097H1049.95C1049.97 98.6023 1050.18 97.9801 1050.58 97.4432C1050.98 96.9062 1051.51 96.4865 1052.16 96.1839C1052.82 95.8814 1053.55 95.7301 1054.35 95.7301C1055.19 95.7301 1055.91 95.8942 1056.52 96.2223C1057.14 96.5462 1057.61 96.9787 1057.94 97.5199C1058.28 98.0611 1058.44 98.6534 1058.44 99.2969C1058.44 100.03 1058.24 100.652 1057.83 101.163C1057.42 101.675 1056.87 102.018 1056.19 102.192V102.295C1057.06 102.427 1057.73 102.772 1058.21 103.33C1058.69 103.888 1058.93 104.581 1058.93 105.408C1058.93 106.128 1058.73 106.773 1058.33 107.344C1057.92 107.915 1057.38 108.365 1056.68 108.693C1055.99 109.017 1055.19 109.179 1054.3 109.179Z" fill="#999999"/>
<rect x="1149.5" y="74.5" width="133" height="54" rx="9.5" stroke="#999999" stroke-dasharray="4 4"/>
<path d="M1183.27 109V95.9091H1185.24V107.3H1191.17V109H1183.27ZM1204.29 102.455C1204.29 103.852 1204.03 105.054 1203.52 106.06C1203.01 107.061 1202.31 107.832 1201.42 108.374C1200.53 108.911 1199.52 109.179 1198.4 109.179C1197.26 109.179 1196.25 108.911 1195.36 108.374C1194.47 107.832 1193.77 107.059 1193.26 106.053C1192.75 105.048 1192.5 103.848 1192.5 102.455C1192.5 101.057 1192.75 99.8572 1193.26 98.8558C1193.77 97.8501 1194.47 97.0788 1195.36 96.5419C1196.25 96.0007 1197.26 95.7301 1198.4 95.7301C1199.52 95.7301 1200.53 96.0007 1201.42 96.5419C1202.31 97.0788 1203.01 97.8501 1203.52 98.8558C1204.03 99.8572 1204.29 101.057 1204.29 102.455ZM1202.33 102.455C1202.33 101.389 1202.16 100.492 1201.82 99.7635C1201.47 99.0305 1201.01 98.4766 1200.41 98.1016C1199.82 97.7223 1199.15 97.5327 1198.4 97.5327C1197.64 97.5327 1196.97 97.7223 1196.38 98.1016C1195.78 98.4766 1195.31 99.0305 1194.97 99.7635C1194.63 100.492 1194.46 101.389 1194.46 102.455C1194.46 103.52 1194.63 104.419 1194.97 105.152C1195.31 105.881 1195.78 106.435 1196.38 106.814C1196.97 107.189 1197.64 107.376 1198.4 107.376C1199.15 107.376 1199.82 107.189 1200.41 106.814C1201.01 106.435 1201.47 105.881 1201.82 105.152C1202.16 104.419 1202.33 103.52 1202.33 102.455ZM1215.61 100.045C1215.49 99.657 1215.32 99.3097 1215.11 99.0028C1214.91 98.6918 1214.66 98.4276 1214.38 98.2102C1214.09 97.9886 1213.77 97.8203 1213.4 97.7053C1213.04 97.5902 1212.64 97.5327 1212.2 97.5327C1211.47 97.5327 1210.8 97.7223 1210.21 98.1016C1209.62 98.4808 1209.15 99.0369 1208.8 99.7699C1208.46 100.499 1208.29 101.391 1208.29 102.448C1208.29 103.509 1208.46 104.406 1208.81 105.139C1209.16 105.872 1209.63 106.428 1210.23 106.808C1210.83 107.187 1211.51 107.376 1212.28 107.376C1212.99 107.376 1213.61 107.232 1214.14 106.942C1214.67 106.652 1215.08 106.243 1215.37 105.714C1215.67 105.182 1215.82 104.555 1215.82 103.835L1216.33 103.931H1212.58V102.301H1217.73V103.79C1217.73 104.89 1217.49 105.844 1217.02 106.654C1216.56 107.46 1215.92 108.082 1215.09 108.521C1214.28 108.96 1213.34 109.179 1212.28 109.179C1211.1 109.179 1210.06 108.906 1209.16 108.361C1208.27 107.815 1207.58 107.042 1207.08 106.04C1206.58 105.035 1206.33 103.842 1206.33 102.461C1206.33 101.417 1206.47 100.479 1206.76 99.6484C1207.05 98.8175 1207.46 98.1122 1207.99 97.5327C1208.51 96.9489 1209.13 96.5036 1209.85 96.1967C1210.56 95.8857 1211.34 95.7301 1212.19 95.7301C1212.9 95.7301 1213.56 95.8345 1214.17 96.0433C1214.78 96.2521 1215.33 96.5483 1215.8 96.9318C1216.28 97.3153 1216.68 97.7713 1217 98.2997C1217.31 98.8239 1217.53 99.4055 1217.64 100.045H1215.61ZM1231.61 102.455C1231.61 103.852 1231.35 105.054 1230.84 106.06C1230.33 107.061 1229.63 107.832 1228.74 108.374C1227.85 108.911 1226.84 109.179 1225.71 109.179C1224.58 109.179 1223.57 108.911 1222.68 108.374C1221.79 107.832 1221.09 107.059 1220.58 106.053C1220.07 105.048 1219.81 103.848 1219.81 102.455C1219.81 101.057 1220.07 99.8572 1220.58 98.8558C1221.09 97.8501 1221.79 97.0788 1222.68 96.5419C1223.57 96.0007 1224.58 95.7301 1225.71 95.7301C1226.84 95.7301 1227.85 96.0007 1228.74 96.5419C1229.63 97.0788 1230.33 97.8501 1230.84 98.8558C1231.35 99.8572 1231.61 101.057 1231.61 102.455ZM1229.65 102.455C1229.65 101.389 1229.48 100.492 1229.13 99.7635C1228.79 99.0305 1228.32 98.4766 1227.73 98.1016C1227.13 97.7223 1226.46 97.5327 1225.71 97.5327C1224.96 97.5327 1224.28 97.7223 1223.69 98.1016C1223.1 98.4766 1222.63 99.0305 1222.29 99.7635C1221.95 100.492 1221.77 101.389 1221.77 102.455C1221.77 103.52 1221.95 104.419 1222.29 105.152C1222.63 105.881 1223.1 106.435 1223.69 106.814C1224.28 107.189 1224.96 107.376 1225.71 107.376C1226.46 107.376 1227.13 107.189 1227.73 106.814C1228.32 106.435 1228.79 105.881 1229.13 105.152C1229.48 104.419 1229.65 103.52 1229.65 102.455ZM1238.38 106.443V104.845L1244.03 95.9091H1245.29V98.2614H1244.5L1240.45 104.666V104.768H1248.2V106.443H1238.38ZM1244.58 109V105.957L1244.6 105.229V95.9091H1246.47V109H1244.58Z" fill="#999999"/>
</svg>
