<svg width="1440" height="302" viewBox="0 0 1440 302" fill="none" xmlns="http://www.w3.org/2000/svg">
<rect width="1440" height="302" fill="white"/>
<rect y="7" width="1440" height="289" fill="#F1F1F1"/>
<path d="M259.987 90V60.9091H265.256V73.2244H278.737V60.9091H284.021V90H278.737V77.642H265.256V90H259.987ZM299.184 90.4261C296.996 90.4261 295.107 89.9716 293.516 89.0625C291.935 88.1439 290.718 86.8466 289.866 85.1705C289.013 83.4848 288.587 81.5009 288.587 79.2188C288.587 76.9744 289.013 75.0047 289.866 73.3097C290.728 71.6051 291.93 70.2794 293.474 69.3324C295.017 68.3759 296.831 67.8977 298.914 67.8977C300.259 67.8977 301.528 68.1155 302.721 68.5511C303.924 68.9773 304.984 69.6402 305.903 70.5398C306.831 71.4394 307.56 72.5852 308.09 73.9773C308.621 75.3598 308.886 77.0076 308.886 78.9205V80.4972H291.002V77.0312H303.957C303.947 76.0464 303.734 75.1705 303.317 74.4034C302.901 73.6269 302.318 73.0161 301.57 72.571C300.832 72.1259 299.97 71.9034 298.985 71.9034C297.934 71.9034 297.011 72.1591 296.215 72.6705C295.42 73.1723 294.799 73.8352 294.354 74.6591C293.919 75.4735 293.696 76.3684 293.687 77.3438V80.3693C293.687 81.6383 293.919 82.7273 294.383 83.6364C294.847 84.536 295.496 85.2273 296.329 85.7102C297.162 86.1837 298.138 86.4205 299.255 86.4205C300.003 86.4205 300.68 86.3163 301.286 86.108C301.892 85.8902 302.418 85.5729 302.863 85.1562C303.308 84.7396 303.644 84.2235 303.871 83.608L308.673 84.1477C308.37 85.4167 307.792 86.5246 306.94 87.4716C306.097 88.4091 305.017 89.1383 303.701 89.6591C302.385 90.1705 300.879 90.4261 299.184 90.4261ZM319.514 90.4403C318.132 90.4403 316.886 90.1941 315.778 89.7017C314.68 89.1998 313.809 88.4612 313.165 87.4858C312.53 86.5104 312.213 85.3078 312.213 83.8778C312.213 82.6468 312.44 81.6288 312.895 80.8239C313.349 80.0189 313.97 79.375 314.756 78.892C315.542 78.4091 316.427 78.0445 317.412 77.7983C318.406 77.5426 319.434 77.358 320.494 77.2443C321.773 77.1117 322.81 76.9934 323.605 76.8892C324.401 76.7756 324.978 76.6051 325.338 76.3778C325.707 76.1411 325.892 75.7765 325.892 75.2841V75.1989C325.892 74.1288 325.575 73.3002 324.94 72.7131C324.306 72.1259 323.392 71.8324 322.199 71.8324C320.939 71.8324 319.94 72.107 319.202 72.6562C318.473 73.2055 317.98 73.8542 317.724 74.6023L312.923 73.9205C313.302 72.5947 313.927 71.4867 314.798 70.5966C315.67 69.697 316.735 69.0246 317.994 68.5795C319.254 68.125 320.646 67.8977 322.17 67.8977C323.222 67.8977 324.268 68.0208 325.31 68.267C326.351 68.5133 327.303 68.9205 328.165 69.4886C329.027 70.0473 329.718 70.8097 330.239 71.7756C330.769 72.7415 331.034 73.9489 331.034 75.3977V90H326.091V87.0028H325.92C325.608 87.6089 325.168 88.1771 324.599 88.7074C324.041 89.2282 323.335 89.6496 322.483 89.9716C321.64 90.2841 320.651 90.4403 319.514 90.4403ZM320.849 86.6619C321.882 86.6619 322.777 86.4583 323.534 86.0511C324.292 85.6345 324.874 85.0852 325.281 84.4034C325.698 83.7216 325.906 82.9782 325.906 82.1733V79.6023C325.745 79.7348 325.471 79.858 325.082 79.9716C324.704 80.0852 324.277 80.1847 323.804 80.2699C323.33 80.3551 322.862 80.4309 322.398 80.4972C321.934 80.5634 321.531 80.6203 321.19 80.6676C320.423 80.7718 319.737 80.9422 319.131 81.179C318.525 81.4157 318.046 81.7472 317.696 82.1733C317.346 82.59 317.17 83.1297 317.17 83.7926C317.17 84.7396 317.516 85.4545 318.207 85.9375C318.899 86.4205 319.779 86.6619 320.849 86.6619ZM344.301 90.3835C342.587 90.3835 341.053 89.9432 339.699 89.0625C338.345 88.1818 337.275 86.9034 336.489 85.2273C335.703 83.5511 335.31 81.5152 335.31 79.1193C335.31 76.6951 335.707 74.6496 336.503 72.983C337.308 71.3068 338.392 70.0426 339.756 69.1903C341.119 68.3286 342.639 67.8977 344.315 67.8977C345.594 67.8977 346.645 68.1155 347.469 68.5511C348.293 68.9773 348.946 69.4934 349.429 70.0994C349.912 70.696 350.286 71.2595 350.551 71.7898H350.764V60.9091H355.92V90H350.864V86.5625H350.551C350.286 87.0928 349.902 87.6562 349.401 88.2528C348.899 88.84 348.236 89.3419 347.412 89.7585C346.588 90.1752 345.551 90.3835 344.301 90.3835ZM345.736 86.1648C346.825 86.1648 347.753 85.8712 348.52 85.2841C349.287 84.6875 349.869 83.8589 350.267 82.7983C350.665 81.7377 350.864 80.5019 350.864 79.0909C350.864 77.6799 350.665 76.4536 350.267 75.4119C349.879 74.3703 349.301 73.5606 348.534 72.983C347.777 72.4053 346.844 72.1165 345.736 72.1165C344.59 72.1165 343.634 72.4148 342.866 73.0114C342.099 73.608 341.522 74.4318 341.134 75.483C340.745 76.5341 340.551 77.7367 340.551 79.0909C340.551 80.4545 340.745 81.6714 341.134 82.7415C341.531 83.8021 342.114 84.6402 342.881 85.2557C343.657 85.8617 344.609 86.1648 345.736 86.1648ZM371.059 90.4261C368.871 90.4261 366.982 89.9716 365.391 89.0625C363.81 88.1439 362.593 86.8466 361.741 85.1705C360.888 83.4848 360.462 81.5009 360.462 79.2188C360.462 76.9744 360.888 75.0047 361.741 73.3097C362.603 71.6051 363.805 70.2794 365.349 69.3324C366.892 68.3759 368.706 67.8977 370.789 67.8977C372.134 67.8977 373.403 68.1155 374.596 68.5511C375.799 68.9773 376.859 69.6402 377.778 70.5398C378.706 71.4394 379.435 72.5852 379.965 73.9773C380.496 75.3598 380.761 77.0076 380.761 78.9205V80.4972H362.877V77.0312H375.832C375.822 76.0464 375.609 75.1705 375.192 74.4034C374.776 73.6269 374.193 73.0161 373.445 72.571C372.707 72.1259 371.845 71.9034 370.86 71.9034C369.809 71.9034 368.886 72.1591 368.09 72.6705C367.295 73.1723 366.674 73.8352 366.229 74.6591C365.794 75.4735 365.571 76.3684 365.562 77.3438V80.3693C365.562 81.6383 365.794 82.7273 366.258 83.6364C366.722 84.536 367.371 85.2273 368.204 85.7102C369.037 86.1837 370.013 86.4205 371.13 86.4205C371.878 86.4205 372.555 86.3163 373.161 86.108C373.767 85.8902 374.293 85.5729 374.738 85.1562C375.183 84.7396 375.519 84.2235 375.746 83.608L380.548 84.1477C380.245 85.4167 379.667 86.5246 378.815 87.4716C377.972 88.4091 376.892 89.1383 375.576 89.6591C374.26 90.1705 372.754 90.4261 371.059 90.4261ZM385.111 90V68.1818H390.097V71.8182H390.324C390.722 70.5587 391.403 69.5881 392.369 68.9062C393.345 68.215 394.457 67.8693 395.707 67.8693C395.991 67.8693 396.309 67.8835 396.659 67.9119C397.019 67.9309 397.317 67.964 397.554 68.0114V72.7415C397.336 72.6657 396.991 72.5994 396.517 72.5426C396.053 72.4763 395.603 72.4432 395.168 72.4432C394.23 72.4432 393.387 72.6468 392.639 73.054C391.901 73.4517 391.318 74.0057 390.892 74.7159C390.466 75.4261 390.253 76.2453 390.253 77.1733V90H385.111ZM421.943 68.1818V72.1591H409.045V68.1818H421.943ZM412.27 90V66.1222C412.27 64.6544 412.573 63.4328 413.179 62.4574C413.795 61.482 414.618 60.7528 415.651 60.2699C416.683 59.7869 417.829 59.5455 419.088 59.5455C419.978 59.5455 420.769 59.6165 421.46 59.7585C422.152 59.9006 422.663 60.0284 422.994 60.142L421.972 64.1193C421.754 64.053 421.479 63.9867 421.148 63.9205C420.816 63.8447 420.447 63.8068 420.04 63.8068C419.083 63.8068 418.406 64.0388 418.009 64.5028C417.62 64.9574 417.426 65.6108 417.426 66.4631V90H412.27ZM434.667 90.4261C432.536 90.4261 430.69 89.9574 429.127 89.0199C427.565 88.0824 426.353 86.7708 425.491 85.0852C424.638 83.3996 424.212 81.4299 424.212 79.1761C424.212 76.9223 424.638 74.9479 425.491 73.2528C426.353 71.5578 427.565 70.2415 429.127 69.304C430.69 68.3665 432.536 67.8977 434.667 67.8977C436.798 67.8977 438.644 68.3665 440.207 69.304C441.769 70.2415 442.977 71.5578 443.829 73.2528C444.691 74.9479 445.121 76.9223 445.121 79.1761C445.121 81.4299 444.691 83.3996 443.829 85.0852C442.977 86.7708 441.769 88.0824 440.207 89.0199C438.644 89.9574 436.798 90.4261 434.667 90.4261ZM434.695 86.3068C435.851 86.3068 436.817 85.9896 437.593 85.3551C438.37 84.7112 438.947 83.8494 439.326 82.7699C439.714 81.6903 439.908 80.4877 439.908 79.1619C439.908 77.8267 439.714 76.6193 439.326 75.5398C438.947 74.4508 438.37 73.5843 437.593 72.9403C436.817 72.2964 435.851 71.9744 434.695 71.9744C433.512 71.9744 432.527 72.2964 431.741 72.9403C430.964 73.5843 430.382 74.4508 429.994 75.5398C429.615 76.6193 429.425 77.8267 429.425 79.1619C429.425 80.4877 429.615 81.6903 429.994 82.7699C430.382 83.8494 430.964 84.7112 431.741 85.3551C432.527 85.9896 433.512 86.3068 434.695 86.3068ZM449.486 90V68.1818H454.472V71.8182H454.699C455.097 70.5587 455.778 69.5881 456.744 68.9062C457.72 68.215 458.832 67.8693 460.082 67.8693C460.366 67.8693 460.684 67.8835 461.034 67.9119C461.394 67.9309 461.692 67.964 461.929 68.0114V72.7415C461.711 72.6657 461.366 72.5994 460.892 72.5426C460.428 72.4763 459.978 72.4432 459.543 72.4432C458.605 72.4432 457.762 72.6468 457.014 73.054C456.276 73.4517 455.693 74.0057 455.267 74.7159C454.841 75.4261 454.628 76.2453 454.628 77.1733V90H449.486ZM478.463 98.1818C477.762 98.1818 477.114 98.125 476.517 98.0114C475.93 97.9072 475.461 97.7841 475.111 97.642L476.304 93.6364C477.052 93.8542 477.72 93.9583 478.307 93.9489C478.894 93.9394 479.41 93.7547 479.855 93.3949C480.31 93.0445 480.693 92.4574 481.006 91.6335L481.446 90.4545L473.534 68.1818H478.989L484.017 84.6591H484.244L489.287 68.1818H494.756L486.02 92.642C485.613 93.7973 485.073 94.7869 484.401 95.6108C483.728 96.4441 482.904 97.0786 481.929 97.5142C480.963 97.9593 479.808 98.1818 478.463 98.1818ZM507.089 90.4261C504.958 90.4261 503.112 89.9574 501.549 89.0199C499.987 88.0824 498.774 86.7708 497.913 85.0852C497.06 83.3996 496.634 81.4299 496.634 79.1761C496.634 76.9223 497.06 74.9479 497.913 73.2528C498.774 71.5578 499.987 70.2415 501.549 69.304C503.112 68.3665 504.958 67.8977 507.089 67.8977C509.219 67.8977 511.066 68.3665 512.629 69.304C514.191 70.2415 515.398 71.5578 516.251 73.2528C517.112 74.9479 517.543 76.9223 517.543 79.1761C517.543 81.4299 517.112 83.3996 516.251 85.0852C515.398 86.7708 514.191 88.0824 512.629 89.0199C511.066 89.9574 509.219 90.4261 507.089 90.4261ZM507.117 86.3068C508.272 86.3068 509.238 85.9896 510.015 85.3551C510.791 84.7112 511.369 83.8494 511.748 82.7699C512.136 81.6903 512.33 80.4877 512.33 79.1619C512.33 77.8267 512.136 76.6193 511.748 75.5398C511.369 74.4508 510.791 73.5843 510.015 72.9403C509.238 72.2964 508.272 71.9744 507.117 71.9744C505.933 71.9744 504.949 72.2964 504.163 72.9403C503.386 73.5843 502.804 74.4508 502.415 75.5398C502.037 76.6193 501.847 77.8267 501.847 79.1619C501.847 80.4877 502.037 81.6903 502.415 82.7699C502.804 83.8494 503.386 84.7112 504.163 85.3551C504.949 85.9896 505.933 86.3068 507.117 86.3068ZM535.814 80.8239V68.1818H540.956V90H535.97V86.1222H535.743C535.25 87.3437 534.441 88.3428 533.314 89.1193C532.196 89.8958 530.819 90.2841 529.18 90.2841C527.75 90.2841 526.486 89.9669 525.388 89.3324C524.299 88.6884 523.446 87.7557 522.831 86.5341C522.215 85.303 521.908 83.8163 521.908 82.0739V68.1818H527.05V81.2784C527.05 82.661 527.429 83.7595 528.186 84.5739C528.944 85.3883 529.938 85.7955 531.169 85.7955C531.927 85.7955 532.661 85.6108 533.371 85.2415C534.081 84.8722 534.663 84.3229 535.118 83.5938C535.582 82.8551 535.814 81.9318 535.814 80.8239ZM546.244 90V68.1818H551.229V71.8182H551.457C551.854 70.5587 552.536 69.5881 553.502 68.9062C554.478 68.215 555.59 67.8693 556.84 67.8693C557.124 67.8693 557.442 67.8835 557.792 67.9119C558.152 67.9309 558.45 67.964 558.687 68.0114V72.7415C558.469 72.6657 558.123 72.5994 557.65 72.5426C557.186 72.4763 556.736 72.4432 556.3 72.4432C555.363 72.4432 554.52 72.6468 553.772 73.054C553.033 73.4517 552.451 74.0057 552.025 74.7159C551.599 75.4261 551.386 76.2453 551.386 77.1733V90H546.244ZM589.269 73.9489L584.582 74.4602C584.449 73.9867 584.217 73.5417 583.886 73.125C583.564 72.7083 583.128 72.3722 582.579 72.1165C582.03 71.8608 581.357 71.733 580.562 71.733C579.492 71.733 578.592 71.965 577.863 72.429C577.143 72.893 576.788 73.4943 576.798 74.233C576.788 74.8674 577.02 75.3835 577.494 75.7812C577.977 76.179 578.772 76.5057 579.88 76.7614L583.602 77.5568C585.666 78.0019 587.2 78.7074 588.204 79.6733C589.217 80.6392 589.728 81.9034 589.738 83.4659C589.728 84.839 589.326 86.0511 588.531 87.1023C587.745 88.1439 586.651 88.9583 585.249 89.5455C583.848 90.1326 582.238 90.4261 580.42 90.4261C577.749 90.4261 575.6 89.8674 573.971 88.75C572.342 87.6231 571.371 86.0559 571.059 84.0483L576.073 83.5653C576.3 84.5502 576.783 85.2936 577.522 85.7955C578.261 86.2973 579.222 86.5483 580.406 86.5483C581.627 86.5483 582.607 86.2973 583.346 85.7955C584.094 85.2936 584.468 84.6733 584.468 83.9347C584.468 83.3097 584.227 82.7936 583.744 82.3864C583.27 81.9792 582.531 81.6667 581.528 81.4489L577.806 80.6676C575.713 80.232 574.165 79.4981 573.161 78.4659C572.157 77.4242 571.66 76.108 571.67 74.517C571.66 73.1723 572.025 72.0076 572.763 71.0227C573.512 70.0284 574.549 69.2614 575.874 68.7216C577.21 68.1723 578.748 67.8977 580.491 67.8977C583.048 67.8977 585.06 68.4422 586.528 69.5312C588.005 70.6203 588.919 72.0928 589.269 73.9489ZM607.884 80.8239V68.1818H613.026V90H608.04V86.1222H607.813C607.321 87.3437 606.511 88.3428 605.384 89.1193C604.267 89.8958 602.889 90.2841 601.251 90.2841C599.821 90.2841 598.557 89.9669 597.458 89.3324C596.369 88.6884 595.517 87.7557 594.901 86.5341C594.286 85.303 593.978 83.8163 593.978 82.0739V68.1818H599.12V81.2784C599.12 82.661 599.499 83.7595 600.256 84.5739C601.014 85.3883 602.008 85.7955 603.239 85.7955C603.997 85.7955 604.731 85.6108 605.441 85.2415C606.151 84.8722 606.734 84.3229 607.188 83.5938C607.652 82.8551 607.884 81.9318 607.884 80.8239ZM627.831 90.4261C625.653 90.4261 623.783 89.9479 622.22 88.9915C620.667 88.035 619.469 86.714 618.626 85.0284C617.793 83.3333 617.376 81.3826 617.376 79.1761C617.376 76.9602 617.803 75.0047 618.655 73.3097C619.507 71.6051 620.71 70.2794 622.263 69.3324C623.825 68.3759 625.672 67.8977 627.803 67.8977C629.573 67.8977 631.141 68.2244 632.504 68.8778C633.877 69.5218 634.971 70.4356 635.786 71.6193C636.6 72.7936 637.064 74.1667 637.178 75.7386H632.263C632.064 74.6875 631.59 73.8116 630.842 73.1108C630.104 72.4006 629.114 72.0455 627.874 72.0455C626.822 72.0455 625.899 72.3295 625.104 72.8977C624.308 73.4564 623.688 74.2614 623.243 75.3125C622.807 76.3636 622.589 77.6231 622.589 79.0909C622.589 80.5777 622.807 81.8561 623.243 82.9261C623.679 83.9867 624.289 84.8059 625.075 85.3835C625.871 85.9517 626.804 86.2358 627.874 86.2358C628.631 86.2358 629.308 86.0937 629.905 85.8097C630.511 85.5161 631.018 85.0947 631.425 84.5455C631.832 83.9962 632.111 83.3286 632.263 82.5426H637.178C637.054 84.0862 636.6 85.4545 635.814 86.6477C635.028 87.8314 633.958 88.7595 632.604 89.4318C631.25 90.0947 629.659 90.4261 627.831 90.4261ZM650.917 90.4261C648.739 90.4261 646.869 89.9479 645.306 88.9915C643.753 88.035 642.555 86.714 641.712 85.0284C640.879 83.3333 640.462 81.3826 640.462 79.1761C640.462 76.9602 640.888 75.0047 641.741 73.3097C642.593 71.6051 643.796 70.2794 645.349 69.3324C646.911 68.3759 648.758 67.8977 650.888 67.8977C652.659 67.8977 654.227 68.2244 655.59 68.8778C656.963 69.5218 658.057 70.4356 658.871 71.6193C659.686 72.7936 660.15 74.1667 660.263 75.7386H655.349C655.15 74.6875 654.676 73.8116 653.928 73.1108C653.19 72.4006 652.2 72.0455 650.96 72.0455C649.908 72.0455 648.985 72.3295 648.19 72.8977C647.394 73.4564 646.774 74.2614 646.329 75.3125C645.893 76.3636 645.675 77.6231 645.675 79.0909C645.675 80.5777 645.893 81.8561 646.329 82.9261C646.764 83.9867 647.375 84.8059 648.161 85.3835C648.957 85.9517 649.889 86.2358 650.96 86.2358C651.717 86.2358 652.394 86.0937 652.991 85.8097C653.597 85.5161 654.103 85.0947 654.511 84.5455C654.918 83.9962 655.197 83.3286 655.349 82.5426H660.263C660.14 84.0862 659.686 85.4545 658.9 86.6477C658.114 87.8314 657.044 88.7595 655.69 89.4318C654.335 90.0947 652.745 90.4261 650.917 90.4261ZM674.145 90.4261C671.957 90.4261 670.068 89.9716 668.477 89.0625C666.896 88.1439 665.679 86.8466 664.827 85.1705C663.974 83.4848 663.548 81.5009 663.548 79.2188C663.548 76.9744 663.974 75.0047 664.827 73.3097C665.688 71.6051 666.891 70.2794 668.435 69.3324C669.978 68.3759 671.792 67.8977 673.875 67.8977C675.22 67.8977 676.489 68.1155 677.682 68.5511C678.884 68.9773 679.945 69.6402 680.864 70.5398C681.792 71.4394 682.521 72.5852 683.051 73.9773C683.581 75.3598 683.847 77.0076 683.847 78.9205V80.4972H665.963V77.0312H678.918C678.908 76.0464 678.695 75.1705 678.278 74.4034C677.862 73.6269 677.279 73.0161 676.531 72.571C675.793 72.1259 674.931 71.9034 673.946 71.9034C672.895 71.9034 671.972 72.1591 671.176 72.6705C670.381 73.1723 669.76 73.8352 669.315 74.6591C668.88 75.4735 668.657 76.3684 668.648 77.3438V80.3693C668.648 81.6383 668.88 82.7273 669.344 83.6364C669.808 84.536 670.456 85.2273 671.29 85.7102C672.123 86.1837 673.098 86.4205 674.216 86.4205C674.964 86.4205 675.641 86.3163 676.247 86.108C676.853 85.8902 677.379 85.5729 677.824 85.1562C678.269 84.7396 678.605 84.2235 678.832 83.608L683.634 84.1477C683.33 85.4167 682.753 86.5246 681.901 87.4716C681.058 88.4091 679.978 89.1383 678.662 89.6591C677.346 90.1705 675.84 90.4261 674.145 90.4261ZM705.441 73.9489L700.754 74.4602C700.621 73.9867 700.389 73.5417 700.058 73.125C699.736 72.7083 699.3 72.3722 698.751 72.1165C698.201 71.8608 697.529 71.733 696.734 71.733C695.664 71.733 694.764 71.965 694.035 72.429C693.315 72.893 692.96 73.4943 692.969 74.233C692.96 74.8674 693.192 75.3835 693.665 75.7812C694.148 76.179 694.944 76.5057 696.052 76.7614L699.773 77.5568C701.838 78.0019 703.372 78.7074 704.376 79.6733C705.389 80.6392 705.9 81.9034 705.91 83.4659C705.9 84.839 705.498 86.0511 704.702 87.1023C703.916 88.1439 702.823 88.9583 701.421 89.5455C700.02 90.1326 698.41 90.4261 696.592 90.4261C693.921 90.4261 691.772 89.8674 690.143 88.75C688.514 87.6231 687.543 86.0559 687.231 84.0483L692.245 83.5653C692.472 84.5502 692.955 85.2936 693.694 85.7955C694.433 86.2973 695.394 86.5483 696.577 86.5483C697.799 86.5483 698.779 86.2973 699.518 85.7955C700.266 85.2936 700.64 84.6733 700.64 83.9347C700.64 83.3097 700.398 82.7936 699.915 82.3864C699.442 81.9792 698.703 81.6667 697.7 81.4489L693.978 80.6676C691.885 80.232 690.337 79.4981 689.333 78.4659C688.329 77.4242 687.832 76.108 687.842 74.517C687.832 73.1723 688.197 72.0076 688.935 71.0227C689.683 70.0284 690.72 69.2614 692.046 68.7216C693.381 68.1723 694.92 67.8977 696.663 67.8977C699.219 67.8977 701.232 68.4422 702.7 69.5312C704.177 70.6203 705.091 72.0928 705.441 73.9489ZM727.394 73.9489L722.707 74.4602C722.574 73.9867 722.342 73.5417 722.011 73.125C721.689 72.7083 721.253 72.3722 720.704 72.1165C720.155 71.8608 719.482 71.733 718.687 71.733C717.617 71.733 716.717 71.965 715.988 72.429C715.268 72.893 714.913 73.4943 714.923 74.233C714.913 74.8674 715.145 75.3835 715.619 75.7812C716.102 76.179 716.897 76.5057 718.005 76.7614L721.727 77.5568C723.791 78.0019 725.325 78.7074 726.329 79.6733C727.342 80.6392 727.853 81.9034 727.863 83.4659C727.853 84.839 727.451 86.0511 726.656 87.1023C725.87 88.1439 724.776 88.9583 723.374 89.5455C721.973 90.1326 720.363 90.4261 718.545 90.4261C715.874 90.4261 713.725 89.8674 712.096 88.75C710.467 87.6231 709.496 86.0559 709.184 84.0483L714.198 83.5653C714.425 84.5502 714.908 85.2936 715.647 85.7955C716.386 86.2973 717.347 86.5483 718.531 86.5483C719.752 86.5483 720.732 86.2973 721.471 85.7955C722.219 85.2936 722.593 84.6733 722.593 83.9347C722.593 83.3097 722.352 82.7936 721.869 82.3864C721.395 81.9792 720.656 81.6667 719.653 81.4489L715.931 80.6676C713.838 80.232 712.29 79.4981 711.286 78.4659C710.282 77.4242 709.785 76.108 709.795 74.517C709.785 73.1723 710.15 72.0076 710.888 71.0227C711.637 70.0284 712.674 69.2614 713.999 68.7216C715.335 68.1723 716.873 67.8977 718.616 67.8977C721.173 67.8977 723.185 68.4422 724.653 69.5312C726.13 70.6203 727.044 72.0928 727.394 73.9489ZM743.154 68.1818V72.1591H730.256V68.1818H743.154ZM733.481 90V66.1222C733.481 64.6544 733.784 63.4328 734.39 62.4574C735.005 61.482 735.829 60.7528 736.862 60.2699C737.894 59.7869 739.04 59.5455 740.299 59.5455C741.189 59.5455 741.98 59.6165 742.671 59.7585C743.362 59.9006 743.874 60.0284 744.205 60.142L743.183 64.1193C742.965 64.053 742.69 63.9867 742.359 63.9205C742.027 63.8447 741.658 63.8068 741.251 63.8068C740.294 63.8068 739.617 64.0388 739.219 64.5028C738.831 64.9574 738.637 65.6108 738.637 66.4631V90H733.481ZM761.087 80.8239V68.1818H766.229V90H761.244V86.1222H761.016C760.524 87.3437 759.714 88.3428 758.587 89.1193C757.47 89.8958 756.092 90.2841 754.454 90.2841C753.024 90.2841 751.76 89.9669 750.661 89.3324C749.572 88.6884 748.72 87.7557 748.104 86.5341C747.489 85.303 747.181 83.8163 747.181 82.0739V68.1818H752.323V81.2784C752.323 82.661 752.702 83.7595 753.46 84.5739C754.217 85.3883 755.211 85.7955 756.442 85.7955C757.2 85.7955 757.934 85.6108 758.644 85.2415C759.354 84.8722 759.937 84.3229 760.391 83.5938C760.855 82.8551 761.087 81.9318 761.087 80.8239ZM776.659 60.9091V90H771.517V60.9091H776.659ZM801.386 90.4261C799.208 90.4261 797.337 89.9479 795.775 88.9915C794.222 88.035 793.024 86.714 792.181 85.0284C791.348 83.3333 790.931 81.3826 790.931 79.1761C790.931 76.9602 791.357 75.0047 792.21 73.3097C793.062 71.6051 794.264 70.2794 795.817 69.3324C797.38 68.3759 799.227 67.8977 801.357 67.8977C803.128 67.8977 804.695 68.2244 806.059 68.8778C807.432 69.5218 808.526 70.4356 809.34 71.6193C810.155 72.7936 810.619 74.1667 810.732 75.7386H805.817C805.619 74.6875 805.145 73.8116 804.397 73.1108C803.658 72.4006 802.669 72.0455 801.428 72.0455C800.377 72.0455 799.454 72.3295 798.658 72.8977C797.863 73.4564 797.243 74.2614 796.798 75.3125C796.362 76.3636 796.144 77.6231 796.144 79.0909C796.144 80.5777 796.362 81.8561 796.798 82.9261C797.233 83.9867 797.844 84.8059 798.63 85.3835C799.425 85.9517 800.358 86.2358 801.428 86.2358C802.186 86.2358 802.863 86.0937 803.46 85.8097C804.066 85.5161 804.572 85.0947 804.979 84.5455C805.387 83.9962 805.666 83.3286 805.817 82.5426H810.732C810.609 84.0862 810.155 85.4545 809.369 86.6477C808.583 87.8314 807.513 88.7595 806.158 89.4318C804.804 90.0947 803.213 90.4261 801.386 90.4261ZM820.097 60.9091V90H814.955V60.9091H820.097ZM825.384 90V68.1818H830.526V90H825.384ZM827.969 65.0852C827.155 65.0852 826.454 64.8153 825.867 64.2756C825.28 63.7263 824.987 63.0682 824.987 62.3011C824.987 61.5246 825.28 60.8665 825.867 60.3267C826.454 59.7775 827.155 59.5028 827.969 59.5028C828.793 59.5028 829.494 59.7775 830.072 60.3267C830.659 60.8665 830.952 61.5246 830.952 62.3011C830.952 63.0682 830.659 63.7263 830.072 64.2756C829.494 64.8153 828.793 65.0852 827.969 65.0852ZM845.473 90.4261C843.286 90.4261 841.396 89.9716 839.805 89.0625C838.224 88.1439 837.007 86.8466 836.155 85.1705C835.303 83.4848 834.876 81.5009 834.876 79.2188C834.876 76.9744 835.303 75.0047 836.155 73.3097C837.017 71.6051 838.219 70.2794 839.763 69.3324C841.306 68.3759 843.12 67.8977 845.203 67.8977C846.548 67.8977 847.817 68.1155 849.01 68.5511C850.213 68.9773 851.273 69.6402 852.192 70.5398C853.12 71.4394 853.849 72.5852 854.379 73.9773C854.91 75.3598 855.175 77.0076 855.175 78.9205V80.4972H837.291V77.0312H850.246C850.236 76.0464 850.023 75.1705 849.607 74.4034C849.19 73.6269 848.607 73.0161 847.859 72.571C847.121 72.1259 846.259 71.9034 845.274 71.9034C844.223 71.9034 843.3 72.1591 842.504 72.6705C841.709 73.1723 841.089 73.8352 840.643 74.6591C840.208 75.4735 839.985 76.3684 839.976 77.3438V80.3693C839.976 81.6383 840.208 82.7273 840.672 83.6364C841.136 84.536 841.785 85.2273 842.618 85.7102C843.451 86.1837 844.427 86.4205 845.544 86.4205C846.292 86.4205 846.969 86.3163 847.575 86.108C848.181 85.8902 848.707 85.5729 849.152 85.1562C849.597 84.7396 849.933 84.2235 850.161 83.608L854.962 84.1477C854.659 85.4167 854.081 86.5246 853.229 87.4716C852.386 88.4091 851.306 89.1383 849.99 89.6591C848.674 90.1705 847.168 90.4261 845.473 90.4261ZM864.667 77.2159V90H859.525V68.1818H864.44V71.8892H864.695C865.197 70.6676 865.997 69.697 867.096 68.9773C868.204 68.2576 869.572 67.8977 871.201 67.8977C872.707 67.8977 874.018 68.2197 875.136 68.8636C876.263 69.5076 877.134 70.4403 877.749 71.6619C878.374 72.8835 878.682 74.3655 878.673 76.108V90H873.531V76.9034C873.531 75.4451 873.152 74.304 872.394 73.4801C871.646 72.6562 870.609 72.2443 869.283 72.2443C868.384 72.2443 867.584 72.4432 866.883 72.8409C866.192 73.2292 865.647 73.7926 865.249 74.5312C864.861 75.2699 864.667 76.1648 864.667 77.2159ZM894.795 68.1818V72.1591H882.252V68.1818H894.795ZM885.349 62.9545H890.491V83.4375C890.491 84.1288 890.595 84.6591 890.803 85.0284C891.021 85.3883 891.305 85.6345 891.656 85.767C892.006 85.8996 892.394 85.9659 892.82 85.9659C893.142 85.9659 893.436 85.9422 893.701 85.8949C893.976 85.8475 894.184 85.8049 894.326 85.767L895.192 89.7869C894.918 89.8816 894.525 89.9858 894.013 90.0994C893.512 90.2131 892.896 90.2794 892.167 90.2983C890.879 90.3362 889.719 90.142 888.687 89.7159C887.655 89.2803 886.835 88.608 886.229 87.6989C885.633 86.7898 885.339 85.6534 885.349 84.2898V62.9545ZM918.534 90.4261C916.356 90.4261 914.486 89.9479 912.923 88.9915C911.37 88.035 910.172 86.714 909.33 85.0284C908.496 83.3333 908.08 81.3826 908.08 79.1761C908.08 76.9602 908.506 75.0047 909.358 73.3097C910.21 71.6051 911.413 70.2794 912.966 69.3324C914.528 68.3759 916.375 67.8977 918.506 67.8977C920.277 67.8977 921.844 68.2244 923.207 68.8778C924.58 69.5218 925.674 70.4356 926.489 71.6193C927.303 72.7936 927.767 74.1667 927.881 75.7386H922.966C922.767 74.6875 922.294 73.8116 921.545 73.1108C920.807 72.4006 919.817 72.0455 918.577 72.0455C917.526 72.0455 916.602 72.3295 915.807 72.8977C915.011 73.4564 914.391 74.2614 913.946 75.3125C913.51 76.3636 913.293 77.6231 913.293 79.0909C913.293 80.5777 913.51 81.8561 913.946 82.9261C914.382 83.9867 914.992 84.8059 915.778 85.3835C916.574 85.9517 917.507 86.2358 918.577 86.2358C919.334 86.2358 920.011 86.0937 920.608 85.8097C921.214 85.5161 921.721 85.0947 922.128 84.5455C922.535 83.9962 922.814 83.3286 922.966 82.5426H927.881C927.758 84.0862 927.303 85.4545 926.517 86.6477C925.731 87.8314 924.661 88.7595 923.307 89.4318C921.953 90.0947 920.362 90.4261 918.534 90.4261ZM941.62 90.4261C939.489 90.4261 937.643 89.9574 936.08 89.0199C934.518 88.0824 933.306 86.7708 932.444 85.0852C931.592 83.3996 931.165 81.4299 931.165 79.1761C931.165 76.9223 931.592 74.9479 932.444 73.2528C933.306 71.5578 934.518 70.2415 936.08 69.304C937.643 68.3665 939.489 67.8977 941.62 67.8977C943.751 67.8977 945.597 68.3665 947.16 69.304C948.722 70.2415 949.93 71.5578 950.782 73.2528C951.644 74.9479 952.075 76.9223 952.075 79.1761C952.075 81.4299 951.644 83.3996 950.782 85.0852C949.93 86.7708 948.722 88.0824 947.16 89.0199C945.597 89.9574 943.751 90.4261 941.62 90.4261ZM941.648 86.3068C942.804 86.3068 943.77 85.9896 944.546 85.3551C945.323 84.7112 945.9 83.8494 946.279 82.7699C946.667 81.6903 946.862 80.4877 946.862 79.1619C946.862 77.8267 946.667 76.6193 946.279 75.5398C945.9 74.4508 945.323 73.5843 944.546 72.9403C943.77 72.2964 942.804 71.9744 941.648 71.9744C940.465 71.9744 939.48 72.2964 938.694 72.9403C937.917 73.5843 937.335 74.4508 936.947 75.5398C936.568 76.6193 936.379 77.8267 936.379 79.1619C936.379 80.4877 936.568 81.6903 936.947 82.7699C937.335 83.8494 937.917 84.7112 938.694 85.3551C939.48 85.9896 940.465 86.3068 941.648 86.3068ZM961.581 60.9091V90H956.439V60.9091H961.581ZM972.011 60.9091V90H966.869V60.9091H972.011ZM983.577 90.4403C982.194 90.4403 980.949 90.1941 979.841 89.7017C978.742 89.1998 977.871 88.4612 977.227 87.4858C976.593 86.5104 976.276 85.3078 976.276 83.8778C976.276 82.6468 976.503 81.6288 976.957 80.8239C977.412 80.0189 978.032 79.375 978.818 78.892C979.604 78.4091 980.49 78.0445 981.474 77.7983C982.469 77.5426 983.496 77.358 984.557 77.2443C985.835 77.1117 986.872 76.9934 987.668 76.8892C988.463 76.7756 989.041 76.6051 989.401 76.3778C989.77 76.1411 989.955 75.7765 989.955 75.2841V75.1989C989.955 74.1288 989.637 73.3002 989.003 72.7131C988.368 72.1259 987.455 71.8324 986.261 71.8324C985.002 71.8324 984.003 72.107 983.264 72.6562C982.535 73.2055 982.043 73.8542 981.787 74.6023L976.986 73.9205C977.365 72.5947 977.99 71.4867 978.861 70.5966C979.732 69.697 980.797 69.0246 982.057 68.5795C983.316 68.125 984.708 67.8977 986.233 67.8977C987.284 67.8977 988.33 68.0208 989.372 68.267C990.414 68.5133 991.366 68.9205 992.227 69.4886C993.089 70.0473 993.78 70.8097 994.301 71.7756C994.831 72.7415 995.097 73.9489 995.097 75.3977V90H990.153V87.0028H989.983C989.67 87.6089 989.23 88.1771 988.662 88.7074C988.103 89.2282 987.398 89.6496 986.545 89.9716C985.703 90.2841 984.713 90.4403 983.577 90.4403ZM984.912 86.6619C985.944 86.6619 986.839 86.4583 987.597 86.0511C988.354 85.6345 988.937 85.0852 989.344 84.4034C989.76 83.7216 989.969 82.9782 989.969 82.1733V79.6023C989.808 79.7348 989.533 79.858 989.145 79.9716C988.766 80.0852 988.34 80.1847 987.866 80.2699C987.393 80.3551 986.924 80.4309 986.46 80.4972C985.996 80.5634 985.594 80.6203 985.253 80.6676C984.486 80.7718 983.799 80.9422 983.193 81.179C982.587 81.4157 982.109 81.7472 981.759 82.1733C981.408 82.59 981.233 83.1297 981.233 83.7926C981.233 84.7396 981.579 85.4545 982.27 85.9375C982.961 86.4205 983.842 86.6619 984.912 86.6619ZM1000.49 90V60.9091H1005.64V71.7898H1005.85C1006.11 71.2595 1006.49 70.696 1006.97 70.0994C1007.45 69.4934 1008.11 68.9773 1008.93 68.5511C1009.76 68.1155 1010.81 67.8977 1012.09 67.8977C1013.77 67.8977 1015.29 68.3286 1016.64 69.1903C1018.01 70.0426 1019.09 71.3068 1019.88 72.983C1020.69 74.6496 1021.09 76.6951 1021.09 79.1193C1021.09 81.5152 1020.7 83.5511 1019.91 85.2273C1019.13 86.9034 1018.06 88.1818 1016.7 89.0625C1015.35 89.9432 1013.81 90.3835 1012.1 90.3835C1010.85 90.3835 1009.81 90.1752 1008.99 89.7585C1008.16 89.3419 1007.5 88.84 1007 88.2528C1006.51 87.6562 1006.12 87.0928 1005.85 86.5625H1005.55V90H1000.49ZM1005.54 79.0909C1005.54 80.5019 1005.74 81.7377 1006.13 82.7983C1006.54 83.8589 1007.12 84.6875 1007.88 85.2841C1008.65 85.8712 1009.58 86.1648 1010.66 86.1648C1011.8 86.1648 1012.75 85.8617 1013.52 85.2557C1014.29 84.6402 1014.86 83.8021 1015.25 82.7415C1015.65 81.6714 1015.85 80.4545 1015.85 79.0909C1015.85 77.7367 1015.66 76.5341 1015.27 75.483C1014.88 74.4318 1014.3 73.608 1013.53 73.0114C1012.77 72.4148 1011.81 72.1165 1010.66 72.1165C1009.57 72.1165 1008.63 72.4053 1007.87 72.983C1007.1 73.5606 1006.52 74.3703 1006.12 75.4119C1005.73 76.4536 1005.54 77.6799 1005.54 79.0909ZM1034.98 90.4261C1032.85 90.4261 1031 89.9574 1029.44 89.0199C1027.88 88.0824 1026.67 86.7708 1025.8 85.0852C1024.95 83.3996 1024.52 81.4299 1024.52 79.1761C1024.52 76.9223 1024.95 74.9479 1025.8 73.2528C1026.67 71.5578 1027.88 70.2415 1029.44 69.304C1031 68.3665 1032.85 67.8977 1034.98 67.8977C1037.11 67.8977 1038.96 68.3665 1040.52 69.304C1042.08 70.2415 1043.29 71.5578 1044.14 73.2528C1045 74.9479 1045.43 76.9223 1045.43 79.1761C1045.43 81.4299 1045 83.3996 1044.14 85.0852C1043.29 86.7708 1042.08 88.0824 1040.52 89.0199C1038.96 89.9574 1037.11 90.4261 1034.98 90.4261ZM1035.01 86.3068C1036.16 86.3068 1037.13 85.9896 1037.91 85.3551C1038.68 84.7112 1039.26 83.8494 1039.64 82.7699C1040.03 81.6903 1040.22 80.4877 1040.22 79.1619C1040.22 77.8267 1040.03 76.6193 1039.64 75.5398C1039.26 74.4508 1038.68 73.5843 1037.91 72.9403C1037.13 72.2964 1036.16 71.9744 1035.01 71.9744C1033.82 71.9744 1032.84 72.2964 1032.05 72.9403C1031.28 73.5843 1030.69 74.4508 1030.31 75.5398C1029.93 76.6193 1029.74 77.8267 1029.74 79.1619C1029.74 80.4877 1029.93 81.6903 1030.31 82.7699C1030.69 83.8494 1031.28 84.7112 1032.05 85.3551C1032.84 85.9896 1033.82 86.3068 1035.01 86.3068ZM1049.8 90V68.1818H1054.78V71.8182H1055.01C1055.41 70.5587 1056.09 69.5881 1057.06 68.9062C1058.03 68.215 1059.14 67.8693 1060.39 67.8693C1060.68 67.8693 1061 67.8835 1061.35 67.9119C1061.71 67.9309 1062 67.964 1062.24 68.0114V72.7415C1062.02 72.6657 1061.68 72.5994 1061.2 72.5426C1060.74 72.4763 1060.29 72.4432 1059.86 72.4432C1058.92 72.4432 1058.07 72.6468 1057.33 73.054C1056.59 73.4517 1056.01 74.0057 1055.58 74.7159C1055.15 75.4261 1054.94 76.2453 1054.94 77.1733V90H1049.8ZM1071.55 90.4403C1070.16 90.4403 1068.92 90.1941 1067.81 89.7017C1066.71 89.1998 1065.84 88.4612 1065.2 87.4858C1064.56 86.5104 1064.24 85.3078 1064.24 83.8778C1064.24 82.6468 1064.47 81.6288 1064.93 80.8239C1065.38 80.0189 1066 79.375 1066.79 78.892C1067.57 78.4091 1068.46 78.0445 1069.44 77.7983C1070.44 77.5426 1071.46 77.358 1072.53 77.2443C1073.8 77.1117 1074.84 76.9934 1075.64 76.8892C1076.43 76.7756 1077.01 76.6051 1077.37 76.3778C1077.74 76.1411 1077.92 75.7765 1077.92 75.2841V75.1989C1077.92 74.1288 1077.61 73.3002 1076.97 72.7131C1076.34 72.1259 1075.42 71.8324 1074.23 71.8324C1072.97 71.8324 1071.97 72.107 1071.23 72.6562C1070.5 73.2055 1070.01 73.8542 1069.76 74.6023L1064.95 73.9205C1065.33 72.5947 1065.96 71.4867 1066.83 70.5966C1067.7 69.697 1068.77 69.0246 1070.03 68.5795C1071.29 68.125 1072.68 67.8977 1074.2 67.8977C1075.25 67.8977 1076.3 68.0208 1077.34 68.267C1078.38 68.5133 1079.33 68.9205 1080.2 69.4886C1081.06 70.0473 1081.75 70.8097 1082.27 71.7756C1082.8 72.7415 1083.07 73.9489 1083.07 75.3977V90H1078.12V87.0028H1077.95C1077.64 87.6089 1077.2 88.1771 1076.63 88.7074C1076.07 89.2282 1075.37 89.6496 1074.51 89.9716C1073.67 90.2841 1072.68 90.4403 1071.55 90.4403ZM1072.88 86.6619C1073.91 86.6619 1074.81 86.4583 1075.57 86.0511C1076.32 85.6345 1076.91 85.0852 1077.31 84.4034C1077.73 83.7216 1077.94 82.9782 1077.94 82.1733V79.6023C1077.78 79.7348 1077.5 79.858 1077.11 79.9716C1076.73 80.0852 1076.31 80.1847 1075.84 80.2699C1075.36 80.3551 1074.89 80.4309 1074.43 80.4972C1073.96 80.5634 1073.56 80.6203 1073.22 80.6676C1072.45 80.7718 1071.77 80.9422 1071.16 81.179C1070.56 81.4157 1070.08 81.7472 1069.73 82.1733C1069.38 82.59 1069.2 83.1297 1069.2 83.7926C1069.2 84.7396 1069.55 85.4545 1070.24 85.9375C1070.93 86.4205 1071.81 86.6619 1072.88 86.6619ZM1099.13 68.1818V72.1591H1086.59V68.1818H1099.13ZM1089.68 62.9545H1094.83V83.4375C1094.83 84.1288 1094.93 84.6591 1095.14 85.0284C1095.36 85.3883 1095.64 85.6345 1095.99 85.767C1096.34 85.8996 1096.73 85.9659 1097.16 85.9659C1097.48 85.9659 1097.77 85.9422 1098.04 85.8949C1098.31 85.8475 1098.52 85.8049 1098.66 85.767L1099.53 89.7869C1099.25 89.8816 1098.86 89.9858 1098.35 90.0994C1097.85 90.2131 1097.23 90.2794 1096.5 90.2983C1095.21 90.3362 1094.05 90.142 1093.02 89.7159C1091.99 89.2803 1091.17 88.608 1090.57 87.6989C1089.97 86.7898 1089.68 85.6534 1089.68 84.2898V62.9545ZM1103.43 90V68.1818H1108.57V90H1103.43ZM1106.02 65.0852C1105.2 65.0852 1104.5 64.8153 1103.91 64.2756C1103.33 63.7263 1103.03 63.0682 1103.03 62.3011C1103.03 61.5246 1103.33 60.8665 1103.91 60.3267C1104.5 59.7775 1105.2 59.5028 1106.02 59.5028C1106.84 59.5028 1107.54 59.7775 1108.12 60.3267C1108.71 60.8665 1109 61.5246 1109 62.3011C1109 63.0682 1108.71 63.7263 1108.12 64.2756C1107.54 64.8153 1106.84 65.0852 1106.02 65.0852ZM1123.38 90.4261C1121.25 90.4261 1119.4 89.9574 1117.84 89.0199C1116.28 88.0824 1115.06 86.7708 1114.2 85.0852C1113.35 83.3996 1112.92 81.4299 1112.92 79.1761C1112.92 76.9223 1113.35 74.9479 1114.2 73.2528C1115.06 71.5578 1116.28 70.2415 1117.84 69.304C1119.4 68.3665 1121.25 67.8977 1123.38 67.8977C1125.51 67.8977 1127.36 68.3665 1128.92 69.304C1130.48 70.2415 1131.69 71.5578 1132.54 73.2528C1133.4 74.9479 1133.83 76.9223 1133.83 79.1761C1133.83 81.4299 1133.4 83.3996 1132.54 85.0852C1131.69 86.7708 1130.48 88.0824 1128.92 89.0199C1127.36 89.9574 1125.51 90.4261 1123.38 90.4261ZM1123.41 86.3068C1124.56 86.3068 1125.53 85.9896 1126.3 85.3551C1127.08 84.7112 1127.66 83.8494 1128.04 82.7699C1128.43 81.6903 1128.62 80.4877 1128.62 79.1619C1128.62 77.8267 1128.43 76.6193 1128.04 75.5398C1127.66 74.4508 1127.08 73.5843 1126.3 72.9403C1125.53 72.2964 1124.56 71.9744 1123.41 71.9744C1122.22 71.9744 1121.24 72.2964 1120.45 72.9403C1119.68 73.5843 1119.09 74.4508 1118.7 75.5398C1118.33 76.6193 1118.14 77.8267 1118.14 79.1619C1118.14 80.4877 1118.33 81.6903 1118.7 82.7699C1119.09 83.8494 1119.68 84.7112 1120.45 85.3551C1121.24 85.9896 1122.22 86.3068 1123.41 86.3068ZM1143.34 77.2159V90H1138.2V68.1818H1143.11V71.8892H1143.37C1143.87 70.6676 1144.67 69.697 1145.77 68.9773C1146.88 68.2576 1148.24 67.8977 1149.87 67.8977C1151.38 67.8977 1152.69 68.2197 1153.81 68.8636C1154.93 69.5076 1155.81 70.4403 1156.42 71.6619C1157.05 72.8835 1157.35 74.3655 1157.34 76.108V90H1152.2V76.9034C1152.2 75.4451 1151.82 74.304 1151.07 73.4801C1150.32 72.6562 1149.28 72.2443 1147.96 72.2443C1147.06 72.2443 1146.26 72.4432 1145.55 72.8409C1144.86 73.2292 1144.32 73.7926 1143.92 74.5312C1143.53 75.2699 1143.34 76.1648 1143.34 77.2159ZM1179.82 73.9489L1175.13 74.4602C1175 73.9867 1174.76 73.5417 1174.43 73.125C1174.11 72.7083 1173.67 72.3722 1173.13 72.1165C1172.58 71.8608 1171.9 71.733 1171.11 71.733C1170.04 71.733 1169.14 71.965 1168.41 72.429C1167.69 72.893 1167.33 73.4943 1167.34 74.233C1167.33 74.8674 1167.57 75.3835 1168.04 75.7812C1168.52 76.179 1169.32 76.5057 1170.43 76.7614L1174.15 77.5568C1176.21 78.0019 1177.75 78.7074 1178.75 79.6733C1179.76 80.6392 1180.28 81.9034 1180.28 83.4659C1180.28 84.839 1179.87 86.0511 1179.08 87.1023C1178.29 88.1439 1177.2 88.9583 1175.8 89.5455C1174.39 90.1326 1172.78 90.4261 1170.97 90.4261C1168.3 90.4261 1166.15 89.8674 1164.52 88.75C1162.89 87.6231 1161.92 86.0559 1161.61 84.0483L1166.62 83.5653C1166.85 84.5502 1167.33 85.2936 1168.07 85.7955C1168.81 86.2973 1169.77 86.5483 1170.95 86.5483C1172.17 86.5483 1173.15 86.2973 1173.89 85.7955C1174.64 85.2936 1175.01 84.6733 1175.01 83.9347C1175.01 83.3097 1174.77 82.7936 1174.29 82.3864C1173.82 81.9792 1173.08 81.6667 1172.07 81.4489L1168.35 80.6676C1166.26 80.232 1164.71 79.4981 1163.71 78.4659C1162.7 77.4242 1162.21 76.108 1162.22 74.517C1162.21 73.1723 1162.57 72.0076 1163.31 71.0227C1164.06 70.0284 1165.1 69.2614 1166.42 68.7216C1167.76 68.1723 1169.3 67.8977 1171.04 67.8977C1173.59 67.8977 1175.61 68.4422 1177.07 69.5312C1178.55 70.6203 1179.47 72.0928 1179.82 73.9489Z" fill="black"/>
<rect x="230.5" y="180.5" width="133" height="54" rx="9.5" stroke="#999999" stroke-dasharray="4 4"/>
<path d="M265.902 215V201.909H267.877V213.3H273.809V215H265.902ZM286.924 208.455C286.924 209.852 286.668 211.054 286.157 212.06C285.646 213.061 284.945 213.832 284.054 214.374C283.168 214.911 282.16 215.179 281.03 215.179C279.897 215.179 278.885 214.911 277.994 214.374C277.108 213.832 276.409 213.059 275.898 212.053C275.386 211.048 275.131 209.848 275.131 208.455C275.131 207.057 275.386 205.857 275.898 204.856C276.409 203.85 277.108 203.079 277.994 202.542C278.885 202.001 279.897 201.73 281.03 201.73C282.16 201.73 283.168 202.001 284.054 202.542C284.945 203.079 285.646 203.85 286.157 204.856C286.668 205.857 286.924 207.057 286.924 208.455ZM284.968 208.455C284.968 207.389 284.795 206.492 284.45 205.763C284.109 205.031 283.641 204.477 283.044 204.102C282.452 203.722 281.78 203.533 281.03 203.533C280.276 203.533 279.603 203.722 279.011 204.102C278.418 204.477 277.949 205.031 277.604 205.763C277.263 206.492 277.093 207.389 277.093 208.455C277.093 209.52 277.263 210.419 277.604 211.152C277.949 211.881 278.418 212.435 279.011 212.814C279.603 213.189 280.276 213.376 281.03 213.376C281.78 213.376 282.452 213.189 283.044 212.814C283.641 212.435 284.109 211.881 284.45 211.152C284.795 210.419 284.968 209.52 284.968 208.455ZM298.246 206.045C298.122 205.657 297.956 205.31 297.747 205.003C297.543 204.692 297.298 204.428 297.012 204.21C296.727 203.989 296.401 203.82 296.034 203.705C295.672 203.59 295.274 203.533 294.839 203.533C294.102 203.533 293.437 203.722 292.845 204.102C292.252 204.481 291.783 205.037 291.438 205.77C291.097 206.499 290.927 207.391 290.927 208.448C290.927 209.509 291.1 210.406 291.445 211.139C291.79 211.872 292.263 212.428 292.864 212.808C293.465 213.187 294.149 213.376 294.916 213.376C295.627 213.376 296.247 213.232 296.776 212.942C297.308 212.652 297.72 212.243 298.009 211.714C298.303 211.182 298.45 210.555 298.45 209.835L298.962 209.931H295.216V208.301H300.362V209.79C300.362 210.89 300.127 211.844 299.658 212.654C299.194 213.46 298.551 214.082 297.728 214.521C296.91 214.96 295.972 215.179 294.916 215.179C293.731 215.179 292.691 214.906 291.796 214.361C290.906 213.815 290.211 213.042 289.712 212.04C289.214 211.035 288.965 209.842 288.965 208.461C288.965 207.417 289.109 206.479 289.399 205.648C289.689 204.817 290.096 204.112 290.62 203.533C291.149 202.949 291.769 202.504 292.48 202.197C293.196 201.886 293.978 201.73 294.826 201.73C295.533 201.73 296.192 201.835 296.801 202.043C297.415 202.252 297.96 202.548 298.438 202.932C298.919 203.315 299.318 203.771 299.633 204.3C299.948 204.824 300.161 205.406 300.272 206.045H298.246ZM314.24 208.455C314.24 209.852 313.985 211.054 313.473 212.06C312.962 213.061 312.261 213.832 311.37 214.374C310.484 214.911 309.476 215.179 308.347 215.179C307.213 215.179 306.201 214.911 305.311 214.374C304.424 213.832 303.725 213.059 303.214 212.053C302.703 211.048 302.447 209.848 302.447 208.455C302.447 207.057 302.703 205.857 303.214 204.856C303.725 203.85 304.424 203.079 305.311 202.542C306.201 202.001 307.213 201.73 308.347 201.73C309.476 201.73 310.484 202.001 311.37 202.542C312.261 203.079 312.962 203.85 313.473 204.856C313.985 205.857 314.24 207.057 314.24 208.455ZM312.284 208.455C312.284 207.389 312.112 206.492 311.767 205.763C311.426 205.031 310.957 204.477 310.36 204.102C309.768 203.722 309.097 203.533 308.347 203.533C307.593 203.533 306.919 203.722 306.327 204.102C305.735 204.477 305.266 205.031 304.921 205.763C304.58 206.492 304.409 207.389 304.409 208.455C304.409 209.52 304.58 210.419 304.921 211.152C305.266 211.881 305.735 212.435 306.327 212.814C306.919 213.189 307.593 213.376 308.347 213.376C309.097 213.376 309.768 213.189 310.36 212.814C310.957 212.435 311.426 211.881 311.767 211.152C312.112 210.419 312.284 209.52 312.284 208.455ZM326.254 201.909V215H324.273V203.891H324.196L321.064 205.936V204.044L324.33 201.909H326.254Z" fill="#999999"/>
<rect x="442.5" y="180.5" width="133" height="54" rx="9.5" stroke="#999999" stroke-dasharray="4 4"/>
<path d="M476.636 215V201.909H478.612V213.3H484.543V215H476.636ZM497.658 208.455C497.658 209.852 497.403 211.054 496.891 212.06C496.38 213.061 495.679 213.832 494.788 214.374C493.902 214.911 492.894 215.179 491.765 215.179C490.631 215.179 489.619 214.911 488.729 214.374C487.842 213.832 487.143 213.059 486.632 212.053C486.121 211.048 485.865 209.848 485.865 208.455C485.865 207.057 486.121 205.857 486.632 204.856C487.143 203.85 487.842 203.079 488.729 202.542C489.619 202.001 490.631 201.73 491.765 201.73C492.894 201.73 493.902 202.001 494.788 202.542C495.679 203.079 496.38 203.85 496.891 204.856C497.403 205.857 497.658 207.057 497.658 208.455ZM495.702 208.455C495.702 207.389 495.53 206.492 495.185 205.763C494.844 205.031 494.375 204.477 493.778 204.102C493.186 203.722 492.515 203.533 491.765 203.533C491.011 203.533 490.337 203.722 489.745 204.102C489.153 204.477 488.684 205.031 488.339 205.763C487.998 206.492 487.827 207.389 487.827 208.455C487.827 209.52 487.998 210.419 488.339 211.152C488.684 211.881 489.153 212.435 489.745 212.814C490.337 213.189 491.011 213.376 491.765 213.376C492.515 213.376 493.186 213.189 493.778 212.814C494.375 212.435 494.844 211.881 495.185 211.152C495.53 210.419 495.702 209.52 495.702 208.455ZM508.98 206.045C508.857 205.657 508.69 205.31 508.482 205.003C508.277 204.692 508.032 204.428 507.747 204.21C507.461 203.989 507.135 203.82 506.769 203.705C506.406 203.59 506.008 203.533 505.573 203.533C504.836 203.533 504.171 203.722 503.579 204.102C502.987 204.481 502.518 205.037 502.173 205.77C501.832 206.499 501.661 207.391 501.661 208.448C501.661 209.509 501.834 210.406 502.179 211.139C502.524 211.872 502.997 212.428 503.598 212.808C504.199 213.187 504.883 213.376 505.65 213.376C506.362 213.376 506.982 213.232 507.51 212.942C508.043 212.652 508.454 212.243 508.744 211.714C509.038 211.182 509.185 210.555 509.185 209.835L509.696 209.931H505.95V208.301H511.096V209.79C511.096 210.89 510.862 211.844 510.393 212.654C509.928 213.46 509.285 214.082 508.462 214.521C507.644 214.96 506.707 215.179 505.65 215.179C504.465 215.179 503.426 214.906 502.531 214.361C501.64 213.815 500.945 213.042 500.447 212.04C499.948 211.035 499.699 209.842 499.699 208.461C499.699 207.417 499.844 206.479 500.134 205.648C500.423 204.817 500.83 204.112 501.354 203.533C501.883 202.949 502.503 202.504 503.215 202.197C503.93 201.886 504.712 201.73 505.56 201.73C506.268 201.73 506.926 201.835 507.536 202.043C508.149 202.252 508.695 202.548 509.172 202.932C509.653 203.315 510.052 203.771 510.367 204.3C510.683 204.824 510.896 205.406 511.006 206.045H508.98ZM524.975 208.455C524.975 209.852 524.719 211.054 524.208 212.06C523.696 213.061 522.995 213.832 522.105 214.374C521.218 214.911 520.21 215.179 519.081 215.179C517.948 215.179 516.936 214.911 516.045 214.374C515.159 213.832 514.46 213.059 513.948 212.053C513.437 211.048 513.181 209.848 513.181 208.455C513.181 207.057 513.437 205.857 513.948 204.856C514.46 203.85 515.159 203.079 516.045 202.542C516.936 202.001 517.948 201.73 519.081 201.73C520.21 201.73 521.218 202.001 522.105 202.542C522.995 203.079 523.696 203.85 524.208 204.856C524.719 205.857 524.975 207.057 524.975 208.455ZM523.019 208.455C523.019 207.389 522.846 206.492 522.501 205.763C522.16 205.031 521.691 204.477 521.095 204.102C520.502 203.722 519.831 203.533 519.081 203.533C518.327 203.533 517.654 203.722 517.061 204.102C516.469 204.477 516 205.031 515.655 205.763C515.314 206.492 515.144 207.389 515.144 208.455C515.144 209.52 515.314 210.419 515.655 211.152C516 211.881 516.469 212.435 517.061 212.814C517.654 213.189 518.327 213.376 519.081 213.376C519.831 213.376 520.502 213.189 521.095 212.814C521.691 212.435 522.16 211.881 522.501 211.152C522.846 210.419 523.019 209.52 523.019 208.455ZM532.022 215V213.568L536.452 208.979C536.925 208.48 537.315 208.043 537.621 207.668C537.932 207.289 538.165 206.929 538.318 206.588C538.472 206.247 538.548 205.885 538.548 205.501C538.548 205.067 538.446 204.692 538.241 204.376C538.037 204.057 537.758 203.812 537.404 203.641C537.05 203.467 536.652 203.379 536.209 203.379C535.74 203.379 535.331 203.475 534.981 203.667C534.632 203.859 534.364 204.129 534.176 204.479C533.989 204.828 533.895 205.237 533.895 205.706H532.009C532.009 204.909 532.192 204.212 532.559 203.616C532.925 203.019 533.428 202.557 534.067 202.229C534.707 201.896 535.433 201.73 536.247 201.73C537.07 201.73 537.794 201.894 538.42 202.222C539.051 202.546 539.543 202.989 539.897 203.552C540.251 204.11 540.427 204.741 540.427 205.444C540.427 205.93 540.336 206.405 540.153 206.869C539.974 207.334 539.66 207.852 539.213 208.423C538.766 208.989 538.143 209.678 537.347 210.487L534.745 213.21V213.306H540.638V215H532.022Z" fill="#999999"/>
<rect x="653.5" y="180.5" width="133" height="54" rx="9.5" stroke="#999999" stroke-dasharray="4 4"/>
<path d="M687.355 215V201.909H689.33V213.3H695.262V215H687.355ZM708.377 208.455C708.377 209.852 708.121 211.054 707.61 212.06C707.099 213.061 706.398 213.832 705.507 214.374C704.621 214.911 703.613 215.179 702.484 215.179C701.35 215.179 700.338 214.911 699.447 214.374C698.561 213.832 697.862 213.059 697.351 212.053C696.839 211.048 696.584 209.848 696.584 208.455C696.584 207.057 696.839 205.857 697.351 204.856C697.862 203.85 698.561 203.079 699.447 202.542C700.338 202.001 701.35 201.73 702.484 201.73C703.613 201.73 704.621 202.001 705.507 202.542C706.398 203.079 707.099 203.85 707.61 204.856C708.121 205.857 708.377 207.057 708.377 208.455ZM706.421 208.455C706.421 207.389 706.248 206.492 705.903 205.763C705.562 205.031 705.094 204.477 704.497 204.102C703.905 203.722 703.234 203.533 702.484 203.533C701.729 203.533 701.056 203.722 700.464 204.102C699.871 204.477 699.403 205.031 699.057 205.763C698.717 206.492 698.546 207.389 698.546 208.455C698.546 209.52 698.717 210.419 699.057 211.152C699.403 211.881 699.871 212.435 700.464 212.814C701.056 213.189 701.729 213.376 702.484 213.376C703.234 213.376 703.905 213.189 704.497 212.814C705.094 212.435 705.562 211.881 705.903 211.152C706.248 210.419 706.421 209.52 706.421 208.455ZM719.699 206.045C719.575 205.657 719.409 205.31 719.2 205.003C718.996 204.692 718.751 204.428 718.465 204.21C718.18 203.989 717.854 203.82 717.487 203.705C717.125 203.59 716.727 203.533 716.292 203.533C715.555 203.533 714.89 203.722 714.298 204.102C713.705 204.481 713.237 205.037 712.891 205.77C712.551 206.499 712.38 207.391 712.38 208.448C712.38 209.509 712.553 210.406 712.898 211.139C713.243 211.872 713.716 212.428 714.317 212.808C714.918 213.187 715.602 213.376 716.369 213.376C717.08 213.376 717.7 213.232 718.229 212.942C718.761 212.652 719.173 212.243 719.462 211.714C719.756 211.182 719.903 210.555 719.903 209.835L720.415 209.931H716.669V208.301H721.815V209.79C721.815 210.89 721.58 211.844 721.112 212.654C720.647 213.46 720.004 214.082 719.181 214.521C718.363 214.96 717.426 215.179 716.369 215.179C715.184 215.179 714.144 214.906 713.249 214.361C712.359 213.815 711.664 213.042 711.166 212.04C710.667 211.035 710.418 209.842 710.418 208.461C710.418 207.417 710.563 206.479 710.852 205.648C711.142 204.817 711.549 204.112 712.073 203.533C712.602 202.949 713.222 202.504 713.933 202.197C714.649 201.886 715.431 201.73 716.279 201.73C716.987 201.73 717.645 201.835 718.254 202.043C718.868 202.252 719.413 202.548 719.891 202.932C720.372 203.315 720.771 203.771 721.086 204.3C721.401 204.824 721.614 205.406 721.725 206.045H719.699ZM735.693 208.455C735.693 209.852 735.438 211.054 734.926 212.06C734.415 213.061 733.714 213.832 732.823 214.374C731.937 214.911 730.929 215.179 729.8 215.179C728.666 215.179 727.654 214.911 726.764 214.374C725.877 213.832 725.179 213.059 724.667 212.053C724.156 211.048 723.9 209.848 723.9 208.455C723.9 207.057 724.156 205.857 724.667 204.856C725.179 203.85 725.877 203.079 726.764 202.542C727.654 202.001 728.666 201.73 729.8 201.73C730.929 201.73 731.937 202.001 732.823 202.542C733.714 203.079 734.415 203.85 734.926 204.856C735.438 205.857 735.693 207.057 735.693 208.455ZM733.737 208.455C733.737 207.389 733.565 206.492 733.22 205.763C732.879 205.031 732.41 204.477 731.813 204.102C731.221 203.722 730.55 203.533 729.8 203.533C729.046 203.533 728.372 203.722 727.78 204.102C727.188 204.477 726.719 205.031 726.374 205.763C726.033 206.492 725.862 207.389 725.862 208.455C725.862 209.52 726.033 210.419 726.374 211.152C726.719 211.881 727.188 212.435 727.78 212.814C728.372 213.189 729.046 213.376 729.8 213.376C730.55 213.376 731.221 213.189 731.813 212.814C732.41 212.435 732.879 211.881 733.22 211.152C733.565 210.419 733.737 209.52 733.737 208.455ZM747.298 215.179C746.42 215.179 745.636 215.028 744.946 214.725C744.26 214.423 743.717 214.003 743.316 213.466C742.92 212.925 742.707 212.298 742.677 211.587H744.684C744.709 211.974 744.839 212.311 745.074 212.597C745.312 212.878 745.623 213.095 746.007 213.249C746.391 213.402 746.817 213.479 747.285 213.479C747.801 213.479 748.257 213.389 748.653 213.21C749.054 213.031 749.367 212.782 749.593 212.462C749.819 212.138 749.932 211.766 749.932 211.344C749.932 210.905 749.819 210.519 749.593 210.187C749.371 209.85 749.045 209.586 748.615 209.394C748.189 209.202 747.673 209.107 747.068 209.107H745.962V207.496H747.068C747.554 207.496 747.98 207.408 748.347 207.234C748.717 207.059 749.007 206.816 749.216 206.505C749.425 206.19 749.529 205.821 749.529 205.399C749.529 204.994 749.437 204.643 749.254 204.344C749.075 204.042 748.82 203.805 748.487 203.635C748.159 203.464 747.771 203.379 747.324 203.379C746.898 203.379 746.499 203.458 746.128 203.616C745.762 203.769 745.464 203.991 745.234 204.281C745.003 204.566 744.88 204.909 744.863 205.31H742.952C742.973 204.602 743.182 203.98 743.578 203.443C743.979 202.906 744.507 202.487 745.163 202.184C745.82 201.881 746.548 201.73 747.349 201.73C748.189 201.73 748.913 201.894 749.523 202.222C750.136 202.546 750.609 202.979 750.942 203.52C751.278 204.061 751.445 204.653 751.44 205.297C751.445 206.03 751.24 206.652 750.827 207.163C750.418 207.675 749.872 208.018 749.19 208.192V208.295C750.06 208.427 750.733 208.772 751.21 209.33C751.692 209.888 751.93 210.581 751.926 211.408C751.93 212.128 751.73 212.773 751.325 213.344C750.925 213.915 750.377 214.365 749.682 214.693C748.988 215.017 748.193 215.179 747.298 215.179Z" fill="#999999"/>
<rect x="865.5" y="180.5" width="133" height="54" rx="9.5" stroke="#999999" stroke-dasharray="4 4"/>
<path d="M899.267 215V201.909H901.242V213.3H907.174V215H899.267ZM920.289 208.455C920.289 209.852 920.033 211.054 919.522 212.06C919.011 213.061 918.31 213.832 917.419 214.374C916.533 214.911 915.525 215.179 914.396 215.179C913.262 215.179 912.25 214.911 911.359 214.374C910.473 213.832 909.774 213.059 909.263 212.053C908.752 211.048 908.496 209.848 908.496 208.455C908.496 207.057 908.752 205.857 909.263 204.856C909.774 203.85 910.473 203.079 911.359 202.542C912.25 202.001 913.262 201.73 914.396 201.73C915.525 201.73 916.533 202.001 917.419 202.542C918.31 203.079 919.011 203.85 919.522 204.856C920.033 205.857 920.289 207.057 920.289 208.455ZM918.333 208.455C918.333 207.389 918.161 206.492 917.815 205.763C917.475 205.031 917.006 204.477 916.409 204.102C915.817 203.722 915.146 203.533 914.396 203.533C913.641 203.533 912.968 203.722 912.376 204.102C911.783 204.477 911.315 205.031 910.97 205.763C910.629 206.492 910.458 207.389 910.458 208.455C910.458 209.52 910.629 210.419 910.97 211.152C911.315 211.881 911.783 212.435 912.376 212.814C912.968 213.189 913.641 213.376 914.396 213.376C915.146 213.376 915.817 213.189 916.409 212.814C917.006 212.435 917.475 211.881 917.815 211.152C918.161 210.419 918.333 209.52 918.333 208.455ZM931.611 206.045C931.487 205.657 931.321 205.31 931.112 205.003C930.908 204.692 930.663 204.428 930.377 204.21C930.092 203.989 929.766 203.82 929.399 203.705C929.037 203.59 928.639 203.533 928.204 203.533C927.467 203.533 926.802 203.722 926.21 204.102C925.617 204.481 925.149 205.037 924.804 205.77C924.463 206.499 924.292 207.391 924.292 208.448C924.292 209.509 924.465 210.406 924.81 211.139C925.155 211.872 925.628 212.428 926.229 212.808C926.83 213.187 927.514 213.376 928.281 213.376C928.992 213.376 929.612 213.232 930.141 212.942C930.674 212.652 931.085 212.243 931.375 211.714C931.669 211.182 931.816 210.555 931.816 209.835L932.327 209.931H928.581V208.301H933.727V209.79C933.727 210.89 933.492 211.844 933.024 212.654C932.559 213.46 931.916 214.082 931.093 214.521C930.275 214.96 929.338 215.179 928.281 215.179C927.096 215.179 926.056 214.906 925.161 214.361C924.271 213.815 923.576 213.042 923.078 212.04C922.579 211.035 922.33 209.842 922.33 208.461C922.33 207.417 922.475 206.479 922.764 205.648C923.054 204.817 923.461 204.112 923.985 203.533C924.514 202.949 925.134 202.504 925.845 202.197C926.561 201.886 927.343 201.73 928.191 201.73C928.899 201.73 929.557 201.835 930.166 202.043C930.78 202.252 931.326 202.548 931.803 202.932C932.284 203.315 932.683 203.771 932.998 204.3C933.313 204.824 933.527 205.406 933.637 206.045H931.611ZM947.606 208.455C947.606 209.852 947.35 211.054 946.839 212.06C946.327 213.061 945.626 213.832 944.736 214.374C943.849 214.911 942.841 215.179 941.712 215.179C940.579 215.179 939.566 214.911 938.676 214.374C937.79 213.832 937.091 213.059 936.579 212.053C936.068 211.048 935.812 209.848 935.812 208.455C935.812 207.057 936.068 205.857 936.579 204.856C937.091 203.85 937.79 203.079 938.676 202.542C939.566 202.001 940.579 201.73 941.712 201.73C942.841 201.73 943.849 202.001 944.736 202.542C945.626 203.079 946.327 203.85 946.839 204.856C947.35 205.857 947.606 207.057 947.606 208.455ZM945.65 208.455C945.65 207.389 945.477 206.492 945.132 205.763C944.791 205.031 944.322 204.477 943.726 204.102C943.133 203.722 942.462 203.533 941.712 203.533C940.958 203.533 940.285 203.722 939.692 204.102C939.1 204.477 938.631 205.031 938.286 205.763C937.945 206.492 937.775 207.389 937.775 208.455C937.775 209.52 937.945 210.419 938.286 211.152C938.631 211.881 939.1 212.435 939.692 212.814C940.285 213.189 940.958 213.376 941.712 213.376C942.462 213.376 943.133 213.189 943.726 212.814C944.322 212.435 944.791 211.881 945.132 211.152C945.477 210.419 945.65 209.52 945.65 208.455ZM954.378 212.443V210.845L960.035 201.909H961.294V204.261H960.495L956.449 210.666V210.768H964.203V212.443H954.378ZM960.585 215V211.957L960.597 211.229V201.909H962.47V215H960.585Z" fill="#999999"/>
<rect x="1077.5" y="180.5" width="133" height="54" rx="9.5" stroke="#999999" stroke-dasharray="4 4"/>
<path d="M1111.57 215V201.909H1113.55V213.3H1119.48V215H1111.57ZM1132.6 208.455C1132.6 209.852 1132.34 211.054 1131.83 212.06C1131.32 213.061 1130.62 213.832 1129.73 214.374C1128.84 214.911 1127.83 215.179 1126.7 215.179C1125.57 215.179 1124.56 214.911 1123.67 214.374C1122.78 213.832 1122.08 213.059 1121.57 212.053C1121.06 211.048 1120.8 209.848 1120.8 208.455C1120.8 207.057 1121.06 205.857 1121.57 204.856C1122.08 203.85 1122.78 203.079 1123.67 202.542C1124.56 202.001 1125.57 201.73 1126.7 201.73C1127.83 201.73 1128.84 202.001 1129.73 202.542C1130.62 203.079 1131.32 203.85 1131.83 204.856C1132.34 205.857 1132.6 207.057 1132.6 208.455ZM1130.64 208.455C1130.64 207.389 1130.47 206.492 1130.12 205.763C1129.78 205.031 1129.31 204.477 1128.72 204.102C1128.12 203.722 1127.45 203.533 1126.7 203.533C1125.95 203.533 1125.28 203.722 1124.68 204.102C1124.09 204.477 1123.62 205.031 1123.28 205.763C1122.94 206.492 1122.77 207.389 1122.77 208.455C1122.77 209.52 1122.94 210.419 1123.28 211.152C1123.62 211.881 1124.09 212.435 1124.68 212.814C1125.28 213.189 1125.95 213.376 1126.7 213.376C1127.45 213.376 1128.12 213.189 1128.72 212.814C1129.31 212.435 1129.78 211.881 1130.12 211.152C1130.47 210.419 1130.64 209.52 1130.64 208.455ZM1143.92 206.045C1143.8 205.657 1143.63 205.31 1143.42 205.003C1143.22 204.692 1142.97 204.428 1142.69 204.21C1142.4 203.989 1142.07 203.82 1141.71 203.705C1141.34 203.59 1140.95 203.533 1140.51 203.533C1139.77 203.533 1139.11 203.722 1138.52 204.102C1137.93 204.481 1137.46 205.037 1137.11 205.77C1136.77 206.499 1136.6 207.391 1136.6 208.448C1136.6 209.509 1136.77 210.406 1137.12 211.139C1137.46 211.872 1137.94 212.428 1138.54 212.808C1139.14 213.187 1139.82 213.376 1140.59 213.376C1141.3 213.376 1141.92 213.232 1142.45 212.942C1142.98 212.652 1143.39 212.243 1143.68 211.714C1143.98 211.182 1144.12 210.555 1144.12 209.835L1144.63 209.931H1140.89V208.301H1146.03V209.79C1146.03 210.89 1145.8 211.844 1145.33 212.654C1144.87 213.46 1144.22 214.082 1143.4 214.521C1142.58 214.96 1141.65 215.179 1140.59 215.179C1139.4 215.179 1138.36 214.906 1137.47 214.361C1136.58 213.815 1135.88 213.042 1135.39 212.04C1134.89 211.035 1134.64 209.842 1134.64 208.461C1134.64 207.417 1134.78 206.479 1135.07 205.648C1135.36 204.817 1135.77 204.112 1136.29 203.533C1136.82 202.949 1137.44 202.504 1138.15 202.197C1138.87 201.886 1139.65 201.73 1140.5 201.73C1141.21 201.73 1141.86 201.835 1142.47 202.043C1143.09 202.252 1143.63 202.548 1144.11 202.932C1144.59 203.315 1144.99 203.771 1145.31 204.3C1145.62 204.824 1145.83 205.406 1145.94 206.045H1143.92ZM1159.91 208.455C1159.91 209.852 1159.66 211.054 1159.15 212.06C1158.63 213.061 1157.93 213.832 1157.04 214.374C1156.16 214.911 1155.15 215.179 1154.02 215.179C1152.89 215.179 1151.87 214.911 1150.98 214.374C1150.1 213.832 1149.4 213.059 1148.89 212.053C1148.38 211.048 1148.12 209.848 1148.12 208.455C1148.12 207.057 1148.38 205.857 1148.89 204.856C1149.4 203.85 1150.1 203.079 1150.98 202.542C1151.87 202.001 1152.89 201.73 1154.02 201.73C1155.15 201.73 1156.16 202.001 1157.04 202.542C1157.93 203.079 1158.63 203.85 1159.15 204.856C1159.66 205.857 1159.91 207.057 1159.91 208.455ZM1157.96 208.455C1157.96 207.389 1157.78 206.492 1157.44 205.763C1157.1 205.031 1156.63 204.477 1156.03 204.102C1155.44 203.722 1154.77 203.533 1154.02 203.533C1153.27 203.533 1152.59 203.722 1152 204.102C1151.41 204.477 1150.94 205.031 1150.59 205.763C1150.25 206.492 1150.08 207.389 1150.08 208.455C1150.08 209.52 1150.25 210.419 1150.59 211.152C1150.94 211.881 1151.41 212.435 1152 212.814C1152.59 213.189 1153.27 213.376 1154.02 213.376C1154.77 213.376 1155.44 213.189 1156.03 212.814C1156.63 212.435 1157.1 211.881 1157.44 211.152C1157.78 210.419 1157.96 209.52 1157.96 208.455ZM1171.28 215.179C1170.48 215.179 1169.76 215.026 1169.12 214.719C1168.49 214.408 1167.98 213.982 1167.6 213.44C1167.22 212.899 1167.02 212.281 1166.99 211.587H1168.91C1168.96 212.149 1169.21 212.612 1169.66 212.974C1170.11 213.336 1170.65 213.517 1171.28 213.517C1171.78 213.517 1172.23 213.402 1172.62 213.172C1173.01 212.938 1173.32 212.616 1173.54 212.207C1173.76 211.798 1173.88 211.331 1173.88 210.807C1173.88 210.274 1173.76 209.799 1173.53 209.381C1173.3 208.964 1172.98 208.636 1172.58 208.397C1172.18 208.158 1171.72 208.037 1171.2 208.033C1170.8 208.033 1170.4 208.101 1170 208.237C1169.6 208.374 1169.28 208.553 1169.03 208.774L1167.22 208.506L1167.96 201.909H1175.16V203.603H1169.6L1169.18 207.266H1169.26C1169.52 207.018 1169.86 206.812 1170.28 206.646C1170.7 206.479 1171.16 206.396 1171.65 206.396C1172.44 206.396 1173.15 206.586 1173.77 206.965C1174.4 207.344 1174.89 207.862 1175.25 208.518C1175.61 209.17 1175.79 209.92 1175.79 210.768C1175.79 211.616 1175.6 212.373 1175.21 213.038C1174.83 213.702 1174.3 214.227 1173.61 214.61C1172.94 214.989 1172.16 215.179 1171.28 215.179Z" fill="#999999"/>
</svg>
