<svg width="1440" height="649" viewBox="0 0 1440 649" fill="none" xmlns="http://www.w3.org/2000/svg">
<rect width="1440" height="649" fill="white"/>
<path d="M248.305 106.724H242.993C242.841 105.853 242.562 105.081 242.154 104.409C241.747 103.727 241.241 103.15 240.635 102.676C240.029 102.203 239.337 101.848 238.561 101.611C237.794 101.365 236.965 101.241 236.075 101.241C234.493 101.241 233.092 101.639 231.87 102.435C230.649 103.221 229.692 104.376 229.001 105.901C228.31 107.416 227.964 109.267 227.964 111.455C227.964 113.68 228.31 115.555 229.001 117.08C229.702 118.595 230.658 119.741 231.87 120.517C233.092 121.284 234.489 121.668 236.061 121.668C236.932 121.668 237.746 121.554 238.504 121.327C239.271 121.09 239.958 120.744 240.564 120.29C241.179 119.835 241.695 119.277 242.112 118.614C242.538 117.951 242.832 117.193 242.993 116.341L248.305 116.369C248.106 117.752 247.675 119.049 247.012 120.261C246.359 121.473 245.502 122.544 244.441 123.472C243.381 124.39 242.14 125.11 240.72 125.631C239.299 126.142 237.723 126.398 235.99 126.398C233.433 126.398 231.151 125.806 229.143 124.622C227.136 123.438 225.554 121.729 224.399 119.494C223.243 117.259 222.666 114.58 222.666 111.455C222.666 108.32 223.248 105.64 224.413 103.415C225.578 101.18 227.164 99.4706 229.172 98.2869C231.179 97.1032 233.452 96.5114 235.99 96.5114C237.609 96.5114 239.115 96.7386 240.507 97.1932C241.899 97.6477 243.139 98.3153 244.228 99.196C245.317 100.067 246.212 101.137 246.913 102.406C247.623 103.666 248.087 105.105 248.305 106.724ZM259.182 126.44C257.8 126.44 256.554 126.194 255.446 125.702C254.348 125.2 253.477 124.461 252.833 123.486C252.198 122.51 251.881 121.308 251.881 119.878C251.881 118.647 252.108 117.629 252.563 116.824C253.017 116.019 253.638 115.375 254.424 114.892C255.21 114.409 256.095 114.045 257.08 113.798C258.074 113.543 259.102 113.358 260.162 113.244C261.441 113.112 262.478 112.993 263.273 112.889C264.069 112.776 264.646 112.605 265.006 112.378C265.375 112.141 265.56 111.777 265.56 111.284V111.199C265.56 110.129 265.243 109.3 264.608 108.713C263.974 108.126 263.06 107.832 261.867 107.832C260.607 107.832 259.608 108.107 258.87 108.656C258.141 109.205 257.648 109.854 257.392 110.602L252.591 109.92C252.97 108.595 253.595 107.487 254.466 106.597C255.337 105.697 256.403 105.025 257.662 104.58C258.922 104.125 260.314 103.898 261.838 103.898C262.89 103.898 263.936 104.021 264.978 104.267C266.019 104.513 266.971 104.92 267.833 105.489C268.694 106.047 269.386 106.81 269.907 107.776C270.437 108.741 270.702 109.949 270.702 111.398V126H265.759V123.003H265.588C265.276 123.609 264.836 124.177 264.267 124.707C263.709 125.228 263.003 125.65 262.151 125.972C261.308 126.284 260.319 126.44 259.182 126.44ZM260.517 122.662C261.55 122.662 262.444 122.458 263.202 122.051C263.96 121.634 264.542 121.085 264.949 120.403C265.366 119.722 265.574 118.978 265.574 118.173V115.602C265.413 115.735 265.139 115.858 264.75 115.972C264.372 116.085 263.945 116.185 263.472 116.27C262.998 116.355 262.53 116.431 262.066 116.497C261.602 116.563 261.199 116.62 260.858 116.668C260.091 116.772 259.405 116.942 258.799 117.179C258.193 117.416 257.714 117.747 257.364 118.173C257.014 118.59 256.838 119.13 256.838 119.793C256.838 120.74 257.184 121.455 257.875 121.938C258.567 122.42 259.447 122.662 260.517 122.662ZM286.767 104.182V108.159H274.225V104.182H286.767ZM277.321 98.9545H282.463V119.438C282.463 120.129 282.568 120.659 282.776 121.028C282.994 121.388 283.278 121.634 283.628 121.767C283.979 121.9 284.367 121.966 284.793 121.966C285.115 121.966 285.408 121.942 285.674 121.895C285.948 121.848 286.157 121.805 286.299 121.767L287.165 125.787C286.891 125.882 286.498 125.986 285.986 126.099C285.484 126.213 284.869 126.279 284.14 126.298C282.852 126.336 281.692 126.142 280.659 125.716C279.627 125.28 278.808 124.608 278.202 123.699C277.605 122.79 277.312 121.653 277.321 120.29V98.9545ZM300.35 126.426C298.172 126.426 296.302 125.948 294.74 124.991C293.187 124.035 291.989 122.714 291.146 121.028C290.313 119.333 289.896 117.383 289.896 115.176C289.896 112.96 290.322 111.005 291.174 109.31C292.027 107.605 293.229 106.279 294.782 105.332C296.345 104.376 298.191 103.898 300.322 103.898C302.093 103.898 303.66 104.224 305.024 104.878C306.397 105.522 307.491 106.436 308.305 107.619C309.119 108.794 309.583 110.167 309.697 111.739H304.782C304.583 110.687 304.11 109.812 303.362 109.111C302.623 108.401 301.634 108.045 300.393 108.045C299.342 108.045 298.419 108.33 297.623 108.898C296.828 109.456 296.208 110.261 295.762 111.312C295.327 112.364 295.109 113.623 295.109 115.091C295.109 116.578 295.327 117.856 295.762 118.926C296.198 119.987 296.809 120.806 297.595 121.384C298.39 121.952 299.323 122.236 300.393 122.236C301.151 122.236 301.828 122.094 302.424 121.81C303.03 121.516 303.537 121.095 303.944 120.545C304.351 119.996 304.631 119.329 304.782 118.543H309.697C309.574 120.086 309.119 121.455 308.333 122.648C307.547 123.831 306.477 124.759 305.123 125.432C303.769 126.095 302.178 126.426 300.35 126.426ZM319.061 113.216V126H313.919V96.9091H318.948V107.889H319.203C319.715 106.658 320.506 105.687 321.576 104.977C322.655 104.258 324.028 103.898 325.695 103.898C327.21 103.898 328.531 104.215 329.658 104.849C330.785 105.484 331.656 106.412 332.272 107.634C332.897 108.855 333.209 110.347 333.209 112.108V126H328.067V112.903C328.067 111.436 327.688 110.295 326.931 109.48C326.183 108.656 325.132 108.244 323.777 108.244C322.868 108.244 322.054 108.443 321.334 108.841C320.624 109.229 320.065 109.793 319.658 110.531C319.26 111.27 319.061 112.165 319.061 113.216ZM340.865 134.182C340.165 134.182 339.516 134.125 338.919 134.011C338.332 133.907 337.864 133.784 337.513 133.642L338.706 129.636C339.454 129.854 340.122 129.958 340.709 129.949C341.296 129.939 341.812 129.755 342.257 129.395C342.712 129.045 343.096 128.457 343.408 127.634L343.848 126.455L335.936 104.182H341.391L346.419 120.659H346.647L351.689 104.182H357.158L348.422 128.642C348.015 129.797 347.475 130.787 346.803 131.611C346.131 132.444 345.307 133.079 344.331 133.514C343.365 133.959 342.21 134.182 340.865 134.182ZM370.865 126V96.9091H376.135V109.224H389.615V96.9091H394.9V126H389.615V113.642H376.135V126H370.865ZM410.063 126.426C407.875 126.426 405.986 125.972 404.395 125.062C402.814 124.144 401.597 122.847 400.745 121.17C399.892 119.485 399.466 117.501 399.466 115.219C399.466 112.974 399.892 111.005 400.745 109.31C401.606 107.605 402.809 106.279 404.353 105.332C405.896 104.376 407.71 103.898 409.793 103.898C411.138 103.898 412.407 104.116 413.6 104.551C414.802 104.977 415.863 105.64 416.782 106.54C417.71 107.439 418.439 108.585 418.969 109.977C419.499 111.36 419.765 113.008 419.765 114.92V116.497H401.881V113.031H414.836C414.826 112.046 414.613 111.17 414.196 110.403C413.78 109.627 413.197 109.016 412.449 108.571C411.711 108.126 410.849 107.903 409.864 107.903C408.813 107.903 407.89 108.159 407.094 108.67C406.299 109.172 405.678 109.835 405.233 110.659C404.798 111.473 404.575 112.368 404.566 113.344V116.369C404.566 117.638 404.798 118.727 405.262 119.636C405.726 120.536 406.374 121.227 407.208 121.71C408.041 122.184 409.016 122.42 410.134 122.42C410.882 122.42 411.559 122.316 412.165 122.108C412.771 121.89 413.297 121.573 413.742 121.156C414.187 120.74 414.523 120.223 414.75 119.608L419.551 120.148C419.248 121.417 418.671 122.525 417.819 123.472C416.976 124.409 415.896 125.138 414.58 125.659C413.264 126.17 411.758 126.426 410.063 126.426ZM430.393 126.44C429.011 126.44 427.765 126.194 426.657 125.702C425.559 125.2 424.688 124.461 424.044 123.486C423.409 122.51 423.092 121.308 423.092 119.878C423.092 118.647 423.319 117.629 423.774 116.824C424.228 116.019 424.849 115.375 425.635 114.892C426.421 114.409 427.306 114.045 428.291 113.798C429.285 113.543 430.313 113.358 431.373 113.244C432.652 113.112 433.689 112.993 434.484 112.889C435.279 112.776 435.857 112.605 436.217 112.378C436.586 112.141 436.771 111.777 436.771 111.284V111.199C436.771 110.129 436.454 109.3 435.819 108.713C435.185 108.126 434.271 107.832 433.078 107.832C431.818 107.832 430.819 108.107 430.081 108.656C429.351 109.205 428.859 109.854 428.603 110.602L423.802 109.92C424.181 108.595 424.806 107.487 425.677 106.597C426.548 105.697 427.614 105.025 428.873 104.58C430.133 104.125 431.525 103.898 433.049 103.898C434.1 103.898 435.147 104.021 436.189 104.267C437.23 104.513 438.182 104.92 439.044 105.489C439.905 106.047 440.597 106.81 441.118 107.776C441.648 108.741 441.913 109.949 441.913 111.398V126H436.97V123.003H436.799C436.487 123.609 436.047 124.177 435.478 124.707C434.92 125.228 434.214 125.65 433.362 125.972C432.519 126.284 431.529 126.44 430.393 126.44ZM431.728 122.662C432.761 122.662 433.655 122.458 434.413 122.051C435.171 121.634 435.753 121.085 436.16 120.403C436.577 119.722 436.785 118.978 436.785 118.173V115.602C436.624 115.735 436.35 115.858 435.961 115.972C435.583 116.085 435.156 116.185 434.683 116.27C434.209 116.355 433.741 116.431 433.277 116.497C432.813 116.563 432.41 116.62 432.069 116.668C431.302 116.772 430.616 116.942 430.01 117.179C429.404 117.416 428.925 117.747 428.575 118.173C428.225 118.59 428.049 119.13 428.049 119.793C428.049 120.74 428.395 121.455 429.086 121.938C429.778 122.42 430.658 122.662 431.728 122.662ZM455.18 126.384C453.466 126.384 451.932 125.943 450.578 125.062C449.224 124.182 448.154 122.903 447.368 121.227C446.582 119.551 446.189 117.515 446.189 115.119C446.189 112.695 446.586 110.65 447.382 108.983C448.187 107.307 449.271 106.043 450.635 105.19C451.998 104.329 453.518 103.898 455.194 103.898C456.473 103.898 457.524 104.116 458.348 104.551C459.172 104.977 459.825 105.493 460.308 106.099C460.791 106.696 461.165 107.259 461.43 107.79H461.643V96.9091H466.799V126H461.743V122.562H461.43C461.165 123.093 460.781 123.656 460.279 124.253C459.778 124.84 459.115 125.342 458.291 125.759C457.467 126.175 456.43 126.384 455.18 126.384ZM456.615 122.165C457.704 122.165 458.632 121.871 459.399 121.284C460.166 120.687 460.748 119.859 461.146 118.798C461.544 117.738 461.743 116.502 461.743 115.091C461.743 113.68 461.544 112.454 461.146 111.412C460.758 110.37 460.18 109.561 459.413 108.983C458.655 108.405 457.723 108.116 456.615 108.116C455.469 108.116 454.512 108.415 453.745 109.011C452.978 109.608 452.401 110.432 452.012 111.483C451.624 112.534 451.43 113.737 451.43 115.091C451.43 116.455 451.624 117.671 452.012 118.741C452.41 119.802 452.993 120.64 453.76 121.256C454.536 121.862 455.488 122.165 456.615 122.165ZM477.421 96.9091V126H472.279V96.9091H477.421ZM482.708 126V104.182H487.85V126H482.708ZM485.294 101.085C484.479 101.085 483.779 100.815 483.191 100.276C482.604 99.7263 482.311 99.0682 482.311 98.3011C482.311 97.5246 482.604 96.8665 483.191 96.3267C483.779 95.7775 484.479 95.5028 485.294 95.5028C486.118 95.5028 486.818 95.7775 487.396 96.3267C487.983 96.8665 488.277 97.5246 488.277 98.3011C488.277 99.0682 487.983 99.7263 487.396 100.276C486.818 100.815 486.118 101.085 485.294 101.085ZM498.28 113.216V126H493.138V104.182H498.053V107.889H498.309C498.81 106.668 499.611 105.697 500.709 104.977C501.817 104.258 503.185 103.898 504.814 103.898C506.32 103.898 507.632 104.22 508.749 104.864C509.876 105.508 510.747 106.44 511.363 107.662C511.988 108.884 512.295 110.366 512.286 112.108V126H507.144V112.903C507.144 111.445 506.765 110.304 506.007 109.48C505.259 108.656 504.222 108.244 502.897 108.244C501.997 108.244 501.197 108.443 500.496 108.841C499.805 109.229 499.26 109.793 498.863 110.531C498.474 111.27 498.28 112.165 498.28 113.216ZM527.172 126.426C524.985 126.426 523.096 125.972 521.505 125.062C519.923 124.144 518.706 122.847 517.854 121.17C517.002 119.485 516.576 117.501 516.576 115.219C516.576 112.974 517.002 111.005 517.854 109.31C518.716 107.605 519.918 106.279 521.462 105.332C523.006 104.376 524.819 103.898 526.902 103.898C528.247 103.898 529.516 104.116 530.709 104.551C531.912 104.977 532.972 105.64 533.891 106.54C534.819 107.439 535.548 108.585 536.078 109.977C536.609 111.36 536.874 113.008 536.874 114.92V116.497H518.99V113.031H531.945C531.935 112.046 531.722 111.17 531.306 110.403C530.889 109.627 530.307 109.016 529.559 108.571C528.82 108.126 527.958 107.903 526.973 107.903C525.922 107.903 524.999 108.159 524.203 108.67C523.408 109.172 522.788 109.835 522.343 110.659C521.907 111.473 521.685 112.368 521.675 113.344V116.369C521.675 117.638 521.907 118.727 522.371 119.636C522.835 120.536 523.484 121.227 524.317 121.71C525.15 122.184 526.126 122.42 527.243 122.42C527.991 122.42 528.668 122.316 529.275 122.108C529.881 121.89 530.406 121.573 530.851 121.156C531.296 120.74 531.632 120.223 531.86 119.608L536.661 120.148C536.358 121.417 535.78 122.525 534.928 123.472C534.085 124.409 533.006 125.138 531.689 125.659C530.373 126.17 528.867 126.426 527.172 126.426ZM557.424 126.44C556.042 126.44 554.797 126.194 553.689 125.702C552.59 125.2 551.719 124.461 551.075 123.486C550.44 122.51 550.123 121.308 550.123 119.878C550.123 118.647 550.35 117.629 550.805 116.824C551.26 116.019 551.88 115.375 552.666 114.892C553.452 114.409 554.337 114.045 555.322 113.798C556.316 113.543 557.344 113.358 558.404 113.244C559.683 113.112 560.72 112.993 561.515 112.889C562.311 112.776 562.888 112.605 563.248 112.378C563.618 112.141 563.802 111.777 563.802 111.284V111.199C563.802 110.129 563.485 109.3 562.85 108.713C562.216 108.126 561.302 107.832 560.109 107.832C558.85 107.832 557.85 108.107 557.112 108.656C556.383 109.205 555.89 109.854 555.635 110.602L550.833 109.92C551.212 108.595 551.837 107.487 552.708 106.597C553.58 105.697 554.645 105.025 555.904 104.58C557.164 104.125 558.556 103.898 560.081 103.898C561.132 103.898 562.178 104.021 563.22 104.267C564.261 104.513 565.213 104.92 566.075 105.489C566.937 106.047 567.628 106.81 568.149 107.776C568.679 108.741 568.944 109.949 568.944 111.398V126H564.001V123.003H563.831C563.518 123.609 563.078 124.177 562.51 124.707C561.951 125.228 561.245 125.65 560.393 125.972C559.55 126.284 558.561 126.44 557.424 126.44ZM558.76 122.662C559.792 122.662 560.687 122.458 561.444 122.051C562.202 121.634 562.784 121.085 563.191 120.403C563.608 119.722 563.816 118.978 563.816 118.173V115.602C563.655 115.735 563.381 115.858 562.993 115.972C562.614 116.085 562.188 116.185 561.714 116.27C561.241 116.355 560.772 116.431 560.308 116.497C559.844 116.563 559.441 116.62 559.1 116.668C558.333 116.772 557.647 116.942 557.041 117.179C556.435 117.416 555.957 117.747 555.606 118.173C555.256 118.59 555.081 119.13 555.081 119.793C555.081 120.74 555.426 121.455 556.118 121.938C556.809 122.42 557.69 122.662 558.76 122.662ZM574.342 126V96.9091H579.484V107.79H579.697C579.962 107.259 580.336 106.696 580.819 106.099C581.302 105.493 581.956 104.977 582.779 104.551C583.603 104.116 584.654 103.898 585.933 103.898C587.618 103.898 589.138 104.329 590.493 105.19C591.856 106.043 592.936 107.307 593.731 108.983C594.536 110.65 594.939 112.695 594.939 115.119C594.939 117.515 594.546 119.551 593.76 121.227C592.974 122.903 591.904 124.182 590.549 125.062C589.195 125.943 587.661 126.384 585.947 126.384C584.697 126.384 583.66 126.175 582.836 125.759C582.012 125.342 581.35 124.84 580.848 124.253C580.355 123.656 579.972 123.093 579.697 122.562H579.399V126H574.342ZM579.385 115.091C579.385 116.502 579.583 117.738 579.981 118.798C580.388 119.859 580.971 120.687 581.728 121.284C582.495 121.871 583.423 122.165 584.512 122.165C585.649 122.165 586.6 121.862 587.368 121.256C588.135 120.64 588.712 119.802 589.1 118.741C589.498 117.671 589.697 116.455 589.697 115.091C589.697 113.737 589.503 112.534 589.115 111.483C588.726 110.432 588.149 109.608 587.382 109.011C586.615 108.415 585.658 108.116 584.512 108.116C583.414 108.116 582.481 108.405 581.714 108.983C580.947 109.561 580.365 110.37 579.967 111.412C579.579 112.454 579.385 113.68 579.385 115.091ZM608.827 126.426C606.696 126.426 604.85 125.957 603.287 125.02C601.725 124.082 600.513 122.771 599.651 121.085C598.799 119.4 598.373 117.43 598.373 115.176C598.373 112.922 598.799 110.948 599.651 109.253C600.513 107.558 601.725 106.241 603.287 105.304C604.85 104.366 606.696 103.898 608.827 103.898C610.958 103.898 612.804 104.366 614.367 105.304C615.929 106.241 617.137 107.558 617.989 109.253C618.851 110.948 619.282 112.922 619.282 115.176C619.282 117.43 618.851 119.4 617.989 121.085C617.137 122.771 615.929 124.082 614.367 125.02C612.804 125.957 610.958 126.426 608.827 126.426ZM608.855 122.307C610.011 122.307 610.977 121.99 611.753 121.355C612.53 120.711 613.107 119.849 613.486 118.77C613.874 117.69 614.069 116.488 614.069 115.162C614.069 113.827 613.874 112.619 613.486 111.54C613.107 110.451 612.53 109.584 611.753 108.94C610.977 108.296 610.011 107.974 608.855 107.974C607.672 107.974 606.687 108.296 605.901 108.94C605.124 109.584 604.542 110.451 604.154 111.54C603.775 112.619 603.586 113.827 603.586 115.162C603.586 116.488 603.775 117.69 604.154 118.77C604.542 119.849 605.124 120.711 605.901 121.355C606.687 121.99 607.672 122.307 608.855 122.307ZM637.552 116.824V104.182H642.694V126H637.708V122.122H637.481C636.989 123.344 636.179 124.343 635.052 125.119C633.935 125.896 632.557 126.284 630.919 126.284C629.489 126.284 628.225 125.967 627.126 125.332C626.037 124.688 625.185 123.756 624.569 122.534C623.954 121.303 623.646 119.816 623.646 118.074V104.182H628.788V117.278C628.788 118.661 629.167 119.759 629.924 120.574C630.682 121.388 631.676 121.795 632.907 121.795C633.665 121.795 634.399 121.611 635.109 121.241C635.819 120.872 636.402 120.323 636.856 119.594C637.32 118.855 637.552 117.932 637.552 116.824ZM658.877 104.182V108.159H646.334V104.182H658.877ZM649.431 98.9545H654.573V119.438C654.573 120.129 654.677 120.659 654.885 121.028C655.103 121.388 655.387 121.634 655.738 121.767C656.088 121.9 656.476 121.966 656.902 121.966C657.224 121.966 657.518 121.942 657.783 121.895C658.058 121.848 658.266 121.805 658.408 121.767L659.275 125.787C659 125.882 658.607 125.986 658.096 126.099C657.594 126.213 656.978 126.279 656.249 126.298C654.961 126.336 653.801 126.142 652.769 125.716C651.737 125.28 650.917 124.608 650.311 123.699C649.715 122.79 649.421 121.653 649.431 120.29V98.9545ZM699.321 111.455C699.321 114.589 698.734 117.274 697.559 119.509C696.395 121.734 694.804 123.438 692.787 124.622C690.779 125.806 688.502 126.398 685.954 126.398C683.407 126.398 681.125 125.806 679.108 124.622C677.1 123.429 675.509 121.72 674.335 119.494C673.17 117.259 672.588 114.58 672.588 111.455C672.588 108.32 673.17 105.64 674.335 103.415C675.509 101.18 677.1 99.4706 679.108 98.2869C681.125 97.1032 683.407 96.5114 685.954 96.5114C688.502 96.5114 690.779 97.1032 692.787 98.2869C694.804 99.4706 696.395 101.18 697.559 103.415C698.734 105.64 699.321 108.32 699.321 111.455ZM694.022 111.455C694.022 109.248 693.677 107.387 692.985 105.872C692.304 104.348 691.357 103.197 690.145 102.42C688.932 101.634 687.536 101.241 685.954 101.241C684.373 101.241 682.976 101.634 681.764 102.42C680.552 103.197 679.6 104.348 678.909 105.872C678.227 107.387 677.886 109.248 677.886 111.455C677.886 113.661 678.227 115.527 678.909 117.051C679.6 118.566 680.552 119.717 681.764 120.503C682.976 121.279 684.373 121.668 685.954 121.668C687.536 121.668 688.932 121.279 690.145 120.503C691.357 119.717 692.304 118.566 692.985 117.051C693.677 115.527 694.022 113.661 694.022 111.455ZM715.127 104.182V108.159H702.229V104.182H715.127ZM705.453 126V102.122C705.453 100.654 705.757 99.4328 706.363 98.4574C706.978 97.482 707.802 96.7528 708.834 96.2699C709.866 95.7869 711.012 95.5455 712.272 95.5455C713.162 95.5455 713.953 95.6165 714.644 95.7585C715.335 95.9006 715.846 96.0284 716.178 96.142L715.155 100.119C714.937 100.053 714.663 99.9867 714.331 99.9205C714 99.8447 713.631 99.8068 713.223 99.8068C712.267 99.8068 711.59 100.039 711.192 100.503C710.804 100.957 710.61 101.611 710.61 102.463V126H705.453ZM730.205 104.182V108.159H717.307V104.182H730.205ZM720.532 126V102.122C720.532 100.654 720.835 99.4328 721.441 98.4574C722.056 97.482 722.88 96.7528 723.912 96.2699C724.944 95.7869 726.09 95.5455 727.35 95.5455C728.24 95.5455 729.031 95.6165 729.722 95.7585C730.413 95.9006 730.925 96.0284 731.256 96.142L730.233 100.119C730.016 100.053 729.741 99.9867 729.409 99.9205C729.078 99.8447 728.709 99.8068 728.301 99.8068C727.345 99.8068 726.668 100.039 726.27 100.503C725.882 100.957 725.688 101.611 725.688 102.463V126H720.532ZM743.071 126.426C740.883 126.426 738.994 125.972 737.403 125.062C735.822 124.144 734.605 122.847 733.752 121.17C732.9 119.485 732.474 117.501 732.474 115.219C732.474 112.974 732.9 111.005 733.752 109.31C734.614 107.605 735.817 106.279 737.36 105.332C738.904 104.376 740.717 103.898 742.801 103.898C744.145 103.898 745.414 104.116 746.608 104.551C747.81 104.977 748.871 105.64 749.789 106.54C750.717 107.439 751.447 108.585 751.977 109.977C752.507 111.36 752.772 113.008 752.772 114.92V116.497H734.889V113.031H747.843C747.834 112.046 747.621 111.17 747.204 110.403C746.788 109.627 746.205 109.016 745.457 108.571C744.718 108.126 743.857 107.903 742.872 107.903C741.821 107.903 740.897 108.159 740.102 108.67C739.306 109.172 738.686 109.835 738.241 110.659C737.806 111.473 737.583 112.368 737.574 113.344V116.369C737.574 117.638 737.806 118.727 738.27 119.636C738.734 120.536 739.382 121.227 740.216 121.71C741.049 122.184 742.024 122.42 743.142 122.42C743.89 122.42 744.567 122.316 745.173 122.108C745.779 121.89 746.305 121.573 746.75 121.156C747.195 120.74 747.531 120.223 747.758 119.608L752.559 120.148C752.256 121.417 751.679 122.525 750.826 123.472C749.984 124.409 748.904 125.138 747.588 125.659C746.271 126.17 744.766 126.426 743.071 126.426ZM757.123 126V104.182H762.108V107.818H762.336C762.733 106.559 763.415 105.588 764.381 104.906C765.356 104.215 766.469 103.869 767.719 103.869C768.003 103.869 768.32 103.884 768.671 103.912C769.031 103.931 769.329 103.964 769.566 104.011V108.741C769.348 108.666 769.002 108.599 768.529 108.543C768.065 108.476 767.615 108.443 767.179 108.443C766.242 108.443 765.399 108.647 764.651 109.054C763.912 109.452 763.33 110.006 762.904 110.716C762.478 111.426 762.265 112.245 762.265 113.173V126H757.123ZM790.226 109.949L785.539 110.46C785.406 109.987 785.174 109.542 784.843 109.125C784.521 108.708 784.085 108.372 783.536 108.116C782.987 107.861 782.314 107.733 781.519 107.733C780.449 107.733 779.549 107.965 778.82 108.429C778.1 108.893 777.745 109.494 777.755 110.233C777.745 110.867 777.977 111.384 778.451 111.781C778.934 112.179 779.729 112.506 780.837 112.761L784.559 113.557C786.623 114.002 788.157 114.707 789.161 115.673C790.174 116.639 790.685 117.903 790.695 119.466C790.685 120.839 790.283 122.051 789.488 123.102C788.702 124.144 787.608 124.958 786.206 125.545C784.805 126.133 783.195 126.426 781.377 126.426C778.706 126.426 776.557 125.867 774.928 124.75C773.299 123.623 772.328 122.056 772.016 120.048L777.03 119.565C777.257 120.55 777.74 121.294 778.479 121.795C779.218 122.297 780.179 122.548 781.363 122.548C782.584 122.548 783.564 122.297 784.303 121.795C785.051 121.294 785.425 120.673 785.425 119.935C785.425 119.31 785.184 118.794 784.701 118.386C784.227 117.979 783.489 117.667 782.485 117.449L778.763 116.668C776.67 116.232 775.122 115.498 774.118 114.466C773.114 113.424 772.617 112.108 772.627 110.517C772.617 109.172 772.982 108.008 773.721 107.023C774.469 106.028 775.506 105.261 776.831 104.722C778.167 104.172 779.705 103.898 781.448 103.898C784.005 103.898 786.017 104.442 787.485 105.531C788.962 106.62 789.876 108.093 790.226 109.949ZM813.55 126.426C811.561 126.426 809.852 126.066 808.422 125.347C806.992 124.627 805.889 123.656 805.113 122.435C804.346 121.204 803.962 119.816 803.962 118.273C803.962 117.108 804.199 116.076 804.672 115.176C805.155 114.277 805.818 113.443 806.661 112.676C807.513 111.909 808.498 111.147 809.615 110.389L814.772 106.881C815.529 106.388 816.102 105.867 816.49 105.318C816.888 104.769 817.087 104.125 817.087 103.386C817.087 102.761 816.822 102.17 816.292 101.611C815.771 101.052 815.051 100.773 814.132 100.773C813.517 100.773 812.972 100.92 812.499 101.213C812.035 101.497 811.67 101.871 811.405 102.335C811.15 102.799 811.022 103.292 811.022 103.812C811.022 104.447 811.197 105.091 811.547 105.744C811.907 106.398 812.371 107.075 812.939 107.776C813.517 108.476 814.132 109.22 814.786 110.006L828.436 126H822.868L811.533 113.017C810.69 112.032 809.876 111.062 809.09 110.105C808.313 109.149 807.674 108.154 807.172 107.122C806.68 106.08 806.434 104.954 806.434 103.741C806.434 102.368 806.751 101.142 807.385 100.062C808.02 98.9735 808.905 98.1165 810.042 97.4915C811.187 96.8665 812.527 96.554 814.061 96.554C815.596 96.554 816.912 96.857 818.01 97.4631C819.109 98.0691 819.956 98.8741 820.553 99.8778C821.15 100.882 821.448 101.975 821.448 103.159C821.448 104.532 821.107 105.763 820.425 106.852C819.743 107.932 818.796 108.912 817.584 109.793L811.703 114.097C810.738 114.797 810.046 115.508 809.63 116.227C809.213 116.937 809.005 117.544 809.005 118.045C809.005 118.812 809.199 119.509 809.587 120.134C809.975 120.759 810.52 121.26 811.221 121.639C811.931 122.009 812.759 122.193 813.706 122.193C814.748 122.193 815.775 121.961 816.789 121.497C817.802 121.024 818.725 120.351 819.559 119.48C820.392 118.609 821.055 117.567 821.547 116.355C822.04 115.134 822.286 113.779 822.286 112.293H826.703C826.703 114.13 826.5 115.73 826.093 117.094C825.685 118.448 825.16 119.594 824.516 120.531C823.872 121.459 823.19 122.203 822.471 122.761C822.243 122.922 822.025 123.083 821.817 123.244C821.609 123.405 821.391 123.566 821.164 123.727C820.141 124.655 818.943 125.337 817.57 125.773C816.206 126.208 814.866 126.426 813.55 126.426ZM841.529 126V96.9091H852.666C854.768 96.9091 856.515 97.2405 857.907 97.9034C859.309 98.5568 860.355 99.4517 861.047 100.588C861.747 101.724 862.098 103.012 862.098 104.452C862.098 105.635 861.87 106.649 861.416 107.491C860.961 108.325 860.35 109.002 859.583 109.523C858.816 110.044 857.959 110.418 857.012 110.645V110.929C858.045 110.986 859.034 111.303 859.981 111.881C860.938 112.449 861.719 113.254 862.325 114.295C862.931 115.337 863.234 116.597 863.234 118.074C863.234 119.58 862.869 120.934 862.14 122.136C861.411 123.33 860.313 124.272 858.845 124.963C857.377 125.654 855.53 126 853.305 126H841.529ZM846.799 121.597H852.467C854.38 121.597 855.758 121.232 856.6 120.503C857.453 119.764 857.879 118.817 857.879 117.662C857.879 116.8 857.666 116.024 857.24 115.332C856.814 114.632 856.208 114.082 855.422 113.685C854.636 113.277 853.698 113.074 852.609 113.074H846.799V121.597ZM846.799 109.281H852.012C852.922 109.281 853.741 109.116 854.47 108.784C855.199 108.443 855.772 107.965 856.189 107.349C856.615 106.724 856.828 105.986 856.828 105.134C856.828 104.007 856.43 103.079 855.635 102.349C854.849 101.62 853.679 101.256 852.126 101.256H846.799V109.281ZM881.498 116.824V104.182H886.64V126H881.654V122.122H881.426C880.934 123.344 880.124 124.343 878.998 125.119C877.88 125.896 876.502 126.284 874.864 126.284C873.434 126.284 872.17 125.967 871.071 125.332C869.982 124.688 869.13 123.756 868.515 122.534C867.899 121.303 867.591 119.816 867.591 118.074V104.182H872.733V117.278C872.733 118.661 873.112 119.759 873.87 120.574C874.627 121.388 875.622 121.795 876.853 121.795C877.61 121.795 878.344 121.611 879.054 121.241C879.765 120.872 880.347 120.323 880.801 119.594C881.266 118.855 881.498 117.932 881.498 116.824ZM900.024 126.384C898.31 126.384 896.776 125.943 895.422 125.062C894.067 124.182 892.997 122.903 892.211 121.227C891.425 119.551 891.032 117.515 891.032 115.119C891.032 112.695 891.43 110.65 892.225 108.983C893.03 107.307 894.115 106.043 895.478 105.19C896.842 104.329 898.362 103.898 900.038 103.898C901.316 103.898 902.368 104.116 903.191 104.551C904.015 104.977 904.669 105.493 905.152 106.099C905.635 106.696 906.009 107.259 906.274 107.79H906.487V96.9091H911.643V126H906.586V122.562H906.274C906.009 123.093 905.625 123.656 905.123 124.253C904.621 124.84 903.958 125.342 903.135 125.759C902.311 126.175 901.274 126.384 900.024 126.384ZM901.458 122.165C902.547 122.165 903.475 121.871 904.243 121.284C905.01 120.687 905.592 119.859 905.99 118.798C906.387 117.738 906.586 116.502 906.586 115.091C906.586 113.68 906.387 112.454 905.99 111.412C905.601 110.37 905.024 109.561 904.257 108.983C903.499 108.405 902.566 108.116 901.458 108.116C900.313 108.116 899.356 108.415 898.589 109.011C897.822 109.608 897.244 110.432 896.856 111.483C896.468 112.534 896.274 113.737 896.274 115.091C896.274 116.455 896.468 117.671 896.856 118.741C897.254 119.802 897.836 120.64 898.603 121.256C899.38 121.862 900.332 122.165 901.458 122.165ZM926.611 134.636C924.765 134.636 923.178 134.385 921.853 133.884C920.527 133.391 919.462 132.728 918.657 131.895C917.852 131.062 917.293 130.138 916.98 129.125L921.611 128.003C921.819 128.429 922.123 128.85 922.52 129.267C922.918 129.693 923.453 130.044 924.125 130.318C924.807 130.602 925.664 130.744 926.696 130.744C928.155 130.744 929.362 130.389 930.319 129.679C931.275 128.978 931.753 127.823 931.753 126.213V122.08H931.498C931.232 122.61 930.844 123.154 930.333 123.713C929.831 124.272 929.163 124.741 928.33 125.119C927.506 125.498 926.469 125.688 925.219 125.688C923.543 125.688 922.023 125.295 920.659 124.509C919.305 123.713 918.226 122.529 917.421 120.957C916.625 119.376 916.228 117.397 916.228 115.02C916.228 112.624 916.625 110.602 917.421 108.955C918.226 107.297 919.31 106.043 920.674 105.19C922.037 104.329 923.557 103.898 925.233 103.898C926.512 103.898 927.563 104.116 928.387 104.551C929.22 104.977 929.883 105.493 930.375 106.099C930.868 106.696 931.242 107.259 931.498 107.79H931.782V104.182H936.853V126.355C936.853 128.221 936.408 129.764 935.517 130.986C934.627 132.207 933.41 133.121 931.867 133.727C930.323 134.333 928.571 134.636 926.611 134.636ZM926.654 121.653C927.743 121.653 928.671 121.388 929.438 120.858C930.205 120.328 930.787 119.565 931.185 118.571C931.583 117.577 931.782 116.384 931.782 114.991C931.782 113.618 931.583 112.416 931.185 111.384C930.797 110.351 930.219 109.551 929.452 108.983C928.694 108.405 927.762 108.116 926.654 108.116C925.508 108.116 924.551 108.415 923.784 109.011C923.017 109.608 922.44 110.427 922.051 111.469C921.663 112.501 921.469 113.675 921.469 114.991C921.469 116.327 921.663 117.496 922.051 118.5C922.449 119.494 923.032 120.271 923.799 120.83C924.575 121.379 925.527 121.653 926.654 121.653ZM951.782 126.426C949.594 126.426 947.705 125.972 946.114 125.062C944.533 124.144 943.316 122.847 942.463 121.17C941.611 119.485 941.185 117.501 941.185 115.219C941.185 112.974 941.611 111.005 942.463 109.31C943.325 107.605 944.528 106.279 946.071 105.332C947.615 104.376 949.428 103.898 951.512 103.898C952.856 103.898 954.125 104.116 955.319 104.551C956.521 104.977 957.582 105.64 958.5 106.54C959.428 107.439 960.158 108.585 960.688 109.977C961.218 111.36 961.483 113.008 961.483 114.92V116.497H943.6V113.031H956.554C956.545 112.046 956.332 111.17 955.915 110.403C955.498 109.627 954.916 109.016 954.168 108.571C953.429 108.126 952.568 107.903 951.583 107.903C950.532 107.903 949.608 108.159 948.813 108.67C948.017 109.172 947.397 109.835 946.952 110.659C946.516 111.473 946.294 112.368 946.284 113.344V116.369C946.284 117.638 946.516 118.727 946.98 119.636C947.444 120.536 948.093 121.227 948.926 121.71C949.76 122.184 950.735 122.42 951.853 122.42C952.601 122.42 953.278 122.316 953.884 122.108C954.49 121.89 955.016 121.573 955.461 121.156C955.906 120.74 956.242 120.223 956.469 119.608L961.27 120.148C960.967 121.417 960.39 122.525 959.537 123.472C958.694 124.409 957.615 125.138 956.299 125.659C954.982 126.17 953.477 126.426 951.782 126.426ZM976.728 104.182V108.159H964.186V104.182H976.728ZM967.282 98.9545H972.424V119.438C972.424 120.129 972.529 120.659 972.737 121.028C972.955 121.388 973.239 121.634 973.589 121.767C973.94 121.9 974.328 121.966 974.754 121.966C975.076 121.966 975.369 121.942 975.635 121.895C975.909 121.848 976.118 121.805 976.26 121.767L977.126 125.787C976.851 125.882 976.458 125.986 975.947 126.099C975.445 126.213 974.83 126.279 974.1 126.298C972.813 126.336 971.653 126.142 970.62 125.716C969.588 125.28 968.769 124.608 968.163 123.699C967.566 122.79 967.273 121.653 967.282 120.29V98.9545ZM991.178 126V96.9091H1002.09C1004.32 96.9091 1006.2 97.3258 1007.71 98.1591C1009.24 98.9924 1010.39 100.138 1011.16 101.597C1011.95 103.045 1012.34 104.693 1012.34 106.54C1012.34 108.405 1011.95 110.062 1011.16 111.511C1010.38 112.96 1009.22 114.101 1007.68 114.935C1006.15 115.759 1004.26 116.17 1002.02 116.17H994.786V111.838H1001.31C1002.61 111.838 1003.68 111.611 1004.52 111.156C1005.35 110.702 1005.96 110.077 1006.36 109.281C1006.77 108.486 1006.97 107.572 1006.97 106.54C1006.97 105.508 1006.77 104.598 1006.36 103.812C1005.96 103.027 1005.34 102.416 1004.5 101.98C1003.67 101.535 1002.59 101.312 1001.28 101.312H996.448V126H991.178ZM1016.69 126V104.182H1021.68V107.818H1021.91C1022.3 106.559 1022.99 105.588 1023.95 104.906C1024.93 104.215 1026.04 103.869 1027.29 103.869C1027.57 103.869 1027.89 103.884 1028.24 103.912C1028.6 103.931 1028.9 103.964 1029.14 104.011V108.741C1028.92 108.666 1028.57 108.599 1028.1 108.543C1027.64 108.476 1027.19 108.443 1026.75 108.443C1025.81 108.443 1024.97 108.647 1024.22 109.054C1023.48 109.452 1022.9 110.006 1022.47 110.716C1022.05 111.426 1021.83 112.245 1021.83 113.173V126H1016.69ZM1032.55 126V104.182H1037.69V126H1032.55ZM1035.14 101.085C1034.32 101.085 1033.62 100.815 1033.04 100.276C1032.45 99.7263 1032.15 99.0682 1032.15 98.3011C1032.15 97.5246 1032.45 96.8665 1033.04 96.3267C1033.62 95.7775 1034.32 95.5028 1035.14 95.5028C1035.96 95.5028 1036.66 95.7775 1037.24 96.3267C1037.83 96.8665 1038.12 97.5246 1038.12 98.3011C1038.12 99.0682 1037.83 99.7263 1037.24 100.276C1036.66 100.815 1035.96 101.085 1035.14 101.085ZM1052.5 126.426C1050.32 126.426 1048.45 125.948 1046.89 124.991C1045.34 124.035 1044.14 122.714 1043.29 121.028C1042.46 119.333 1042.04 117.383 1042.04 115.176C1042.04 112.96 1042.47 111.005 1043.32 109.31C1044.18 107.605 1045.38 106.279 1046.93 105.332C1048.49 104.376 1050.34 103.898 1052.47 103.898C1054.24 103.898 1055.81 104.224 1057.17 104.878C1058.55 105.522 1059.64 106.436 1060.45 107.619C1061.27 108.794 1061.73 110.167 1061.85 111.739H1056.93C1056.73 110.687 1056.26 109.812 1055.51 109.111C1054.77 108.401 1053.78 108.045 1052.54 108.045C1051.49 108.045 1050.57 108.33 1049.77 108.898C1048.98 109.456 1048.36 110.261 1047.91 111.312C1047.48 112.364 1047.26 113.623 1047.26 115.091C1047.26 116.578 1047.48 117.856 1047.91 118.926C1048.35 119.987 1048.96 120.806 1049.74 121.384C1050.54 121.952 1051.47 122.236 1052.54 122.236C1053.3 122.236 1053.98 122.094 1054.57 121.81C1055.18 121.516 1055.69 121.095 1056.09 120.545C1056.5 119.996 1056.78 119.329 1056.93 118.543H1061.85C1061.72 120.086 1061.27 121.455 1060.48 122.648C1059.7 123.831 1058.63 124.759 1057.27 125.432C1055.92 126.095 1054.33 126.426 1052.5 126.426ZM1075.73 126.426C1073.54 126.426 1071.65 125.972 1070.06 125.062C1068.48 124.144 1067.26 122.847 1066.41 121.17C1065.56 119.485 1065.13 117.501 1065.13 115.219C1065.13 112.974 1065.56 111.005 1066.41 109.31C1067.27 107.605 1068.47 106.279 1070.02 105.332C1071.56 104.376 1073.37 103.898 1075.46 103.898C1076.8 103.898 1078.07 104.116 1079.26 104.551C1080.47 104.977 1081.53 105.64 1082.45 106.54C1083.37 107.439 1084.1 108.585 1084.63 109.977C1085.16 111.36 1085.43 113.008 1085.43 114.92V116.497H1067.55V113.031H1080.5C1080.49 112.046 1080.28 111.17 1079.86 110.403C1079.44 109.627 1078.86 109.016 1078.11 108.571C1077.37 108.126 1076.51 107.903 1075.53 107.903C1074.48 107.903 1073.55 108.159 1072.76 108.67C1071.96 109.172 1071.34 109.835 1070.9 110.659C1070.46 111.473 1070.24 112.368 1070.23 113.344V116.369C1070.23 117.638 1070.46 118.727 1070.93 119.636C1071.39 120.536 1072.04 121.227 1072.87 121.71C1073.71 122.184 1074.68 122.42 1075.8 122.42C1076.55 122.42 1077.22 122.316 1077.83 122.108C1078.44 121.89 1078.96 121.573 1079.41 121.156C1079.85 120.74 1080.19 120.223 1080.41 119.608L1085.22 120.148C1084.91 121.417 1084.33 122.525 1083.48 123.472C1082.64 124.409 1081.56 125.138 1080.24 125.659C1078.93 126.17 1077.42 126.426 1075.73 126.426ZM1099.93 126V96.9091H1110.84C1113.07 96.9091 1114.95 97.3258 1116.46 98.1591C1117.99 98.9924 1119.14 100.138 1119.91 101.597C1120.7 103.045 1121.09 104.693 1121.09 106.54C1121.09 108.405 1120.7 110.062 1119.91 111.511C1119.13 112.96 1117.97 114.101 1116.43 114.935C1114.9 115.759 1113.01 116.17 1110.77 116.17H1103.54V111.838H1110.06C1111.36 111.838 1112.43 111.611 1113.27 111.156C1114.1 110.702 1114.71 110.077 1115.11 109.281C1115.52 108.486 1115.72 107.572 1115.72 106.54C1115.72 105.508 1115.52 104.598 1115.11 103.812C1114.71 103.027 1114.09 102.416 1113.25 101.98C1112.42 101.535 1111.34 101.312 1110.03 101.312H1105.2V126H1099.93ZM1134.65 126.426C1132.52 126.426 1130.67 125.957 1129.11 125.02C1127.55 124.082 1126.33 122.771 1125.47 121.085C1124.62 119.4 1124.19 117.43 1124.19 115.176C1124.19 112.922 1124.62 110.948 1125.47 109.253C1126.33 107.558 1127.55 106.241 1129.11 105.304C1130.67 104.366 1132.52 103.898 1134.65 103.898C1136.78 103.898 1138.62 104.366 1140.19 105.304C1141.75 106.241 1142.96 107.558 1143.81 109.253C1144.67 110.948 1145.1 112.922 1145.1 115.176C1145.1 117.43 1144.67 119.4 1143.81 121.085C1142.96 122.771 1141.75 124.082 1140.19 125.02C1138.62 125.957 1136.78 126.426 1134.65 126.426ZM1134.68 122.307C1135.83 122.307 1136.8 121.99 1137.57 121.355C1138.35 120.711 1138.93 119.849 1139.31 118.77C1139.69 117.69 1139.89 116.488 1139.89 115.162C1139.89 113.827 1139.69 112.619 1139.31 111.54C1138.93 110.451 1138.35 109.584 1137.57 108.94C1136.8 108.296 1135.83 107.974 1134.68 107.974C1133.49 107.974 1132.51 108.296 1131.72 108.94C1130.94 109.584 1130.36 110.451 1129.97 111.54C1129.6 112.619 1129.41 113.827 1129.41 115.162C1129.41 116.488 1129.6 117.69 1129.97 118.77C1130.36 119.849 1130.94 120.711 1131.72 121.355C1132.51 121.99 1133.49 122.307 1134.68 122.307ZM1149.47 126V104.182H1154.61V126H1149.47ZM1152.05 101.085C1151.24 101.085 1150.54 100.815 1149.95 100.276C1149.36 99.7263 1149.07 99.0682 1149.07 98.3011C1149.07 97.5246 1149.36 96.8665 1149.95 96.3267C1150.54 95.7775 1151.24 95.5028 1152.05 95.5028C1152.88 95.5028 1153.58 95.7775 1154.15 96.3267C1154.74 96.8665 1155.03 97.5246 1155.03 98.3011C1155.03 99.0682 1154.74 99.7263 1154.15 100.276C1153.58 100.815 1152.88 101.085 1152.05 101.085ZM1165.04 113.216V126H1159.9V104.182H1164.81V107.889H1165.07C1165.57 106.668 1166.37 105.697 1167.47 104.977C1168.57 104.258 1169.94 103.898 1171.57 103.898C1173.08 103.898 1174.39 104.22 1175.51 104.864C1176.63 105.508 1177.5 106.44 1178.12 107.662C1178.75 108.884 1179.05 110.366 1179.04 112.108V126H1173.9V112.903C1173.9 111.445 1173.52 110.304 1172.77 109.48C1172.02 108.656 1170.98 108.244 1169.65 108.244C1168.75 108.244 1167.95 108.443 1167.25 108.841C1166.56 109.229 1166.02 109.793 1165.62 110.531C1165.23 111.27 1165.04 112.165 1165.04 113.216ZM1195.17 104.182V108.159H1182.62V104.182H1195.17ZM1185.72 98.9545H1190.86V119.438C1190.86 120.129 1190.97 120.659 1191.17 121.028C1191.39 121.388 1191.68 121.634 1192.03 121.767C1192.38 121.9 1192.77 121.966 1193.19 121.966C1193.51 121.966 1193.81 121.942 1194.07 121.895C1194.35 121.848 1194.56 121.805 1194.7 121.767L1195.56 125.787C1195.29 125.882 1194.9 125.986 1194.38 126.099C1193.88 126.213 1193.27 126.279 1192.54 126.298C1191.25 126.336 1190.09 126.142 1189.06 125.716C1188.03 125.28 1187.21 124.608 1186.6 123.699C1186 122.79 1185.71 121.653 1185.72 120.29V98.9545ZM1216.4 109.949L1211.71 110.46C1211.58 109.987 1211.35 109.542 1211.01 109.125C1210.69 108.708 1210.26 108.372 1209.71 108.116C1209.16 107.861 1208.49 107.733 1207.69 107.733C1206.62 107.733 1205.72 107.965 1204.99 108.429C1204.27 108.893 1203.92 109.494 1203.93 110.233C1203.92 110.867 1204.15 111.384 1204.62 111.781C1205.11 112.179 1205.9 112.506 1207.01 112.761L1210.73 113.557C1212.79 114.002 1214.33 114.707 1215.33 115.673C1216.35 116.639 1216.86 117.903 1216.87 119.466C1216.86 120.839 1216.45 122.051 1215.66 123.102C1214.87 124.144 1213.78 124.958 1212.38 125.545C1210.98 126.133 1209.37 126.426 1207.55 126.426C1204.88 126.426 1202.73 125.867 1201.1 124.75C1199.47 123.623 1198.5 122.056 1198.19 120.048L1203.2 119.565C1203.43 120.55 1203.91 121.294 1204.65 121.795C1205.39 122.297 1206.35 122.548 1207.53 122.548C1208.76 122.548 1209.74 122.297 1210.47 121.795C1211.22 121.294 1211.6 120.673 1211.6 119.935C1211.6 119.31 1211.36 118.794 1210.87 118.386C1210.4 117.979 1209.66 117.667 1208.66 117.449L1204.94 116.668C1202.84 116.232 1201.29 115.498 1200.29 114.466C1199.29 113.424 1198.79 112.108 1198.8 110.517C1198.79 109.172 1199.15 108.008 1199.89 107.023C1200.64 106.028 1201.68 105.261 1203 104.722C1204.34 104.172 1205.88 103.898 1207.62 103.898C1210.18 103.898 1212.19 104.442 1213.66 105.531C1215.13 106.62 1216.05 108.093 1216.4 109.949Z" fill="black"/>
<rect x="546" y="211" width="349" height="355" rx="10" fill="#E9E9E9"/>
<rect x="940" y="211" width="349" height="355" rx="10" fill="#E9E9E9"/>
<rect x="150" y="211" width="349" height="355" rx="10" fill="#E9E9E9"/>
<path d="M666.818 335.276C666.743 334.603 666.43 334.082 665.881 333.713C665.332 333.339 664.64 333.152 663.807 333.152C663.21 333.152 662.694 333.247 662.259 333.436C661.823 333.621 661.485 333.876 661.243 334.203C661.006 334.525 660.888 334.892 660.888 335.304C660.888 335.65 660.968 335.948 661.129 336.199C661.295 336.45 661.511 336.661 661.776 336.831C662.046 336.997 662.334 337.136 662.642 337.25C662.95 337.359 663.246 337.449 663.53 337.52L664.95 337.889C665.414 338.003 665.89 338.157 666.378 338.351C666.866 338.545 667.318 338.801 667.735 339.118C668.151 339.435 668.487 339.828 668.743 340.297C669.003 340.766 669.134 341.327 669.134 341.98C669.134 342.804 668.921 343.536 668.494 344.175C668.073 344.814 667.46 345.318 666.655 345.688C665.855 346.057 664.887 346.241 663.75 346.241C662.661 346.241 661.719 346.069 660.923 345.723C660.128 345.377 659.505 344.887 659.056 344.253C658.606 343.614 658.357 342.856 658.31 341.98H660.512C660.554 342.506 660.725 342.944 661.023 343.294C661.326 343.64 661.712 343.898 662.181 344.068C662.654 344.234 663.173 344.317 663.736 344.317C664.356 344.317 664.908 344.22 665.391 344.026C665.878 343.827 666.262 343.552 666.541 343.202C666.821 342.847 666.96 342.432 666.96 341.959C666.96 341.528 666.837 341.175 666.591 340.901C666.35 340.626 666.021 340.399 665.604 340.219C665.192 340.039 664.726 339.88 664.205 339.743L662.486 339.274C661.321 338.957 660.398 338.491 659.716 337.875C659.039 337.259 658.7 336.445 658.7 335.432C658.7 334.594 658.928 333.862 659.382 333.237C659.837 332.612 660.452 332.127 661.229 331.781C662.005 331.431 662.881 331.256 663.857 331.256C664.842 331.256 665.71 331.429 666.463 331.774C667.221 332.12 667.817 332.596 668.253 333.202C668.689 333.803 668.916 334.494 668.935 335.276H666.818ZM676.678 335.091V336.795H670.719V335.091H676.678ZM672.317 332.477H674.441V342.797C674.441 343.209 674.502 343.519 674.626 343.727C674.749 343.931 674.907 344.071 675.101 344.146C675.3 344.217 675.516 344.253 675.748 344.253C675.918 344.253 676.067 344.241 676.195 344.217C676.323 344.194 676.422 344.175 676.493 344.161L676.877 345.915C676.754 345.962 676.579 346.009 676.351 346.057C676.124 346.109 675.84 346.137 675.499 346.142C674.94 346.152 674.42 346.052 673.937 345.844C673.454 345.635 673.063 345.313 672.765 344.878C672.466 344.442 672.317 343.895 672.317 343.237V332.477ZM682.202 346.241C681.511 346.241 680.886 346.114 680.327 345.858C679.768 345.598 679.325 345.221 678.999 344.729C678.677 344.236 678.516 343.633 678.516 342.918C678.516 342.302 678.634 341.795 678.871 341.398C679.108 341 679.427 340.685 679.83 340.453C680.232 340.221 680.682 340.046 681.179 339.928C681.676 339.809 682.183 339.719 682.699 339.658C683.352 339.582 683.883 339.52 684.29 339.473C684.697 339.421 684.993 339.338 685.178 339.224C685.362 339.111 685.455 338.926 685.455 338.67V338.621C685.455 338 685.28 337.52 684.929 337.179C684.584 336.838 684.067 336.668 683.381 336.668C682.666 336.668 682.102 336.826 681.691 337.143C681.283 337.456 681.002 337.804 680.845 338.188L678.85 337.733C679.086 337.07 679.432 336.535 679.887 336.128C680.346 335.716 680.874 335.418 681.47 335.233C682.067 335.044 682.694 334.949 683.352 334.949C683.788 334.949 684.25 335.001 684.737 335.105C685.23 335.205 685.689 335.389 686.115 335.659C686.546 335.929 686.899 336.315 687.173 336.817C687.448 337.314 687.585 337.96 687.585 338.756V346H685.512V344.509H685.426C685.289 344.783 685.083 345.053 684.808 345.318C684.534 345.583 684.181 345.804 683.75 345.979C683.319 346.154 682.803 346.241 682.202 346.241ZM682.664 344.537C683.251 344.537 683.753 344.421 684.169 344.189C684.591 343.957 684.91 343.654 685.128 343.28C685.351 342.901 685.462 342.496 685.462 342.065V340.659C685.386 340.735 685.239 340.806 685.021 340.872C684.808 340.934 684.565 340.988 684.29 341.036C684.015 341.078 683.748 341.118 683.487 341.156C683.227 341.189 683.009 341.218 682.834 341.241C682.422 341.294 682.046 341.381 681.705 341.504C681.369 341.627 681.099 341.805 680.895 342.037C680.696 342.264 680.597 342.567 680.597 342.946C680.597 343.472 680.791 343.869 681.179 344.139C681.567 344.404 682.062 344.537 682.664 344.537ZM690.414 346V335.091H692.466V336.824H692.58C692.779 336.237 693.129 335.775 693.631 335.439C694.138 335.098 694.711 334.928 695.35 334.928C695.483 334.928 695.639 334.932 695.819 334.942C696.003 334.951 696.148 334.963 696.252 334.977V337.009C696.167 336.985 696.015 336.959 695.797 336.93C695.58 336.897 695.362 336.881 695.144 336.881C694.642 336.881 694.195 336.987 693.802 337.2C693.413 337.409 693.106 337.7 692.878 338.074C692.651 338.443 692.537 338.865 692.537 339.338V346H690.414ZM703.827 335.091V336.795H697.868V335.091H703.827ZM699.466 332.477H701.589V342.797C701.589 343.209 701.651 343.519 701.774 343.727C701.897 343.931 702.056 344.071 702.25 344.146C702.449 344.217 702.664 344.253 702.896 344.253C703.067 344.253 703.216 344.241 703.344 344.217C703.471 344.194 703.571 344.175 703.642 344.161L704.025 345.915C703.902 345.962 703.727 346.009 703.5 346.057C703.273 346.109 702.988 346.137 702.648 346.142C702.089 346.152 701.568 346.052 701.085 345.844C700.602 345.635 700.211 345.313 699.913 344.878C699.615 344.442 699.466 343.895 699.466 343.237V332.477ZM706.176 346V335.091H708.299V346H706.176ZM707.248 333.408C706.879 333.408 706.561 333.285 706.296 333.038C706.036 332.787 705.906 332.489 705.906 332.143C705.906 331.793 706.036 331.495 706.296 331.249C706.561 330.998 706.879 330.872 707.248 330.872C707.617 330.872 707.932 330.998 708.193 331.249C708.458 331.495 708.59 331.793 708.59 332.143C708.59 332.489 708.458 332.787 708.193 333.038C707.932 333.285 707.617 333.408 707.248 333.408ZM713.28 339.523V346H711.156V335.091H713.194V336.866H713.329C713.58 336.289 713.973 335.825 714.508 335.474C715.048 335.124 715.728 334.949 716.547 334.949C717.29 334.949 717.941 335.105 718.5 335.418C719.059 335.725 719.492 336.185 719.8 336.795C720.107 337.406 720.261 338.161 720.261 339.061V346H718.138V339.317C718.138 338.526 717.932 337.908 717.52 337.463C717.108 337.013 716.542 336.788 715.822 336.788C715.33 336.788 714.892 336.895 714.508 337.108C714.13 337.321 713.829 337.634 713.606 338.045C713.389 338.453 713.28 338.945 713.28 339.523ZM727.683 350.318C726.817 350.318 726.071 350.205 725.446 349.977C724.826 349.75 724.319 349.449 723.926 349.075C723.533 348.701 723.239 348.292 723.045 347.847L724.871 347.094C724.998 347.302 725.169 347.522 725.382 347.754C725.6 347.991 725.893 348.192 726.263 348.358C726.637 348.524 727.117 348.607 727.704 348.607C728.509 348.607 729.175 348.41 729.7 348.017C730.226 347.629 730.488 347.009 730.488 346.156V344.011H730.354C730.226 344.243 730.041 344.501 729.8 344.786C729.563 345.07 729.236 345.316 728.819 345.524C728.403 345.732 727.861 345.837 727.193 345.837C726.331 345.837 725.555 345.635 724.863 345.233C724.177 344.826 723.632 344.227 723.23 343.436C722.832 342.641 722.633 341.663 722.633 340.503C722.633 339.343 722.83 338.348 723.223 337.52C723.621 336.691 724.165 336.057 724.856 335.616C725.548 335.171 726.331 334.949 727.207 334.949C727.884 334.949 728.431 335.062 728.848 335.29C729.265 335.512 729.589 335.773 729.821 336.071C730.058 336.369 730.24 336.632 730.368 336.859H730.524V335.091H732.605V346.241C732.605 347.179 732.387 347.948 731.952 348.55C731.516 349.151 730.926 349.596 730.183 349.885C729.444 350.174 728.611 350.318 727.683 350.318ZM727.662 344.075C728.273 344.075 728.789 343.933 729.21 343.649C729.636 343.36 729.958 342.948 730.176 342.413C730.398 341.874 730.51 341.227 730.51 340.474C730.51 339.741 730.401 339.094 730.183 338.536C729.965 337.977 729.646 337.541 729.224 337.229C728.803 336.911 728.282 336.753 727.662 336.753C727.023 336.753 726.49 336.919 726.064 337.25C725.638 337.577 725.316 338.022 725.098 338.585C724.885 339.149 724.778 339.778 724.778 340.474C724.778 341.189 724.887 341.817 725.105 342.357C725.323 342.896 725.645 343.318 726.071 343.621C726.502 343.924 727.032 344.075 727.662 344.075ZM745.938 335.091V336.795H739.773V335.091H745.938ZM741.463 346V333.827C741.463 333.145 741.612 332.579 741.911 332.129C742.209 331.675 742.604 331.336 743.097 331.114C743.589 330.886 744.124 330.773 744.702 330.773C745.128 330.773 745.493 330.808 745.796 330.879C746.099 330.946 746.324 331.007 746.47 331.064L745.973 332.783C745.874 332.754 745.746 332.721 745.59 332.683C745.433 332.641 745.244 332.619 745.021 332.619C744.505 332.619 744.136 332.747 743.914 333.003C743.696 333.259 743.587 333.628 743.587 334.111V346H741.463ZM748.129 346V335.091H750.181V336.824H750.295C750.494 336.237 750.844 335.775 751.346 335.439C751.853 335.098 752.426 334.928 753.065 334.928C753.197 334.928 753.354 334.932 753.534 334.942C753.718 334.951 753.863 334.963 753.967 334.977V337.009C753.882 336.985 753.73 336.959 753.512 336.93C753.294 336.897 753.077 336.881 752.859 336.881C752.357 336.881 751.91 336.987 751.517 337.2C751.128 337.409 750.82 337.7 750.593 338.074C750.366 338.443 750.252 338.865 750.252 339.338V346H748.129ZM760.009 346.22C758.986 346.22 758.094 345.986 757.331 345.517C756.569 345.048 755.977 344.393 755.556 343.55C755.135 342.707 754.924 341.722 754.924 340.595C754.924 339.464 755.135 338.474 755.556 337.626C755.977 336.779 756.569 336.121 757.331 335.652C758.094 335.183 758.986 334.949 760.009 334.949C761.032 334.949 761.924 335.183 762.687 335.652C763.449 336.121 764.041 336.779 764.462 337.626C764.884 338.474 765.094 339.464 765.094 340.595C765.094 341.722 764.884 342.707 764.462 343.55C764.041 344.393 763.449 345.048 762.687 345.517C761.924 345.986 761.032 346.22 760.009 346.22ZM760.016 344.438C760.679 344.438 761.228 344.262 761.664 343.912C762.099 343.562 762.421 343.095 762.63 342.513C762.843 341.93 762.949 341.289 762.949 340.588C762.949 339.892 762.843 339.253 762.63 338.67C762.421 338.083 762.099 337.612 761.664 337.257C761.228 336.902 760.679 336.724 760.016 336.724C759.349 336.724 758.795 336.902 758.354 337.257C757.919 337.612 757.594 338.083 757.381 338.67C757.173 339.253 757.069 339.892 757.069 340.588C757.069 341.289 757.173 341.93 757.381 342.513C757.594 343.095 757.919 343.562 758.354 343.912C758.795 344.262 759.349 344.438 760.016 344.438ZM767.465 346V335.091H769.503V336.866H769.638C769.865 336.265 770.237 335.796 770.753 335.46C771.269 335.119 771.887 334.949 772.607 334.949C773.336 334.949 773.947 335.119 774.439 335.46C774.936 335.801 775.303 336.27 775.54 336.866H775.654C775.914 336.284 776.328 335.82 776.896 335.474C777.465 335.124 778.142 334.949 778.928 334.949C779.917 334.949 780.725 335.259 781.35 335.879C781.979 336.5 782.294 337.435 782.294 338.685V346H780.171V338.884C780.171 338.145 779.969 337.61 779.567 337.278C779.164 336.947 778.684 336.781 778.125 336.781C777.434 336.781 776.896 336.994 776.513 337.42C776.129 337.842 775.938 338.384 775.938 339.047V346H773.821V338.749C773.821 338.157 773.637 337.681 773.267 337.321C772.898 336.961 772.417 336.781 771.825 336.781C771.423 336.781 771.051 336.888 770.71 337.101C770.374 337.309 770.102 337.6 769.894 337.974C769.69 338.348 769.588 338.782 769.588 339.274V346H767.465Z" fill="black"/>
<path d="M1073.65 335.276C1073.57 334.603 1073.26 334.082 1072.71 333.713C1072.16 333.339 1071.47 333.152 1070.64 333.152C1070.04 333.152 1069.53 333.247 1069.09 333.436C1068.66 333.621 1068.32 333.876 1068.08 334.203C1067.84 334.525 1067.72 334.892 1067.72 335.304C1067.72 335.65 1067.8 335.948 1067.96 336.199C1068.13 336.45 1068.34 336.661 1068.61 336.831C1068.88 336.997 1069.17 337.136 1069.47 337.25C1069.78 337.359 1070.08 337.449 1070.36 337.52L1071.78 337.889C1072.25 338.003 1072.72 338.157 1073.21 338.351C1073.7 338.545 1074.15 338.801 1074.57 339.118C1074.98 339.435 1075.32 339.828 1075.58 340.297C1075.84 340.766 1075.97 341.327 1075.97 341.98C1075.97 342.804 1075.75 343.536 1075.33 344.175C1074.91 344.814 1074.29 345.318 1073.49 345.688C1072.69 346.057 1071.72 346.241 1070.58 346.241C1069.49 346.241 1068.55 346.069 1067.76 345.723C1066.96 345.377 1066.34 344.887 1065.89 344.253C1065.44 343.614 1065.19 342.856 1065.14 341.98H1067.34C1067.39 342.506 1067.56 342.944 1067.85 343.294C1068.16 343.64 1068.54 343.898 1069.01 344.068C1069.49 344.234 1070 344.317 1070.57 344.317C1071.19 344.317 1071.74 344.22 1072.22 344.026C1072.71 343.827 1073.09 343.552 1073.37 343.202C1073.65 342.847 1073.79 342.432 1073.79 341.959C1073.79 341.528 1073.67 341.175 1073.42 340.901C1073.18 340.626 1072.85 340.399 1072.44 340.219C1072.02 340.039 1071.56 339.88 1071.04 339.743L1069.32 339.274C1068.15 338.957 1067.23 338.491 1066.55 337.875C1065.87 337.259 1065.53 336.445 1065.53 335.432C1065.53 334.594 1065.76 333.862 1066.21 333.237C1066.67 332.612 1067.28 332.127 1068.06 331.781C1068.84 331.431 1069.71 331.256 1070.69 331.256C1071.67 331.256 1072.54 331.429 1073.3 331.774C1074.05 332.12 1074.65 332.596 1075.09 333.202C1075.52 333.803 1075.75 334.494 1075.77 335.276H1073.65ZM1081.59 346.241C1080.9 346.241 1080.28 346.114 1079.72 345.858C1079.16 345.598 1078.72 345.221 1078.39 344.729C1078.07 344.236 1077.91 343.633 1077.91 342.918C1077.91 342.302 1078.02 341.795 1078.26 341.398C1078.5 341 1078.82 340.685 1079.22 340.453C1079.62 340.221 1080.07 340.046 1080.57 339.928C1081.07 339.809 1081.57 339.719 1082.09 339.658C1082.74 339.582 1083.27 339.52 1083.68 339.473C1084.09 339.421 1084.38 339.338 1084.57 339.224C1084.75 339.111 1084.85 338.926 1084.85 338.67V338.621C1084.85 338 1084.67 337.52 1084.32 337.179C1083.97 336.838 1083.46 336.668 1082.77 336.668C1082.06 336.668 1081.49 336.826 1081.08 337.143C1080.67 337.456 1080.39 337.804 1080.24 338.188L1078.24 337.733C1078.48 337.07 1078.82 336.535 1079.28 336.128C1079.74 335.716 1080.26 335.418 1080.86 335.233C1081.46 335.044 1082.08 334.949 1082.74 334.949C1083.18 334.949 1083.64 335.001 1084.13 335.105C1084.62 335.205 1085.08 335.389 1085.51 335.659C1085.94 335.929 1086.29 336.315 1086.56 336.817C1086.84 337.314 1086.98 337.96 1086.98 338.756V346H1084.9V344.509H1084.82C1084.68 344.783 1084.47 345.053 1084.2 345.318C1083.92 345.583 1083.57 345.804 1083.14 345.979C1082.71 346.154 1082.19 346.241 1081.59 346.241ZM1082.05 344.537C1082.64 344.537 1083.14 344.421 1083.56 344.189C1083.98 343.957 1084.3 343.654 1084.52 343.28C1084.74 342.901 1084.85 342.496 1084.85 342.065V340.659C1084.78 340.735 1084.63 340.806 1084.41 340.872C1084.2 340.934 1083.96 340.988 1083.68 341.036C1083.41 341.078 1083.14 341.118 1082.88 341.156C1082.62 341.189 1082.4 341.218 1082.22 341.241C1081.81 341.294 1081.44 341.381 1081.1 341.504C1080.76 341.627 1080.49 341.805 1080.29 342.037C1080.09 342.264 1079.99 342.567 1079.99 342.946C1079.99 343.472 1080.18 343.869 1080.57 344.139C1080.96 344.404 1081.45 344.537 1082.05 344.537ZM1098.75 335.091L1094.79 346H1092.52L1088.55 335.091H1090.83L1093.6 343.486H1093.71L1096.47 335.091H1098.75ZM1105.07 346.22C1104 346.22 1103.07 345.991 1102.3 345.531C1101.52 345.067 1100.93 344.416 1100.51 343.578C1100.09 342.735 1099.88 341.748 1099.88 340.616C1099.88 339.499 1100.09 338.514 1100.51 337.662C1100.93 336.81 1101.51 336.144 1102.27 335.666C1103.02 335.188 1103.91 334.949 1104.92 334.949C1105.54 334.949 1106.14 335.051 1106.71 335.254C1107.29 335.458 1107.81 335.777 1108.27 336.213C1108.73 336.649 1109.09 337.214 1109.36 337.911C1109.62 338.602 1109.75 339.442 1109.75 340.432V341.185H1101.08V339.594H1107.67C1107.67 339.035 1107.56 338.54 1107.33 338.109C1107.1 337.674 1106.78 337.33 1106.37 337.08C1105.97 336.829 1105.49 336.703 1104.94 336.703C1104.34 336.703 1103.82 336.85 1103.38 337.143C1102.93 337.432 1102.59 337.811 1102.35 338.28C1102.12 338.744 1102 339.248 1102 339.793V341.036C1102 341.765 1102.13 342.385 1102.38 342.896C1102.64 343.408 1103 343.798 1103.47 344.068C1103.93 344.333 1104.47 344.466 1105.09 344.466C1105.5 344.466 1105.86 344.409 1106.19 344.295C1106.53 344.177 1106.81 344.002 1107.05 343.77C1107.3 343.538 1107.48 343.251 1107.61 342.911L1109.62 343.273C1109.46 343.865 1109.17 344.383 1108.75 344.828C1108.34 345.268 1107.82 345.612 1107.2 345.858C1106.58 346.099 1105.87 346.22 1105.07 346.22ZM1124.31 341.476V335.091H1126.44V346H1124.36V344.111H1124.24C1123.99 344.693 1123.59 345.179 1123.03 345.567C1122.49 345.95 1121.8 346.142 1120.98 346.142C1120.28 346.142 1119.66 345.988 1119.12 345.68C1118.59 345.368 1118.16 344.906 1117.86 344.295C1117.55 343.685 1117.4 342.929 1117.4 342.03V335.091H1119.53V341.774C1119.53 342.518 1119.73 343.109 1120.14 343.55C1120.56 343.99 1121.09 344.21 1121.75 344.21C1122.15 344.21 1122.54 344.111 1122.93 343.912C1123.33 343.713 1123.66 343.412 1123.92 343.01C1124.19 342.607 1124.32 342.096 1124.31 341.476ZM1129.3 350.091V335.091H1131.37V336.859H1131.55C1131.67 336.632 1131.85 336.369 1132.08 336.071C1132.31 335.773 1132.63 335.512 1133.05 335.29C1133.46 335.062 1134 334.949 1134.68 334.949C1135.56 334.949 1136.35 335.171 1137.04 335.616C1137.73 336.062 1138.27 336.703 1138.66 337.541C1139.06 338.379 1139.26 339.388 1139.26 340.567C1139.26 341.746 1139.06 342.757 1138.67 343.599C1138.28 344.437 1137.74 345.084 1137.05 345.538C1136.37 345.988 1135.58 346.213 1134.7 346.213C1134.04 346.213 1133.5 346.102 1133.08 345.879C1132.66 345.657 1132.33 345.396 1132.09 345.098C1131.86 344.8 1131.68 344.535 1131.55 344.303H1131.42V350.091H1129.3ZM1131.38 340.545C1131.38 341.312 1131.49 341.985 1131.71 342.562C1131.93 343.14 1132.26 343.592 1132.68 343.919C1133.1 344.241 1133.61 344.402 1134.23 344.402C1134.86 344.402 1135.39 344.234 1135.82 343.898C1136.24 343.557 1136.56 343.095 1136.78 342.513C1137.01 341.93 1137.12 341.275 1137.12 340.545C1137.12 339.826 1137.01 339.179 1136.79 338.607C1136.58 338.034 1136.25 337.581 1135.82 337.25C1135.4 336.919 1134.86 336.753 1134.23 336.753C1133.61 336.753 1133.09 336.911 1132.66 337.229C1132.24 337.546 1131.92 337.989 1131.7 338.557C1131.49 339.125 1131.38 339.788 1131.38 340.545ZM1152.03 335.091V336.795H1146.07V335.091H1152.03ZM1147.66 332.477H1149.79V342.797C1149.79 343.209 1149.85 343.519 1149.97 343.727C1150.1 343.931 1150.25 344.071 1150.45 344.146C1150.65 344.217 1150.86 344.253 1151.1 344.253C1151.27 344.253 1151.41 344.241 1151.54 344.217C1151.67 344.194 1151.77 344.175 1151.84 344.161L1152.22 345.915C1152.1 345.962 1151.93 346.009 1151.7 346.057C1151.47 346.109 1151.19 346.137 1150.85 346.142C1150.29 346.152 1149.77 346.052 1149.28 345.844C1148.8 345.635 1148.41 345.313 1148.11 344.878C1147.81 344.442 1147.66 343.895 1147.66 343.237V332.477ZM1158.85 346.22C1157.83 346.22 1156.94 345.986 1156.18 345.517C1155.41 345.048 1154.82 344.393 1154.4 343.55C1153.98 342.707 1153.77 341.722 1153.77 340.595C1153.77 339.464 1153.98 338.474 1154.4 337.626C1154.82 336.779 1155.41 336.121 1156.18 335.652C1156.94 335.183 1157.83 334.949 1158.85 334.949C1159.88 334.949 1160.77 335.183 1161.53 335.652C1162.29 336.121 1162.88 336.779 1163.31 337.626C1163.73 338.474 1163.94 339.464 1163.94 340.595C1163.94 341.722 1163.73 342.707 1163.31 343.55C1162.88 344.393 1162.29 345.048 1161.53 345.517C1160.77 345.986 1159.88 346.22 1158.85 346.22ZM1158.86 344.438C1159.52 344.438 1160.07 344.262 1160.51 343.912C1160.94 343.562 1161.27 343.095 1161.47 342.513C1161.69 341.93 1161.79 341.289 1161.79 340.588C1161.79 339.892 1161.69 339.253 1161.47 338.67C1161.27 338.083 1160.94 337.612 1160.51 337.257C1160.07 336.902 1159.52 336.724 1158.86 336.724C1158.19 336.724 1157.64 336.902 1157.2 337.257C1156.76 337.612 1156.44 338.083 1156.22 338.67C1156.02 339.253 1155.91 339.892 1155.91 340.588C1155.91 341.289 1156.02 341.93 1156.22 342.513C1156.44 343.095 1156.76 343.562 1157.2 343.912C1157.64 344.262 1158.19 344.438 1158.86 344.438Z" fill="black"/>
<path d="M283.65 335.276C283.575 334.603 283.262 334.082 282.713 333.713C282.164 333.339 281.472 333.152 280.639 333.152C280.042 333.152 279.526 333.247 279.091 333.436C278.655 333.621 278.317 333.876 278.075 334.203C277.838 334.525 277.72 334.892 277.72 335.304C277.72 335.65 277.8 335.948 277.961 336.199C278.127 336.45 278.343 336.661 278.608 336.831C278.878 336.997 279.166 337.136 279.474 337.25C279.782 337.359 280.078 337.449 280.362 337.52L281.782 337.889C282.247 338.003 282.722 338.157 283.21 338.351C283.698 338.545 284.15 338.801 284.567 339.118C284.983 339.435 285.319 339.828 285.575 340.297C285.836 340.766 285.966 341.327 285.966 341.98C285.966 342.804 285.753 343.536 285.327 344.175C284.905 344.814 284.292 345.318 283.487 345.688C282.687 346.057 281.719 346.241 280.582 346.241C279.493 346.241 278.551 346.069 277.756 345.723C276.96 345.377 276.337 344.887 275.888 344.253C275.438 343.614 275.189 342.856 275.142 341.98H277.344C277.386 342.506 277.557 342.944 277.855 343.294C278.158 343.64 278.544 343.898 279.013 344.068C279.486 344.234 280.005 344.317 280.568 344.317C281.188 344.317 281.74 344.22 282.223 344.026C282.711 343.827 283.094 343.552 283.373 343.202C283.653 342.847 283.792 342.432 283.792 341.959C283.792 341.528 283.669 341.175 283.423 340.901C283.182 340.626 282.853 340.399 282.436 340.219C282.024 340.039 281.558 339.88 281.037 339.743L279.318 339.274C278.153 338.957 277.23 338.491 276.548 337.875C275.871 337.259 275.532 336.445 275.532 335.432C275.532 334.594 275.76 333.862 276.214 333.237C276.669 332.612 277.284 332.127 278.061 331.781C278.837 331.431 279.713 331.256 280.689 331.256C281.674 331.256 282.542 331.429 283.295 331.774C284.053 332.12 284.649 332.596 285.085 333.202C285.521 333.803 285.748 334.494 285.767 335.276H283.65ZM291.593 346.241C290.901 346.241 290.276 346.114 289.718 345.858C289.159 345.598 288.716 345.221 288.389 344.729C288.067 344.236 287.906 343.633 287.906 342.918C287.906 342.302 288.025 341.795 288.262 341.398C288.498 341 288.818 340.685 289.22 340.453C289.623 340.221 290.073 340.046 290.57 339.928C291.067 339.809 291.574 339.719 292.09 339.658C292.743 339.582 293.273 339.52 293.681 339.473C294.088 339.421 294.384 339.338 294.568 339.224C294.753 339.111 294.845 338.926 294.845 338.67V338.621C294.845 338 294.67 337.52 294.32 337.179C293.974 336.838 293.458 336.668 292.771 336.668C292.057 336.668 291.493 336.826 291.081 337.143C290.674 337.456 290.392 337.804 290.236 338.188L288.24 337.733C288.477 337.07 288.823 336.535 289.277 336.128C289.736 335.716 290.264 335.418 290.861 335.233C291.458 335.044 292.085 334.949 292.743 334.949C293.179 334.949 293.64 335.001 294.128 335.105C294.62 335.205 295.08 335.389 295.506 335.659C295.937 335.929 296.289 336.315 296.564 336.817C296.839 337.314 296.976 337.96 296.976 338.756V346H294.902V344.509H294.817C294.68 344.783 294.474 345.053 294.199 345.318C293.924 345.583 293.572 345.804 293.141 345.979C292.71 346.154 292.194 346.241 291.593 346.241ZM292.054 344.537C292.641 344.537 293.143 344.421 293.56 344.189C293.981 343.957 294.301 343.654 294.519 343.28C294.741 342.901 294.852 342.496 294.852 342.065V340.659C294.777 340.735 294.63 340.806 294.412 340.872C294.199 340.934 293.955 340.988 293.681 341.036C293.406 341.078 293.138 341.118 292.878 341.156C292.618 341.189 292.4 341.218 292.225 341.241C291.813 341.294 291.436 341.381 291.095 341.504C290.759 341.627 290.489 341.805 290.286 342.037C290.087 342.264 289.987 342.567 289.987 342.946C289.987 343.472 290.182 343.869 290.57 344.139C290.958 344.404 291.453 344.537 292.054 344.537ZM308.746 335.091L304.79 346H302.518L298.555 335.091H300.834L303.597 343.486H303.711L306.466 335.091H308.746ZM315.073 346.22C313.998 346.22 313.072 345.991 312.296 345.531C311.524 345.067 310.927 344.416 310.506 343.578C310.089 342.735 309.881 341.748 309.881 340.616C309.881 339.499 310.089 338.514 310.506 337.662C310.927 336.81 311.514 336.144 312.267 335.666C313.025 335.188 313.91 334.949 314.923 334.949C315.539 334.949 316.136 335.051 316.713 335.254C317.291 335.458 317.809 335.777 318.269 336.213C318.728 336.649 319.09 337.214 319.355 337.911C319.62 338.602 319.753 339.442 319.753 340.432V341.185H311.081V339.594H317.672C317.672 339.035 317.558 338.54 317.331 338.109C317.104 337.674 316.784 337.33 316.372 337.08C315.965 336.829 315.487 336.703 314.938 336.703C314.341 336.703 313.82 336.85 313.375 337.143C312.935 337.432 312.594 337.811 312.352 338.28C312.116 338.744 311.997 339.248 311.997 339.793V341.036C311.997 341.765 312.125 342.385 312.381 342.896C312.641 343.408 313.003 343.798 313.468 344.068C313.932 344.333 314.474 344.466 315.094 344.466C315.496 344.466 315.863 344.409 316.195 344.295C316.526 344.177 316.813 344.002 317.054 343.77C317.296 343.538 317.48 343.251 317.608 342.911L319.618 343.273C319.457 343.865 319.168 344.383 318.752 344.828C318.34 345.268 317.821 345.612 317.196 345.858C316.576 346.099 315.868 346.22 315.073 346.22ZM334.313 341.476V335.091H336.443V346H334.355V344.111H334.242C333.991 344.693 333.588 345.179 333.034 345.567C332.485 345.95 331.801 346.142 330.982 346.142C330.281 346.142 329.661 345.988 329.121 345.68C328.586 345.368 328.164 344.906 327.857 344.295C327.554 343.685 327.402 342.929 327.402 342.03V335.091H329.526V341.774C329.526 342.518 329.732 343.109 330.144 343.55C330.556 343.99 331.091 344.21 331.749 344.21C332.146 344.21 332.542 344.111 332.935 343.912C333.333 343.713 333.662 343.412 333.922 343.01C334.187 342.607 334.317 342.096 334.313 341.476ZM339.297 350.091V335.091H341.371V336.859H341.548C341.671 336.632 341.849 336.369 342.081 336.071C342.313 335.773 342.635 335.512 343.047 335.29C343.459 335.062 344.003 334.949 344.68 334.949C345.561 334.949 346.347 335.171 347.038 335.616C347.729 336.062 348.272 336.703 348.665 337.541C349.062 338.379 349.261 339.388 349.261 340.567C349.261 341.746 349.065 342.757 348.672 343.599C348.279 344.437 347.739 345.084 347.052 345.538C346.366 345.988 345.582 346.213 344.702 346.213C344.039 346.213 343.497 346.102 343.075 345.879C342.658 345.657 342.332 345.396 342.095 345.098C341.858 344.8 341.676 344.535 341.548 344.303H341.42V350.091H339.297ZM341.378 340.545C341.378 341.312 341.489 341.985 341.711 342.562C341.934 343.14 342.256 343.592 342.677 343.919C343.099 344.241 343.615 344.402 344.226 344.402C344.86 344.402 345.39 344.234 345.817 343.898C346.243 343.557 346.565 343.095 346.782 342.513C347.005 341.93 347.116 341.275 347.116 340.545C347.116 339.826 347.007 339.179 346.79 338.607C346.577 338.034 346.255 337.581 345.824 337.25C345.398 336.919 344.865 336.753 344.226 336.753C343.61 336.753 343.089 336.911 342.663 337.229C342.242 337.546 341.922 337.989 341.704 338.557C341.487 339.125 341.378 339.788 341.378 340.545ZM362.026 335.091V336.795H356.067V335.091H362.026ZM357.665 332.477H359.789V342.797C359.789 343.209 359.85 343.519 359.973 343.727C360.096 343.931 360.255 344.071 360.449 344.146C360.648 344.217 360.863 344.253 361.095 344.253C361.266 344.253 361.415 344.241 361.543 344.217C361.671 344.194 361.77 344.175 361.841 344.161L362.225 345.915C362.102 345.962 361.926 346.009 361.699 346.057C361.472 346.109 361.188 346.137 360.847 346.142C360.288 346.152 359.767 346.052 359.284 345.844C358.801 345.635 358.411 345.313 358.112 344.878C357.814 344.442 357.665 343.895 357.665 343.237V332.477ZM368.853 346.22C367.83 346.22 366.938 345.986 366.175 345.517C365.413 345.048 364.821 344.393 364.4 343.55C363.978 342.707 363.768 341.722 363.768 340.595C363.768 339.464 363.978 338.474 364.4 337.626C364.821 336.779 365.413 336.121 366.175 335.652C366.938 335.183 367.83 334.949 368.853 334.949C369.876 334.949 370.768 335.183 371.53 335.652C372.293 336.121 372.885 336.779 373.306 337.626C373.727 338.474 373.938 339.464 373.938 340.595C373.938 341.722 373.727 342.707 373.306 343.55C372.885 344.393 372.293 345.048 371.53 345.517C370.768 345.986 369.876 346.22 368.853 346.22ZM368.86 344.438C369.523 344.438 370.072 344.262 370.508 343.912C370.943 343.562 371.265 343.095 371.474 342.513C371.687 341.93 371.793 341.289 371.793 340.588C371.793 339.892 371.687 339.253 371.474 338.67C371.265 338.083 370.943 337.612 370.508 337.257C370.072 336.902 369.523 336.724 368.86 336.724C368.192 336.724 367.638 336.902 367.198 337.257C366.762 337.612 366.438 338.083 366.225 338.67C366.017 339.253 365.912 339.892 365.912 340.588C365.912 341.289 366.017 341.93 366.225 342.513C366.438 343.095 366.762 343.562 367.198 343.912C367.638 344.262 368.192 344.438 368.86 344.438Z" fill="black"/>
<path d="M682.114 398.227L679.693 407.159H634.455L636.909 398.227H682.114ZM659.375 451L635.511 422.295L635.477 414.727H647.273C650.091 414.727 652.443 414.261 654.33 413.33C656.239 412.375 657.682 411.045 658.659 409.341C659.659 407.614 660.159 405.591 660.159 403.273C660.159 399.795 659.136 397 657.091 394.886C655.045 392.773 651.773 391.716 647.273 391.716H634.455L637.114 381.182H647.273C653 381.182 657.739 382.068 661.489 383.841C665.261 385.591 668.08 388.068 669.943 391.273C671.83 394.477 672.773 398.227 672.773 402.523C672.773 406.318 672.08 409.705 670.693 412.682C669.307 415.659 667.125 418.102 664.148 420.011C661.17 421.92 657.273 423.193 652.455 423.83L652.045 423.966L673.591 450.386V451H659.375ZM682.182 381.182L679.693 390.25L643.011 390.114L645.5 381.182H682.182ZM715.693 380.227C719.034 380.25 722.284 380.841 725.443 382C728.625 383.136 731.489 385 734.034 387.591C736.58 390.159 738.602 393.602 740.102 397.92C741.602 402.239 742.352 407.58 742.352 413.943C742.375 419.943 741.739 425.307 740.443 430.034C739.17 434.739 737.341 438.716 734.955 441.966C732.568 445.216 729.693 447.693 726.33 449.398C722.966 451.102 719.182 451.955 714.977 451.955C710.568 451.955 706.659 451.091 703.25 449.364C699.864 447.636 697.125 445.273 695.034 442.273C692.943 439.273 691.659 435.841 691.182 431.977H703.625C704.261 434.75 705.557 436.955 707.511 438.591C709.489 440.205 711.977 441.011 714.977 441.011C719.818 441.011 723.545 438.909 726.159 434.705C728.773 430.5 730.08 424.659 730.08 417.182H729.602C728.489 419.182 727.045 420.909 725.273 422.364C723.5 423.795 721.489 424.898 719.239 425.67C717.011 426.443 714.648 426.83 712.148 426.83C708.057 426.83 704.375 425.852 701.102 423.898C697.852 421.943 695.273 419.261 693.364 415.852C691.477 412.443 690.523 408.545 690.5 404.159C690.5 399.614 691.545 395.534 693.636 391.92C695.75 388.284 698.693 385.42 702.466 383.33C706.239 381.216 710.648 380.182 715.693 380.227ZM715.727 390.455C713.273 390.455 711.057 391.057 709.08 392.261C707.125 393.443 705.58 395.057 704.443 397.102C703.33 399.125 702.773 401.386 702.773 403.886C702.795 406.364 703.352 408.614 704.443 410.636C705.557 412.659 707.068 414.261 708.977 415.443C710.909 416.625 713.114 417.216 715.591 417.216C717.432 417.216 719.148 416.864 720.739 416.159C722.33 415.455 723.716 414.477 724.898 413.227C726.102 411.955 727.034 410.511 727.693 408.898C728.375 407.284 728.705 405.58 728.682 403.784C728.682 401.398 728.114 399.193 726.977 397.17C725.864 395.148 724.33 393.523 722.375 392.295C720.443 391.068 718.227 390.455 715.727 390.455ZM777.943 380.227C781.284 380.25 784.534 380.841 787.693 382C790.875 383.136 793.739 385 796.284 387.591C798.83 390.159 800.852 393.602 802.352 397.92C803.852 402.239 804.602 407.58 804.602 413.943C804.625 419.943 803.989 425.307 802.693 430.034C801.42 434.739 799.591 438.716 797.205 441.966C794.818 445.216 791.943 447.693 788.58 449.398C785.216 451.102 781.432 451.955 777.227 451.955C772.818 451.955 768.909 451.091 765.5 449.364C762.114 447.636 759.375 445.273 757.284 442.273C755.193 439.273 753.909 435.841 753.432 431.977H765.875C766.511 434.75 767.807 436.955 769.761 438.591C771.739 440.205 774.227 441.011 777.227 441.011C782.068 441.011 785.795 438.909 788.409 434.705C791.023 430.5 792.33 424.659 792.33 417.182H791.852C790.739 419.182 789.295 420.909 787.523 422.364C785.75 423.795 783.739 424.898 781.489 425.67C779.261 426.443 776.898 426.83 774.398 426.83C770.307 426.83 766.625 425.852 763.352 423.898C760.102 421.943 757.523 419.261 755.614 415.852C753.727 412.443 752.773 408.545 752.75 404.159C752.75 399.614 753.795 395.534 755.886 391.92C758 388.284 760.943 385.42 764.716 383.33C768.489 381.216 772.898 380.182 777.943 380.227ZM777.977 390.455C775.523 390.455 773.307 391.057 771.33 392.261C769.375 393.443 767.83 395.057 766.693 397.102C765.58 399.125 765.023 401.386 765.023 403.886C765.045 406.364 765.602 408.614 766.693 410.636C767.807 412.659 769.318 414.261 771.227 415.443C773.159 416.625 775.364 417.216 777.841 417.216C779.682 417.216 781.398 416.864 782.989 416.159C784.58 415.455 785.966 414.477 787.148 413.227C788.352 411.955 789.284 410.511 789.943 408.898C790.625 407.284 790.955 405.58 790.932 403.784C790.932 401.398 790.364 399.193 789.227 397.17C788.114 395.148 786.58 393.523 784.625 392.295C782.693 391.068 780.477 390.455 777.977 390.455Z" fill="#2C2C2C"/>
<path d="M1042.09 451.955C1037.54 451.955 1033.47 451.102 1029.88 449.398C1026.29 447.67 1023.44 445.307 1021.33 442.307C1019.23 439.307 1018.12 435.875 1017.98 432.011H1030.26C1030.48 434.875 1031.72 437.216 1033.97 439.034C1036.22 440.83 1038.93 441.727 1042.09 441.727C1044.56 441.727 1046.77 441.159 1048.7 440.023C1050.63 438.886 1052.15 437.307 1053.27 435.284C1054.38 433.261 1054.93 430.955 1054.9 428.364C1054.93 425.727 1054.37 423.386 1053.23 421.341C1052.1 419.295 1050.54 417.693 1048.56 416.534C1046.59 415.352 1044.31 414.761 1041.75 414.761C1039.65 414.739 1037.6 415.125 1035.58 415.92C1033.55 416.716 1031.95 417.761 1030.77 419.057L1019.35 417.182L1023 381.182H1063.5V391.75H1033.46L1031.45 410.261H1031.86C1033.15 408.739 1034.98 407.477 1037.35 406.477C1039.71 405.455 1042.3 404.943 1045.12 404.943C1049.35 404.943 1053.12 405.943 1056.44 407.943C1059.76 409.92 1062.37 412.648 1064.28 416.125C1066.19 419.602 1067.14 423.58 1067.14 428.057C1067.14 432.67 1066.08 436.784 1063.94 440.398C1061.83 443.989 1058.88 446.818 1055.11 448.886C1051.36 450.932 1047.02 451.955 1042.09 451.955ZM1104.37 452.33C1098.76 452.33 1093.94 450.909 1089.92 448.068C1085.92 445.205 1082.84 441.08 1080.68 435.693C1078.54 430.284 1077.47 423.773 1077.47 416.159C1077.5 408.545 1078.58 402.068 1080.71 396.727C1082.87 391.364 1085.95 387.273 1089.95 384.455C1093.97 381.636 1098.78 380.227 1104.37 380.227C1109.96 380.227 1114.77 381.636 1118.79 384.455C1122.81 387.273 1125.89 391.364 1128.03 396.727C1130.19 402.091 1131.27 408.568 1131.27 416.159C1131.27 423.795 1130.19 430.318 1128.03 435.727C1125.89 441.114 1122.81 445.227 1118.79 448.068C1114.79 450.909 1109.98 452.33 1104.37 452.33ZM1104.37 441.659C1108.73 441.659 1112.18 439.511 1114.7 435.216C1117.25 430.898 1118.52 424.545 1118.52 416.159C1118.52 410.614 1117.94 405.955 1116.78 402.182C1115.62 398.409 1113.98 395.568 1111.87 393.659C1109.76 391.727 1107.26 390.761 1104.37 390.761C1100.03 390.761 1096.6 392.92 1094.08 397.239C1091.55 401.534 1090.28 407.841 1090.26 416.159C1090.23 421.727 1090.79 426.409 1091.93 430.205C1093.09 434 1094.72 436.864 1096.84 438.795C1098.95 440.705 1101.46 441.659 1104.37 441.659ZM1179.92 437.909V434.227C1179.92 431.523 1180.49 429.034 1181.63 426.761C1182.79 424.489 1184.47 422.659 1186.67 421.273C1188.88 419.886 1191.55 419.193 1194.69 419.193C1197.91 419.193 1200.62 419.886 1202.8 421.273C1204.98 422.636 1206.63 424.455 1207.74 426.727C1208.88 429 1209.45 431.5 1209.45 434.227V437.909C1209.45 440.614 1208.88 443.102 1207.74 445.375C1206.61 447.648 1204.94 449.477 1202.73 450.864C1200.55 452.25 1197.87 452.943 1194.69 452.943C1191.5 452.943 1188.81 452.25 1186.61 450.864C1184.4 449.477 1182.73 447.648 1181.6 445.375C1180.48 443.102 1179.92 440.614 1179.92 437.909ZM1188.82 434.227V437.909C1188.82 439.705 1189.25 441.352 1190.12 442.852C1190.98 444.352 1192.5 445.102 1194.69 445.102C1196.89 445.102 1198.4 444.364 1199.22 442.886C1200.06 441.386 1200.48 439.727 1200.48 437.909V434.227C1200.48 432.409 1200.08 430.75 1199.29 429.25C1198.49 427.727 1196.96 426.966 1194.69 426.966C1192.55 426.966 1191.04 427.727 1190.15 429.25C1189.27 430.75 1188.82 432.409 1188.82 434.227ZM1144.44 397.955V394.273C1144.44 391.545 1145.02 389.045 1146.17 386.773C1147.33 384.5 1149.02 382.682 1151.22 381.318C1153.42 379.932 1156.1 379.239 1159.23 379.239C1162.44 379.239 1165.13 379.932 1167.31 381.318C1169.52 382.682 1171.17 384.5 1172.29 386.773C1173.4 389.045 1173.96 391.545 1173.96 394.273V397.955C1173.96 400.682 1173.39 403.182 1172.25 405.455C1171.14 407.705 1169.48 409.511 1167.28 410.875C1165.07 412.239 1162.39 412.92 1159.23 412.92C1156.03 412.92 1153.32 412.239 1151.12 410.875C1148.94 409.511 1147.28 407.693 1146.14 405.42C1145 403.148 1144.44 400.659 1144.44 397.955ZM1153.4 394.273V397.955C1153.4 399.773 1153.82 401.432 1154.66 402.932C1155.53 404.409 1157.05 405.148 1159.23 405.148C1161.41 405.148 1162.91 404.409 1163.73 402.932C1164.57 401.432 1164.99 399.773 1164.99 397.955V394.273C1164.99 392.455 1164.6 390.795 1163.8 389.295C1163 387.773 1161.48 387.011 1159.23 387.011C1157.07 387.011 1155.56 387.773 1154.7 389.295C1153.83 390.818 1153.4 392.477 1153.4 394.273ZM1148.32 451L1196.32 381.182H1204.85L1156.85 451H1148.32Z" fill="#2C2C2C"/>
<path d="M252.087 451.955C247.541 451.955 243.473 451.102 239.882 449.398C236.291 447.67 233.439 445.307 231.325 442.307C229.234 439.307 228.121 435.875 227.984 432.011H240.257C240.484 434.875 241.723 437.216 243.973 439.034C246.223 440.83 248.928 441.727 252.087 441.727C254.564 441.727 256.768 441.159 258.7 440.023C260.632 438.886 262.155 437.307 263.268 435.284C264.382 433.261 264.928 430.955 264.905 428.364C264.928 425.727 264.371 423.386 263.234 421.341C262.098 419.295 260.541 417.693 258.564 416.534C256.587 415.352 254.314 414.761 251.746 414.761C249.655 414.739 247.598 415.125 245.575 415.92C243.553 416.716 241.95 417.761 240.768 419.057L229.348 417.182L232.996 381.182H273.496V391.75H243.462L241.45 410.261H241.859C243.155 408.739 244.984 407.477 247.348 406.477C249.712 405.455 252.303 404.943 255.121 404.943C259.348 404.943 263.121 405.943 266.439 407.943C269.757 409.92 272.371 412.648 274.28 416.125C276.189 419.602 277.143 423.58 277.143 428.057C277.143 432.67 276.075 436.784 273.939 440.398C271.825 443.989 268.882 446.818 265.109 448.886C261.359 450.932 257.018 451.955 252.087 451.955ZM314.371 452.33C308.757 452.33 303.939 450.909 299.916 448.068C295.916 445.205 292.837 441.08 290.678 435.693C288.541 430.284 287.473 423.773 287.473 416.159C287.496 408.545 288.575 402.068 290.712 396.727C292.871 391.364 295.95 387.273 299.95 384.455C303.973 381.636 308.78 380.227 314.371 380.227C319.962 380.227 324.768 381.636 328.791 384.455C332.814 387.273 335.893 391.364 338.03 396.727C340.189 402.091 341.268 408.568 341.268 416.159C341.268 423.795 340.189 430.318 338.03 435.727C335.893 441.114 332.814 445.227 328.791 448.068C324.791 450.909 319.984 452.33 314.371 452.33ZM314.371 441.659C318.734 441.659 322.178 439.511 324.7 435.216C327.246 430.898 328.518 424.545 328.518 416.159C328.518 410.614 327.939 405.955 326.78 402.182C325.621 398.409 323.984 395.568 321.871 393.659C319.757 391.727 317.257 390.761 314.371 390.761C310.03 390.761 306.598 392.92 304.075 397.239C301.553 401.534 300.28 407.841 300.257 416.159C300.234 421.727 300.791 426.409 301.928 430.205C303.087 434 304.723 436.864 306.837 438.795C308.95 440.705 311.462 441.659 314.371 441.659ZM389.925 437.909V434.227C389.925 431.523 390.493 429.034 391.629 426.761C392.788 424.489 394.47 422.659 396.675 421.273C398.879 419.886 401.55 419.193 404.686 419.193C407.913 419.193 410.618 419.886 412.8 421.273C414.982 422.636 416.629 424.455 417.743 426.727C418.879 429 419.447 431.5 419.447 434.227V437.909C419.447 440.614 418.879 443.102 417.743 445.375C416.607 447.648 414.936 449.477 412.732 450.864C410.55 452.25 407.868 452.943 404.686 452.943C401.504 452.943 398.811 452.25 396.607 450.864C394.402 449.477 392.732 447.648 391.595 445.375C390.482 443.102 389.925 440.614 389.925 437.909ZM398.822 434.227V437.909C398.822 439.705 399.254 441.352 400.118 442.852C400.982 444.352 402.504 445.102 404.686 445.102C406.891 445.102 408.402 444.364 409.22 442.886C410.061 441.386 410.482 439.727 410.482 437.909V434.227C410.482 432.409 410.084 430.75 409.288 429.25C408.493 427.727 406.959 426.966 404.686 426.966C402.55 426.966 401.038 427.727 400.152 429.25C399.266 430.75 398.822 432.409 398.822 434.227ZM354.436 397.955V394.273C354.436 391.545 355.016 389.045 356.175 386.773C357.334 384.5 359.016 382.682 361.22 381.318C363.425 379.932 366.095 379.239 369.232 379.239C372.436 379.239 375.129 379.932 377.311 381.318C379.516 382.682 381.175 384.5 382.288 386.773C383.402 389.045 383.959 391.545 383.959 394.273V397.955C383.959 400.682 383.391 403.182 382.254 405.455C381.141 407.705 379.482 409.511 377.277 410.875C375.072 412.239 372.391 412.92 369.232 412.92C366.027 412.92 363.322 412.239 361.118 410.875C358.936 409.511 357.277 407.693 356.141 405.42C355.004 403.148 354.436 400.659 354.436 397.955ZM363.402 394.273V397.955C363.402 399.773 363.822 401.432 364.663 402.932C365.527 404.409 367.05 405.148 369.232 405.148C371.413 405.148 372.913 404.409 373.732 402.932C374.572 401.432 374.993 399.773 374.993 397.955V394.273C374.993 392.455 374.595 390.795 373.8 389.295C373.004 387.773 371.482 387.011 369.232 387.011C367.072 387.011 365.561 387.773 364.697 389.295C363.834 390.818 363.402 392.477 363.402 394.273ZM358.322 451L406.322 381.182H414.845L366.845 451H358.322Z" fill="#2C2C2C"/>
</svg>
