<svg width="1440" height="38" viewBox="0 0 1440 38" fill="none" xmlns="http://www.w3.org/2000/svg">
<g clip-path="url(#clip0_607_1144)">
<rect width="1440" height="37.7953" fill="white"/>
<rect x="-24" y="-8" width="1480" height="53" fill="#F2F2F2"/>
<path d="M516.097 25.3636V11.7273H519.25V12.7713H517.29V24.3196H519.25V25.3636H516.097ZM527.05 15.8182C526.986 15.2784 526.727 14.8594 526.272 14.5611C525.818 14.2628 525.26 14.1136 524.6 14.1136C524.117 14.1136 523.694 14.1918 523.332 14.348C522.973 14.5043 522.693 14.7191 522.49 14.9925C522.292 15.266 522.192 15.5767 522.192 15.9247C522.192 16.2159 522.261 16.4663 522.4 16.6758C522.542 16.8817 522.723 17.054 522.943 17.1925C523.163 17.3274 523.394 17.4393 523.636 17.5281C523.877 17.6133 524.099 17.6825 524.302 17.7358L525.409 18.0341C525.694 18.1087 526.01 18.2116 526.358 18.343C526.709 18.4744 527.045 18.6538 527.364 18.881C527.688 19.1048 527.954 19.3924 528.163 19.744C528.373 20.0955 528.478 20.527 528.478 21.0384C528.478 21.6278 528.323 22.1605 528.014 22.6364C527.709 23.1122 527.261 23.4904 526.672 23.771C526.086 24.0515 525.374 24.1918 524.536 24.1918C523.755 24.1918 523.078 24.0657 522.506 23.8136C521.938 23.5614 521.491 23.2099 521.164 22.7589C520.841 22.3079 520.658 21.7841 520.615 21.1875H521.979C522.015 21.5994 522.153 21.9403 522.395 22.2102C522.64 22.4766 522.949 22.6754 523.321 22.8068C523.698 22.9347 524.103 22.9986 524.536 22.9986C525.04 22.9986 525.493 22.9169 525.894 22.7536C526.295 22.5866 526.613 22.3558 526.848 22.0611C527.082 21.7628 527.199 21.4148 527.199 21.017C527.199 20.6548 527.098 20.3601 526.896 20.1328C526.693 19.9055 526.427 19.7209 526.097 19.5788C525.766 19.4368 525.409 19.3125 525.026 19.206L523.684 18.8224C522.831 18.5774 522.157 18.2276 521.659 17.7731C521.162 17.3185 520.914 16.7237 520.914 15.9886C520.914 15.3778 521.079 14.8452 521.409 14.3906C521.743 13.9325 522.19 13.5774 522.751 13.3253C523.316 13.0696 523.946 12.9418 524.642 12.9418C525.346 12.9418 525.971 13.0678 526.517 13.32C527.064 13.5685 527.498 13.9094 527.817 14.3427C528.14 14.7759 528.311 15.2678 528.329 15.8182H527.05ZM532.887 24.1918C532.368 24.1918 531.898 24.0941 531.475 23.8988C531.053 23.6999 530.717 23.4141 530.469 23.0412C530.22 22.6648 530.096 22.2102 530.096 21.6776C530.096 21.2088 530.188 20.8288 530.373 20.5376C530.557 20.2429 530.804 20.0121 531.113 19.8452C531.422 19.6783 531.763 19.554 532.136 19.4723C532.512 19.3871 532.89 19.3196 533.27 19.2699C533.768 19.206 534.171 19.158 534.48 19.1261C534.792 19.0906 535.019 19.032 535.161 18.9503C535.307 18.8686 535.38 18.7266 535.38 18.5241V18.4815C535.38 17.956 535.236 17.5476 534.948 17.2564C534.664 16.9652 534.233 16.8196 533.654 16.8196C533.054 16.8196 532.583 16.951 532.242 17.2138C531.901 17.4766 531.662 17.7571 531.523 18.0554L530.33 17.6293C530.543 17.1321 530.827 16.745 531.182 16.468C531.541 16.1875 531.932 15.9922 532.354 15.8821C532.78 15.7685 533.199 15.7116 533.611 15.7116C533.874 15.7116 534.176 15.7436 534.517 15.8075C534.861 15.8679 535.193 15.994 535.513 16.1857C535.836 16.3775 536.104 16.6669 536.317 17.054C536.53 17.4411 536.637 17.9595 536.637 18.6094V24H535.38V22.892H535.316C535.231 23.0696 535.089 23.2596 534.89 23.462C534.691 23.6644 534.426 23.8366 534.096 23.9787C533.766 24.1207 533.363 24.1918 532.887 24.1918ZM533.079 23.0625C533.576 23.0625 533.995 22.9648 534.336 22.7695C534.68 22.5742 534.939 22.3221 535.113 22.0131C535.291 21.7042 535.38 21.3793 535.38 21.0384V19.8878C535.326 19.9517 535.209 20.0103 535.028 20.0636C534.851 20.1133 534.645 20.1577 534.41 20.1967C534.179 20.2322 533.954 20.2642 533.734 20.2926C533.517 20.3175 533.341 20.3388 533.206 20.3565C532.88 20.3991 532.574 20.4684 532.29 20.5643C532.01 20.6566 531.782 20.7969 531.608 20.9851C531.438 21.1697 531.353 21.4219 531.353 21.7415C531.353 22.1783 531.514 22.5085 531.837 22.7322C532.164 22.9524 532.578 23.0625 533.079 23.0625ZM540.188 13.0909V24H538.931V13.0909H540.188ZM545.921 24.1705C545.133 24.1705 544.453 23.9964 543.881 23.6484C543.313 23.2969 542.874 22.8068 542.565 22.1783C542.26 21.5462 542.107 20.8111 542.107 19.973C542.107 19.1349 542.26 18.3963 542.565 17.7571C542.874 17.1143 543.304 16.6136 543.855 16.255C544.409 15.8928 545.055 15.7116 545.793 15.7116C546.22 15.7116 546.64 15.7827 547.056 15.9247C547.471 16.0668 547.85 16.2976 548.19 16.6172C548.531 16.9332 548.803 17.3523 549.005 17.8743C549.208 18.3963 549.309 19.0391 549.309 19.8026V20.3352H543.002V19.2486H548.031C548.031 18.7869 547.938 18.375 547.754 18.0128C547.573 17.6506 547.313 17.3647 546.976 17.1552C546.642 16.9457 546.248 16.8409 545.793 16.8409C545.293 16.8409 544.86 16.9652 544.494 17.2138C544.132 17.4588 543.853 17.7784 543.657 18.1726C543.462 18.5668 543.364 18.9893 543.364 19.4403V20.1648C543.364 20.7827 543.471 21.3065 543.684 21.7362C543.901 22.1623 544.201 22.4872 544.584 22.7109C544.968 22.9311 545.413 23.0412 545.921 23.0412C546.252 23.0412 546.55 22.995 546.816 22.9027C547.086 22.8068 547.319 22.6648 547.514 22.4766C547.709 22.2848 547.86 22.0469 547.967 21.7628L549.181 22.1037C549.053 22.5156 548.839 22.8778 548.537 23.1903C548.235 23.4993 547.862 23.7408 547.418 23.9148C546.974 24.0852 546.475 24.1705 545.921 24.1705ZM555.078 12.5795L551.562 25.6406H550.412L553.927 12.5795H555.078ZM559.892 24.1705C559.153 24.1705 558.505 23.9947 557.948 23.6431C557.394 23.2915 556.96 22.7997 556.648 22.1676C556.339 21.5355 556.185 20.7969 556.185 19.9517C556.185 19.0994 556.339 18.3555 556.648 17.7198C556.96 17.0842 557.394 16.5906 557.948 16.239C558.505 15.8874 559.153 15.7116 559.892 15.7116C560.631 15.7116 561.277 15.8874 561.831 16.239C562.388 16.5906 562.822 17.0842 563.131 17.7198C563.443 18.3555 563.599 19.0994 563.599 19.9517C563.599 20.7969 563.443 21.5355 563.131 22.1676C562.822 22.7997 562.388 23.2915 561.831 23.6431C561.277 23.9947 560.631 24.1705 559.892 24.1705ZM559.892 23.0412C560.453 23.0412 560.915 22.8974 561.277 22.6097C561.639 22.3221 561.907 21.9439 562.081 21.4751C562.255 21.0064 562.342 20.4986 562.342 19.9517C562.342 19.4048 562.255 18.8952 562.081 18.4229C561.907 17.9506 561.639 17.5689 561.277 17.2777C560.915 16.9865 560.453 16.8409 559.892 16.8409C559.331 16.8409 558.869 16.9865 558.507 17.2777C558.145 17.5689 557.877 17.9506 557.703 18.4229C557.529 18.8952 557.442 19.4048 557.442 19.9517C557.442 20.4986 557.529 21.0064 557.703 21.4751C557.877 21.9439 558.145 22.3221 558.507 22.6097C558.869 22.8974 559.331 23.0412 559.892 23.0412ZM569.162 15.8182V16.8835H564.751V15.8182H569.162ZM566.072 24V14.6889C566.072 14.2202 566.182 13.8295 566.402 13.517C566.623 13.2045 566.909 12.9702 567.26 12.8139C567.612 12.6577 567.983 12.5795 568.373 12.5795C568.682 12.5795 568.934 12.6044 569.13 12.6541C569.325 12.7038 569.471 12.75 569.567 12.7926L569.204 13.8793C569.14 13.858 569.052 13.8313 568.938 13.7994C568.828 13.7674 568.682 13.7514 568.501 13.7514C568.086 13.7514 567.786 13.8562 567.601 14.0657C567.42 14.2752 567.329 14.5824 567.329 14.9872V24H566.072ZM574.567 15.8182V16.8835H570.156V15.8182H574.567ZM571.477 24V14.6889C571.477 14.2202 571.588 13.8295 571.808 13.517C572.028 13.2045 572.314 12.9702 572.665 12.8139C573.017 12.6577 573.388 12.5795 573.779 12.5795C574.088 12.5795 574.34 12.6044 574.535 12.6541C574.73 12.7038 574.876 12.75 574.972 12.7926L574.61 13.8793C574.546 13.858 574.457 13.8313 574.343 13.7994C574.233 13.7674 574.088 13.7514 573.906 13.7514C573.491 13.7514 573.191 13.8562 573.006 14.0657C572.825 14.2752 572.735 14.5824 572.735 14.9872V24H571.477ZM579.422 24.1705C578.634 24.1705 577.954 23.9964 577.382 23.6484C576.814 23.2969 576.375 22.8068 576.066 22.1783C575.761 21.5462 575.608 20.8111 575.608 19.973C575.608 19.1349 575.761 18.3963 576.066 17.7571C576.375 17.1143 576.805 16.6136 577.356 16.255C577.909 15.8928 578.556 15.7116 579.294 15.7116C579.721 15.7116 580.141 15.7827 580.557 15.9247C580.972 16.0668 581.351 16.2976 581.691 16.6172C582.032 16.9332 582.304 17.3523 582.506 17.8743C582.709 18.3963 582.81 19.0391 582.81 19.8026V20.3352H576.503V19.2486H581.532C581.532 18.7869 581.439 18.375 581.255 18.0128C581.074 17.6506 580.814 17.3647 580.477 17.1552C580.143 16.9457 579.749 16.8409 579.294 16.8409C578.794 16.8409 578.36 16.9652 577.995 17.2138C577.633 17.4588 577.354 17.7784 577.158 18.1726C576.963 18.5668 576.865 18.9893 576.865 19.4403V20.1648C576.865 20.7827 576.972 21.3065 577.185 21.7362C577.402 22.1623 577.702 22.4872 578.085 22.7109C578.469 22.9311 578.914 23.0412 579.422 23.0412C579.753 23.0412 580.051 22.995 580.317 22.9027C580.587 22.8068 580.82 22.6648 581.015 22.4766C581.21 22.2848 581.361 22.0469 581.468 21.7628L582.682 22.1037C582.554 22.5156 582.34 22.8778 582.038 23.1903C581.736 23.4993 581.363 23.7408 580.919 23.9148C580.475 24.0852 579.976 24.1705 579.422 24.1705ZM584.722 24V15.8182H585.937V17.054H586.022C586.171 16.6491 586.441 16.3207 586.832 16.0685C587.222 15.8164 587.663 15.6903 588.153 15.6903C588.245 15.6903 588.36 15.6921 588.499 15.6957C588.637 15.6992 588.742 15.7045 588.813 15.7116V16.9901C588.771 16.9794 588.673 16.9634 588.52 16.9421C588.371 16.9173 588.213 16.9048 588.046 16.9048C587.648 16.9048 587.293 16.9883 586.981 17.1552C586.672 17.3185 586.427 17.5458 586.246 17.837C586.068 18.1246 585.979 18.4531 585.979 18.8224V24H584.722ZM603.343 13.0909V24H602.065L596.12 15.4347H596.014V24H594.693V13.0909H595.971L601.937 21.6776H602.043V13.0909H603.343ZM608.224 24.1918C607.705 24.1918 607.235 24.0941 606.812 23.8988C606.39 23.6999 606.054 23.4141 605.805 23.0412C605.557 22.6648 605.433 22.2102 605.433 21.6776C605.433 21.2088 605.525 20.8288 605.71 20.5376C605.894 20.2429 606.141 20.0121 606.45 19.8452C606.759 19.6783 607.1 19.554 607.473 19.4723C607.849 19.3871 608.227 19.3196 608.607 19.2699C609.104 19.206 609.508 19.158 609.816 19.1261C610.129 19.0906 610.356 19.032 610.498 18.9503C610.644 18.8686 610.717 18.7266 610.717 18.5241V18.4815C610.717 17.956 610.573 17.5476 610.285 17.2564C610.001 16.9652 609.57 16.8196 608.991 16.8196C608.391 16.8196 607.92 16.951 607.579 17.2138C607.238 17.4766 606.999 17.7571 606.86 18.0554L605.667 17.6293C605.88 17.1321 606.164 16.745 606.519 16.468C606.878 16.1875 607.269 15.9922 607.691 15.8821C608.117 15.7685 608.536 15.7116 608.948 15.7116C609.211 15.7116 609.513 15.7436 609.854 15.8075C610.198 15.8679 610.53 15.994 610.85 16.1857C611.173 16.3775 611.441 16.6669 611.654 17.054C611.867 17.4411 611.974 17.9595 611.974 18.6094V24H610.717V22.892H610.653C610.568 23.0696 610.425 23.2596 610.227 23.462C610.028 23.6644 609.763 23.8366 609.433 23.9787C609.103 24.1207 608.7 24.1918 608.224 24.1918ZM608.416 23.0625C608.913 23.0625 609.332 22.9648 609.673 22.7695C610.017 22.5742 610.276 22.3221 610.45 22.0131C610.628 21.7042 610.717 21.3793 610.717 21.0384V19.8878C610.663 19.9517 610.546 20.0103 610.365 20.0636C610.188 20.1133 609.982 20.1577 609.747 20.1967C609.516 20.2322 609.291 20.2642 609.071 20.2926C608.854 20.3175 608.678 20.3388 608.543 20.3565C608.217 20.3991 607.911 20.4684 607.627 20.5643C607.347 20.6566 607.119 20.7969 606.945 20.9851C606.775 21.1697 606.69 21.4219 606.69 21.7415C606.69 22.1783 606.851 22.5085 607.174 22.7322C607.501 22.9524 607.915 23.0625 608.416 23.0625ZM614.268 24V15.8182H615.483V17.0966H615.589C615.76 16.6598 616.035 16.3207 616.415 16.0792C616.795 15.8342 617.251 15.7116 617.784 15.7116C618.324 15.7116 618.773 15.8342 619.132 16.0792C619.494 16.3207 619.776 16.6598 619.978 17.0966H620.064C620.273 16.674 620.587 16.3384 621.007 16.0898C621.426 15.8377 621.928 15.7116 622.514 15.7116C623.246 15.7116 623.844 15.9407 624.309 16.3988C624.774 16.8533 625.007 17.5618 625.007 18.5241V24H623.75V18.5241C623.75 17.9205 623.585 17.489 623.254 17.2298C622.924 16.9705 622.535 16.8409 622.088 16.8409C621.513 16.8409 621.067 17.0149 620.751 17.3629C620.435 17.7074 620.277 18.1442 620.277 18.6733V24H618.998V18.3963C618.998 17.9311 618.847 17.5565 618.546 17.2724C618.244 16.9847 617.855 16.8409 617.379 16.8409C617.052 16.8409 616.747 16.9279 616.463 17.1019C616.182 17.2759 615.955 17.5174 615.781 17.8263C615.611 18.1317 615.525 18.4851 615.525 18.8864V24H614.268ZM630.736 24.1705C629.947 24.1705 629.267 23.9964 628.696 23.6484C628.127 23.2969 627.689 22.8068 627.38 22.1783C627.075 21.5462 626.922 20.8111 626.922 19.973C626.922 19.1349 627.075 18.3963 627.38 17.7571C627.689 17.1143 628.119 16.6136 628.669 16.255C629.223 15.8928 629.869 15.7116 630.608 15.7116C631.034 15.7116 631.455 15.7827 631.87 15.9247C632.286 16.0668 632.664 16.2976 633.005 16.6172C633.346 16.9332 633.617 17.3523 633.82 17.8743C634.022 18.3963 634.124 19.0391 634.124 19.8026V20.3352H627.817V19.2486H632.845C632.845 18.7869 632.753 18.375 632.568 18.0128C632.387 17.6506 632.128 17.3647 631.79 17.1552C631.457 16.9457 631.062 16.8409 630.608 16.8409C630.107 16.8409 629.674 16.9652 629.308 17.2138C628.946 17.4588 628.667 17.7784 628.472 18.1726C628.277 18.5668 628.179 18.9893 628.179 19.4403V20.1648C628.179 20.7827 628.285 21.3065 628.499 21.7362C628.715 22.1623 629.015 22.4872 629.399 22.7109C629.782 22.9311 630.228 23.0412 630.736 23.0412C631.066 23.0412 631.364 22.995 631.631 22.9027C631.901 22.8068 632.133 22.6648 632.328 22.4766C632.524 22.2848 632.675 22.0469 632.781 21.7628L633.996 22.1037C633.868 22.5156 633.653 22.8778 633.351 23.1903C633.049 23.4993 632.676 23.7408 632.233 23.9148C631.789 24.0852 631.29 24.1705 630.736 24.1705ZM638.55 12.5795V26.2159H635.397V25.1719H637.357V13.6236H635.397V12.5795H638.55ZM642.387 24.0852C642.124 24.0852 641.898 23.9911 641.71 23.8029C641.522 23.6147 641.428 23.3892 641.428 23.1264C641.428 22.8636 641.522 22.6381 641.71 22.4499C641.898 22.2617 642.124 22.1676 642.387 22.1676C642.649 22.1676 642.875 22.2617 643.063 22.4499C643.251 22.6381 643.345 22.8636 643.345 23.1264C643.345 23.3004 643.301 23.4602 643.212 23.6058C643.127 23.7514 643.012 23.8686 642.866 23.9574C642.724 24.0426 642.564 24.0852 642.387 24.0852ZM649.99 24V13.0909H651.311V17.9489H657.128V13.0909H658.449V24H657.128V19.1207H651.311V24H649.99ZM666.08 20.6548V15.8182H667.337V24H666.08V22.6151H665.995C665.803 23.0305 665.504 23.3839 665.1 23.6751C664.695 23.9627 664.183 24.1065 663.566 24.1065C663.054 24.1065 662.6 23.9947 662.202 23.771C661.804 23.5437 661.492 23.2028 661.264 22.7482C661.037 22.2901 660.924 21.7131 660.924 21.017V15.8182H662.181V20.9318C662.181 21.5284 662.348 22.0043 662.681 22.3594C663.019 22.7145 663.448 22.892 663.97 22.892C664.283 22.892 664.601 22.8121 664.924 22.6523C665.251 22.4925 665.524 22.2475 665.744 21.9173C665.968 21.587 666.08 21.1662 666.08 20.6548ZM669.639 24V15.8182H670.854V17.054H670.939C671.088 16.6491 671.358 16.3207 671.749 16.0685C672.139 15.8164 672.58 15.6903 673.07 15.6903C673.162 15.6903 673.277 15.6921 673.416 15.6957C673.554 15.6992 673.659 15.7045 673.73 15.7116V16.9901C673.688 16.9794 673.59 16.9634 673.437 16.9421C673.288 16.9173 673.13 16.9048 672.963 16.9048C672.565 16.9048 672.21 16.9883 671.898 17.1552C671.589 17.3185 671.344 17.5458 671.163 17.837C670.985 18.1246 670.896 18.4531 670.896 18.8224V24H669.639ZM675.22 24V15.8182H676.435V17.054H676.52C676.669 16.6491 676.939 16.3207 677.33 16.0685C677.72 15.8164 678.161 15.6903 678.651 15.6903C678.743 15.6903 678.859 15.6921 678.997 15.6957C679.136 15.6992 679.24 15.7045 679.311 15.7116V16.9901C679.269 16.9794 679.171 16.9634 679.018 16.9421C678.869 16.9173 678.711 16.9048 678.544 16.9048C678.147 16.9048 677.791 16.9883 677.479 17.1552C677.17 17.3185 676.925 17.5458 676.744 17.837C676.566 18.1246 676.477 18.4531 676.477 18.8224V24H675.22ZM681.86 27.0682C681.647 27.0682 681.457 27.0504 681.29 27.0149C681.123 26.983 681.008 26.951 680.944 26.919L681.264 25.8111C681.569 25.8892 681.839 25.9176 682.073 25.8963C682.308 25.875 682.515 25.7702 682.696 25.582C682.881 25.3974 683.05 25.0973 683.202 24.6818L683.437 24.0426L680.411 15.8182H681.775L684.033 22.3381H684.119L686.377 15.8182H687.741L684.268 25.1932C684.112 25.6158 683.918 25.9656 683.687 26.2425C683.456 26.5231 683.188 26.7308 682.883 26.8658C682.581 27.0007 682.24 27.0682 681.86 27.0682ZM693.789 24V13.0909H695.046V17.1179H695.153C695.245 16.9759 695.373 16.7947 695.536 16.5746C695.703 16.3509 695.941 16.152 696.25 15.978C696.563 15.8004 696.985 15.7116 697.518 15.7116C698.207 15.7116 698.814 15.8839 699.34 16.2283C699.865 16.5728 700.275 17.0611 700.57 17.6932C700.865 18.3253 701.012 19.071 701.012 19.9304C701.012 20.7969 700.865 21.5479 700.57 22.1836C700.275 22.8157 699.867 23.3058 699.345 23.6538C698.823 23.9982 698.221 24.1705 697.539 24.1705C697.014 24.1705 696.593 24.0835 696.277 23.9094C695.961 23.7319 695.718 23.5312 695.547 23.3075C695.377 23.0803 695.245 22.892 695.153 22.7429H695.004V24H693.789ZM695.025 19.9091C695.025 20.527 695.116 21.0721 695.297 21.5444C695.478 22.0131 695.742 22.3807 696.09 22.647C696.438 22.9098 696.865 23.0412 697.369 23.0412C697.894 23.0412 698.333 22.9027 698.685 22.6257C699.04 22.3452 699.306 21.9687 699.484 21.4964C699.665 21.0206 699.755 20.4915 699.755 19.9091C699.755 19.3338 699.666 18.8153 699.489 18.3537C699.315 17.8885 699.05 17.521 698.695 17.2511C698.344 16.9776 697.902 16.8409 697.369 16.8409C696.857 16.8409 696.428 16.9705 696.08 17.2298C695.732 17.4854 695.469 17.8441 695.291 18.3058C695.114 18.7638 695.025 19.2983 695.025 19.9091ZM706.366 24.1705C705.577 24.1705 704.897 23.9964 704.326 23.6484C703.757 23.2969 703.319 22.8068 703.01 22.1783C702.704 21.5462 702.552 20.8111 702.552 19.973C702.552 19.1349 702.704 18.3963 703.01 17.7571C703.319 17.1143 703.748 16.6136 704.299 16.255C704.853 15.8928 705.499 15.7116 706.238 15.7116C706.664 15.7116 707.085 15.7827 707.5 15.9247C707.916 16.0668 708.294 16.2976 708.635 16.6172C708.976 16.9332 709.247 17.3523 709.45 17.8743C709.652 18.3963 709.753 19.0391 709.753 19.8026V20.3352H703.447V19.2486H708.475C708.475 18.7869 708.383 18.375 708.198 18.0128C708.017 17.6506 707.758 17.3647 707.42 17.1552C707.087 16.9457 706.692 16.8409 706.238 16.8409C705.737 16.8409 705.304 16.9652 704.938 17.2138C704.576 17.4588 704.297 17.7784 704.102 18.1726C703.906 18.5668 703.809 18.9893 703.809 19.4403V20.1648C703.809 20.7827 703.915 21.3065 704.128 21.7362C704.345 22.1623 704.645 22.4872 705.029 22.7109C705.412 22.9311 705.858 23.0412 706.366 23.0412C706.696 23.0412 706.994 22.995 707.261 22.9027C707.53 22.8068 707.763 22.6648 707.958 22.4766C708.154 22.2848 708.305 22.0469 708.411 21.7628L709.626 22.1037C709.498 22.5156 709.283 22.8778 708.981 23.1903C708.679 23.4993 708.306 23.7408 707.862 23.9148C707.419 24.0852 706.92 24.1705 706.366 24.1705ZM715.309 15.8182V16.8835H710.899V15.8182H715.309ZM712.22 24V14.6889C712.22 14.2202 712.33 13.8295 712.55 13.517C712.77 13.2045 713.056 12.9702 713.408 12.8139C713.759 12.6577 714.13 12.5795 714.521 12.5795C714.83 12.5795 715.082 12.6044 715.277 12.6541C715.473 12.7038 715.618 12.75 715.714 12.7926L715.352 13.8793C715.288 13.858 715.199 13.8313 715.085 13.7994C714.975 13.7674 714.83 13.7514 714.649 13.7514C714.233 13.7514 713.933 13.8562 713.748 14.0657C713.567 14.2752 713.477 14.5824 713.477 14.9872V24H712.22ZM720.058 24.1705C719.319 24.1705 718.671 23.9947 718.114 23.6431C717.56 23.2915 717.126 22.7997 716.814 22.1676C716.505 21.5355 716.351 20.7969 716.351 19.9517C716.351 19.0994 716.505 18.3555 716.814 17.7198C717.126 17.0842 717.56 16.5906 718.114 16.239C718.671 15.8874 719.319 15.7116 720.058 15.7116C720.797 15.7116 721.443 15.8874 721.997 16.239C722.554 16.5906 722.988 17.0842 723.297 17.7198C723.609 18.3555 723.765 19.0994 723.765 19.9517C723.765 20.7969 723.609 21.5355 723.297 22.1676C722.988 22.7997 722.554 23.2915 721.997 23.6431C721.443 23.9947 720.797 24.1705 720.058 24.1705ZM720.058 23.0412C720.619 23.0412 721.081 22.8974 721.443 22.6097C721.805 22.3221 722.073 21.9439 722.247 21.4751C722.421 21.0064 722.508 20.4986 722.508 19.9517C722.508 19.4048 722.421 18.8952 722.247 18.4229C722.073 17.9506 721.805 17.5689 721.443 17.2777C721.081 16.9865 720.619 16.8409 720.058 16.8409C719.497 16.8409 719.035 16.9865 718.673 17.2777C718.311 17.5689 718.043 17.9506 717.869 18.4229C717.695 18.8952 717.608 19.4048 717.608 19.9517C717.608 20.4986 717.695 21.0064 717.869 21.4751C718.043 21.9439 718.311 22.3221 718.673 22.6097C719.035 22.8974 719.497 23.0412 720.058 23.0412ZM725.684 24V15.8182H726.899V17.054H726.984C727.133 16.6491 727.403 16.3207 727.794 16.0685C728.184 15.8164 728.625 15.6903 729.115 15.6903C729.207 15.6903 729.322 15.6921 729.461 15.6957C729.599 15.6992 729.704 15.7045 729.775 15.7116V16.9901C729.733 16.9794 729.635 16.9634 729.482 16.9421C729.333 16.9173 729.175 16.9048 729.008 16.9048C728.61 16.9048 728.255 16.9883 727.943 17.1552C727.634 17.3185 727.389 17.5458 727.208 17.837C727.03 18.1246 726.941 18.4531 726.941 18.8224V24H725.684ZM734.447 24.1705C733.658 24.1705 732.978 23.9964 732.407 23.6484C731.838 23.2969 731.4 22.8068 731.091 22.1783C730.785 21.5462 730.633 20.8111 730.633 19.973C730.633 19.1349 730.785 18.3963 731.091 17.7571C731.4 17.1143 731.83 16.6136 732.38 16.255C732.934 15.8928 733.58 15.7116 734.319 15.7116C734.745 15.7116 735.166 15.7827 735.581 15.9247C735.997 16.0668 736.375 16.2976 736.716 16.6172C737.057 16.9332 737.328 17.3523 737.531 17.8743C737.733 18.3963 737.834 19.0391 737.834 19.8026V20.3352H731.528V19.2486H736.556C736.556 18.7869 736.464 18.375 736.279 18.0128C736.098 17.6506 735.839 17.3647 735.501 17.1552C735.168 16.9457 734.773 16.8409 734.319 16.8409C733.818 16.8409 733.385 16.9652 733.019 17.2138C732.657 17.4588 732.378 17.7784 732.183 18.1726C731.988 18.5668 731.89 18.9893 731.89 19.4403V20.1648C731.89 20.7827 731.996 21.3065 732.209 21.7362C732.426 22.1623 732.726 22.4872 733.11 22.7109C733.493 22.9311 733.939 23.0412 734.447 23.0412C734.777 23.0412 735.075 22.995 735.342 22.9027C735.611 22.8068 735.844 22.6648 736.039 22.4766C736.235 22.2848 736.386 22.0469 736.492 21.7628L737.707 22.1037C737.579 22.5156 737.364 22.8778 737.062 23.1903C736.76 23.4993 736.387 23.7408 735.943 23.9148C735.5 24.0852 735.001 24.1705 734.447 24.1705ZM749.761 17.6506L748.632 17.9702C748.561 17.782 748.456 17.5991 748.317 17.4215C748.182 17.2404 747.998 17.0913 747.763 16.9741C747.529 16.8569 747.229 16.7983 746.863 16.7983C746.363 16.7983 745.945 16.9137 745.611 17.1445C745.281 17.3718 745.116 17.6612 745.116 18.0128C745.116 18.3253 745.23 18.5721 745.457 18.7532C745.684 18.9343 746.039 19.0852 746.522 19.206L747.737 19.5043C748.468 19.6818 749.013 19.9535 749.372 20.3192C749.731 20.6815 749.91 21.1484 749.91 21.7202C749.91 22.1889 749.775 22.608 749.505 22.9773C749.239 23.3466 748.866 23.6378 748.387 23.8509C747.907 24.0639 747.35 24.1705 746.714 24.1705C745.88 24.1705 745.189 23.9893 744.642 23.6271C744.095 23.2649 743.749 22.7358 743.603 22.0398L744.796 21.7415C744.91 22.1818 745.125 22.5121 745.441 22.7322C745.761 22.9524 746.178 23.0625 746.693 23.0625C747.279 23.0625 747.744 22.9382 748.088 22.6896C748.436 22.4375 748.61 22.1357 748.61 21.7841C748.61 21.5 748.511 21.2621 748.312 21.0703C748.113 20.875 747.808 20.7294 747.396 20.6335L746.032 20.3139C745.283 20.1364 744.733 19.8612 744.381 19.4883C744.033 19.1119 743.859 18.6413 743.859 18.0767C743.859 17.6151 743.989 17.2067 744.248 16.8516C744.511 16.4964 744.867 16.2177 745.318 16.0153C745.773 15.8129 746.288 15.7116 746.863 15.7116C747.673 15.7116 748.309 15.8892 748.77 16.2443C749.235 16.5994 749.566 17.0682 749.761 17.6506ZM755.361 15.8182V16.8835H751.121V15.8182H755.361ZM752.356 13.858H753.614V21.6562C753.614 22.0114 753.665 22.2777 753.768 22.4553C753.875 22.6293 754.009 22.7464 754.173 22.8068C754.34 22.8636 754.515 22.892 754.7 22.892C754.839 22.892 754.952 22.8849 755.041 22.8707C755.13 22.853 755.201 22.8388 755.254 22.8281L755.51 23.9574C755.425 23.9893 755.306 24.0213 755.153 24.0533C755 24.0888 754.807 24.1065 754.572 24.1065C754.217 24.1065 753.869 24.0302 753.528 23.8775C753.191 23.7248 752.91 23.4922 752.687 23.1797C752.466 22.8672 752.356 22.473 752.356 21.9972V13.858ZM760.488 24.1705C759.749 24.1705 759.101 23.9947 758.543 23.6431C757.989 23.2915 757.556 22.7997 757.244 22.1676C756.935 21.5355 756.78 20.7969 756.78 19.9517C756.78 19.0994 756.935 18.3555 757.244 17.7198C757.556 17.0842 757.989 16.5906 758.543 16.239C759.101 15.8874 759.749 15.7116 760.488 15.7116C761.226 15.7116 761.873 15.8874 762.427 16.239C762.984 16.5906 763.417 17.0842 763.726 17.7198C764.039 18.3555 764.195 19.0994 764.195 19.9517C764.195 20.7969 764.039 21.5355 763.726 22.1676C763.417 22.7997 762.984 23.2915 762.427 23.6431C761.873 23.9947 761.226 24.1705 760.488 24.1705ZM760.488 23.0412C761.049 23.0412 761.51 22.8974 761.873 22.6097C762.235 22.3221 762.503 21.9439 762.677 21.4751C762.851 21.0064 762.938 20.4986 762.938 19.9517C762.938 19.4048 762.851 18.8952 762.677 18.4229C762.503 17.9506 762.235 17.5689 761.873 17.2777C761.51 16.9865 761.049 16.8409 760.488 16.8409C759.927 16.8409 759.465 16.9865 759.103 17.2777C758.74 17.5689 758.472 17.9506 758.298 18.4229C758.124 18.8952 758.037 19.4048 758.037 19.9517C758.037 20.4986 758.124 21.0064 758.298 21.4751C758.472 21.9439 758.74 22.3221 759.103 22.6097C759.465 22.8974 759.927 23.0412 760.488 23.0412ZM769.438 24.1705C768.671 24.1705 768.01 23.9893 767.456 23.6271C766.902 23.2649 766.476 22.766 766.178 22.1303C765.88 21.4947 765.73 20.7685 765.73 19.9517C765.73 19.1207 765.883 18.3874 766.189 17.7518C766.497 17.1126 766.927 16.6136 767.478 16.255C768.032 15.8928 768.678 15.7116 769.417 15.7116C769.992 15.7116 770.51 15.8182 770.972 16.0312C771.434 16.2443 771.812 16.5426 772.106 16.9261C772.401 17.3097 772.584 17.7571 772.655 18.2685H771.398C771.302 17.8956 771.089 17.5653 770.759 17.2777C770.432 16.9865 769.992 16.8409 769.438 16.8409C768.948 16.8409 768.518 16.9687 768.149 17.2244C767.783 17.4766 767.497 17.8335 767.291 18.2951C767.089 18.7532 766.988 19.2912 766.988 19.9091C766.988 20.5412 767.087 21.0916 767.286 21.5604C767.488 22.0291 767.772 22.3931 768.138 22.6523C768.507 22.9116 768.941 23.0412 769.438 23.0412C769.765 23.0412 770.061 22.9844 770.327 22.8707C770.594 22.7571 770.819 22.5938 771.004 22.3807C771.189 22.1676 771.32 21.9119 771.398 21.6136H772.655C772.584 22.0966 772.408 22.5316 772.128 22.9187C771.851 23.3022 771.483 23.6076 771.025 23.8349C770.571 24.0586 770.042 24.1705 769.438 24.1705ZM775.665 21.017L775.643 19.4616H775.899L779.479 15.8182H781.034L777.22 19.6747H777.114L775.665 21.017ZM774.493 24V13.0909H775.75V24H774.493ZM779.692 24L776.496 19.9517L777.391 19.0781L781.29 24H779.692ZM788.447 17.6506L787.318 17.9702C787.247 17.782 787.142 17.5991 787.004 17.4215C786.869 17.2404 786.684 17.0913 786.45 16.9741C786.216 16.8569 785.916 16.7983 785.55 16.7983C785.049 16.7983 784.632 16.9137 784.298 17.1445C783.968 17.3718 783.803 17.6612 783.803 18.0128C783.803 18.3253 783.916 18.5721 784.144 18.7532C784.371 18.9343 784.726 19.0852 785.209 19.206L786.423 19.5043C787.155 19.6818 787.7 19.9535 788.059 20.3192C788.417 20.6815 788.597 21.1484 788.597 21.7202C788.597 22.1889 788.462 22.608 788.192 22.9773C787.925 23.3466 787.553 23.6378 787.073 23.8509C786.594 24.0639 786.036 24.1705 785.401 24.1705C784.566 24.1705 783.875 23.9893 783.329 23.6271C782.782 23.2649 782.435 22.7358 782.29 22.0398L783.483 21.7415C783.597 22.1818 783.811 22.5121 784.128 22.7322C784.447 22.9524 784.864 23.0625 785.379 23.0625C785.965 23.0625 786.43 22.9382 786.775 22.6896C787.123 22.4375 787.297 22.1357 787.297 21.7841C787.297 21.5 787.197 21.2621 786.999 21.0703C786.8 20.875 786.494 20.7294 786.082 20.6335L784.719 20.3139C783.97 20.1364 783.419 19.8612 783.068 19.4883C782.72 19.1119 782.545 18.6413 782.545 18.0767C782.545 17.6151 782.675 17.2067 782.934 16.8516C783.197 16.4964 783.554 16.2177 784.005 16.0153C784.46 15.8129 784.974 15.7116 785.55 15.7116C786.359 15.7116 786.995 15.8892 787.457 16.2443C787.922 16.5994 788.252 17.0682 788.447 17.6506ZM794.708 24V15.8182H795.922V17.054H796.007C796.157 16.6491 796.426 16.3207 796.817 16.0685C797.208 15.8164 797.648 15.6903 798.138 15.6903C798.23 15.6903 798.346 15.6921 798.484 15.6957C798.623 15.6992 798.728 15.7045 798.799 15.7116V16.9901C798.756 16.9794 798.658 16.9634 798.506 16.9421C798.356 16.9173 798.198 16.9048 798.032 16.9048C797.634 16.9048 797.279 16.9883 796.966 17.1552C796.657 17.3185 796.412 17.5458 796.231 17.837C796.054 18.1246 795.965 18.4531 795.965 18.8224V24H794.708ZM805.445 20.6548V15.8182H806.702V24H805.445V22.6151H805.36C805.168 23.0305 804.87 23.3839 804.465 23.6751C804.06 23.9627 803.549 24.1065 802.931 24.1065C802.419 24.1065 801.965 23.9947 801.567 23.771C801.169 23.5437 800.857 23.2028 800.63 22.7482C800.402 22.2901 800.289 21.7131 800.289 21.017V15.8182H801.546V20.9318C801.546 21.5284 801.713 22.0043 802.047 22.3594C802.384 22.7145 802.814 22.892 803.336 22.892C803.648 22.892 803.966 22.8121 804.289 22.6523C804.616 22.4925 804.889 22.2475 805.109 21.9173C805.333 21.587 805.445 21.1662 805.445 20.6548ZM810.262 19.0781V24H809.005V15.8182H810.219V17.0966H810.326C810.517 16.6811 810.809 16.3473 811.199 16.0952C811.59 15.8395 812.094 15.7116 812.712 15.7116C813.266 15.7116 813.751 15.8253 814.166 16.0526C814.582 16.2763 814.905 16.6172 815.136 17.0753C815.366 17.5298 815.482 18.1051 815.482 18.8011V24H814.225V18.8864C814.225 18.2436 814.058 17.7429 813.724 17.3842C813.39 17.022 812.932 16.8409 812.35 16.8409C811.948 16.8409 811.59 16.9279 811.274 17.1019C810.961 17.2759 810.714 17.5298 810.533 17.8636C810.352 18.1974 810.262 18.6023 810.262 19.0781ZM825.322 24.1705C824.583 24.1705 823.935 23.9947 823.377 23.6431C822.823 23.2915 822.39 22.7997 822.078 22.1676C821.769 21.5355 821.614 20.7969 821.614 19.9517C821.614 19.0994 821.769 18.3555 822.078 17.7198C822.39 17.0842 822.823 16.5906 823.377 16.239C823.935 15.8874 824.583 15.7116 825.322 15.7116C826.06 15.7116 826.707 15.8874 827.261 16.239C827.818 16.5906 828.251 17.0842 828.56 17.7198C828.873 18.3555 829.029 19.0994 829.029 19.9517C829.029 20.7969 828.873 21.5355 828.56 22.1676C828.251 22.7997 827.818 23.2915 827.261 23.6431C826.707 23.9947 826.06 24.1705 825.322 24.1705ZM825.322 23.0412C825.883 23.0412 826.344 22.8974 826.707 22.6097C827.069 22.3221 827.337 21.9439 827.511 21.4751C827.685 21.0064 827.772 20.4986 827.772 19.9517C827.772 19.4048 827.685 18.8952 827.511 18.4229C827.337 17.9506 827.069 17.5689 826.707 17.2777C826.344 16.9865 825.883 16.8409 825.322 16.8409C824.761 16.8409 824.299 16.9865 823.937 17.2777C823.574 17.5689 823.306 17.9506 823.132 18.4229C822.958 18.8952 822.871 19.4048 822.871 19.9517C822.871 20.4986 822.958 21.0064 823.132 21.4751C823.306 21.9439 823.574 22.3221 823.937 22.6097C824.299 22.8974 824.761 23.0412 825.322 23.0412ZM836.104 20.6548V15.8182H837.361V24H836.104V22.6151H836.019C835.827 23.0305 835.529 23.3839 835.124 23.6751C834.719 23.9627 834.208 24.1065 833.59 24.1065C833.079 24.1065 832.624 23.9947 832.226 23.771C831.829 23.5437 831.516 23.2028 831.289 22.7482C831.062 22.2901 830.948 21.7131 830.948 21.017V15.8182H832.205V20.9318C832.205 21.5284 832.372 22.0043 832.706 22.3594C833.043 22.7145 833.473 22.892 833.995 22.892C834.307 22.892 834.625 22.8121 834.948 22.6523C835.275 22.4925 835.548 22.2475 835.769 21.9173C835.992 21.587 836.104 21.1662 836.104 20.6548ZM843.222 15.8182V16.8835H838.982V15.8182H843.222ZM840.218 13.858H841.475V21.6562C841.475 22.0114 841.526 22.2777 841.629 22.4553C841.736 22.6293 841.871 22.7464 842.034 22.8068C842.201 22.8636 842.377 22.892 842.561 22.892C842.7 22.892 842.814 22.8849 842.902 22.8707C842.991 22.853 843.062 22.8388 843.115 22.8281L843.371 23.9574C843.286 23.9893 843.167 24.0213 843.014 24.0533C842.862 24.0888 842.668 24.1065 842.434 24.1065C842.079 24.1065 841.731 24.0302 841.39 23.8775C841.052 23.7248 840.772 23.4922 840.548 23.1797C840.328 22.8672 840.218 22.473 840.218 21.9972V13.858ZM846.775 13.0909L846.668 20.9318H845.433L845.326 13.0909H846.775ZM846.05 24.0852C845.788 24.0852 845.562 23.9911 845.374 23.8029C845.186 23.6147 845.092 23.3892 845.092 23.1264C845.092 22.8636 845.186 22.6381 845.374 22.4499C845.562 22.2617 845.788 22.1676 846.05 22.1676C846.313 22.1676 846.539 22.2617 846.727 22.4499C846.915 22.6381 847.009 22.8636 847.009 23.1264C847.009 23.3004 846.965 23.4602 846.876 23.6058C846.791 23.7514 846.675 23.8686 846.53 23.9574C846.388 24.0426 846.228 24.0852 846.05 24.0852ZM859.504 15.9567C859.448 15.4524 859.213 15.0618 858.801 14.7848C858.389 14.5043 857.871 14.364 857.246 14.364C856.798 14.364 856.411 14.435 856.085 14.5771C855.758 14.7156 855.504 14.9073 855.323 15.1523C855.145 15.3938 855.057 15.669 855.057 15.978C855.057 16.2372 855.117 16.4609 855.238 16.6491C855.362 16.8374 855.524 16.9954 855.722 17.1232C855.925 17.2475 856.141 17.3523 856.372 17.4375C856.603 17.5192 856.825 17.5866 857.038 17.6399L858.103 17.9169C858.451 18.0021 858.808 18.1175 859.174 18.2631C859.54 18.4087 859.879 18.6005 860.192 18.8384C860.504 19.0763 860.756 19.3711 860.948 19.7227C861.143 20.0742 861.241 20.495 861.241 20.9851C861.241 21.603 861.081 22.1516 860.761 22.631C860.445 23.1104 859.986 23.4886 859.382 23.7656C858.782 24.0426 858.056 24.1811 857.203 24.1811C856.386 24.1811 855.68 24.0515 855.083 23.7923C854.487 23.533 854.02 23.1655 853.682 22.6896C853.345 22.2102 853.159 21.642 853.123 20.9851H854.774C854.806 21.3793 854.934 21.7077 855.158 21.9705C855.385 22.2298 855.674 22.4233 856.026 22.5511C856.381 22.6754 856.77 22.7376 857.193 22.7376C857.658 22.7376 858.072 22.6648 858.434 22.5192C858.799 22.37 859.087 22.1641 859.297 21.9013C859.506 21.6349 859.611 21.3242 859.611 20.9691C859.611 20.646 859.519 20.3814 859.334 20.1754C859.153 19.9695 858.906 19.799 858.594 19.6641C858.285 19.5291 857.935 19.4102 857.544 19.3072L856.255 18.9556C855.382 18.7177 854.689 18.3679 854.178 17.9062C853.67 17.4446 853.416 16.8338 853.416 16.0739C853.416 15.4453 853.586 14.8967 853.927 14.4279C854.268 13.9592 854.73 13.5952 855.312 13.3359C855.895 13.0732 856.552 12.9418 857.283 12.9418C858.022 12.9418 858.673 13.0714 859.238 13.3306C859.806 13.5898 860.254 13.9467 860.58 14.4013C860.907 14.8523 861.078 15.3707 861.092 15.9567H859.504ZM864.673 19.142V24H863.08V13.0909H864.651V17.1499H864.753C864.944 16.7095 865.237 16.3597 865.631 16.1005C866.026 15.8413 866.541 15.7116 867.176 15.7116C867.737 15.7116 868.227 15.8271 868.646 16.0579C869.069 16.2887 869.396 16.6332 869.626 17.0913C869.861 17.5458 869.978 18.114 869.978 18.7958V24H868.385V18.9876C868.385 18.3874 868.231 17.9222 867.922 17.592C867.613 17.2582 867.183 17.0913 866.633 17.0913C866.256 17.0913 865.919 17.1712 865.621 17.331C865.326 17.4908 865.093 17.7251 864.923 18.0341C864.756 18.3395 864.673 18.7088 864.673 19.142ZM875.55 24.1651C874.783 24.1651 874.113 23.9893 873.542 23.6378C872.97 23.2862 872.526 22.7944 872.21 22.1623C871.894 21.5302 871.736 20.7915 871.736 19.9464C871.736 19.0977 871.894 18.3555 872.21 17.7198C872.526 17.0842 872.97 16.5906 873.542 16.239C874.113 15.8874 874.783 15.7116 875.55 15.7116C876.317 15.7116 876.986 15.8874 877.558 16.239C878.13 16.5906 878.574 17.0842 878.89 17.7198C879.206 18.3555 879.364 19.0977 879.364 19.9464C879.364 20.7915 879.206 21.5302 878.89 22.1623C878.574 22.7944 878.13 23.2862 877.558 23.6378C876.986 23.9893 876.317 24.1651 875.55 24.1651ZM875.555 22.8281C876.052 22.8281 876.464 22.6967 876.791 22.4339C877.118 22.1712 877.359 21.8214 877.515 21.3846C877.675 20.9478 877.755 20.4666 877.755 19.9411C877.755 19.419 877.675 18.9396 877.515 18.5028C877.359 18.0625 877.118 17.7092 876.791 17.4428C876.464 17.1765 876.052 17.0433 875.555 17.0433C875.054 17.0433 874.639 17.1765 874.309 17.4428C873.982 17.7092 873.739 18.0625 873.579 18.5028C873.423 18.9396 873.345 19.419 873.345 19.9411C873.345 20.4666 873.423 20.9478 873.579 21.3846C873.739 21.8214 873.982 22.1712 874.309 22.4339C874.639 22.6967 875.054 22.8281 875.555 22.8281ZM881.141 27.0682V15.8182H882.697V17.1445H882.83C882.922 16.9741 883.056 16.777 883.23 16.5533C883.404 16.3295 883.645 16.1342 883.954 15.9673C884.263 15.7969 884.671 15.7116 885.179 15.7116C885.84 15.7116 886.429 15.8786 886.948 16.2124C887.466 16.5462 887.873 17.0273 888.167 17.6559C888.466 18.2844 888.615 19.0408 888.615 19.9251C888.615 20.8093 888.467 21.5675 888.173 22.1996C887.878 22.8281 887.473 23.3129 886.958 23.6538C886.443 23.9911 885.856 24.1598 885.195 24.1598C884.698 24.1598 884.291 24.0763 883.975 23.9094C883.663 23.7425 883.418 23.5472 883.24 23.3235C883.063 23.0998 882.926 22.9009 882.83 22.7269H882.734V27.0682H881.141ZM882.702 19.9091C882.702 20.4844 882.786 20.9886 882.953 21.4219C883.119 21.8551 883.361 22.1942 883.677 22.4393C883.993 22.6808 884.38 22.8015 884.838 22.8015C885.314 22.8015 885.712 22.6754 886.031 22.4233C886.351 22.1676 886.592 21.8214 886.756 21.3846C886.923 20.9478 887.006 20.456 887.006 19.9091C887.006 19.3693 886.924 18.8846 886.761 18.4549C886.601 18.0252 886.36 17.6861 886.037 17.4375C885.717 17.1889 885.318 17.0646 884.838 17.0646C884.377 17.0646 883.986 17.1836 883.666 17.4215C883.35 17.6594 883.111 17.9915 882.947 18.4176C882.784 18.8437 882.702 19.3409 882.702 19.9091ZM903.302 13.0909V24H901.789L896.244 15.9993H896.143V24H894.497V13.0909H896.02L901.571 21.1023H901.672V13.0909H903.302ZM909.021 24.1651C908.254 24.1651 907.585 23.9893 907.013 23.6378C906.442 23.2862 905.998 22.7944 905.682 22.1623C905.366 21.5302 905.208 20.7915 905.208 19.9464C905.208 19.0977 905.366 18.3555 905.682 17.7198C905.998 17.0842 906.442 16.5906 907.013 16.239C907.585 15.8874 908.254 15.7116 909.021 15.7116C909.788 15.7116 910.458 15.8874 911.03 16.239C911.601 16.5906 912.045 17.0842 912.361 17.7198C912.677 18.3555 912.835 19.0977 912.835 19.9464C912.835 20.7915 912.677 21.5302 912.361 22.1623C912.045 22.7944 911.601 23.2862 911.03 23.6378C910.458 23.9893 909.788 24.1651 909.021 24.1651ZM909.027 22.8281C909.524 22.8281 909.936 22.6967 910.263 22.4339C910.589 22.1712 910.831 21.8214 910.987 21.3846C911.147 20.9478 911.227 20.4666 911.227 19.9411C911.227 19.419 911.147 18.9396 910.987 18.5028C910.831 18.0625 910.589 17.7092 910.263 17.4428C909.936 17.1765 909.524 17.0433 909.027 17.0433C908.526 17.0433 908.111 17.1765 907.78 17.4428C907.454 17.7092 907.21 18.0625 907.051 18.5028C906.894 18.9396 906.816 19.419 906.816 19.9411C906.816 20.4666 906.894 20.9478 907.051 21.3846C907.21 21.8214 907.454 22.1712 907.78 22.4339C908.111 22.6967 908.526 22.8281 909.027 22.8281ZM916.138 24L913.73 15.8182H915.376L916.98 21.8267H917.059L918.668 15.8182H920.314L921.912 21.8001H921.992L923.585 15.8182H925.231L922.828 24H921.204L919.542 18.0927H919.419L917.757 24H916.138Z" fill="black"/>
<path d="M958.424 19.4243C958.659 19.1899 958.659 18.8101 958.424 18.5757L954.606 14.7574C954.372 14.523 953.992 14.523 953.757 14.7574C953.523 14.9917 953.523 15.3716 953.757 15.6059L957.151 19L953.757 22.3941C953.523 22.6284 953.523 23.0083 953.757 23.2426C953.992 23.477 954.372 23.477 954.606 23.2426L958.424 19.4243ZM937 19.6H958V18.4H937V19.6Z" fill="black"/>
</g>
<defs>
<clipPath id="clip0_607_1144">
<rect width="1440" height="37.7953" fill="white"/>
</clipPath>
</defs>
</svg>
