<svg width="1440" height="108" viewBox="0 0 1440 108" fill="none" xmlns="http://www.w3.org/2000/svg">
<rect width="1440" height="108" fill="white"/>
<path d="M531.178 59.3196V25.0305H540.935V28.782H535.874V55.5817H540.935V59.3196H531.178ZM559.695 35.9609C559.569 34.7824 559.039 33.8648 558.103 33.2081C557.176 32.5514 555.971 32.223 554.486 32.223C553.443 32.223 552.548 32.3804 551.801 32.6953C551.054 33.0102 550.483 33.4375 550.087 33.9773C549.691 34.517 549.489 35.1333 549.48 35.826C549.48 36.4018 549.61 36.901 549.871 37.3239C550.141 37.7467 550.506 38.1065 550.964 38.4034C551.423 38.6913 551.931 38.9342 552.489 39.1321C553.047 39.33 553.609 39.4964 554.176 39.6314L556.767 40.2791C557.811 40.522 558.814 40.8504 559.776 41.2642C560.748 41.678 561.616 42.1998 562.381 42.8295C563.154 43.4593 563.766 44.2195 564.216 45.1101C564.666 46.0007 564.891 47.0443 564.891 48.2408C564.891 49.8601 564.477 51.286 563.649 52.5185C562.821 53.742 561.625 54.7 560.06 55.3928C558.503 56.0765 556.619 56.4183 554.405 56.4183C552.255 56.4183 550.389 56.0855 548.805 55.4197C547.231 54.754 545.998 53.7824 545.108 52.505C544.226 51.2275 543.749 49.6712 543.677 47.8359H548.603C548.675 48.7985 548.972 49.5992 549.494 50.2379C550.015 50.8767 550.695 51.3535 551.531 51.6683C552.377 51.9832 553.321 52.1406 554.365 52.1406C555.454 52.1406 556.407 51.9787 557.226 51.6548C558.053 51.322 558.701 50.8632 559.169 50.2784C559.637 49.6847 559.875 48.992 559.884 48.2003C559.875 47.4806 559.664 46.8868 559.25 46.419C558.836 45.9422 558.256 45.5464 557.509 45.2315C556.771 44.9077 555.908 44.6198 554.918 44.3679L551.774 43.5582C549.498 42.9735 547.699 42.0874 546.376 40.8999C545.063 39.7034 544.406 38.1155 544.406 36.1364C544.406 34.508 544.847 33.0821 545.729 31.8587C546.619 30.6352 547.829 29.6861 549.359 29.0114C550.888 28.3277 552.62 27.9858 554.554 27.9858C556.515 27.9858 558.233 28.3277 559.709 29.0114C561.193 29.6861 562.358 30.6262 563.204 31.8317C564.049 33.0282 564.486 34.4046 564.513 35.9609H559.695ZM572.457 56H567.114L576.843 28.3636H583.024L592.766 56H587.423L580.041 34.0312H579.825L572.457 56ZM572.633 45.1641H587.207V49.1854H572.633V45.1641ZM596.407 56V28.3636H601.413V51.8033H613.585V56H596.407ZM617.93 56V28.3636H635.904V32.5604H622.936V40.0632H634.973V44.2599H622.936V51.8033H636.012V56H617.93ZM652.077 27.0682L643.171 60.1562H638.893L647.8 27.0682H652.077ZM680.105 42.1818C680.105 45.1596 679.547 47.71 678.432 49.8331C677.325 51.9472 675.814 53.5665 673.898 54.6911C671.99 55.8156 669.827 56.3778 667.407 56.3778C664.987 56.3778 662.819 55.8156 660.903 54.6911C658.995 53.5575 657.484 51.9337 656.369 49.8196C655.262 47.6965 654.709 45.1506 654.709 42.1818C654.709 39.2041 655.262 36.6581 656.369 34.544C657.484 32.4209 658.995 30.7971 660.903 29.6726C662.819 28.5481 664.987 27.9858 667.407 27.9858C669.827 27.9858 671.99 28.5481 673.898 29.6726C675.814 30.7971 677.325 32.4209 678.432 34.544C679.547 36.6581 680.105 39.2041 680.105 42.1818ZM675.072 42.1818C675.072 40.0857 674.743 38.3179 674.087 36.8785C673.439 35.4302 672.539 34.3371 671.388 33.5994C670.236 32.8527 668.909 32.4794 667.407 32.4794C665.905 32.4794 664.578 32.8527 663.426 33.5994C662.275 34.3371 661.37 35.4302 660.714 36.8785C660.066 38.3179 659.742 40.0857 659.742 42.1818C659.742 44.2779 660.066 46.0502 660.714 47.4986C661.37 48.938 662.275 50.031 663.426 50.7777C664.578 51.5154 665.905 51.8842 667.407 51.8842C668.909 51.8842 670.236 51.5154 671.388 50.7777C672.539 50.031 673.439 48.938 674.087 47.4986C674.743 46.0502 675.072 44.2779 675.072 42.1818ZM684.838 56V28.3636H702.543V32.5604H689.845V40.0632H701.328V44.2599H689.845V56H684.838ZM707.104 56V28.3636H724.808V32.5604H712.11V40.0632H723.594V44.2599H712.11V56H707.104ZM729.369 56V28.3636H747.344V32.5604H734.376V40.0632H746.413V44.2599H734.376V51.8033H747.452V56H729.369ZM752.451 56V28.3636H762.815C764.938 28.3636 766.719 28.7325 768.159 29.4702C769.607 30.2079 770.7 31.2424 771.438 32.5739C772.185 33.8963 772.558 35.4392 772.558 37.2024C772.558 38.9747 772.18 40.513 771.424 41.8175C770.678 43.1129 769.576 44.116 768.118 44.8267C766.661 45.5284 764.871 45.8793 762.748 45.8793H755.366V41.723H762.073C763.314 41.723 764.331 41.5521 765.123 41.2102C765.914 40.8594 766.499 40.3511 766.877 39.6854C767.264 39.0107 767.457 38.183 767.457 37.2024C767.457 36.2218 767.264 35.3852 766.877 34.6925C766.49 33.9908 765.901 33.46 765.109 33.1001C764.317 32.7313 763.296 32.5469 762.046 32.5469H757.458V56H752.451ZM766.728 43.4773L773.57 56H767.983L761.263 43.4773H766.728ZM809.303 28.3636V56H804.85L791.828 37.1754H791.598V56H786.592V28.3636H791.072L804.081 47.2017H804.324V28.3636H809.303ZM818.307 56H812.963L822.693 28.3636H828.873L838.616 56H833.272L825.891 34.0312H825.675L818.307 56ZM818.483 45.1641H833.056V49.1854H818.483V45.1641ZM842.256 28.3636H848.383L856.587 48.3892H856.911L865.116 28.3636H871.242V56H866.438V37.0135H866.182L858.544 55.919H854.954L847.316 36.973H847.06V56H842.256V28.3636ZM876.694 56V28.3636H894.668V32.5604H881.7V40.0632H893.737V44.2599H881.7V51.8033H894.776V56H876.694ZM907.818 25.0305V59.3196H898.062V55.5817H903.122V28.782H898.062V25.0305H907.818Z" fill="#1E1E1E"/>
<path d="M568.078 79.2628V78.0909H576.26V79.2628H572.83V89H571.509V79.2628H568.078ZM579.423 89.1918C578.905 89.1918 578.434 89.0941 578.011 88.8988C577.589 88.6999 577.253 88.4141 577.005 88.0412C576.756 87.6648 576.632 87.2102 576.632 86.6776C576.632 86.2088 576.724 85.8288 576.909 85.5376C577.093 85.2429 577.34 85.0121 577.649 84.8452C577.958 84.6783 578.299 84.554 578.672 84.4723C579.048 84.3871 579.427 84.3196 579.807 84.2699C580.304 84.206 580.707 84.158 581.016 84.1261C581.328 84.0906 581.555 84.032 581.697 83.9503C581.843 83.8686 581.916 83.7266 581.916 83.5241V83.4815C581.916 82.956 581.772 82.5476 581.484 82.2564C581.2 81.9652 580.769 81.8196 580.19 81.8196C579.59 81.8196 579.119 81.951 578.778 82.2138C578.438 82.4766 578.198 82.7571 578.059 83.0554L576.866 82.6293C577.079 82.1321 577.363 81.745 577.718 81.468C578.077 81.1875 578.468 80.9922 578.89 80.8821C579.316 80.7685 579.735 80.7116 580.147 80.7116C580.41 80.7116 580.712 80.7436 581.053 80.8075C581.397 80.8679 581.729 80.994 582.049 81.1857C582.372 81.3775 582.64 81.6669 582.853 82.054C583.066 82.4411 583.173 82.9595 583.173 83.6094V89H581.916V87.892H581.852C581.767 88.0696 581.625 88.2596 581.426 88.462C581.227 88.6644 580.962 88.8366 580.632 88.9787C580.302 89.1207 579.899 89.1918 579.423 89.1918ZM579.615 88.0625C580.112 88.0625 580.531 87.9648 580.872 87.7695C581.216 87.5742 581.476 87.3221 581.65 87.0131C581.827 86.7042 581.916 86.3793 581.916 86.0384V84.8878C581.863 84.9517 581.745 85.0103 581.564 85.0636C581.387 85.1133 581.181 85.1577 580.946 85.1967C580.716 85.2322 580.49 85.2642 580.27 85.2926C580.053 85.3175 579.878 85.3388 579.743 85.3565C579.416 85.3991 579.11 85.4684 578.826 85.5643C578.546 85.6566 578.319 85.7969 578.145 85.9851C577.974 86.1697 577.889 86.4219 577.889 86.7415C577.889 87.1783 578.05 87.5085 578.374 87.7322C578.7 87.9524 579.114 88.0625 579.615 88.0625ZM586.725 78.0909V89H585.467V78.0909H586.725ZM590.199 86.017L590.178 84.4616H590.433L594.013 80.8182H595.568L591.754 84.6747H591.648L590.199 86.017ZM589.027 89V78.0909H590.284V89H589.027ZM594.226 89L591.03 84.9517L591.925 84.0781L595.824 89H594.226ZM603.813 89.1918C603.294 89.1918 602.824 89.0941 602.401 88.8988C601.978 88.6999 601.643 88.4141 601.394 88.0412C601.146 87.6648 601.021 87.2102 601.021 86.6776C601.021 86.2088 601.114 85.8288 601.298 85.5376C601.483 85.2429 601.73 85.0121 602.039 84.8452C602.348 84.6783 602.689 84.554 603.062 84.4723C603.438 84.3871 603.816 84.3196 604.196 84.2699C604.693 84.206 605.096 84.158 605.405 84.1261C605.718 84.0906 605.945 84.032 606.087 83.9503C606.233 83.8686 606.306 83.7266 606.306 83.5241V83.4815C606.306 82.956 606.162 82.5476 605.874 82.2564C605.59 81.9652 605.159 81.8196 604.58 81.8196C603.98 81.8196 603.509 81.951 603.168 82.2138C602.827 82.4766 602.587 82.7571 602.449 83.0554L601.256 82.6293C601.469 82.1321 601.753 81.745 602.108 81.468C602.467 81.1875 602.857 80.9922 603.28 80.8821C603.706 80.7685 604.125 80.7116 604.537 80.7116C604.8 80.7116 605.102 80.7436 605.443 80.8075C605.787 80.8679 606.119 80.994 606.439 81.1857C606.762 81.3775 607.03 81.6669 607.243 82.054C607.456 82.4411 607.563 82.9595 607.563 83.6094V89H606.306V87.892H606.242C606.156 88.0696 606.014 88.2596 605.815 88.462C605.617 88.6644 605.352 88.8366 605.022 88.9787C604.692 89.1207 604.288 89.1918 603.813 89.1918ZM604.004 88.0625C604.502 88.0625 604.921 87.9648 605.261 87.7695C605.606 87.5742 605.865 87.3221 606.039 87.0131C606.217 86.7042 606.306 86.3793 606.306 86.0384V84.8878C606.252 84.9517 606.135 85.0103 605.954 85.0636C605.776 85.1133 605.57 85.1577 605.336 85.1967C605.105 85.2322 604.88 85.2642 604.66 85.2926C604.443 85.3175 604.267 85.3388 604.132 85.3565C603.806 85.3991 603.5 85.4684 603.216 85.5643C602.936 85.6566 602.708 85.7969 602.534 85.9851C602.364 86.1697 602.279 86.4219 602.279 86.7415C602.279 87.1783 602.44 87.5085 602.763 87.7322C603.09 87.9524 603.504 88.0625 604.004 88.0625ZM610.028 89V78.0909H611.285V82.1179H611.391C611.484 81.9759 611.611 81.7947 611.775 81.5746C611.942 81.3509 612.18 81.152 612.489 80.978C612.801 80.8004 613.224 80.7116 613.756 80.7116C614.445 80.7116 615.052 80.8839 615.578 81.2283C616.104 81.5728 616.514 82.0611 616.808 82.6932C617.103 83.3253 617.251 84.071 617.251 84.9304C617.251 85.7969 617.103 86.5479 616.808 87.1836C616.514 87.8157 616.105 88.3058 615.583 88.6538C615.061 88.9982 614.459 89.1705 613.778 89.1705C613.252 89.1705 612.831 89.0835 612.515 88.9094C612.199 88.7319 611.956 88.5312 611.785 88.3075C611.615 88.0803 611.484 87.892 611.391 87.7429H611.242V89H610.028ZM611.263 84.9091C611.263 85.527 611.354 86.0721 611.535 86.5444C611.716 87.0131 611.981 87.3807 612.329 87.647C612.677 87.9098 613.103 88.0412 613.607 88.0412C614.133 88.0412 614.571 87.9027 614.923 87.6257C615.278 87.3452 615.544 86.9687 615.722 86.4964C615.903 86.0206 615.993 85.4915 615.993 84.9091C615.993 84.3338 615.905 83.8153 615.727 83.3537C615.553 82.8885 615.289 82.521 614.933 82.2511C614.582 81.9776 614.14 81.8409 613.607 81.8409C613.096 81.8409 612.666 81.9705 612.318 82.2298C611.97 82.4854 611.707 82.8441 611.53 83.3058C611.352 83.7638 611.263 84.2983 611.263 84.9091ZM622.497 89.1705C621.759 89.1705 621.111 88.9947 620.553 88.6431C619.999 88.2915 619.566 87.7997 619.253 87.1676C618.944 86.5355 618.79 85.7969 618.79 84.9517C618.79 84.0994 618.944 83.3555 619.253 82.7198C619.566 82.0842 619.999 81.5906 620.553 81.239C621.111 80.8874 621.759 80.7116 622.497 80.7116C623.236 80.7116 623.882 80.8874 624.436 81.239C624.994 81.5906 625.427 82.0842 625.736 82.7198C626.049 83.3555 626.205 84.0994 626.205 84.9517C626.205 85.7969 626.049 86.5355 625.736 87.1676C625.427 87.7997 624.994 88.2915 624.436 88.6431C623.882 88.9947 623.236 89.1705 622.497 89.1705ZM622.497 88.0412C623.058 88.0412 623.52 87.8974 623.882 87.6097C624.245 87.3221 624.513 86.9439 624.687 86.4751C624.861 86.0064 624.948 85.4986 624.948 84.9517C624.948 84.4048 624.861 83.8952 624.687 83.4229C624.513 82.9506 624.245 82.5689 623.882 82.2777C623.52 81.9865 623.058 81.8409 622.497 81.8409C621.936 81.8409 621.475 81.9865 621.112 82.2777C620.75 82.5689 620.482 82.9506 620.308 83.4229C620.134 83.8952 620.047 84.4048 620.047 84.9517C620.047 85.4986 620.134 86.0064 620.308 86.4751C620.482 86.9439 620.75 87.3221 621.112 87.6097C621.475 87.8974 621.936 88.0412 622.497 88.0412ZM633.28 85.6548V80.8182H634.537V89H633.28V87.6151H633.195C633.003 88.0305 632.705 88.3839 632.3 88.6751C631.895 88.9627 631.384 89.1065 630.766 89.1065C630.254 89.1065 629.8 88.9947 629.402 88.771C629.004 88.5437 628.692 88.2028 628.465 87.7482C628.237 87.2901 628.124 86.7131 628.124 86.017V80.8182H629.381V85.9318C629.381 86.5284 629.548 87.0043 629.882 87.3594C630.219 87.7145 630.649 87.892 631.171 87.892C631.483 87.892 631.801 87.8121 632.124 87.6523C632.451 87.4925 632.724 87.2475 632.944 86.9173C633.168 86.587 633.28 86.1662 633.28 85.6548ZM640.398 80.8182V81.8835H636.158V80.8182H640.398ZM637.394 78.858H638.651V86.6562C638.651 87.0114 638.702 87.2777 638.805 87.4553C638.912 87.6293 639.047 87.7464 639.21 87.8068C639.377 87.8636 639.553 87.892 639.737 87.892C639.876 87.892 639.989 87.8849 640.078 87.8707C640.167 87.853 640.238 87.8388 640.291 87.8281L640.547 88.9574C640.462 88.9893 640.343 89.0213 640.19 89.0533C640.037 89.0888 639.844 89.1065 639.609 89.1065C639.254 89.1065 638.906 89.0302 638.565 88.8775C638.228 88.7248 637.947 88.4922 637.724 88.1797C637.504 87.8672 637.394 87.473 637.394 86.9972V78.858ZM649.938 89.1705C649.15 89.1705 648.47 88.9964 647.898 88.6484C647.33 88.2969 646.891 87.8068 646.582 87.1783C646.277 86.5462 646.124 85.8111 646.124 84.973C646.124 84.1349 646.277 83.3963 646.582 82.7571C646.891 82.1143 647.321 81.6136 647.871 81.255C648.425 80.8928 649.071 80.7116 649.81 80.7116C650.236 80.7116 650.657 80.7827 651.072 80.9247C651.488 81.0668 651.866 81.2976 652.207 81.6172C652.548 81.9332 652.82 82.3523 653.022 82.8743C653.224 83.3963 653.326 84.0391 653.326 84.8026V85.3352H647.019V84.2486H652.047C652.047 83.7869 651.955 83.375 651.77 83.0128C651.589 82.6506 651.33 82.3647 650.993 82.1552C650.659 81.9457 650.265 81.8409 649.81 81.8409C649.309 81.8409 648.876 81.9652 648.51 82.2138C648.148 82.4588 647.869 82.7784 647.674 83.1726C647.479 83.5668 647.381 83.9893 647.381 84.4403V85.1648C647.381 85.7827 647.488 86.3065 647.701 86.7362C647.917 87.1623 648.217 87.4872 648.601 87.7109C648.984 87.9311 649.43 88.0412 649.938 88.0412C650.268 88.0412 650.566 87.995 650.833 87.9027C651.103 87.8068 651.335 87.6648 651.531 87.4766C651.726 87.2848 651.877 87.0469 651.983 86.7628L653.198 87.1037C653.07 87.5156 652.855 87.8778 652.553 88.1903C652.251 88.4993 651.879 88.7408 651.435 88.9148C650.991 89.0852 650.492 89.1705 649.938 89.1705ZM655.956 80.8182L657.916 84.1634L659.876 80.8182H661.325L658.683 84.9091L661.325 89H659.876L657.916 85.8253L655.956 89H654.507L657.106 84.9091L654.507 80.8182H655.956ZM666.677 80.8182V81.8835H662.437V80.8182H666.677ZM663.673 78.858H664.93V86.6562C664.93 87.0114 664.981 87.2777 665.084 87.4553C665.191 87.6293 665.326 87.7464 665.489 87.8068C665.656 87.8636 665.832 87.892 666.017 87.892C666.155 87.892 666.269 87.8849 666.357 87.8707C666.446 87.853 666.517 87.8388 666.571 87.8281L666.826 88.9574C666.741 88.9893 666.622 89.0213 666.469 89.0533C666.317 89.0888 666.123 89.1065 665.889 89.1065C665.534 89.1065 665.186 89.0302 664.845 88.8775C664.507 88.7248 664.227 88.4922 664.003 88.1797C663.783 87.8672 663.673 87.473 663.673 86.9972V78.858ZM668.568 89V80.8182H669.783V82.054H669.868C670.017 81.6491 670.287 81.3207 670.677 81.0685C671.068 80.8164 671.508 80.6903 671.998 80.6903C672.091 80.6903 672.206 80.6921 672.345 80.6957C672.483 80.6992 672.588 80.7045 672.659 80.7116V81.9901C672.616 81.9794 672.519 81.9634 672.366 81.9421C672.217 81.9173 672.059 81.9048 671.892 81.9048C671.494 81.9048 671.139 81.9883 670.827 82.1552C670.518 82.3185 670.273 82.5458 670.091 82.837C669.914 83.1246 669.825 83.4531 669.825 83.8224V89H668.568ZM676.557 89.1918C676.038 89.1918 675.568 89.0941 675.145 88.8988C674.723 88.6999 674.387 88.4141 674.138 88.0412C673.89 87.6648 673.766 87.2102 673.766 86.6776C673.766 86.2088 673.858 85.8288 674.043 85.5376C674.227 85.2429 674.474 85.0121 674.783 84.8452C675.092 84.6783 675.433 84.554 675.806 84.4723C676.182 84.3871 676.56 84.3196 676.94 84.2699C677.437 84.206 677.841 84.158 678.149 84.1261C678.462 84.0906 678.689 84.032 678.831 83.9503C678.977 83.8686 679.05 83.7266 679.05 83.5241V83.4815C679.05 82.956 678.906 82.5476 678.618 82.2564C678.334 81.9652 677.903 81.8196 677.324 81.8196C676.724 81.8196 676.253 81.951 675.912 82.2138C675.571 82.4766 675.332 82.7571 675.193 83.0554L674 82.6293C674.213 82.1321 674.497 81.745 674.852 81.468C675.211 81.1875 675.602 80.9922 676.024 80.8821C676.45 80.7685 676.869 80.7116 677.281 80.7116C677.544 80.7116 677.846 80.7436 678.187 80.8075C678.531 80.8679 678.863 80.994 679.183 81.1857C679.506 81.3775 679.774 81.6669 679.987 82.054C680.2 82.4411 680.307 82.9595 680.307 83.6094V89H679.05V87.892H678.986C678.901 88.0696 678.758 88.2596 678.56 88.462C678.361 88.6644 678.096 88.8366 677.766 88.9787C677.436 89.1207 677.033 89.1918 676.557 89.1918ZM676.749 88.0625C677.246 88.0625 677.665 87.9648 678.006 87.7695C678.35 87.5742 678.609 87.3221 678.783 87.0131C678.961 86.7042 679.05 86.3793 679.05 86.0384V84.8878C678.996 84.9517 678.879 85.0103 678.698 85.0636C678.521 85.1133 678.315 85.1577 678.08 85.1967C677.849 85.2322 677.624 85.2642 677.404 85.2926C677.187 85.3175 677.011 85.3388 676.876 85.3565C676.55 85.3991 676.244 85.4684 675.96 85.5643C675.68 85.6566 675.452 85.7969 675.278 85.9851C675.108 86.1697 675.023 86.4219 675.023 86.7415C675.023 87.1783 675.184 87.5085 675.507 87.7322C675.834 87.9524 676.248 88.0625 676.749 88.0625ZM686.99 89V78.0909H688.248V82.1179H688.354C688.446 81.9759 688.574 81.7947 688.738 81.5746C688.905 81.3509 689.142 81.152 689.451 80.978C689.764 80.8004 690.186 80.7116 690.719 80.7116C691.408 80.7116 692.015 80.8839 692.541 81.2283C693.066 81.5728 693.477 82.0611 693.771 82.6932C694.066 83.3253 694.213 84.071 694.213 84.9304C694.213 85.7969 694.066 86.5479 693.771 87.1836C693.477 87.8157 693.068 88.3058 692.546 88.6538C692.024 88.9982 691.422 89.1705 690.74 89.1705C690.215 89.1705 689.794 89.0835 689.478 88.9094C689.162 88.7319 688.919 88.5312 688.748 88.3075C688.578 88.0803 688.446 87.892 688.354 87.7429H688.205V89H686.99ZM688.226 84.9091C688.226 85.527 688.317 86.0721 688.498 86.5444C688.679 87.0131 688.944 87.3807 689.292 87.647C689.64 87.9098 690.066 88.0412 690.57 88.0412C691.096 88.0412 691.534 87.9027 691.886 87.6257C692.241 87.3452 692.507 86.9687 692.685 86.4964C692.866 86.0206 692.956 85.4915 692.956 84.9091C692.956 84.3338 692.868 83.8153 692.69 83.3537C692.516 82.8885 692.251 82.521 691.896 82.2511C691.545 81.9776 691.103 81.8409 690.57 81.8409C690.059 81.8409 689.629 81.9705 689.281 82.2298C688.933 82.4854 688.67 82.8441 688.493 83.3058C688.315 83.7638 688.226 84.2983 688.226 84.9091ZM699.567 89.1705C698.778 89.1705 698.098 88.9964 697.527 88.6484C696.958 88.2969 696.52 87.8068 696.211 87.1783C695.906 86.5462 695.753 85.8111 695.753 84.973C695.753 84.1349 695.906 83.3963 696.211 82.7571C696.52 82.1143 696.95 81.6136 697.5 81.255C698.054 80.8928 698.7 80.7116 699.439 80.7116C699.865 80.7116 700.286 80.7827 700.701 80.9247C701.117 81.0668 701.495 81.2976 701.836 81.6172C702.177 81.9332 702.449 82.3523 702.651 82.8743C702.853 83.3963 702.955 84.0391 702.955 84.8026V85.3352H696.648V84.2486H701.676C701.676 83.7869 701.584 83.375 701.399 83.0128C701.218 82.6506 700.959 82.3647 700.621 82.1552C700.288 81.9457 699.894 81.8409 699.439 81.8409C698.938 81.8409 698.505 81.9652 698.139 82.2138C697.777 82.4588 697.498 82.7784 697.303 83.1726C697.108 83.5668 697.01 83.9893 697.01 84.4403V85.1648C697.01 85.7827 697.117 86.3065 697.33 86.7362C697.546 87.1623 697.846 87.4872 698.23 87.7109C698.613 87.9311 699.059 88.0412 699.567 88.0412C699.897 88.0412 700.195 87.995 700.462 87.9027C700.732 87.8068 700.964 87.6648 701.159 87.4766C701.355 87.2848 701.506 87.0469 701.612 86.7628L702.827 87.1037C702.699 87.5156 702.484 87.8778 702.182 88.1903C701.88 88.4993 701.508 88.7408 701.064 88.9148C700.62 89.0852 700.121 89.1705 699.567 89.1705ZM706.124 84.0781V89H704.867V80.8182H706.081V82.0966H706.188C706.38 81.6811 706.671 81.3473 707.061 81.0952C707.452 80.8395 707.956 80.7116 708.574 80.7116C709.128 80.7116 709.613 80.8253 710.028 81.0526C710.444 81.2763 710.767 81.6172 710.998 82.0753C711.229 82.5298 711.344 83.1051 711.344 83.8011V89H710.087V83.8864C710.087 83.2436 709.92 82.7429 709.586 82.3842C709.253 82.022 708.794 81.8409 708.212 81.8409C707.811 81.8409 707.452 81.9279 707.136 82.1019C706.824 82.2759 706.577 82.5298 706.396 82.8636C706.215 83.1974 706.124 83.6023 706.124 84.0781ZM717.072 89.1705C716.283 89.1705 715.603 88.9964 715.032 88.6484C714.463 88.2969 714.025 87.8068 713.716 87.1783C713.41 86.5462 713.258 85.8111 713.258 84.973C713.258 84.1349 713.41 83.3963 713.716 82.7571C714.025 82.1143 714.455 81.6136 715.005 81.255C715.559 80.8928 716.205 80.7116 716.944 80.7116C717.37 80.7116 717.791 80.7827 718.206 80.9247C718.622 81.0668 719 81.2976 719.341 81.6172C719.682 81.9332 719.953 82.3523 720.156 82.8743C720.358 83.3963 720.459 84.0391 720.459 84.8026V85.3352H714.153V84.2486H719.181C719.181 83.7869 719.089 83.375 718.904 83.0128C718.723 82.6506 718.464 82.3647 718.126 82.1552C717.793 81.9457 717.398 81.8409 716.944 81.8409C716.443 81.8409 716.01 81.9652 715.644 82.2138C715.282 82.4588 715.003 82.7784 714.808 83.1726C714.613 83.5668 714.515 83.9893 714.515 84.4403V85.1648C714.515 85.7827 714.621 86.3065 714.834 86.7362C715.051 87.1623 715.351 87.4872 715.735 87.7109C716.118 87.9311 716.564 88.0412 717.072 88.0412C717.402 88.0412 717.7 87.995 717.967 87.9027C718.236 87.8068 718.469 87.6648 718.664 87.4766C718.86 87.2848 719.011 87.0469 719.117 86.7628L720.332 87.1037C720.204 87.5156 719.989 87.8778 719.687 88.1903C719.385 88.4993 719.012 88.7408 718.568 88.9148C718.125 89.0852 717.626 89.1705 717.072 89.1705ZM726.015 80.8182V81.8835H721.605V80.8182H726.015ZM722.926 89V79.6889C722.926 79.2202 723.036 78.8295 723.256 78.517C723.476 78.2045 723.762 77.9702 724.114 77.8139C724.465 77.6577 724.836 77.5795 725.227 77.5795C725.536 77.5795 725.788 77.6044 725.983 77.6541C726.179 77.7038 726.324 77.75 726.42 77.7926L726.058 78.8793C725.994 78.858 725.905 78.8313 725.792 78.7994C725.681 78.7674 725.536 78.7514 725.355 78.7514C724.939 78.7514 724.639 78.8562 724.455 79.0657C724.273 79.2752 724.183 79.5824 724.183 79.9872V89H722.926ZM727.777 89V80.8182H729.034V89H727.777ZM728.416 79.4545C728.171 79.4545 727.96 79.3711 727.782 79.2042C727.608 79.0373 727.521 78.8366 727.521 78.6023C727.521 78.3679 727.608 78.1673 727.782 78.0004C727.96 77.8335 728.171 77.75 728.416 77.75C728.661 77.75 728.871 77.8335 729.045 78.0004C729.222 78.1673 729.311 78.3679 729.311 78.6023C729.311 78.8366 729.222 79.0373 729.045 79.2042C728.871 79.3711 728.661 79.4545 728.416 79.4545ZM734.895 80.8182V81.8835H730.655V80.8182H734.895ZM731.891 78.858H733.148V86.6562C733.148 87.0114 733.199 87.2777 733.302 87.4553C733.409 87.6293 733.544 87.7464 733.707 87.8068C733.874 87.8636 734.05 87.892 734.234 87.892C734.373 87.892 734.486 87.8849 734.575 87.8707C734.664 87.853 734.735 87.8388 734.788 87.8281L735.044 88.9574C734.959 88.9893 734.84 89.0213 734.687 89.0533C734.534 89.0888 734.341 89.1065 734.106 89.1065C733.751 89.1065 733.403 89.0302 733.062 88.8775C732.725 88.7248 732.445 88.4922 732.221 88.1797C732.001 87.8672 731.891 87.473 731.891 86.9972V78.858ZM742.435 82.6506L741.306 82.9702C741.235 82.782 741.13 82.5991 740.991 82.4215C740.856 82.2404 740.672 82.0913 740.437 81.9741C740.203 81.8569 739.903 81.7983 739.537 81.7983C739.036 81.7983 738.619 81.9137 738.285 82.1445C737.955 82.3718 737.79 82.6612 737.79 83.0128C737.79 83.3253 737.904 83.5721 738.131 83.7532C738.358 83.9343 738.713 84.0852 739.196 84.206L740.411 84.5043C741.142 84.6818 741.687 84.9535 742.046 85.3192C742.405 85.6815 742.584 86.1484 742.584 86.7202C742.584 87.1889 742.449 87.608 742.179 87.9773C741.913 88.3466 741.54 88.6378 741.061 88.8509C740.581 89.0639 740.024 89.1705 739.388 89.1705C738.553 89.1705 737.863 88.9893 737.316 88.6271C736.769 88.2649 736.423 87.7358 736.277 87.0398L737.47 86.7415C737.584 87.1818 737.799 87.5121 738.115 87.7322C738.434 87.9524 738.852 88.0625 739.367 88.0625C739.953 88.0625 740.418 87.9382 740.762 87.6896C741.11 87.4375 741.284 87.1357 741.284 86.7841C741.284 86.5 741.185 86.2621 740.986 86.0703C740.787 85.875 740.482 85.7294 740.07 85.6335L738.706 85.3139C737.957 85.1364 737.406 84.8612 737.055 84.4883C736.707 84.1119 736.533 83.6413 736.533 83.0767C736.533 82.6151 736.662 82.2067 736.922 81.8516C737.184 81.4964 737.541 81.2177 737.992 81.0153C738.447 80.8129 738.962 80.7116 739.537 80.7116C740.347 80.7116 740.982 80.8892 741.444 81.2443C741.909 81.5994 742.239 82.0682 742.435 82.6506ZM748.333 77.5795L744.817 90.6406H743.667L747.182 77.5795H748.333ZM756.513 80.8182L753.488 89H752.209L749.184 80.8182H750.547L752.806 87.3381H752.891L755.15 80.8182H756.513ZM760.331 89.1918C759.813 89.1918 759.342 89.0941 758.92 88.8988C758.497 88.6999 758.161 88.4141 757.913 88.0412C757.664 87.6648 757.54 87.2102 757.54 86.6776C757.54 86.2088 757.632 85.8288 757.817 85.5376C758.002 85.2429 758.248 85.0121 758.557 84.8452C758.866 84.6783 759.207 84.554 759.58 84.4723C759.957 84.3871 760.335 84.3196 760.715 84.2699C761.212 84.206 761.615 84.158 761.924 84.1261C762.236 84.0906 762.464 84.032 762.606 83.9503C762.751 83.8686 762.824 83.7266 762.824 83.5241V83.4815C762.824 82.956 762.68 82.5476 762.393 82.2564C762.109 81.9652 761.677 81.8196 761.098 81.8196C760.498 81.8196 760.028 81.951 759.687 82.2138C759.346 82.4766 759.106 82.7571 758.968 83.0554L757.774 82.6293C757.987 82.1321 758.272 81.745 758.627 81.468C758.985 81.1875 759.376 80.9922 759.799 80.8821C760.225 80.7685 760.644 80.7116 761.056 80.7116C761.318 80.7116 761.62 80.7436 761.961 80.8075C762.306 80.8679 762.638 80.994 762.957 81.1857C763.28 81.3775 763.549 81.6669 763.762 82.054C763.975 82.4411 764.081 82.9595 764.081 83.6094V89H762.824V87.892H762.76C762.675 88.0696 762.533 88.2596 762.334 88.462C762.135 88.6644 761.871 88.8366 761.54 88.9787C761.21 89.1207 760.807 89.1918 760.331 89.1918ZM760.523 88.0625C761.02 88.0625 761.439 87.9648 761.78 87.7695C762.125 87.5742 762.384 87.3221 762.558 87.0131C762.735 86.7042 762.824 86.3793 762.824 86.0384V84.8878C762.771 84.9517 762.654 85.0103 762.473 85.0636C762.295 85.1133 762.089 85.1577 761.855 85.1967C761.624 85.2322 761.398 85.2642 761.178 85.2926C760.962 85.3175 760.786 85.3388 760.651 85.3565C760.324 85.3991 760.019 85.4684 759.735 85.5643C759.454 85.6566 759.227 85.7969 759.053 85.9851C758.882 86.1697 758.797 86.4219 758.797 86.7415C758.797 87.1783 758.959 87.5085 759.282 87.7322C759.609 87.9524 760.022 88.0625 760.523 88.0625ZM767.633 78.0909V89H766.376V78.0909H767.633ZM775.091 85.6548V80.8182H776.349V89H775.091V87.6151H775.006C774.814 88.0305 774.516 88.3839 774.111 88.6751C773.707 88.9627 773.195 89.1065 772.577 89.1065C772.066 89.1065 771.611 88.9947 771.214 88.771C770.816 88.5437 770.503 88.2028 770.276 87.7482C770.049 87.2901 769.935 86.7131 769.935 86.017V80.8182H771.192V85.9318C771.192 86.5284 771.359 87.0043 771.693 87.3594C772.03 87.7145 772.46 87.892 772.982 87.892C773.295 87.892 773.612 87.8121 773.936 87.6523C774.262 87.4925 774.536 87.2475 774.756 86.9173C774.98 86.587 775.091 86.1662 775.091 85.6548ZM782.081 89.1705C781.293 89.1705 780.613 88.9964 780.041 88.6484C779.473 88.2969 779.035 87.8068 778.726 87.1783C778.42 86.5462 778.268 85.8111 778.268 84.973C778.268 84.1349 778.42 83.3963 778.726 82.7571C779.035 82.1143 779.464 81.6136 780.015 81.255C780.569 80.8928 781.215 80.7116 781.954 80.7116C782.38 80.7116 782.801 80.7827 783.216 80.9247C783.632 81.0668 784.01 81.2976 784.351 81.6172C784.692 81.9332 784.963 82.3523 785.166 82.8743C785.368 83.3963 785.469 84.0391 785.469 84.8026V85.3352H779.162V84.2486H784.191C784.191 83.7869 784.098 83.375 783.914 83.0128C783.733 82.6506 783.473 82.3647 783.136 82.1552C782.802 81.9457 782.408 81.8409 781.954 81.8409C781.453 81.8409 781.02 81.9652 780.654 82.2138C780.292 82.4588 780.013 82.7784 779.818 83.1726C779.622 83.5668 779.525 83.9893 779.525 84.4403V85.1648C779.525 85.7827 779.631 86.3065 779.844 86.7362C780.061 87.1623 780.361 87.4872 780.744 87.7109C781.128 87.9311 781.574 88.0412 782.081 88.0412C782.412 88.0412 782.71 87.995 782.976 87.9027C783.246 87.8068 783.479 87.6648 783.674 87.4766C783.869 87.2848 784.02 87.0469 784.127 86.7628L785.341 87.1037C785.214 87.5156 784.999 87.8778 784.697 88.1903C784.395 88.4993 784.022 88.7408 783.578 88.9148C783.134 89.0852 782.635 89.1705 782.081 89.1705ZM788.298 89.0852C788.035 89.0852 787.809 88.9911 787.621 88.8029C787.433 88.6147 787.339 88.3892 787.339 88.1264C787.339 87.8636 787.433 87.6381 787.621 87.4499C787.809 87.2617 788.035 87.1676 788.298 87.1676C788.561 87.1676 788.786 87.2617 788.974 87.4499C789.162 87.6381 789.257 87.8636 789.257 88.1264C789.257 88.3004 789.212 88.4602 789.123 88.6058C789.038 88.7514 788.923 88.8686 788.777 88.9574C788.635 89.0426 788.475 89.0852 788.298 89.0852ZM801.867 80.8182C801.804 80.2784 801.544 79.8594 801.09 79.5611C800.635 79.2628 800.078 79.1136 799.417 79.1136C798.934 79.1136 798.512 79.1918 798.149 79.348C797.791 79.5043 797.51 79.7191 797.308 79.9925C797.109 80.266 797.01 80.5767 797.01 80.9247C797.01 81.2159 797.079 81.4663 797.217 81.6758C797.359 81.8817 797.54 82.054 797.761 82.1925C797.981 82.3274 798.212 82.4393 798.453 82.5281C798.695 82.6133 798.917 82.6825 799.119 82.7358L800.227 83.0341C800.511 83.1087 800.827 83.2116 801.175 83.343C801.527 83.4744 801.862 83.6538 802.182 83.881C802.505 84.1048 802.771 84.3924 802.981 84.744C803.19 85.0955 803.295 85.527 803.295 86.0384C803.295 86.6278 803.141 87.1605 802.832 87.6364C802.526 88.1122 802.079 88.4904 801.489 88.771C800.903 89.0515 800.191 89.1918 799.353 89.1918C798.572 89.1918 797.896 89.0657 797.324 88.8136C796.756 88.5614 796.308 88.2099 795.981 87.7589C795.658 87.3079 795.475 86.7841 795.433 86.1875H796.796C796.832 86.5994 796.97 86.9403 797.212 87.2102C797.457 87.4766 797.766 87.6754 798.139 87.8068C798.515 87.9347 798.92 87.9986 799.353 87.9986C799.858 87.9986 800.31 87.9169 800.712 87.7536C801.113 87.5866 801.431 87.3558 801.665 87.0611C801.899 86.7628 802.017 86.4148 802.017 86.017C802.017 85.6548 801.915 85.3601 801.713 85.1328C801.511 84.9055 801.244 84.7209 800.914 84.5788C800.584 84.4368 800.227 84.3125 799.843 84.206L798.501 83.8224C797.649 83.5774 796.974 83.2276 796.477 82.7731C795.98 82.3185 795.731 81.7237 795.731 80.9886C795.731 80.3778 795.896 79.8452 796.227 79.3906C796.56 78.9325 797.008 78.5774 797.569 78.3253C798.133 78.0696 798.764 77.9418 799.46 77.9418C800.163 77.9418 800.788 78.0678 801.335 78.32C801.882 78.5685 802.315 78.9094 802.635 79.3427C802.958 79.7759 803.128 80.2678 803.146 80.8182H801.867ZM806.554 84.0781V89H805.297V78.0909H806.554V82.0966H806.66C806.852 81.674 807.14 81.3384 807.523 81.0898C807.91 80.8377 808.425 80.7116 809.068 80.7116C809.625 80.7116 810.114 80.8235 810.533 81.0472C810.952 81.2674 811.277 81.6065 811.508 82.0646C811.742 82.5192 811.859 83.098 811.859 83.8011V89H810.602V83.8864C810.602 83.2365 810.433 82.734 810.096 82.3789C809.762 82.0202 809.299 81.8409 808.706 81.8409C808.294 81.8409 807.924 81.9279 807.598 82.1019C807.275 82.2759 807.019 82.5298 806.831 82.8636C806.646 83.1974 806.554 83.6023 806.554 84.0781ZM817.483 89.1705C816.744 89.1705 816.096 88.9947 815.538 88.6431C814.985 88.2915 814.551 87.7997 814.239 87.1676C813.93 86.5355 813.775 85.7969 813.775 84.9517C813.775 84.0994 813.93 83.3555 814.239 82.7198C814.551 82.0842 814.985 81.5906 815.538 81.239C816.096 80.8874 816.744 80.7116 817.483 80.7116C818.221 80.7116 818.868 80.8874 819.422 81.239C819.979 81.5906 820.412 82.0842 820.721 82.7198C821.034 83.3555 821.19 84.0994 821.19 84.9517C821.19 85.7969 821.034 86.5355 820.721 87.1676C820.412 87.7997 819.979 88.2915 819.422 88.6431C818.868 88.9947 818.221 89.1705 817.483 89.1705ZM817.483 88.0412C818.044 88.0412 818.505 87.8974 818.868 87.6097C819.23 87.3221 819.498 86.9439 819.672 86.4751C819.846 86.0064 819.933 85.4986 819.933 84.9517C819.933 84.4048 819.846 83.8952 819.672 83.4229C819.498 82.9506 819.23 82.5689 818.868 82.2777C818.505 81.9865 818.044 81.8409 817.483 81.8409C816.922 81.8409 816.46 81.9865 816.098 82.2777C815.736 82.5689 815.467 82.9506 815.293 83.4229C815.119 83.8952 815.032 84.4048 815.032 84.9517C815.032 85.4986 815.119 86.0064 815.293 86.4751C815.467 86.9439 815.736 87.3221 816.098 87.6097C816.46 87.8974 816.922 88.0412 817.483 88.0412ZM823.109 92.0682V80.8182H824.324V82.1179H824.473C824.565 81.9759 824.693 81.7947 824.856 81.5746C825.023 81.3509 825.261 81.152 825.57 80.978C825.883 80.8004 826.305 80.7116 826.838 80.7116C827.527 80.7116 828.134 80.8839 828.659 81.2283C829.185 81.5728 829.595 82.0611 829.89 82.6932C830.185 83.3253 830.332 84.071 830.332 84.9304C830.332 85.7969 830.185 86.5479 829.89 87.1836C829.595 87.8157 829.187 88.3058 828.665 88.6538C828.143 88.9982 827.541 89.1705 826.859 89.1705C826.333 89.1705 825.913 89.0835 825.597 88.9094C825.281 88.7319 825.037 88.5312 824.867 88.3075C824.696 88.0803 824.565 87.892 824.473 87.7429H824.366V92.0682H823.109ZM824.345 84.9091C824.345 85.527 824.435 86.0721 824.617 86.5444C824.798 87.0131 825.062 87.3807 825.41 87.647C825.758 87.9098 826.184 88.0412 826.689 88.0412C827.214 88.0412 827.653 87.9027 828.004 87.6257C828.359 87.3452 828.626 86.9687 828.803 86.4964C828.984 86.0206 829.075 85.4915 829.075 84.9091C829.075 84.3338 828.986 83.8153 828.809 83.3537C828.635 82.8885 828.37 82.521 828.015 82.2511C827.663 81.9776 827.221 81.8409 826.689 81.8409C826.177 81.8409 825.748 81.9705 825.4 82.2298C825.052 82.4854 824.789 82.8441 824.611 83.3058C824.434 83.7638 824.345 84.2983 824.345 84.9091ZM845.289 78.0909V89H844.011L838.066 80.4347H837.96V89H836.639V78.0909H837.917L843.883 86.6776H843.99V78.0909H845.289ZM851.086 89.1705C850.348 89.1705 849.7 88.9947 849.142 88.6431C848.588 88.2915 848.155 87.7997 847.842 87.1676C847.533 86.5355 847.379 85.7969 847.379 84.9517C847.379 84.0994 847.533 83.3555 847.842 82.7198C848.155 82.0842 848.588 81.5906 849.142 81.239C849.7 80.8874 850.348 80.7116 851.086 80.7116C851.825 80.7116 852.471 80.8874 853.025 81.239C853.583 81.5906 854.016 82.0842 854.325 82.7198C854.637 83.3555 854.794 84.0994 854.794 84.9517C854.794 85.7969 854.637 86.5355 854.325 87.1676C854.016 87.7997 853.583 88.2915 853.025 88.6431C852.471 88.9947 851.825 89.1705 851.086 89.1705ZM851.086 88.0412C851.647 88.0412 852.109 87.8974 852.471 87.6097C852.833 87.3221 853.102 86.9439 853.276 86.4751C853.45 86.0064 853.537 85.4986 853.537 84.9517C853.537 84.4048 853.45 83.8952 853.276 83.4229C853.102 82.9506 852.833 82.5689 852.471 82.2777C852.109 81.9865 851.647 81.8409 851.086 81.8409C850.525 81.8409 850.064 81.9865 849.701 82.2777C849.339 82.5689 849.071 82.9506 848.897 83.4229C848.723 83.8952 848.636 84.4048 848.636 84.9517C848.636 85.4986 848.723 86.0064 848.897 86.4751C849.071 86.9439 849.339 87.3221 849.701 87.6097C850.064 87.8974 850.525 88.0412 851.086 88.0412ZM858.288 89L855.795 80.8182H857.116L858.885 87.0824H858.97L860.717 80.8182H862.059L863.785 87.0611H863.87L865.639 80.8182H866.96L864.467 89H863.231L861.441 82.7145H861.314L859.524 89H858.288ZM870.284 78.0909L870.177 85.9318H868.941L868.835 78.0909H870.284ZM869.559 89.0852C869.296 89.0852 869.071 88.9911 868.883 88.8029C868.695 88.6147 868.6 88.3892 868.6 88.1264C868.6 87.8636 868.695 87.6381 868.883 87.4499C869.071 87.2617 869.296 87.1676 869.559 87.1676C869.822 87.1676 870.048 87.2617 870.236 87.4499C870.424 87.6381 870.518 87.8636 870.518 88.1264C870.518 88.3004 870.474 88.4602 870.385 88.6058C870.3 88.7514 870.184 88.8686 870.039 88.9574C869.897 89.0426 869.737 89.0852 869.559 89.0852Z" fill="black"/>
</svg>
