<svg width="1440" height="128" viewBox="0 0 1440 128" fill="none" xmlns="http://www.w3.org/2000/svg">
<rect width="1440" height="128" fill="white"/>
<path d="M627.772 35.9609C627.646 34.7824 627.116 33.8648 626.18 33.2081C625.253 32.5514 624.048 32.223 622.564 32.223C621.52 32.223 620.625 32.3804 619.878 32.6953C619.132 33.0102 618.56 33.4375 618.164 33.9773C617.769 34.517 617.566 35.1333 617.557 35.826C617.557 36.4018 617.688 36.901 617.949 37.3239C618.218 37.7467 618.583 38.1065 619.042 38.4034C619.5 38.6913 620.009 38.9342 620.566 39.1321C621.124 39.33 621.686 39.4964 622.253 39.6314L624.844 40.2791C625.888 40.522 626.891 40.8504 627.853 41.2642C628.825 41.678 629.693 42.1998 630.458 42.8295C631.231 43.4593 631.843 44.2195 632.293 45.1101C632.743 46.0007 632.968 47.0443 632.968 48.2408C632.968 49.8601 632.554 51.286 631.726 52.5185C630.899 53.742 629.702 54.7 628.137 55.3928C626.58 56.0765 624.696 56.4183 622.483 56.4183C620.333 56.4183 618.466 56.0855 616.882 55.4197C615.308 54.754 614.076 53.7824 613.185 52.505C612.303 51.2275 611.827 49.6712 611.755 47.8359H616.68C616.752 48.7985 617.049 49.5992 617.571 50.2379C618.092 50.8767 618.772 51.3535 619.608 51.6683C620.454 51.9832 621.399 52.1406 622.442 52.1406C623.531 52.1406 624.484 51.9787 625.303 51.6548C626.131 51.322 626.778 50.8632 627.246 50.2784C627.714 49.6847 627.952 48.992 627.961 48.2003C627.952 47.4806 627.741 46.8868 627.327 46.419C626.913 45.9422 626.333 45.5464 625.586 45.2315C624.849 44.9077 623.985 44.6198 622.995 44.3679L619.851 43.5582C617.575 42.9735 615.776 42.0874 614.453 40.8999C613.14 39.7034 612.483 38.1155 612.483 36.1364C612.483 34.508 612.924 33.0821 613.806 31.8587C614.696 30.6352 615.906 29.6861 617.436 29.0114C618.965 28.3277 620.697 27.9858 622.631 27.9858C624.592 27.9858 626.31 28.3277 627.786 29.0114C629.27 29.6861 630.435 30.6262 631.281 31.8317C632.127 33.0282 632.563 34.4046 632.59 35.9609H627.772ZM640.535 56H635.191L644.92 28.3636H651.101L660.844 56H655.5L648.118 34.0312H647.903L640.535 56ZM640.71 45.1641H655.284V49.1854H640.71V45.1641ZM664.484 56V28.3636H669.49V51.8033H681.662V56H664.484ZM686.007 56V28.3636H703.982V32.5604H691.013V40.0632H703.05V44.2599H691.013V51.8033H704.089V56H686.007ZM741.226 28.3636V56H736.773L723.751 37.1754H723.521V56H718.515V28.3636H722.995L736.004 47.2017H736.246V28.3636H741.226ZM750.23 56H744.886L754.616 28.3636H760.796L770.539 56H765.195L757.814 34.0312H757.598L750.23 56ZM750.405 45.1641H764.979V49.1854H750.405V45.1641ZM774.179 28.3636H780.305L788.51 48.3892H788.834L797.038 28.3636H803.165V56H798.361V37.0135H798.104L790.467 55.919H786.877L779.239 36.973H778.983V56H774.179V28.3636ZM808.616 56V28.3636H826.591V32.5604H813.623V40.0632H825.66V44.2599H813.623V51.8033H826.699V56H808.616Z" fill="#1E1E1E"/>
<path d="M470.466 94V83.0909H471.787V87.9489H477.603V83.0909H478.924V94H477.603V89.1207H471.787V94H470.466ZM486.555 90.6548V85.8182H487.812V94H486.555V92.6151H486.47C486.278 93.0305 485.98 93.3839 485.575 93.6751C485.17 93.9627 484.659 94.1065 484.041 94.1065C483.529 94.1065 483.075 93.9947 482.677 93.771C482.279 93.5437 481.967 93.2028 481.74 92.7482C481.512 92.2901 481.399 91.7131 481.399 91.017V85.8182H482.656V90.9318C482.656 91.5284 482.823 92.0043 483.156 92.3594C483.494 92.7145 483.923 92.892 484.445 92.892C484.758 92.892 485.076 92.8121 485.399 92.6523C485.726 92.4925 485.999 92.2475 486.219 91.9173C486.443 91.587 486.555 91.1662 486.555 90.6548ZM490.114 94V85.8182H491.329V87.054H491.414C491.563 86.6491 491.833 86.3207 492.224 86.0685C492.614 85.8164 493.055 85.6903 493.545 85.6903C493.637 85.6903 493.753 85.6921 493.891 85.6957C494.03 85.6992 494.134 85.7045 494.205 85.7116V86.9901C494.163 86.9794 494.065 86.9634 493.912 86.9421C493.763 86.9173 493.605 86.9048 493.438 86.9048C493.041 86.9048 492.685 86.9883 492.373 87.1552C492.064 87.3185 491.819 87.5458 491.638 87.837C491.46 88.1246 491.372 88.4531 491.372 88.8224V94H490.114ZM495.695 94V85.8182H496.91V87.054H496.995C497.144 86.6491 497.414 86.3207 497.805 86.0685C498.195 85.8164 498.636 85.6903 499.126 85.6903C499.218 85.6903 499.334 85.6921 499.472 85.6957C499.611 85.6992 499.715 85.7045 499.786 85.7116V86.9901C499.744 86.9794 499.646 86.9634 499.493 86.9421C499.344 86.9173 499.186 86.9048 499.019 86.9048C498.622 86.9048 498.267 86.9883 497.954 87.1552C497.645 87.3185 497.4 87.5458 497.219 87.837C497.041 88.1246 496.953 88.4531 496.953 88.8224V94H495.695ZM502.335 97.0682C502.122 97.0682 501.932 97.0504 501.765 97.0149C501.598 96.983 501.483 96.951 501.419 96.919L501.739 95.8111C502.044 95.8892 502.314 95.9176 502.548 95.8963C502.783 95.875 502.99 95.7702 503.172 95.582C503.356 95.3974 503.525 95.0973 503.678 94.6818L503.912 94.0426L500.886 85.8182H502.25L504.509 92.3381H504.594L506.852 85.8182H508.216L504.743 95.1932C504.587 95.6158 504.393 95.9656 504.162 96.2425C503.931 96.5231 503.663 96.7308 503.358 96.8658C503.056 97.0007 502.715 97.0682 502.335 97.0682ZM511.537 83.0909L511.431 90.9318H510.195L510.088 83.0909H511.537ZM510.813 94.0852C510.55 94.0852 510.324 93.9911 510.136 93.8029C509.948 93.6147 509.854 93.3892 509.854 93.1264C509.854 92.8636 509.948 92.6381 510.136 92.4499C510.324 92.2617 510.55 92.1676 510.813 92.1676C511.075 92.1676 511.301 92.2617 511.489 92.4499C511.677 92.6381 511.771 92.8636 511.771 93.1264C511.771 93.3004 511.727 93.4602 511.638 93.6058C511.553 93.7514 511.438 93.8686 511.292 93.9574C511.15 94.0426 510.99 94.0852 510.813 94.0852ZM524.405 85.8182C524.341 85.2784 524.082 84.8594 523.627 84.5611C523.173 84.2628 522.615 84.1136 521.955 84.1136C521.472 84.1136 521.049 84.1918 520.687 84.348C520.328 84.5043 520.048 84.7191 519.845 84.9925C519.647 85.266 519.547 85.5767 519.547 85.9247C519.547 86.2159 519.616 86.4663 519.755 86.6758C519.897 86.8817 520.078 87.054 520.298 87.1925C520.518 87.3274 520.749 87.4393 520.991 87.5281C521.232 87.6133 521.454 87.6825 521.657 87.7358L522.764 88.0341C523.049 88.1087 523.365 88.2116 523.713 88.343C524.064 88.4744 524.4 88.6538 524.719 88.881C525.043 89.1048 525.309 89.3924 525.518 89.744C525.728 90.0955 525.833 90.527 525.833 91.0384C525.833 91.6278 525.678 92.1605 525.369 92.6364C525.064 93.1122 524.616 93.4904 524.027 93.771C523.441 94.0515 522.729 94.1918 521.891 94.1918C521.11 94.1918 520.433 94.0657 519.861 93.8136C519.293 93.5614 518.846 93.2099 518.519 92.7589C518.196 92.3079 518.013 91.7841 517.97 91.1875H519.334C519.37 91.5994 519.508 91.9403 519.75 92.2102C519.995 92.4766 520.304 92.6754 520.676 92.8068C521.053 92.9347 521.458 92.9986 521.891 92.9986C522.395 92.9986 522.848 92.9169 523.249 92.7536C523.65 92.5866 523.968 92.3558 524.203 92.0611C524.437 91.7628 524.554 91.4148 524.554 91.017C524.554 90.6548 524.453 90.3601 524.251 90.1328C524.048 89.9055 523.782 89.7209 523.452 89.5788C523.121 89.4368 522.764 89.3125 522.381 89.206L521.039 88.8224C520.186 88.5774 519.512 88.2276 519.014 87.7731C518.517 87.3185 518.269 86.7237 518.269 85.9886C518.269 85.3778 518.434 84.8452 518.764 84.3906C519.098 83.9325 519.545 83.5774 520.106 83.3253C520.671 83.0696 521.301 82.9418 521.997 82.9418C522.701 82.9418 523.326 83.0678 523.872 83.32C524.419 83.5685 524.853 83.9094 525.172 84.3427C525.495 84.7759 525.666 85.2678 525.684 85.8182H524.405ZM530.242 94.1918C529.723 94.1918 529.253 94.0941 528.83 93.8988C528.408 93.6999 528.072 93.4141 527.824 93.0412C527.575 92.6648 527.451 92.2102 527.451 91.6776C527.451 91.2088 527.543 90.8288 527.728 90.5376C527.912 90.2429 528.159 90.0121 528.468 89.8452C528.777 89.6783 529.118 89.554 529.491 89.4723C529.867 89.3871 530.245 89.3196 530.625 89.2699C531.123 89.206 531.526 89.158 531.835 89.1261C532.147 89.0906 532.374 89.032 532.516 88.9503C532.662 88.8686 532.735 88.7266 532.735 88.5241V88.4815C532.735 87.956 532.591 87.5476 532.303 87.2564C532.019 86.9652 531.588 86.8196 531.009 86.8196C530.409 86.8196 529.938 86.951 529.597 87.2138C529.256 87.4766 529.017 87.7571 528.878 88.0554L527.685 87.6293C527.898 87.1321 528.182 86.745 528.537 86.468C528.896 86.1875 529.287 85.9922 529.709 85.8821C530.135 85.7685 530.554 85.7116 530.966 85.7116C531.229 85.7116 531.531 85.7436 531.872 85.8075C532.216 85.8679 532.548 85.994 532.868 86.1857C533.191 86.3775 533.459 86.6669 533.672 87.054C533.885 87.4411 533.992 87.9595 533.992 88.6094V94H532.735V92.892H532.671C532.586 93.0696 532.444 93.2596 532.245 93.462C532.046 93.6644 531.781 93.8366 531.451 93.9787C531.121 94.1207 530.718 94.1918 530.242 94.1918ZM530.434 93.0625C530.931 93.0625 531.35 92.9648 531.691 92.7695C532.035 92.5742 532.294 92.3221 532.468 92.0131C532.646 91.7042 532.735 91.3793 532.735 91.0384V89.8878C532.681 89.9517 532.564 90.0103 532.383 90.0636C532.206 90.1133 532 90.1577 531.765 90.1967C531.534 90.2322 531.309 90.2642 531.089 90.2926C530.872 90.3175 530.696 90.3388 530.561 90.3565C530.235 90.3991 529.929 90.4684 529.645 90.5643C529.365 90.6566 529.137 90.7969 528.963 90.9851C528.793 91.1697 528.708 91.4219 528.708 91.7415C528.708 92.1783 528.869 92.5085 529.192 92.7322C529.519 92.9524 529.933 93.0625 530.434 93.0625ZM537.543 83.0909V94H536.286V83.0909H537.543ZM543.276 94.1705C542.488 94.1705 541.808 93.9964 541.236 93.6484C540.668 93.2969 540.229 92.8068 539.92 92.1783C539.615 91.5462 539.462 90.8111 539.462 89.973C539.462 89.1349 539.615 88.3963 539.92 87.7571C540.229 87.1143 540.659 86.6136 541.21 86.255C541.763 85.8928 542.41 85.7116 543.148 85.7116C543.575 85.7116 543.995 85.7827 544.411 85.9247C544.826 86.0668 545.205 86.2976 545.545 86.6172C545.886 86.9332 546.158 87.3523 546.36 87.8743C546.563 88.3963 546.664 89.0391 546.664 89.8026V90.3352H540.357V89.2486H545.386C545.386 88.7869 545.293 88.375 545.109 88.0128C544.928 87.6506 544.668 87.3647 544.331 87.1552C543.997 86.9457 543.603 86.8409 543.148 86.8409C542.648 86.8409 542.214 86.9652 541.849 87.2138C541.487 87.4588 541.208 87.7784 541.012 88.1726C540.817 88.5668 540.719 88.9893 540.719 89.4403V90.1648C540.719 90.7827 540.826 91.3065 541.039 91.7362C541.256 92.1623 541.556 92.4872 541.939 92.7109C542.323 92.9311 542.768 93.0412 543.276 93.0412C543.607 93.0412 543.905 92.995 544.171 92.9027C544.441 92.8068 544.674 92.6648 544.869 92.4766C545.064 92.2848 545.215 92.0469 545.322 91.7628L546.536 92.1037C546.408 92.5156 546.194 92.8778 545.892 93.1903C545.59 93.4993 545.217 93.7408 544.773 93.9148C544.329 94.0852 543.83 94.1705 543.276 94.1705ZM556.225 94.1705C555.437 94.1705 554.757 93.9964 554.185 93.6484C553.617 93.2969 553.179 92.8068 552.87 92.1783C552.564 91.5462 552.412 90.8111 552.412 89.973C552.412 89.1349 552.564 88.3963 552.87 87.7571C553.179 87.1143 553.608 86.6136 554.159 86.255C554.713 85.8928 555.359 85.7116 556.098 85.7116C556.524 85.7116 556.945 85.7827 557.36 85.9247C557.776 86.0668 558.154 86.2976 558.495 86.6172C558.836 86.9332 559.107 87.3523 559.31 87.8743C559.512 88.3963 559.613 89.0391 559.613 89.8026V90.3352H553.306V89.2486H558.335C558.335 88.7869 558.243 88.375 558.058 88.0128C557.877 87.6506 557.618 87.3647 557.28 87.1552C556.946 86.9457 556.552 86.8409 556.098 86.8409C555.597 86.8409 555.164 86.9652 554.798 87.2138C554.436 87.4588 554.157 87.7784 553.962 88.1726C553.766 88.5668 553.669 88.9893 553.669 89.4403V90.1648C553.669 90.7827 553.775 91.3065 553.988 91.7362C554.205 92.1623 554.505 92.4872 554.888 92.7109C555.272 92.9311 555.718 93.0412 556.225 93.0412C556.556 93.0412 556.854 92.995 557.12 92.9027C557.39 92.8068 557.623 92.6648 557.818 92.4766C558.013 92.2848 558.164 92.0469 558.271 91.7628L559.485 92.1037C559.358 92.5156 559.143 92.8778 558.841 93.1903C558.539 93.4993 558.166 93.7408 557.722 93.9148C557.278 94.0852 556.779 94.1705 556.225 94.1705ZM562.783 89.0781V94H561.526V85.8182H562.74V87.0966H562.847C563.038 86.6811 563.33 86.3473 563.72 86.0952C564.111 85.8395 564.615 85.7116 565.233 85.7116C565.787 85.7116 566.272 85.8253 566.687 86.0526C567.103 86.2763 567.426 86.6172 567.657 87.0753C567.887 87.5298 568.003 88.1051 568.003 88.8011V94H566.746V88.8864C566.746 88.2436 566.579 87.7429 566.245 87.3842C565.911 87.022 565.453 86.8409 564.871 86.8409C564.469 86.8409 564.111 86.9279 563.795 87.1019C563.482 87.2759 563.235 87.5298 563.054 87.8636C562.873 88.1974 562.783 88.6023 562.783 89.0781ZM573.389 94.1705C572.708 94.1705 572.106 93.9982 571.584 93.6538C571.062 93.3058 570.653 92.8157 570.359 92.1836C570.064 91.5479 569.916 90.7969 569.916 89.9304C569.916 89.071 570.064 88.3253 570.359 87.6932C570.653 87.0611 571.063 86.5728 571.589 86.2283C572.115 85.8839 572.722 85.7116 573.411 85.7116C573.943 85.7116 574.364 85.8004 574.673 85.978C574.986 86.152 575.224 86.3509 575.387 86.5746C575.554 86.7947 575.684 86.9759 575.776 87.1179H575.882V83.0909H577.139V94H575.925V92.7429H575.776C575.684 92.892 575.552 93.0803 575.382 93.3075C575.211 93.5312 574.968 93.7319 574.652 93.9094C574.336 94.0835 573.915 94.1705 573.389 94.1705ZM573.56 93.0412C574.064 93.0412 574.49 92.9098 574.838 92.647C575.186 92.3807 575.451 92.0131 575.632 91.5444C575.813 91.0721 575.904 90.527 575.904 89.9091C575.904 89.2983 575.815 88.7638 575.637 88.3058C575.46 87.8441 575.197 87.4854 574.849 87.2298C574.501 86.9705 574.071 86.8409 573.56 86.8409C573.027 86.8409 572.583 86.9776 572.228 87.2511C571.877 87.521 571.612 87.8885 571.435 88.3537C571.261 88.8153 571.174 89.3338 571.174 89.9091C571.174 90.4915 571.262 91.0206 571.44 91.4964C571.621 91.9687 571.887 92.3452 572.239 92.6257C572.594 92.9027 573.034 93.0412 573.56 93.0412ZM585.412 87.6506L584.283 87.9702C584.212 87.782 584.107 87.5991 583.968 87.4215C583.833 87.2404 583.649 87.0913 583.414 86.9741C583.18 86.8569 582.88 86.7983 582.514 86.7983C582.013 86.7983 581.596 86.9137 581.262 87.1445C580.932 87.3718 580.767 87.6612 580.767 88.0128C580.767 88.3253 580.881 88.5721 581.108 88.7532C581.335 88.9343 581.69 89.0852 582.173 89.206L583.388 89.5043C584.119 89.6818 584.664 89.9535 585.023 90.3192C585.382 90.6815 585.561 91.1484 585.561 91.7202C585.561 92.1889 585.426 92.608 585.156 92.9773C584.89 93.3466 584.517 93.6378 584.038 93.8509C583.558 94.0639 583.001 94.1705 582.365 94.1705C581.53 94.1705 580.84 93.9893 580.293 93.6271C579.746 93.2649 579.4 92.7358 579.254 92.0398L580.447 91.7415C580.561 92.1818 580.776 92.5121 581.092 92.7322C581.411 92.9524 581.829 93.0625 582.344 93.0625C582.93 93.0625 583.395 92.9382 583.739 92.6896C584.087 92.4375 584.261 92.1357 584.261 91.7841C584.261 91.5 584.162 91.2621 583.963 91.0703C583.764 90.875 583.459 90.7294 583.047 90.6335L581.683 90.3139C580.934 90.1364 580.383 89.8612 580.032 89.4883C579.684 89.1119 579.51 88.6413 579.51 88.0767C579.51 87.6151 579.639 87.2067 579.899 86.8516C580.161 86.4964 580.518 86.2177 580.969 86.0153C581.424 85.8129 581.939 85.7116 582.514 85.7116C583.324 85.7116 583.959 85.8892 584.421 86.2443C584.886 86.5994 585.217 87.0682 585.412 87.6506ZM591.672 94V85.8182H592.929V94H591.672ZM592.311 84.4545C592.066 84.4545 591.855 84.3711 591.677 84.2042C591.503 84.0373 591.416 83.8366 591.416 83.6023C591.416 83.3679 591.503 83.1673 591.677 83.0004C591.855 82.8335 592.066 82.75 592.311 82.75C592.556 82.75 592.766 82.8335 592.94 83.0004C593.117 83.1673 593.206 83.3679 593.206 83.6023C593.206 83.8366 593.117 84.0373 592.94 84.2042C592.766 84.3711 592.556 84.4545 592.311 84.4545ZM596.489 89.0781V94H595.232V85.8182H596.446V87.0966H596.553C596.744 86.6811 597.036 86.3473 597.426 86.0952C597.817 85.8395 598.321 85.7116 598.939 85.7116C599.493 85.7116 599.978 85.8253 600.393 86.0526C600.809 86.2763 601.132 86.6172 601.363 87.0753C601.593 87.5298 601.709 88.1051 601.709 88.8011V94H600.452V88.8864C600.452 88.2436 600.285 87.7429 599.951 87.3842C599.617 87.022 599.159 86.8409 598.577 86.8409C598.176 86.8409 597.817 86.9279 597.501 87.1019C597.188 87.2759 596.941 87.5298 596.76 87.8636C596.579 88.1974 596.489 88.6023 596.489 89.0781Z" fill="black"/>
<path d="M670.124 95H666.758V84.0909H670.273C671.331 84.0909 672.237 84.3093 672.99 84.7461C673.743 85.1793 674.32 85.8026 674.721 86.6158C675.122 87.4254 675.323 88.3949 675.323 89.5241C675.323 90.6605 675.12 91.6388 674.716 92.4592C674.311 93.2759 673.721 93.9045 672.947 94.3448C672.173 94.7816 671.232 95 670.124 95ZM668.079 93.8281H670.039C670.941 93.8281 671.688 93.6541 672.281 93.3061C672.874 92.9581 673.316 92.4627 673.608 91.82C673.899 91.1772 674.044 90.4119 674.044 89.5241C674.044 88.6435 673.901 87.8853 673.613 87.2496C673.325 86.6104 672.896 86.1204 672.324 85.7795C671.752 85.435 671.04 85.2628 670.188 85.2628H668.079V93.8281ZM679.776 95.1918C679.258 95.1918 678.787 95.0941 678.364 94.8988C677.942 94.6999 677.606 94.4141 677.358 94.0412C677.109 93.6648 676.985 93.2102 676.985 92.6776C676.985 92.2088 677.077 91.8288 677.262 91.5376C677.446 91.2429 677.693 91.0121 678.002 90.8452C678.311 90.6783 678.652 90.554 679.025 90.4723C679.401 90.3871 679.78 90.3196 680.16 90.2699C680.657 90.206 681.06 90.158 681.369 90.1261C681.681 90.0906 681.908 90.032 682.051 89.9503C682.196 89.8686 682.269 89.7266 682.269 89.5241V89.4815C682.269 88.956 682.125 88.5476 681.837 88.2564C681.553 87.9652 681.122 87.8196 680.543 87.8196C679.943 87.8196 679.472 87.951 679.131 88.2138C678.791 88.4766 678.551 88.7571 678.412 89.0554L677.219 88.6293C677.432 88.1321 677.716 87.745 678.071 87.468C678.43 87.1875 678.821 86.9922 679.243 86.8821C679.669 86.7685 680.089 86.7116 680.5 86.7116C680.763 86.7116 681.065 86.7436 681.406 86.8075C681.75 86.8679 682.082 86.994 682.402 87.1857C682.725 87.3775 682.993 87.6669 683.206 88.054C683.419 88.4411 683.526 88.9595 683.526 89.6094V95H682.269V93.892H682.205C682.12 94.0696 681.978 94.2596 681.779 94.462C681.58 94.6644 681.315 94.8366 680.985 94.9787C680.655 95.1207 680.252 95.1918 679.776 95.1918ZM679.968 94.0625C680.465 94.0625 680.884 93.9648 681.225 93.7695C681.569 93.5742 681.829 93.3221 682.003 93.0131C682.18 92.7042 682.269 92.3793 682.269 92.0384V90.8878C682.216 90.9517 682.098 91.0103 681.917 91.0636C681.74 91.1133 681.534 91.1577 681.299 91.1967C681.069 91.2322 680.843 91.2642 680.623 91.2926C680.406 91.3175 680.231 91.3388 680.096 91.3565C679.769 91.3991 679.464 91.4684 679.179 91.5643C678.899 91.6566 678.672 91.7969 678.498 91.9851C678.327 92.1697 678.242 92.4219 678.242 92.7415C678.242 93.1783 678.403 93.5085 678.727 93.7322C679.053 93.9524 679.467 94.0625 679.968 94.0625ZM686.337 98.0682C686.124 98.0682 685.934 98.0504 685.767 98.0149C685.6 97.983 685.485 97.951 685.421 97.919L685.741 96.8111C686.046 96.8892 686.316 96.9176 686.55 96.8963C686.785 96.875 686.992 96.7702 687.173 96.582C687.358 96.3974 687.527 96.0973 687.68 95.6818L687.914 95.0426L684.888 86.8182H686.252L688.51 93.3381H688.596L690.854 86.8182H692.218L688.745 96.1932C688.589 96.6158 688.395 96.9656 688.164 97.2425C687.933 97.5231 687.665 97.7308 687.36 97.8658C687.058 98.0007 686.717 98.0682 686.337 98.0682ZM699.673 88.6506L698.543 88.9702C698.472 88.782 698.368 88.5991 698.229 88.4215C698.094 88.2404 697.909 88.0913 697.675 87.9741C697.441 87.8569 697.141 87.7983 696.775 87.7983C696.274 87.7983 695.857 87.9137 695.523 88.1445C695.193 88.3718 695.028 88.6612 695.028 89.0128C695.028 89.3253 695.141 89.5721 695.369 89.7532C695.596 89.9343 695.951 90.0852 696.434 90.206L697.648 90.5043C698.38 90.6818 698.925 90.9535 699.284 91.3192C699.642 91.6815 699.822 92.1484 699.822 92.7202C699.822 93.1889 699.687 93.608 699.417 93.9773C699.151 94.3466 698.778 94.6378 698.298 94.8509C697.819 95.0639 697.261 95.1705 696.626 95.1705C695.791 95.1705 695.1 94.9893 694.554 94.6271C694.007 94.2649 693.661 93.7358 693.515 93.0398L694.708 92.7415C694.822 93.1818 695.037 93.5121 695.353 93.7322C695.672 93.9524 696.089 94.0625 696.604 94.0625C697.19 94.0625 697.656 93.9382 698 93.6896C698.348 93.4375 698.522 93.1357 698.522 92.7841C698.522 92.5 698.423 92.2621 698.224 92.0703C698.025 91.875 697.719 91.7294 697.308 91.6335L695.944 91.3139C695.195 91.1364 694.644 90.8612 694.293 90.4883C693.945 90.1119 693.771 89.6413 693.771 89.0767C693.771 88.6151 693.9 88.2067 694.159 87.8516C694.422 87.4964 694.779 87.2177 695.23 87.0153C695.685 86.8129 696.2 86.7116 696.775 86.7116C697.585 86.7116 698.22 86.8892 698.682 87.2443C699.147 87.5994 699.477 88.0682 699.673 88.6506Z" fill="black"/>
<path d="M762.56 95V84.0909H763.881V88.9489H769.698V84.0909H771.019V95H769.698V90.1207H763.881V95H762.56ZM773.493 95V86.8182H774.708V88.054H774.793C774.942 87.6491 775.212 87.3207 775.603 87.0685C775.993 86.8164 776.434 86.6903 776.924 86.6903C777.016 86.6903 777.131 86.6921 777.27 86.6957C777.408 86.6992 777.513 86.7045 777.584 86.7116V87.9901C777.542 87.9794 777.444 87.9634 777.291 87.9421C777.142 87.9173 776.984 87.9048 776.817 87.9048C776.419 87.9048 776.064 87.9883 775.752 88.1552C775.443 88.3185 775.198 88.5458 775.017 88.837C774.839 89.1246 774.75 89.4531 774.75 89.8224V95H773.493ZM784.87 88.6506L783.741 88.9702C783.67 88.782 783.565 88.5991 783.426 88.4215C783.291 88.2404 783.107 88.0913 782.872 87.9741C782.638 87.8569 782.338 87.7983 781.972 87.7983C781.471 87.7983 781.054 87.9137 780.72 88.1445C780.39 88.3718 780.225 88.6612 780.225 89.0128C780.225 89.3253 780.339 89.5721 780.566 89.7532C780.793 89.9343 781.148 90.0852 781.631 90.206L782.846 90.5043C783.577 90.6818 784.122 90.9535 784.481 91.3192C784.84 91.6815 785.019 92.1484 785.019 92.7202C785.019 93.1889 784.884 93.608 784.614 93.9773C784.348 94.3466 783.975 94.6378 783.496 94.8509C783.016 95.0639 782.459 95.1705 781.823 95.1705C780.988 95.1705 780.298 94.9893 779.751 94.6271C779.204 94.2649 778.858 93.7358 778.712 93.0398L779.905 92.7415C780.019 93.1818 780.234 93.5121 780.55 93.7322C780.869 93.9524 781.287 94.0625 781.802 94.0625C782.388 94.0625 782.853 93.9382 783.197 93.6896C783.545 93.4375 783.719 93.1357 783.719 92.7841C783.719 92.5 783.62 92.2621 783.421 92.0703C783.222 91.875 782.917 91.7294 782.505 91.6335L781.141 91.3139C780.392 91.1364 779.841 90.8612 779.49 90.4883C779.142 90.1119 778.968 89.6413 778.968 89.0767C778.968 88.6151 779.097 88.2067 779.357 87.8516C779.619 87.4964 779.976 87.2177 780.427 87.0153C780.882 86.8129 781.397 86.7116 781.972 86.7116C782.782 86.7116 783.417 86.8892 783.879 87.2443C784.344 87.5994 784.675 88.0682 784.87 88.6506Z" fill="black"/>
<path d="M847.563 84.0909H849.14L852.847 93.1463H852.975L856.683 84.0909H858.259V95H857.023V86.7116H856.917L853.508 95H852.315L848.906 86.7116H848.799V95H847.563V84.0909ZM860.737 95V86.8182H861.995V95H860.737ZM861.377 85.4545C861.132 85.4545 860.92 85.3711 860.743 85.2042C860.569 85.0373 860.482 84.8366 860.482 84.6023C860.482 84.3679 860.569 84.1673 860.743 84.0004C860.92 83.8335 861.132 83.75 861.377 83.75C861.622 83.75 861.831 83.8335 862.005 84.0004C862.183 84.1673 862.272 84.3679 862.272 84.6023C862.272 84.8366 862.183 85.0373 862.005 85.2042C861.831 85.3711 861.622 85.4545 861.377 85.4545ZM865.554 90.0781V95H864.297V86.8182H865.512V88.0966H865.618C865.81 87.6811 866.101 87.3473 866.492 87.0952C866.882 86.8395 867.387 86.7116 868.004 86.7116C868.558 86.7116 869.043 86.8253 869.459 87.0526C869.874 87.2763 870.197 87.6172 870.428 88.0753C870.659 88.5298 870.774 89.1051 870.774 89.8011V95H869.517V89.8864C869.517 89.2436 869.35 88.7429 869.017 88.3842C868.683 88.022 868.225 87.8409 867.642 87.8409C867.241 87.8409 866.882 87.9279 866.566 88.1019C866.254 88.2759 866.007 88.5298 865.826 88.8636C865.645 89.1974 865.554 89.6023 865.554 90.0781ZM878.867 88.6506L877.738 88.9702C877.667 88.782 877.562 88.5991 877.423 88.4215C877.288 88.2404 877.104 88.0913 876.869 87.9741C876.635 87.8569 876.335 87.7983 875.969 87.7983C875.468 87.7983 875.051 87.9137 874.717 88.1445C874.387 88.3718 874.222 88.6612 874.222 89.0128C874.222 89.3253 874.336 89.5721 874.563 89.7532C874.79 89.9343 875.145 90.0852 875.628 90.206L876.843 90.5043C877.574 90.6818 878.119 90.9535 878.478 91.3192C878.837 91.6815 879.016 92.1484 879.016 92.7202C879.016 93.1889 878.881 93.608 878.611 93.9773C878.345 94.3466 877.972 94.6378 877.493 94.8509C877.013 95.0639 876.456 95.1705 875.82 95.1705C874.986 95.1705 874.295 94.9893 873.748 94.6271C873.201 94.2649 872.855 93.7358 872.709 93.0398L873.902 92.7415C874.016 93.1818 874.231 93.5121 874.547 93.7322C874.867 93.9524 875.284 94.0625 875.799 94.0625C876.385 94.0625 876.85 93.9382 877.194 93.6896C877.542 93.4375 877.716 93.1357 877.716 92.7841C877.716 92.5 877.617 92.2621 877.418 92.0703C877.219 91.875 876.914 91.7294 876.502 91.6335L875.138 91.3139C874.389 91.1364 873.839 90.8612 873.487 90.4883C873.139 90.1119 872.965 89.6413 872.965 89.0767C872.965 88.6151 873.095 88.2067 873.354 87.8516C873.617 87.4964 873.973 87.2177 874.424 87.0153C874.879 86.8129 875.394 86.7116 875.969 86.7116C876.779 86.7116 877.415 86.8892 877.876 87.2443C878.341 87.5994 878.672 88.0682 878.867 88.6506Z" fill="black"/>
<path d="M943.531 86.8182C943.467 86.2784 943.208 85.8594 942.753 85.5611C942.299 85.2628 941.741 85.1136 941.081 85.1136C940.598 85.1136 940.175 85.1918 939.813 85.348C939.454 85.5043 939.174 85.7191 938.971 85.9925C938.773 86.266 938.673 86.5767 938.673 86.9247C938.673 87.2159 938.742 87.4663 938.881 87.6758C939.023 87.8817 939.204 88.054 939.424 88.1925C939.644 88.3274 939.875 88.4393 940.117 88.5281C940.358 88.6133 940.58 88.6825 940.782 88.7358L941.89 89.0341C942.175 89.1087 942.491 89.2116 942.839 89.343C943.19 89.4744 943.526 89.6538 943.845 89.881C944.169 90.1048 944.435 90.3924 944.644 90.744C944.854 91.0955 944.959 91.527 944.959 92.0384C944.959 92.6278 944.804 93.1605 944.495 93.6364C944.19 94.1122 943.742 94.4904 943.153 94.771C942.567 95.0515 941.855 95.1918 941.017 95.1918C940.236 95.1918 939.559 95.0657 938.987 94.8136C938.419 94.5614 937.972 94.2099 937.645 93.7589C937.322 93.3079 937.139 92.7841 937.096 92.1875H938.46C938.496 92.5994 938.634 92.9403 938.876 93.2102C939.121 93.4766 939.43 93.6754 939.802 93.8068C940.179 93.9347 940.584 93.9986 941.017 93.9986C941.521 93.9986 941.974 93.9169 942.375 93.7536C942.776 93.5866 943.094 93.3558 943.329 93.0611C943.563 92.7628 943.68 92.4148 943.68 92.017C943.68 91.6548 943.579 91.3601 943.377 91.1328C943.174 90.9055 942.908 90.7209 942.578 90.5788C942.247 90.4368 941.89 90.3125 941.507 90.206L940.165 89.8224C939.312 89.5774 938.638 89.2276 938.14 88.7731C937.643 88.3185 937.395 87.7237 937.395 86.9886C937.395 86.3778 937.56 85.8452 937.89 85.3906C938.224 84.9325 938.671 84.5774 939.232 84.3253C939.797 84.0696 940.427 83.9418 941.123 83.9418C941.827 83.9418 942.452 84.0678 942.998 84.32C943.545 84.5685 943.979 84.9094 944.298 85.3427C944.621 85.7759 944.792 86.2678 944.809 86.8182H943.531ZM950.391 95.1705C949.602 95.1705 948.922 94.9964 948.35 94.6484C947.782 94.2969 947.344 93.8068 947.035 93.1783C946.729 92.5462 946.577 91.8111 946.577 90.973C946.577 90.1349 946.729 89.3963 947.035 88.7571C947.344 88.1143 947.773 87.6136 948.324 87.255C948.878 86.8928 949.524 86.7116 950.263 86.7116C950.689 86.7116 951.11 86.7827 951.525 86.9247C951.941 87.0668 952.319 87.2976 952.66 87.6172C953.001 87.9332 953.272 88.3523 953.475 88.8743C953.677 89.3963 953.778 90.0391 953.778 90.8026V91.3352H947.472V90.2486H952.5C952.5 89.7869 952.408 89.375 952.223 89.0128C952.042 88.6506 951.783 88.3647 951.445 88.1552C951.111 87.9457 950.717 87.8409 950.263 87.8409C949.762 87.8409 949.329 87.9652 948.963 88.2138C948.601 88.4588 948.322 88.7784 948.127 89.1726C947.931 89.5668 947.834 89.9893 947.834 90.4403V91.1648C947.834 91.7827 947.94 92.3065 948.153 92.7362C948.37 93.1623 948.67 93.4872 949.054 93.7109C949.437 93.9311 949.883 94.0412 950.391 94.0412C950.721 94.0412 951.019 93.995 951.285 93.9027C951.555 93.8068 951.788 93.6648 951.983 93.4766C952.179 93.2848 952.329 93.0469 952.436 92.7628L953.65 93.1037C953.523 93.5156 953.308 93.8778 953.006 94.1903C952.704 94.4993 952.331 94.7408 951.887 94.9148C951.443 95.0852 950.945 95.1705 950.391 95.1705ZM959.014 95.1705C958.247 95.1705 957.587 94.9893 957.033 94.6271C956.479 94.2649 956.053 93.766 955.755 93.1303C955.456 92.4947 955.307 91.7685 955.307 90.9517C955.307 90.1207 955.46 89.3874 955.765 88.7518C956.074 88.1126 956.504 87.6136 957.054 87.255C957.608 86.8928 958.255 86.7116 958.993 86.7116C959.568 86.7116 960.087 86.8182 960.549 87.0312C961.01 87.2443 961.388 87.5426 961.683 87.9261C961.978 88.3097 962.161 88.7571 962.232 89.2685H960.975C960.879 88.8956 960.666 88.5653 960.335 88.2777C960.009 87.9865 959.568 87.8409 959.014 87.8409C958.524 87.8409 958.095 87.9687 957.725 88.2244C957.36 88.4766 957.074 88.8335 956.868 89.2951C956.665 89.7532 956.564 90.2912 956.564 90.9091C956.564 91.5412 956.664 92.0916 956.862 92.5604C957.065 93.0291 957.349 93.3931 957.715 93.6523C958.084 93.9116 958.517 94.0412 959.014 94.0412C959.341 94.0412 959.638 93.9844 959.904 93.8707C960.17 93.7571 960.396 93.5938 960.581 93.3807C960.765 93.1676 960.897 92.9119 960.975 92.6136H962.232C962.161 93.0966 961.985 93.5316 961.704 93.9187C961.427 94.3022 961.06 94.6076 960.602 94.8349C960.147 95.0586 959.618 95.1705 959.014 95.1705ZM969.865 88.6506L968.736 88.9702C968.665 88.782 968.56 88.5991 968.421 88.4215C968.286 88.2404 968.102 88.0913 967.867 87.9741C967.633 87.8569 967.333 87.7983 966.967 87.7983C966.467 87.7983 966.049 87.9137 965.715 88.1445C965.385 88.3718 965.22 88.6612 965.22 89.0128C965.22 89.3253 965.334 89.5721 965.561 89.7532C965.788 89.9343 966.143 90.0852 966.626 90.206L967.841 90.5043C968.572 90.6818 969.117 90.9535 969.476 91.3192C969.835 91.6815 970.014 92.1484 970.014 92.7202C970.014 93.1889 969.879 93.608 969.609 93.9773C969.343 94.3466 968.97 94.6378 968.491 94.8509C968.011 95.0639 967.454 95.1705 966.818 95.1705C965.984 95.1705 965.293 94.9893 964.746 94.6271C964.199 94.2649 963.853 93.7358 963.707 93.0398L964.9 92.7415C965.014 93.1818 965.229 93.5121 965.545 93.7322C965.865 93.9524 966.282 94.0625 966.797 94.0625C967.383 94.0625 967.848 93.9382 968.192 93.6896C968.54 93.4375 968.714 93.1357 968.714 92.7841C968.714 92.5 968.615 92.2621 968.416 92.0703C968.217 91.875 967.912 91.7294 967.5 91.6335L966.136 91.3139C965.387 91.1364 964.837 90.8612 964.485 90.4883C964.137 90.1119 963.963 89.6413 963.963 89.0767C963.963 88.6151 964.093 88.2067 964.352 87.8516C964.615 87.4964 964.972 87.2177 965.422 87.0153C965.877 86.8129 966.392 86.7116 966.967 86.7116C967.777 86.7116 968.413 86.8892 968.874 87.2443C969.339 87.5994 969.67 88.0682 969.865 88.6506Z" fill="black"/>
<rect x="615" y="76" width="21" height="27" rx="3" fill="#E9E9E9"/>
<rect x="640" y="76" width="21" height="27" rx="3" fill="#E9E9E9"/>
<rect x="705" y="76" width="21" height="27" rx="3" fill="#E9E9E9"/>
<rect x="730" y="76" width="21" height="27" rx="3" fill="#E9E9E9"/>
<rect x="795" y="76" width="21" height="27" rx="3" fill="#E9E9E9"/>
<rect x="820" y="76" width="21" height="27" rx="3" fill="#E9E9E9"/>
<rect x="885" y="76" width="21" height="27" rx="3" fill="#E9E9E9"/>
<rect x="910" y="76" width="21" height="27" rx="3" fill="#E9E9E9"/>
<path d="M626 95.1491C625.197 95.1491 624.514 94.9308 623.949 94.494C623.385 94.0536 622.953 93.4162 622.655 92.5817C622.357 91.7436 622.207 90.7315 622.207 89.5455C622.207 88.3665 622.357 87.3597 622.655 86.5252C622.957 85.6871 623.39 85.0479 623.955 84.6076C624.523 84.1637 625.205 83.9418 626 83.9418C626.795 83.9418 627.475 84.1637 628.04 84.6076C628.608 85.0479 629.042 85.6871 629.34 86.5252C629.642 87.3597 629.793 88.3665 629.793 89.5455C629.793 90.7315 629.643 91.7436 629.345 92.5817C629.047 93.4162 628.615 94.0536 628.051 94.494C627.486 94.9308 626.803 95.1491 626 95.1491ZM626 93.9773C626.795 93.9773 627.413 93.5937 627.854 92.8267C628.294 92.0597 628.514 90.9659 628.514 89.5455C628.514 88.6009 628.413 87.7965 628.211 87.1325C628.012 86.4684 627.724 85.9624 627.348 85.6143C626.975 85.2663 626.526 85.0923 626 85.0923C625.212 85.0923 624.596 85.4812 624.152 86.2589C623.708 87.033 623.486 88.1286 623.486 89.5455C623.486 90.4901 623.585 91.2926 623.784 91.9531C623.983 92.6136 624.269 93.1161 624.642 93.4606C625.018 93.805 625.471 93.9773 626 93.9773Z" fill="black"/>
<path d="M651.978 84.0909V95H650.657V85.4759H650.593L647.93 87.2443V85.902L650.657 84.0909H651.978Z" fill="black"/>
<path d="M737.588 95V94.0412L741.189 90.0994C741.612 89.6378 741.96 89.2365 742.233 88.8956C742.507 88.5511 742.709 88.228 742.84 87.9261C742.975 87.6207 743.043 87.3011 743.043 86.9673C743.043 86.5838 742.95 86.2518 742.766 85.9712C742.585 85.6907 742.336 85.4741 742.02 85.3214C741.704 85.1687 741.349 85.0923 740.955 85.0923C740.536 85.0923 740.17 85.1793 739.857 85.3533C739.548 85.5238 739.309 85.7635 739.138 86.0724C738.971 86.3814 738.888 86.7436 738.888 87.1591H737.631C737.631 86.5199 737.778 85.9588 738.073 85.4759C738.368 84.9929 738.769 84.6165 739.277 84.3466C739.788 84.0767 740.362 83.9418 740.997 83.9418C741.637 83.9418 742.203 84.0767 742.697 84.3466C743.19 84.6165 743.577 84.9805 743.858 85.4386C744.138 85.8967 744.279 86.4062 744.279 86.9673C744.279 87.3686 744.206 87.761 744.06 88.1445C743.918 88.5245 743.67 88.9489 743.314 89.4176C742.963 89.8828 742.475 90.451 741.85 91.1222L739.399 93.7429V93.8281H744.47V95H737.588Z" fill="black"/>
<path d="M716.978 84.0909V95H715.657V85.4759H715.593L712.93 87.2443V85.902L715.657 84.0909H716.978Z" fill="black"/>
<path d="M830.922 83.9418C831.37 83.9453 831.817 84.0305 832.264 84.1974C832.712 84.3643 833.12 84.6413 833.49 85.0284C833.859 85.4119 834.155 85.9357 834.379 86.5998C834.603 87.2638 834.715 88.0966 834.715 89.098C834.715 90.0675 834.622 90.9286 834.438 91.6815C834.257 92.4308 833.994 93.0629 833.649 93.5778C833.308 94.0927 832.893 94.4833 832.403 94.7496C831.916 95.016 831.366 95.1491 830.752 95.1491C830.141 95.1491 829.596 95.0284 829.116 94.7869C828.64 94.5419 828.25 94.2028 827.944 93.7695C827.643 93.3327 827.449 92.8267 827.364 92.2514H828.664C828.781 92.7521 829.013 93.1658 829.361 93.4925C829.713 93.8157 830.176 93.9773 830.752 93.9773C831.593 93.9773 832.257 93.6097 832.744 92.8746C833.234 92.1396 833.479 91.1009 833.479 89.7585H833.394C833.195 90.0568 832.959 90.3143 832.685 90.5309C832.412 90.7475 832.108 90.9144 831.774 91.0316C831.441 91.1488 831.085 91.2074 830.709 91.2074C830.084 91.2074 829.511 91.0529 828.989 90.744C828.47 90.4315 828.055 90.0036 827.742 89.4602C827.433 88.9134 827.279 88.2884 827.279 87.5852C827.279 86.9176 827.428 86.3068 827.726 85.7528C828.028 85.1953 828.451 84.7514 828.994 84.4212C829.541 84.0909 830.183 83.9311 830.922 83.9418ZM830.922 85.1136C830.475 85.1136 830.072 85.2255 829.713 85.4492C829.358 85.6694 829.076 85.9677 828.866 86.3441C828.66 86.717 828.557 87.1307 828.557 87.5852C828.557 88.0398 828.656 88.4535 828.855 88.8263C829.058 89.1957 829.333 89.4904 829.681 89.7106C830.033 89.9272 830.432 90.0355 830.879 90.0355C831.217 90.0355 831.531 89.9698 831.822 89.8384C832.114 89.7035 832.367 89.5206 832.584 89.2898C832.804 89.0554 832.976 88.7908 833.101 88.4961C833.225 88.1978 833.287 87.8871 833.287 87.5639C833.287 87.1378 833.184 86.7383 832.978 86.3654C832.776 85.9925 832.495 85.6907 832.137 85.4599C831.781 85.229 831.377 85.1136 830.922 85.1136Z" fill="black"/>
<path d="M920.922 83.9418C921.37 83.9453 921.817 84.0305 922.264 84.1974C922.712 84.3643 923.12 84.6413 923.49 85.0284C923.859 85.4119 924.155 85.9357 924.379 86.5998C924.603 87.2638 924.715 88.0966 924.715 89.098C924.715 90.0675 924.622 90.9286 924.438 91.6815C924.257 92.4308 923.994 93.0629 923.649 93.5778C923.308 94.0927 922.893 94.4833 922.403 94.7496C921.916 95.016 921.366 95.1491 920.752 95.1491C920.141 95.1491 919.596 95.0284 919.116 94.7869C918.64 94.5419 918.25 94.2028 917.944 93.7695C917.643 93.3327 917.449 92.8267 917.364 92.2514H918.664C918.781 92.7521 919.013 93.1658 919.361 93.4925C919.713 93.8157 920.176 93.9773 920.752 93.9773C921.593 93.9773 922.257 93.6097 922.744 92.8746C923.234 92.1396 923.479 91.1009 923.479 89.7585H923.394C923.195 90.0568 922.959 90.3143 922.685 90.5309C922.412 90.7475 922.108 90.9144 921.774 91.0316C921.441 91.1488 921.085 91.2074 920.709 91.2074C920.084 91.2074 919.511 91.0529 918.989 90.744C918.47 90.4315 918.055 90.0036 917.742 89.4602C917.433 88.9134 917.279 88.2884 917.279 87.5852C917.279 86.9176 917.428 86.3068 917.726 85.7528C918.028 85.1953 918.451 84.7514 918.994 84.4212C919.541 84.0909 920.183 83.9311 920.922 83.9418ZM920.922 85.1136C920.475 85.1136 920.072 85.2255 919.713 85.4492C919.358 85.6694 919.076 85.9677 918.866 86.3441C918.66 86.717 918.557 87.1307 918.557 87.5852C918.557 88.0398 918.656 88.4535 918.855 88.8263C919.058 89.1957 919.333 89.4904 919.681 89.7106C920.033 89.9272 920.432 90.0355 920.879 90.0355C921.217 90.0355 921.531 89.9698 921.822 89.8384C922.114 89.7035 922.367 89.5206 922.584 89.2898C922.804 89.0554 922.976 88.7908 923.101 88.4961C923.225 88.1978 923.287 87.8871 923.287 87.5639C923.287 87.1378 923.184 86.7383 922.978 86.3654C922.776 85.9925 922.495 85.6907 922.137 85.4599C921.781 85.229 921.377 85.1136 920.922 85.1136Z" fill="black"/>
<path d="M892.588 95V94.0412L896.189 90.0994C896.612 89.6378 896.96 89.2365 897.233 88.8956C897.507 88.5511 897.709 88.228 897.84 87.9261C897.975 87.6207 898.043 87.3011 898.043 86.9673C898.043 86.5838 897.95 86.2518 897.766 85.9712C897.585 85.6907 897.336 85.4741 897.02 85.3214C896.704 85.1687 896.349 85.0923 895.955 85.0923C895.536 85.0923 895.17 85.1793 894.857 85.3533C894.548 85.5238 894.309 85.7635 894.138 86.0724C893.971 86.3814 893.888 86.7436 893.888 87.1591H892.631C892.631 86.5199 892.778 85.9588 893.073 85.4759C893.368 84.9929 893.769 84.6165 894.277 84.3466C894.788 84.0767 895.362 83.9418 895.997 83.9418C896.637 83.9418 897.203 84.0767 897.697 84.3466C898.19 84.6165 898.577 84.9805 898.858 85.4386C899.138 85.8967 899.279 86.4062 899.279 86.9673C899.279 87.3686 899.206 87.761 899.06 88.1445C898.918 88.5245 898.67 88.9489 898.314 89.4176C897.963 89.8828 897.475 90.451 896.85 91.1222L894.399 93.7429V93.8281H899.47V95H892.588Z" fill="black"/>
<path d="M806.04 95.1491C805.337 95.1491 804.71 95.0284 804.16 94.7869C803.613 94.5455 803.178 94.2099 802.855 93.7802C802.535 93.3469 802.361 92.8445 802.333 92.2727H803.675C803.703 92.6243 803.824 92.9279 804.037 93.1836C804.25 93.4357 804.529 93.631 804.873 93.7695C805.218 93.908 805.6 93.9773 806.019 93.9773C806.487 93.9773 806.903 93.8956 807.265 93.7322C807.627 93.5689 807.911 93.3416 808.117 93.0504C808.323 92.7592 808.426 92.4219 808.426 92.0384C808.426 91.6371 808.327 91.2837 808.128 90.9783C807.929 90.6694 807.638 90.4279 807.254 90.2539C806.871 90.0799 806.402 89.9929 805.848 89.9929H804.975V88.821H805.848C806.281 88.821 806.661 88.7429 806.988 88.5866C807.318 88.4304 807.576 88.2102 807.76 87.9261C807.949 87.642 808.043 87.3082 808.043 86.9247C808.043 86.5554 807.961 86.234 807.798 85.9606C807.634 85.6871 807.404 85.4741 807.105 85.3214C806.811 85.1687 806.463 85.0923 806.061 85.0923C805.685 85.0923 805.33 85.1616 804.996 85.3001C804.666 85.435 804.396 85.6321 804.186 85.8913C803.977 86.147 803.863 86.456 803.845 86.8182H802.567C802.588 86.2464 802.76 85.7457 803.084 85.3161C803.407 84.8828 803.829 84.5455 804.351 84.304C804.877 84.0625 805.454 83.9418 806.083 83.9418C806.757 83.9418 807.336 84.0785 807.819 84.3519C808.302 84.6218 808.673 84.9787 808.932 85.4226C809.192 85.8665 809.321 86.3459 809.321 86.8608C809.321 87.4751 809.16 87.9989 808.836 88.4322C808.517 88.8654 808.082 89.1655 807.531 89.3324V89.4176C808.22 89.5312 808.758 89.8242 809.145 90.2965C809.532 90.7653 809.726 91.3459 809.726 92.0384C809.726 92.6314 809.564 93.1641 809.241 93.6364C808.922 94.1051 808.485 94.4744 807.931 94.7443C807.377 95.0142 806.747 95.1491 806.04 95.1491Z" fill="black"/>
</svg>
