<svg width="1440" height="96" viewBox="0 0 1440 96" fill="none" xmlns="http://www.w3.org/2000/svg">
<rect width="1440" height="96" fill="white"/>
<path d="M370.891 35.7898V17.6719H375.557V19.3551H372.922V34.1065H375.557V35.7898H370.891ZM379.963 19.4545V34H377.768V19.4545H379.963ZM385.112 27.5227V34H382.988V23.0909H385.026V24.8665H385.161C385.412 24.2888 385.805 23.8248 386.34 23.4744C386.88 23.1241 387.56 22.9489 388.379 22.9489C389.122 22.9489 389.773 23.1051 390.332 23.4176C390.891 23.7254 391.324 24.1847 391.632 24.7955C391.939 25.4062 392.093 26.1615 392.093 27.0611V34H389.97V27.3168C389.97 26.526 389.764 25.9081 389.352 25.4631C388.94 25.0133 388.374 24.7884 387.654 24.7884C387.162 24.7884 386.724 24.8949 386.34 25.108C385.962 25.321 385.661 25.6335 385.438 26.0455C385.221 26.4527 385.112 26.9451 385.112 27.5227ZM403.116 25.7543L401.191 26.0952C401.111 25.849 400.983 25.6146 400.808 25.392C400.637 25.1695 400.405 24.9872 400.112 24.8452C399.818 24.7031 399.451 24.6321 399.011 24.6321C398.41 24.6321 397.908 24.767 397.505 25.0369C397.103 25.3021 396.901 25.6454 396.901 26.0668C396.901 26.4313 397.036 26.7249 397.306 26.9474C397.576 27.17 398.012 27.3523 398.613 27.4943L400.346 27.892C401.35 28.1241 402.098 28.4815 402.59 28.9645C403.083 29.4474 403.329 30.0748 403.329 30.8466C403.329 31.5 403.14 32.0824 402.761 32.5938C402.387 33.1004 401.864 33.4981 401.191 33.7869C400.524 34.0758 399.749 34.2202 398.869 34.2202C397.647 34.2202 396.651 33.9598 395.879 33.4389C395.107 32.9134 394.633 32.1676 394.458 31.2017L396.511 30.8892C396.639 31.4242 396.901 31.8291 397.299 32.1037C397.697 32.3736 398.215 32.5085 398.855 32.5085C399.551 32.5085 400.107 32.3641 400.524 32.0753C400.94 31.7817 401.149 31.4242 401.149 31.0028C401.149 30.6619 401.021 30.3755 400.765 30.1435C400.514 29.9115 400.128 29.7363 399.607 29.6179L397.761 29.2131C396.743 28.9811 395.99 28.6117 395.502 28.1051C395.019 27.5985 394.778 26.9569 394.778 26.1804C394.778 25.5365 394.958 24.973 395.318 24.4901C395.677 24.0071 396.175 23.6307 396.809 23.3608C397.444 23.0862 398.17 22.9489 398.99 22.9489C400.169 22.9489 401.097 23.2045 401.774 23.7159C402.451 24.2225 402.898 24.902 403.116 25.7543ZM410.366 34.2202C409.291 34.2202 408.365 33.9905 407.589 33.5312C406.817 33.0672 406.22 32.4162 405.799 31.5781C405.382 30.7353 405.174 29.7481 405.174 28.6165C405.174 27.4991 405.382 26.5142 405.799 25.6619C406.22 24.8097 406.807 24.1444 407.56 23.6662C408.318 23.188 409.203 22.9489 410.216 22.9489C410.832 22.9489 411.429 23.0507 412.006 23.2543C412.584 23.4579 413.102 23.7775 413.562 24.2131C414.021 24.6487 414.383 25.2145 414.648 25.9105C414.913 26.6018 415.046 27.4422 415.046 28.4318V29.1847H406.374V27.5938H412.965C412.965 27.035 412.851 26.5402 412.624 26.1094C412.397 25.6738 412.077 25.3305 411.665 25.0795C411.258 24.8286 410.78 24.7031 410.231 24.7031C409.634 24.7031 409.113 24.8499 408.668 25.1435C408.228 25.4323 407.887 25.8111 407.645 26.2798C407.409 26.7438 407.29 27.2481 407.29 27.7926V29.0355C407.29 29.7647 407.418 30.3849 407.674 30.8963C407.934 31.4077 408.296 31.7983 408.76 32.0682C409.224 32.3333 409.767 32.4659 410.387 32.4659C410.789 32.4659 411.156 32.4091 411.488 32.2955C411.819 32.1771 412.106 32.0019 412.347 31.7699C412.589 31.5379 412.773 31.2514 412.901 30.9105L414.911 31.2727C414.75 31.8646 414.461 32.383 414.045 32.8281C413.633 33.2685 413.114 33.6117 412.489 33.858C411.869 34.0994 411.161 34.2202 410.366 34.2202ZM417.402 34V23.0909H419.455V24.8239H419.568C419.767 24.2367 420.118 23.7751 420.619 23.4389C421.126 23.098 421.699 22.9276 422.338 22.9276C422.471 22.9276 422.627 22.9323 422.807 22.9418C422.992 22.9512 423.136 22.9631 423.24 22.9773V25.0085C423.155 24.9848 423.003 24.9588 422.786 24.9304C422.568 24.8973 422.35 24.8807 422.132 24.8807C421.63 24.8807 421.183 24.9872 420.79 25.2003C420.402 25.4086 420.094 25.6998 419.867 26.0739C419.639 26.4432 419.526 26.8646 419.526 27.3381V34H417.402ZM430.815 23.0909V24.7955H424.856V23.0909H430.815ZM426.454 20.4773H428.578V30.7969C428.578 31.2088 428.639 31.5189 428.762 31.7273C428.885 31.9309 429.044 32.0705 429.238 32.1463C429.437 32.2173 429.652 32.2528 429.884 32.2528C430.055 32.2528 430.204 32.241 430.332 32.2173C430.46 32.1937 430.559 32.1747 430.63 32.1605L431.014 33.9148C430.891 33.9621 430.715 34.0095 430.488 34.0568C430.261 34.1089 429.977 34.1373 429.636 34.142C429.077 34.1515 428.556 34.0521 428.073 33.8438C427.59 33.6354 427.2 33.3134 426.901 32.8778C426.603 32.4422 426.454 31.8954 426.454 31.2372V20.4773ZM446.561 23.2756C446.485 22.6032 446.172 22.0824 445.623 21.7131C445.074 21.339 444.383 21.152 443.549 21.152C442.953 21.152 442.436 21.2467 442.001 21.4361C441.565 21.6207 441.227 21.8764 440.985 22.2031C440.749 22.5251 440.63 22.892 440.63 23.304C440.63 23.6496 440.711 23.9479 440.872 24.1989C441.037 24.4498 441.253 24.6605 441.518 24.831C441.788 24.9967 442.077 25.1364 442.384 25.25C442.692 25.3589 442.988 25.4489 443.272 25.5199L444.693 25.8892C445.157 26.0028 445.633 26.1567 446.12 26.3509C446.608 26.545 447.06 26.8007 447.477 27.1179C447.893 27.4351 448.23 27.8281 448.485 28.2969C448.746 28.7656 448.876 29.3267 448.876 29.9801C448.876 30.804 448.663 31.5355 448.237 32.1747C447.815 32.8139 447.202 33.3182 446.397 33.6875C445.597 34.0568 444.629 34.2415 443.492 34.2415C442.403 34.2415 441.461 34.0687 440.666 33.723C439.87 33.3774 439.248 32.8873 438.798 32.2528C438.348 31.6136 438.099 30.8561 438.052 29.9801H440.254C440.296 30.5057 440.467 30.9437 440.765 31.294C441.068 31.6397 441.454 31.8977 441.923 32.0682C442.396 32.2339 442.915 32.3168 443.478 32.3168C444.098 32.3168 444.65 32.2197 445.133 32.0256C445.621 31.8267 446.004 31.5521 446.284 31.2017C446.563 30.8466 446.703 30.4323 446.703 29.9588C446.703 29.5279 446.579 29.1752 446.333 28.9006C446.092 28.6259 445.763 28.3987 445.346 28.2188C444.934 28.0388 444.468 27.8802 443.947 27.7429L442.228 27.2741C441.063 26.9569 440.14 26.4905 439.458 25.875C438.781 25.2595 438.443 24.4451 438.443 23.4318C438.443 22.5937 438.67 21.8622 439.124 21.2372C439.579 20.6122 440.195 20.1269 440.971 19.7812C441.748 19.4309 442.624 19.2557 443.599 19.2557C444.584 19.2557 445.453 19.4285 446.205 19.7741C446.963 20.1198 447.56 20.5956 447.995 21.2017C448.431 21.803 448.658 22.4943 448.677 23.2756H446.561ZM454.503 34.2415C453.811 34.2415 453.186 34.1136 452.628 33.858C452.069 33.5975 451.626 33.2211 451.3 32.7287C450.978 32.2363 450.817 31.6326 450.817 30.9176C450.817 30.3021 450.935 29.7955 451.172 29.3977C451.408 29 451.728 28.6851 452.131 28.4531C452.533 28.2211 452.983 28.0459 453.48 27.9276C453.977 27.8092 454.484 27.7192 455 27.6577C455.653 27.5819 456.184 27.5204 456.591 27.473C456.998 27.4209 457.294 27.3381 457.479 27.2244C457.663 27.1108 457.756 26.9261 457.756 26.6705V26.6207C457.756 26.0005 457.58 25.5199 457.23 25.179C456.884 24.8381 456.368 24.6676 455.682 24.6676C454.967 24.6676 454.403 24.8262 453.991 25.1435C453.584 25.456 453.302 25.804 453.146 26.1875L451.15 25.733C451.387 25.0701 451.733 24.535 452.187 24.1278C452.647 23.7159 453.175 23.4176 453.771 23.233C454.368 23.0436 454.995 22.9489 455.653 22.9489C456.089 22.9489 456.55 23.0009 457.038 23.1051C457.531 23.2045 457.99 23.3892 458.416 23.6591C458.847 23.929 459.2 24.3149 459.474 24.8168C459.749 25.3139 459.886 25.9602 459.886 26.7557V34H457.812V32.5085H457.727C457.59 32.7831 457.384 33.053 457.109 33.3182C456.835 33.5833 456.482 33.8035 456.051 33.9787C455.62 34.1539 455.104 34.2415 454.503 34.2415ZM454.964 32.5369C455.551 32.5369 456.053 32.4209 456.47 32.1889C456.891 31.9569 457.211 31.6539 457.429 31.2798C457.651 30.901 457.763 30.4962 457.763 30.0653V28.6591C457.687 28.7348 457.54 28.8059 457.322 28.8722C457.109 28.9337 456.865 28.9882 456.591 29.0355C456.316 29.0781 456.049 29.1184 455.788 29.1562C455.528 29.1894 455.31 29.2178 455.135 29.2415C454.723 29.2936 454.346 29.3812 454.006 29.5043C453.669 29.6274 453.399 29.8049 453.196 30.0369C452.997 30.2642 452.898 30.5672 452.898 30.946C452.898 31.4716 453.092 31.8693 453.48 32.1392C453.868 32.4044 454.363 32.5369 454.964 32.5369ZM464.838 19.4545V34H462.715V19.4545H464.838ZM472.397 34.2202C471.322 34.2202 470.396 33.9905 469.62 33.5312C468.848 33.0672 468.251 32.4162 467.83 31.5781C467.413 30.7353 467.205 29.7481 467.205 28.6165C467.205 27.4991 467.413 26.5142 467.83 25.6619C468.251 24.8097 468.839 24.1444 469.591 23.6662C470.349 23.188 471.234 22.9489 472.248 22.9489C472.863 22.9489 473.46 23.0507 474.037 23.2543C474.615 23.4579 475.134 23.7775 475.593 24.2131C476.052 24.6487 476.414 25.2145 476.68 25.9105C476.945 26.6018 477.077 27.4422 477.077 28.4318V29.1847H468.405V27.5938H474.996C474.996 27.035 474.883 26.5402 474.655 26.1094C474.428 25.6738 474.108 25.3305 473.697 25.0795C473.289 24.8286 472.811 24.7031 472.262 24.7031C471.665 24.7031 471.144 24.8499 470.699 25.1435C470.259 25.4323 469.918 25.8111 469.677 26.2798C469.44 26.7438 469.322 27.2481 469.322 27.7926V29.0355C469.322 29.7647 469.449 30.3849 469.705 30.8963C469.965 31.4077 470.328 31.7983 470.792 32.0682C471.256 32.3333 471.798 32.4659 472.418 32.4659C472.821 32.4659 473.188 32.4091 473.519 32.2955C473.85 32.1771 474.137 32.0019 474.378 31.7699C474.62 31.5379 474.805 31.2514 474.932 30.9105L476.942 31.2727C476.781 31.8646 476.492 32.383 476.076 32.8281C475.664 33.2685 475.145 33.6117 474.52 33.858C473.9 34.0994 473.192 34.2202 472.397 34.2202ZM496.637 19.4545V34H494.62L487.226 23.3324H487.091V34H484.897V19.4545H486.928L494.329 30.1364H494.464V19.4545H496.637ZM502.843 34.2415C502.151 34.2415 501.526 34.1136 500.968 33.858C500.409 33.5975 499.966 33.2211 499.639 32.7287C499.317 32.2363 499.156 31.6326 499.156 30.9176C499.156 30.3021 499.275 29.7955 499.512 29.3977C499.748 29 500.068 28.6851 500.47 28.4531C500.873 28.2211 501.323 28.0459 501.82 27.9276C502.317 27.8092 502.824 27.7192 503.34 27.6577C503.993 27.5819 504.523 27.5204 504.931 27.473C505.338 27.4209 505.634 27.3381 505.818 27.2244C506.003 27.1108 506.095 26.9261 506.095 26.6705V26.6207C506.095 26.0005 505.92 25.5199 505.57 25.179C505.224 24.8381 504.708 24.6676 504.021 24.6676C503.307 24.6676 502.743 24.8262 502.331 25.1435C501.924 25.456 501.642 25.804 501.486 26.1875L499.49 25.733C499.727 25.0701 500.073 24.535 500.527 24.1278C500.986 23.7159 501.514 23.4176 502.111 23.233C502.708 23.0436 503.335 22.9489 503.993 22.9489C504.429 22.9489 504.89 23.0009 505.378 23.1051C505.87 23.2045 506.33 23.3892 506.756 23.6591C507.187 23.929 507.539 24.3149 507.814 24.8168C508.089 25.3139 508.226 25.9602 508.226 26.7557V34H506.152V32.5085H506.067C505.93 32.7831 505.724 33.053 505.449 33.3182C505.174 33.5833 504.822 33.8035 504.391 33.9787C503.96 34.1539 503.444 34.2415 502.843 34.2415ZM503.304 32.5369C503.891 32.5369 504.393 32.4209 504.81 32.1889C505.231 31.9569 505.551 31.6539 505.769 31.2798C505.991 30.901 506.102 30.4962 506.102 30.0653V28.6591C506.027 28.7348 505.88 28.8059 505.662 28.8722C505.449 28.9337 505.205 28.9882 504.931 29.0355C504.656 29.0781 504.388 29.1184 504.128 29.1562C503.868 29.1894 503.65 29.2178 503.475 29.2415C503.063 29.2936 502.686 29.3812 502.345 29.5043C502.009 29.6274 501.739 29.8049 501.536 30.0369C501.337 30.2642 501.237 30.5672 501.237 30.946C501.237 31.4716 501.432 31.8693 501.82 32.1392C502.208 32.4044 502.703 32.5369 503.304 32.5369ZM511.055 34V23.0909H513.093V24.8665H513.228C513.455 24.2652 513.827 23.7964 514.343 23.4602C514.859 23.1193 515.477 22.9489 516.197 22.9489C516.926 22.9489 517.537 23.1193 518.029 23.4602C518.526 23.8011 518.893 24.2699 519.13 24.8665H519.243C519.504 24.2841 519.918 23.8201 520.486 23.4744C521.055 23.1241 521.732 22.9489 522.518 22.9489C523.507 22.9489 524.314 23.259 524.939 23.8793C525.569 24.4995 525.884 25.4347 525.884 26.6847V34H523.76V26.8835C523.76 26.1449 523.559 25.6098 523.157 25.2784C522.754 24.947 522.274 24.7812 521.715 24.7812C521.024 24.7812 520.486 24.9943 520.103 25.4205C519.719 25.8419 519.528 26.384 519.528 27.0469V34H517.411V26.7486C517.411 26.1567 517.226 25.6809 516.857 25.321C516.488 24.9612 516.007 24.7812 515.415 24.7812C515.013 24.7812 514.641 24.8878 514.3 25.1009C513.964 25.3092 513.692 25.6004 513.483 25.9744C513.28 26.3485 513.178 26.7817 513.178 27.2741V34H511.055ZM533.432 34.2202C532.357 34.2202 531.432 33.9905 530.655 33.5312C529.883 33.0672 529.287 32.4162 528.865 31.5781C528.449 30.7353 528.24 29.7481 528.24 28.6165C528.24 27.4991 528.449 26.5142 528.865 25.6619C529.287 24.8097 529.874 24.1444 530.627 23.6662C531.384 23.188 532.27 22.9489 533.283 22.9489C533.898 22.9489 534.495 23.0507 535.073 23.2543C535.65 23.4579 536.169 23.7775 536.628 24.2131C537.087 24.6487 537.45 25.2145 537.715 25.9105C537.98 26.6018 538.112 27.4422 538.112 28.4318V29.1847H529.441V27.5938H536.031C536.031 27.035 535.918 26.5402 535.691 26.1094C535.463 25.6738 535.144 25.3305 534.732 25.0795C534.325 24.8286 533.846 24.7031 533.297 24.7031C532.7 24.7031 532.18 24.8499 531.735 25.1435C531.294 25.4323 530.953 25.8111 530.712 26.2798C530.475 26.7438 530.357 27.2481 530.357 27.7926V29.0355C530.357 29.7647 530.485 30.3849 530.74 30.8963C531.001 31.4077 531.363 31.7983 531.827 32.0682C532.291 32.3333 532.833 32.4659 533.453 32.4659C533.856 32.4659 534.223 32.4091 534.554 32.2955C534.886 32.1771 535.172 32.0019 535.414 31.7699C535.655 31.5379 535.84 31.2514 535.968 30.9105L537.977 31.2727C537.816 31.8646 537.528 32.383 537.111 32.8281C536.699 33.2685 536.181 33.6117 535.556 33.858C534.935 34.0994 534.227 34.2202 533.432 34.2202ZM544.318 18.9077V37.0256H539.652V35.3423H542.287V20.5909H539.652V18.9077H544.318ZM553.32 34V23.0909H555.444V34H553.32ZM554.393 21.4077C554.023 21.4077 553.706 21.2846 553.441 21.0384C553.18 20.7874 553.05 20.4891 553.05 20.1435C553.05 19.7931 553.18 19.4948 553.441 19.2486C553.706 18.9976 554.023 18.8722 554.393 18.8722C554.762 18.8722 555.077 18.9976 555.337 19.2486C555.602 19.4948 555.735 19.7931 555.735 20.1435C555.735 20.4891 555.602 20.7874 555.337 21.0384C555.077 21.2846 554.762 21.4077 554.393 21.4077ZM566.475 25.7543L564.551 26.0952C564.47 25.849 564.342 25.6146 564.167 25.392C563.997 25.1695 563.765 24.9872 563.471 24.8452C563.177 24.7031 562.811 24.6321 562.37 24.6321C561.769 24.6321 561.267 24.767 560.865 25.0369C560.462 25.3021 560.261 25.6454 560.261 26.0668C560.261 26.4313 560.396 26.7249 560.666 26.9474C560.936 27.17 561.371 27.3523 561.972 27.4943L563.705 27.892C564.709 28.1241 565.457 28.4815 565.95 28.9645C566.442 29.4474 566.688 30.0748 566.688 30.8466C566.688 31.5 566.499 32.0824 566.12 32.5938C565.746 33.1004 565.223 33.4981 564.551 33.7869C563.883 34.0758 563.109 34.2202 562.228 34.2202C561.007 34.2202 560.01 33.9598 559.238 33.4389C558.466 32.9134 557.993 32.1676 557.818 31.2017L559.87 30.8892C559.998 31.4242 560.261 31.8291 560.659 32.1037C561.056 32.3736 561.575 32.5085 562.214 32.5085C562.91 32.5085 563.466 32.3641 563.883 32.0753C564.3 31.7817 564.508 31.4242 564.508 31.0028C564.508 30.6619 564.38 30.3755 564.124 30.1435C563.874 29.9115 563.488 29.7363 562.967 29.6179L561.12 29.2131C560.102 28.9811 559.349 28.6117 558.862 28.1051C558.379 27.5985 558.137 26.9569 558.137 26.1804C558.137 25.5365 558.317 24.973 558.677 24.4901C559.037 24.0071 559.534 23.6307 560.169 23.3608C560.803 23.0862 561.53 22.9489 562.349 22.9489C563.528 22.9489 564.456 23.2045 565.133 23.7159C565.81 24.2225 566.258 24.902 566.475 25.7543ZM576.44 19.4545V34H574.316V19.4545H576.44ZM579.297 34V23.0909H581.42V34H579.297ZM580.369 21.4077C580 21.4077 579.683 21.2846 579.417 21.0384C579.157 20.7874 579.027 20.4891 579.027 20.1435C579.027 19.7931 579.157 19.4948 579.417 19.2486C579.683 18.9976 580 18.8722 580.369 18.8722C580.738 18.8722 581.053 18.9976 581.314 19.2486C581.579 19.4948 581.711 19.7931 581.711 20.1435C581.711 20.4891 581.579 20.7874 581.314 21.0384C581.053 21.2846 580.738 21.4077 580.369 21.4077ZM593.61 23.0909L589.654 34H587.381L583.418 23.0909H585.698L588.46 31.4858H588.574L591.33 23.0909H593.61ZM599.936 34.2202C598.861 34.2202 597.935 33.9905 597.159 33.5312C596.387 33.0672 595.791 32.4162 595.369 31.5781C594.952 30.7353 594.744 29.7481 594.744 28.6165C594.744 27.4991 594.952 26.5142 595.369 25.6619C595.791 24.8097 596.378 24.1444 597.131 23.6662C597.888 23.188 598.773 22.9489 599.787 22.9489C600.402 22.9489 600.999 23.0507 601.577 23.2543C602.154 23.4579 602.673 23.7775 603.132 24.2131C603.591 24.6487 603.953 25.2145 604.219 25.9105C604.484 26.6018 604.616 27.4422 604.616 28.4318V29.1847H595.944V27.5938H602.535C602.535 27.035 602.422 26.5402 602.194 26.1094C601.967 25.6738 601.648 25.3305 601.236 25.0795C600.828 24.8286 600.35 24.7031 599.801 24.7031C599.204 24.7031 598.684 24.8499 598.238 25.1435C597.798 25.4323 597.457 25.8111 597.216 26.2798C596.979 26.7438 596.861 27.2481 596.861 27.7926V29.0355C596.861 29.7647 596.988 30.3849 597.244 30.8963C597.505 31.4077 597.867 31.7983 598.331 32.0682C598.795 32.3333 599.337 32.4659 599.957 32.4659C600.36 32.4659 600.727 32.4091 601.058 32.2955C601.39 32.1771 601.676 32.0019 601.917 31.7699C602.159 31.5379 602.344 31.2514 602.471 30.9105L604.481 31.2727C604.32 31.8646 604.032 32.383 603.615 32.8281C603.203 33.2685 602.684 33.6117 602.059 33.858C601.439 34.0994 600.731 34.2202 599.936 34.2202ZM614.389 27.5227V34H612.265V23.0909H614.304V24.8665H614.439C614.69 24.2888 615.083 23.8248 615.618 23.4744C616.157 23.1241 616.837 22.9489 617.656 22.9489C618.399 22.9489 619.05 23.1051 619.609 23.4176C620.168 23.7254 620.601 24.1847 620.909 24.7955C621.217 25.4062 621.371 26.1615 621.371 27.0611V34H619.247V27.3168C619.247 26.526 619.041 25.9081 618.629 25.4631C618.217 25.0133 617.651 24.7884 616.932 24.7884C616.439 24.7884 616.001 24.8949 615.618 25.108C615.239 25.321 614.938 25.6335 614.716 26.0455C614.498 26.4527 614.389 26.9451 614.389 27.5227ZM628.814 34.2202C627.791 34.2202 626.898 33.9858 626.136 33.517C625.374 33.0483 624.782 32.3925 624.361 31.5497C623.939 30.7069 623.729 29.7221 623.729 28.5952C623.729 27.4635 623.939 26.474 624.361 25.6264C624.782 24.7789 625.374 24.1207 626.136 23.652C626.898 23.1832 627.791 22.9489 628.814 22.9489C629.836 22.9489 630.729 23.1832 631.491 23.652C632.254 24.1207 632.845 24.7789 633.267 25.6264C633.688 26.474 633.899 27.4635 633.899 28.5952C633.899 29.7221 633.688 30.7069 633.267 31.5497C632.845 32.3925 632.254 33.0483 631.491 33.517C630.729 33.9858 629.836 34.2202 628.814 34.2202ZM628.821 32.4375C629.484 32.4375 630.033 32.2623 630.469 31.9119C630.904 31.5616 631.226 31.0952 631.434 30.5128C631.648 29.9304 631.754 29.2888 631.754 28.5881C631.754 27.892 631.648 27.2528 631.434 26.6705C631.226 26.0833 630.904 25.6122 630.469 25.2571C630.033 24.902 629.484 24.7244 628.821 24.7244C628.153 24.7244 627.599 24.902 627.159 25.2571C626.723 25.6122 626.399 26.0833 626.186 26.6705C625.978 27.2528 625.873 27.892 625.873 28.5881C625.873 29.2888 625.978 29.9304 626.186 30.5128C626.399 31.0952 626.723 31.5616 627.159 31.9119C627.599 32.2623 628.153 32.4375 628.821 32.4375ZM638.302 34L635.092 23.0909H637.287L639.425 31.1023H639.531L641.676 23.0909H643.871L646.001 31.0668H646.108L648.231 23.0909H650.426L647.223 34H645.057L642.841 26.1236H642.677L640.461 34H638.302ZM652.356 34.1349C651.968 34.1349 651.634 33.9976 651.355 33.723C651.075 33.4437 650.936 33.1075 650.936 32.7145C650.936 32.3262 651.075 31.9948 651.355 31.7202C651.634 31.4408 651.968 31.3011 652.356 31.3011C652.744 31.3011 653.078 31.4408 653.357 31.7202C653.637 31.9948 653.776 32.3262 653.776 32.7145C653.776 32.9749 653.71 33.214 653.578 33.4318C653.45 33.6449 653.279 33.8153 653.066 33.9432C652.853 34.071 652.616 34.1349 652.356 34.1349ZM661.133 21.3438V19.4545H672.39V21.3438H667.851V34H665.664V21.3438H661.133ZM676.397 34.2415C675.706 34.2415 675.081 34.1136 674.522 33.858C673.963 33.5975 673.521 33.2211 673.194 32.7287C672.872 32.2363 672.711 31.6326 672.711 30.9176C672.711 30.3021 672.829 29.7955 673.066 29.3977C673.303 29 673.623 28.6851 674.025 28.4531C674.427 28.2211 674.877 28.0459 675.374 27.9276C675.872 27.8092 676.378 27.7192 676.894 27.6577C677.548 27.5819 678.078 27.5204 678.485 27.473C678.892 27.4209 679.188 27.3381 679.373 27.2244C679.558 27.1108 679.65 26.9261 679.65 26.6705V26.6207C679.65 26.0005 679.475 25.5199 679.124 25.179C678.779 24.8381 678.263 24.6676 677.576 24.6676C676.861 24.6676 676.298 24.8262 675.886 25.1435C675.479 25.456 675.197 25.804 675.041 26.1875L673.045 25.733C673.282 25.0701 673.627 24.535 674.082 24.1278C674.541 23.7159 675.069 23.4176 675.666 23.233C676.262 23.0436 676.89 22.9489 677.548 22.9489C677.983 22.9489 678.445 23.0009 678.933 23.1051C679.425 23.2045 679.884 23.3892 680.311 23.6591C680.741 23.929 681.094 24.3149 681.369 24.8168C681.643 25.3139 681.781 25.9602 681.781 26.7557V34H679.707V32.5085H679.622C679.484 32.7831 679.278 33.053 679.004 33.3182C678.729 33.5833 678.376 33.8035 677.945 33.9787C677.515 34.1539 676.999 34.2415 676.397 34.2415ZM676.859 32.5369C677.446 32.5369 677.948 32.4209 678.365 32.1889C678.786 31.9569 679.106 31.6539 679.323 31.2798C679.546 30.901 679.657 30.4962 679.657 30.0653V28.6591C679.581 28.7348 679.435 28.8059 679.217 28.8722C679.004 28.9337 678.76 28.9882 678.485 29.0355C678.211 29.0781 677.943 29.1184 677.683 29.1562C677.422 29.1894 677.204 29.2178 677.029 29.2415C676.617 29.2936 676.241 29.3812 675.9 29.5043C675.564 29.6274 675.294 29.8049 675.09 30.0369C674.892 30.2642 674.792 30.5672 674.792 30.946C674.792 31.4716 674.986 31.8693 675.374 32.1392C675.763 32.4044 676.258 32.5369 676.859 32.5369ZM686.733 19.4545V34H684.609V19.4545H686.733ZM691.543 30.2997L691.529 27.7074H691.898L696.244 23.0909H698.787L693.83 28.3466H693.496L691.543 30.2997ZM689.59 34V19.4545H691.713V34H689.59ZM696.479 34L692.573 28.8153L694.036 27.331L699.085 34H696.479ZM709.19 34.2415C708.499 34.2415 707.874 34.1136 707.315 33.858C706.756 33.5975 706.314 33.2211 705.987 32.7287C705.665 32.2363 705.504 31.6326 705.504 30.9176C705.504 30.3021 705.622 29.7955 705.859 29.3977C706.096 29 706.416 28.6851 706.818 28.4531C707.22 28.2211 707.67 28.0459 708.167 27.9276C708.665 27.8092 709.171 27.7192 709.687 27.6577C710.341 27.5819 710.871 27.5204 711.278 27.473C711.685 27.4209 711.981 27.3381 712.166 27.2244C712.351 27.1108 712.443 26.9261 712.443 26.6705V26.6207C712.443 26.0005 712.268 25.5199 711.917 25.179C711.572 24.8381 711.056 24.6676 710.369 24.6676C709.654 24.6676 709.091 24.8262 708.679 25.1435C708.272 25.456 707.99 25.804 707.834 26.1875L705.838 25.733C706.075 25.0701 706.42 24.535 706.875 24.1278C707.334 23.7159 707.862 23.4176 708.459 23.233C709.055 23.0436 709.683 22.9489 710.341 22.9489C710.776 22.9489 711.238 23.0009 711.726 23.1051C712.218 23.2045 712.677 23.3892 713.104 23.6591C713.534 23.929 713.887 24.3149 714.162 24.8168C714.436 25.3139 714.574 25.9602 714.574 26.7557V34H712.5V32.5085H712.415C712.277 32.7831 712.071 33.053 711.797 33.3182C711.522 33.5833 711.169 33.8035 710.738 33.9787C710.308 34.1539 709.791 34.2415 709.19 34.2415ZM709.652 32.5369C710.239 32.5369 710.741 32.4209 711.157 32.1889C711.579 31.9569 711.898 31.6539 712.116 31.2798C712.339 30.901 712.45 30.4962 712.45 30.0653V28.6591C712.374 28.7348 712.228 28.8059 712.01 28.8722C711.797 28.9337 711.553 28.9882 711.278 29.0355C711.004 29.0781 710.736 29.1184 710.476 29.1562C710.215 29.1894 709.997 29.2178 709.822 29.2415C709.41 29.2936 709.034 29.3812 708.693 29.5043C708.357 29.6274 708.087 29.8049 707.883 30.0369C707.684 30.2642 707.585 30.5672 707.585 30.946C707.585 31.4716 707.779 31.8693 708.167 32.1392C708.556 32.4044 709.05 32.5369 709.652 32.5369ZM717.573 34V19.4545H719.696V24.8594H719.824C719.947 24.6321 720.125 24.3693 720.357 24.071C720.589 23.7727 720.911 23.5123 721.323 23.2898C721.735 23.0625 722.279 22.9489 722.956 22.9489C723.837 22.9489 724.623 23.1714 725.314 23.6165C726.005 24.0616 726.548 24.7031 726.941 25.5412C727.338 26.3793 727.537 27.3878 727.537 28.5668C727.537 29.7457 727.341 30.7566 726.948 31.5994C726.555 32.4375 726.015 33.0838 725.328 33.5384C724.642 33.9882 723.858 34.2131 722.977 34.2131C722.315 34.2131 721.772 34.1018 721.351 33.8793C720.934 33.6567 720.608 33.3963 720.371 33.098C720.134 32.7997 719.952 32.5346 719.824 32.3026H719.646V34H717.573ZM719.654 28.5455C719.654 29.3125 719.765 29.9848 719.987 30.5625C720.21 31.1402 720.532 31.5923 720.953 31.919C721.375 32.241 721.891 32.402 722.502 32.402C723.136 32.402 723.666 32.2339 724.093 31.8977C724.519 31.5568 724.841 31.0952 725.058 30.5128C725.281 29.9304 725.392 29.2746 725.392 28.5455C725.392 27.8258 725.283 27.1795 725.066 26.6065C724.852 26.0336 724.53 25.5814 724.1 25.25C723.673 24.9186 723.141 24.7528 722.502 24.7528C721.886 24.7528 721.365 24.9115 720.939 25.2287C720.518 25.5459 720.198 25.9886 719.98 26.5568C719.762 27.125 719.654 27.7879 719.654 28.5455ZM734.517 34.2202C733.494 34.2202 732.602 33.9858 731.839 33.517C731.077 33.0483 730.485 32.3925 730.064 31.5497C729.642 30.7069 729.432 29.7221 729.432 28.5952C729.432 27.4635 729.642 26.474 730.064 25.6264C730.485 24.7789 731.077 24.1207 731.839 23.652C732.602 23.1832 733.494 22.9489 734.517 22.9489C735.54 22.9489 736.432 23.1832 737.194 23.652C737.957 24.1207 738.549 24.7789 738.97 25.6264C739.391 26.474 739.602 27.4635 739.602 28.5952C739.602 29.7221 739.391 30.7069 738.97 31.5497C738.549 32.3925 737.957 33.0483 737.194 33.517C736.432 33.9858 735.54 34.2202 734.517 34.2202ZM734.524 32.4375C735.187 32.4375 735.736 32.2623 736.172 31.9119C736.607 31.5616 736.929 31.0952 737.138 30.5128C737.351 29.9304 737.457 29.2888 737.457 28.5881C737.457 27.892 737.351 27.2528 737.138 26.6705C736.929 26.0833 736.607 25.6122 736.172 25.2571C735.736 24.902 735.187 24.7244 734.524 24.7244C733.856 24.7244 733.302 24.902 732.862 25.2571C732.426 25.6122 732.102 26.0833 731.889 26.6705C731.681 27.2528 731.577 27.892 731.577 28.5881C731.577 29.2888 731.681 29.9304 731.889 30.5128C732.102 31.0952 732.426 31.5616 732.862 31.9119C733.302 32.2623 733.856 32.4375 734.524 32.4375ZM748.883 29.4759V23.0909H751.014V34H748.926V32.1108H748.812C748.561 32.6932 748.159 33.1785 747.605 33.5668C747.055 33.9503 746.371 34.142 745.552 34.142C744.851 34.142 744.231 33.9882 743.691 33.6804C743.156 33.3679 742.735 32.9062 742.427 32.2955C742.124 31.6847 741.972 30.9295 741.972 30.0298V23.0909H744.096V29.7741C744.096 30.5175 744.302 31.1094 744.714 31.5497C745.126 31.9901 745.661 32.2102 746.319 32.2102C746.717 32.2102 747.112 32.1108 747.505 31.9119C747.903 31.7131 748.232 31.4124 748.492 31.0099C748.758 30.6075 748.888 30.0961 748.883 29.4759ZM758.959 23.0909V24.7955H753.001V23.0909H758.959ZM754.599 20.4773H756.722V30.7969C756.722 31.2088 756.784 31.5189 756.907 31.7273C757.03 31.9309 757.189 32.0705 757.383 32.1463C757.581 32.2173 757.797 32.2528 758.029 32.2528C758.199 32.2528 758.349 32.241 758.476 32.2173C758.604 32.1937 758.704 32.1747 758.775 32.1605L759.158 33.9148C759.035 33.9621 758.86 34.0095 758.633 34.0568C758.405 34.1089 758.121 34.1373 757.78 34.142C757.222 34.1515 756.701 34.0521 756.218 33.8438C755.735 33.6354 755.344 33.3134 755.046 32.8778C754.748 32.4422 754.599 31.8954 754.599 31.2372V20.4773ZM771.303 34.2202C770.228 34.2202 769.303 33.9905 768.526 33.5312C767.754 33.0672 767.158 32.4162 766.736 31.5781C766.32 30.7353 766.111 29.7481 766.111 28.6165C766.111 27.4991 766.32 26.5142 766.736 25.6619C767.158 24.8097 767.745 24.1444 768.498 23.6662C769.255 23.188 770.141 22.9489 771.154 22.9489C771.769 22.9489 772.366 23.0507 772.944 23.2543C773.521 23.4579 774.04 23.7775 774.499 24.2131C774.958 24.6487 775.321 25.2145 775.586 25.9105C775.851 26.6018 775.983 27.4422 775.983 28.4318V29.1847H767.312V27.5938H773.903C773.903 27.035 773.789 26.5402 773.562 26.1094C773.334 25.6738 773.015 25.3305 772.603 25.0795C772.196 24.8286 771.717 24.7031 771.168 24.7031C770.572 24.7031 770.051 24.8499 769.606 25.1435C769.165 25.4323 768.824 25.8111 768.583 26.2798C768.346 26.7438 768.228 27.2481 768.228 27.7926V29.0355C768.228 29.7647 768.356 30.3849 768.611 30.8963C768.872 31.4077 769.234 31.7983 769.698 32.0682C770.162 32.3333 770.704 32.4659 771.324 32.4659C771.727 32.4659 772.094 32.4091 772.425 32.2955C772.757 32.1771 773.043 32.0019 773.285 31.7699C773.526 31.5379 773.711 31.2514 773.839 30.9105L775.849 31.2727C775.688 31.8646 775.399 32.383 774.982 32.8281C774.57 33.2685 774.052 33.6117 773.427 33.858C772.806 34.0994 772.099 34.2202 771.303 34.2202ZM779.762 23.0909L782.17 27.3381L784.599 23.0909H786.921L783.519 28.5455L786.949 34H784.627L782.17 29.9233L779.719 34H777.39L780.785 28.5455L777.432 23.0909H779.762ZM794.194 23.0909V24.7955H788.235V23.0909H794.194ZM789.833 20.4773H791.956V30.7969C791.956 31.2088 792.018 31.5189 792.141 31.7273C792.264 31.9309 792.423 32.0705 792.617 32.1463C792.816 32.2173 793.031 32.2528 793.263 32.2528C793.434 32.2528 793.583 32.241 793.711 32.2173C793.839 32.1937 793.938 32.1747 794.009 32.1605L794.393 33.9148C794.269 33.9621 794.094 34.0095 793.867 34.0568C793.64 34.1089 793.356 34.1373 793.015 34.142C792.456 34.1515 791.935 34.0521 791.452 33.8438C790.969 33.6354 790.579 33.3134 790.28 32.8778C789.982 32.4422 789.833 31.8954 789.833 31.2372V20.4773ZM796.543 34V23.0909H798.595V24.8239H798.709C798.908 24.2367 799.258 23.7751 799.76 23.4389C800.267 23.098 800.84 22.9276 801.479 22.9276C801.611 22.9276 801.768 22.9323 801.948 22.9418C802.132 22.9512 802.277 22.9631 802.381 22.9773V25.0085C802.296 24.9848 802.144 24.9588 801.926 24.9304C801.709 24.8973 801.491 24.8807 801.273 24.8807C800.771 24.8807 800.324 24.9872 799.931 25.2003C799.542 25.4086 799.235 25.6998 799.007 26.0739C798.78 26.4432 798.666 26.8646 798.666 27.3381V34H796.543ZM807.296 34.2415C806.604 34.2415 805.979 34.1136 805.421 33.858C804.862 33.5975 804.419 33.2211 804.093 32.7287C803.771 32.2363 803.61 31.6326 803.61 30.9176C803.61 30.3021 803.728 29.7955 803.965 29.3977C804.201 29 804.521 28.6851 804.923 28.4531C805.326 28.2211 805.776 28.0459 806.273 27.9276C806.77 27.8092 807.277 27.7192 807.793 27.6577C808.446 27.5819 808.977 27.5204 809.384 27.473C809.791 27.4209 810.087 27.3381 810.271 27.2244C810.456 27.1108 810.548 26.9261 810.548 26.6705V26.6207C810.548 26.0005 810.373 25.5199 810.023 25.179C809.677 24.8381 809.161 24.6676 808.475 24.6676C807.76 24.6676 807.196 24.8262 806.784 25.1435C806.377 25.456 806.095 25.804 805.939 26.1875L803.943 25.733C804.18 25.0701 804.526 24.535 804.98 24.1278C805.44 23.7159 805.968 23.4176 806.564 23.233C807.161 23.0436 807.788 22.9489 808.446 22.9489C808.882 22.9489 809.343 23.0009 809.831 23.1051C810.324 23.2045 810.783 23.3892 811.209 23.6591C811.64 23.929 811.993 24.3149 812.267 24.8168C812.542 25.3139 812.679 25.9602 812.679 26.7557V34H810.605V32.5085H810.52C810.383 32.7831 810.177 33.053 809.902 33.3182C809.628 33.5833 809.275 33.8035 808.844 33.9787C808.413 34.1539 807.897 34.2415 807.296 34.2415ZM807.757 32.5369C808.344 32.5369 808.846 32.4209 809.263 32.1889C809.684 31.9569 810.004 31.6539 810.222 31.2798C810.444 30.901 810.556 30.4962 810.556 30.0653V28.6591C810.48 28.7348 810.333 28.8059 810.115 28.8722C809.902 28.9337 809.658 28.9882 809.384 29.0355C809.109 29.0781 808.842 29.1184 808.581 29.1562C808.321 29.1894 808.103 29.2178 807.928 29.2415C807.516 29.2936 807.139 29.3812 806.798 29.5043C806.462 29.6274 806.192 29.8049 805.989 30.0369C805.79 30.2642 805.691 30.5672 805.691 30.946C805.691 31.4716 805.885 31.8693 806.273 32.1392C806.661 32.4044 807.156 32.5369 807.757 32.5369ZM820.971 34V19.4545H823.095V24.8594H823.222C823.346 24.6321 823.523 24.3693 823.755 24.071C823.987 23.7727 824.309 23.5123 824.721 23.2898C825.133 23.0625 825.677 22.9489 826.355 22.9489C827.235 22.9489 828.021 23.1714 828.713 23.6165C829.404 24.0616 829.946 24.7031 830.339 25.5412C830.737 26.3793 830.936 27.3878 830.936 28.5668C830.936 29.7457 830.739 30.7566 830.346 31.5994C829.953 32.4375 829.413 33.0838 828.727 33.5384C828.04 33.9882 827.257 34.2131 826.376 34.2131C825.713 34.2131 825.171 34.1018 824.749 33.8793C824.333 33.6567 824.006 33.3963 823.769 33.098C823.533 32.7997 823.35 32.5346 823.222 32.3026H823.045V34H820.971ZM823.052 28.5455C823.052 29.3125 823.163 29.9848 823.386 30.5625C823.608 31.1402 823.93 31.5923 824.352 31.919C824.773 32.241 825.289 32.402 825.9 32.402C826.535 32.402 827.065 32.2339 827.491 31.8977C827.917 31.5568 828.239 31.0952 828.457 30.5128C828.679 29.9304 828.791 29.2746 828.791 28.5455C828.791 27.8258 828.682 27.1795 828.464 26.6065C828.251 26.0336 827.929 25.5814 827.498 25.25C827.072 24.9186 826.539 24.7528 825.9 24.7528C825.285 24.7528 824.764 24.9115 824.338 25.2287C823.916 25.5459 823.597 25.9886 823.379 26.5568C823.161 27.125 823.052 27.7879 823.052 28.5455ZM838.022 34.2202C836.947 34.2202 836.021 33.9905 835.245 33.5312C834.473 33.0672 833.876 32.4162 833.455 31.5781C833.038 30.7353 832.83 29.7481 832.83 28.6165C832.83 27.4991 833.038 26.5142 833.455 25.6619C833.876 24.8097 834.464 24.1444 835.216 23.6662C835.974 23.188 836.859 22.9489 837.873 22.9489C838.488 22.9489 839.085 23.0507 839.662 23.2543C840.24 23.4579 840.759 23.7775 841.218 24.2131C841.677 24.6487 842.039 25.2145 842.305 25.9105C842.57 26.6018 842.702 27.4422 842.702 28.4318V29.1847H834.03V27.5938H840.621C840.621 27.035 840.508 26.5402 840.28 26.1094C840.053 25.6738 839.733 25.3305 839.322 25.0795C838.914 24.8286 838.436 24.7031 837.887 24.7031C837.29 24.7031 836.769 24.8499 836.324 25.1435C835.884 25.4323 835.543 25.8111 835.302 26.2798C835.065 26.7438 834.947 27.2481 834.947 27.7926V29.0355C834.947 29.7647 835.074 30.3849 835.33 30.8963C835.59 31.4077 835.953 31.7983 836.417 32.0682C836.881 32.3333 837.423 32.4659 838.043 32.4659C838.446 32.4659 838.813 32.4091 839.144 32.2955C839.475 32.1771 839.762 32.0019 840.003 31.7699C840.245 31.5379 840.43 31.2514 840.557 30.9105L842.567 31.2727C842.406 31.8646 842.117 32.383 841.701 32.8281C841.289 33.2685 840.77 33.6117 840.145 33.858C839.525 34.0994 838.817 34.2202 838.022 34.2202ZM847.182 27.5227V34H845.058V23.0909H847.097V24.8665H847.232C847.483 24.2888 847.876 23.8248 848.411 23.4744C848.95 23.1241 849.63 22.9489 850.449 22.9489C851.192 22.9489 851.843 23.1051 852.402 23.4176C852.961 23.7254 853.394 24.1847 853.702 24.7955C854.01 25.4062 854.164 26.1615 854.164 27.0611V34H852.04V27.3168C852.04 26.526 851.834 25.9081 851.422 25.4631C851.01 25.0133 850.444 24.7884 849.725 24.7884C849.232 24.7884 848.794 24.8949 848.411 25.108C848.032 25.321 847.731 25.6335 847.509 26.0455C847.291 26.4527 847.182 26.9451 847.182 27.5227ZM861.713 34.2202C860.638 34.2202 859.713 33.9905 858.936 33.5312C858.164 33.0672 857.568 32.4162 857.146 31.5781C856.73 30.7353 856.521 29.7481 856.521 28.6165C856.521 27.4991 856.73 26.5142 857.146 25.6619C857.568 24.8097 858.155 24.1444 858.908 23.6662C859.665 23.188 860.551 22.9489 861.564 22.9489C862.18 22.9489 862.776 23.0507 863.354 23.2543C863.932 23.4579 864.45 23.7775 864.909 24.2131C865.369 24.6487 865.731 25.2145 865.996 25.9105C866.261 26.6018 866.394 27.4422 866.394 28.4318V29.1847H857.722V27.5938H864.313C864.313 27.035 864.199 26.5402 863.972 26.1094C863.744 25.6738 863.425 25.3305 863.013 25.0795C862.606 24.8286 862.128 24.7031 861.578 24.7031C860.982 24.7031 860.461 24.8499 860.016 25.1435C859.575 25.4323 859.235 25.8111 858.993 26.2798C858.756 26.7438 858.638 27.2481 858.638 27.7926V29.0355C858.638 29.7647 858.766 30.3849 859.021 30.8963C859.282 31.4077 859.644 31.7983 860.108 32.0682C860.572 32.3333 861.114 32.4659 861.735 32.4659C862.137 32.4659 862.504 32.4091 862.835 32.2955C863.167 32.1771 863.453 32.0019 863.695 31.7699C863.936 31.5379 864.121 31.2514 864.249 30.9105L866.259 31.2727C866.098 31.8646 865.809 32.383 865.392 32.8281C864.98 33.2685 864.462 33.6117 863.837 33.858C863.217 34.0994 862.509 34.2202 861.713 34.2202ZM873.942 23.0909V24.7955H867.777V23.0909H873.942ZM869.467 34V21.8267C869.467 21.1449 869.616 20.5791 869.915 20.1293C870.213 19.6747 870.608 19.3362 871.101 19.1136C871.593 18.8864 872.128 18.7727 872.706 18.7727C873.132 18.7727 873.497 18.8082 873.8 18.8793C874.103 18.9455 874.327 19.0071 874.474 19.0639L873.977 20.7827C873.878 20.7543 873.75 20.7211 873.594 20.6832C873.437 20.6406 873.248 20.6193 873.025 20.6193C872.509 20.6193 872.14 20.7472 871.917 21.0028C871.7 21.2585 871.591 21.6278 871.591 22.1108V34H869.467ZM876.133 34V23.0909H878.256V34H876.133ZM877.205 21.4077C876.836 21.4077 876.519 21.2846 876.253 21.0384C875.993 20.7874 875.863 20.4891 875.863 20.1435C875.863 19.7931 875.993 19.4948 876.253 19.2486C876.519 18.9976 876.836 18.8722 877.205 18.8722C877.574 18.8722 877.889 18.9976 878.15 19.2486C878.415 19.4948 878.547 19.7931 878.547 20.1435C878.547 20.4891 878.415 20.7874 878.15 21.0384C877.889 21.2846 877.574 21.4077 877.205 21.4077ZM886.205 23.0909V24.7955H880.247V23.0909H886.205ZM881.845 20.4773H883.968V30.7969C883.968 31.2088 884.03 31.5189 884.153 31.7273C884.276 31.9309 884.435 32.0705 884.629 32.1463C884.828 32.2173 885.043 32.2528 885.275 32.2528C885.445 32.2528 885.595 32.241 885.722 32.2173C885.85 32.1937 885.95 32.1747 886.021 32.1605L886.404 33.9148C886.281 33.9621 886.106 34.0095 885.879 34.0568C885.651 34.1089 885.367 34.1373 885.026 34.142C884.468 34.1515 883.947 34.0521 883.464 33.8438C882.981 33.6354 882.59 33.3134 882.292 32.8778C881.994 32.4422 881.845 31.8954 881.845 31.2372V20.4773ZM896.553 25.7543L894.629 26.0952C894.548 25.849 894.42 25.6146 894.245 25.392C894.075 25.1695 893.843 24.9872 893.549 24.8452C893.256 24.7031 892.889 24.6321 892.448 24.6321C891.847 24.6321 891.345 24.767 890.943 25.0369C890.54 25.3021 890.339 25.6454 890.339 26.0668C890.339 26.4313 890.474 26.7249 890.744 26.9474C891.014 27.17 891.449 27.3523 892.051 27.4943L893.784 27.892C894.787 28.1241 895.535 28.4815 896.028 28.9645C896.52 29.4474 896.767 30.0748 896.767 30.8466C896.767 31.5 896.577 32.0824 896.198 32.5938C895.824 33.1004 895.301 33.4981 894.629 33.7869C893.961 34.0758 893.187 34.2202 892.306 34.2202C891.085 34.2202 890.088 33.9598 889.316 33.4389C888.544 32.9134 888.071 32.1676 887.896 31.2017L889.948 30.8892C890.076 31.4242 890.339 31.8291 890.737 32.1037C891.134 32.3736 891.653 32.5085 892.292 32.5085C892.988 32.5085 893.544 32.3641 893.961 32.0753C894.378 31.7817 894.586 31.4242 894.586 31.0028C894.586 30.6619 894.458 30.3755 894.203 30.1435C893.952 29.9115 893.566 29.7363 893.045 29.6179L891.198 29.2131C890.18 28.9811 889.427 28.6117 888.94 28.1051C888.457 27.5985 888.215 26.9569 888.215 26.1804C888.215 25.5365 888.395 24.973 888.755 24.4901C889.115 24.0071 889.612 23.6307 890.247 23.3608C890.881 23.0862 891.608 22.9489 892.427 22.9489C893.606 22.9489 894.534 23.2045 895.211 23.7159C895.888 24.2225 896.336 24.902 896.553 25.7543ZM904.641 18.7727L899.954 36.1875H898.057L902.745 18.7727H904.641ZM915.778 23.0909L911.822 34H909.549L905.586 23.0909H907.866L910.628 31.4858H910.742L913.498 23.0909H915.778ZM920.635 34.2415C919.944 34.2415 919.319 34.1136 918.76 33.858C918.202 33.5975 917.759 33.2211 917.432 32.7287C917.11 32.2363 916.949 31.6326 916.949 30.9176C916.949 30.3021 917.068 29.7955 917.305 29.3977C917.541 29 917.861 28.6851 918.263 28.4531C918.666 28.2211 919.116 28.0459 919.613 27.9276C920.11 27.8092 920.617 27.7192 921.133 27.6577C921.786 27.5819 922.316 27.5204 922.724 27.473C923.131 27.4209 923.427 27.3381 923.611 27.2244C923.796 27.1108 923.888 26.9261 923.888 26.6705V26.6207C923.888 26.0005 923.713 25.5199 923.363 25.179C923.017 24.8381 922.501 24.6676 921.814 24.6676C921.099 24.6676 920.536 24.8262 920.124 25.1435C919.717 25.456 919.435 25.804 919.279 26.1875L917.283 25.733C917.52 25.0701 917.866 24.535 918.32 24.1278C918.779 23.7159 919.307 23.4176 919.904 23.233C920.501 23.0436 921.128 22.9489 921.786 22.9489C922.222 22.9489 922.683 23.0009 923.171 23.1051C923.663 23.2045 924.123 23.3892 924.549 23.6591C924.98 23.929 925.332 24.3149 925.607 24.8168C925.882 25.3139 926.019 25.9602 926.019 26.7557V34H923.945V32.5085H923.86C923.723 32.7831 923.517 33.053 923.242 33.3182C922.967 33.5833 922.615 33.8035 922.184 33.9787C921.753 34.1539 921.237 34.2415 920.635 34.2415ZM921.097 32.5369C921.684 32.5369 922.186 32.4209 922.603 32.1889C923.024 31.9569 923.344 31.6539 923.562 31.2798C923.784 30.901 923.895 30.4962 923.895 30.0653V28.6591C923.82 28.7348 923.673 28.8059 923.455 28.8722C923.242 28.9337 922.998 28.9882 922.724 29.0355C922.449 29.0781 922.181 29.1184 921.921 29.1562C921.661 29.1894 921.443 29.2178 921.268 29.2415C920.856 29.2936 920.479 29.3812 920.138 29.5043C919.802 29.6274 919.532 29.8049 919.329 30.0369C919.13 30.2642 919.03 30.5672 919.03 30.946C919.03 31.4716 919.224 31.8693 919.613 32.1392C920.001 32.4044 920.496 32.5369 921.097 32.5369ZM930.971 19.4545V34H928.847V19.4545H930.971ZM940.738 29.4759V23.0909H942.869V34H940.781V32.1108H940.667C940.416 32.6932 940.014 33.1785 939.46 33.5668C938.911 33.9503 938.227 34.142 937.407 34.142C936.707 34.142 936.086 33.9882 935.547 33.6804C935.012 33.3679 934.59 32.9062 934.282 32.2955C933.979 31.6847 933.828 30.9295 933.828 30.0298V23.0909H935.952V29.7741C935.952 30.5175 936.157 31.1094 936.569 31.5497C936.981 31.9901 937.516 32.2102 938.175 32.2102C938.572 32.2102 938.968 32.1108 939.361 31.9119C939.758 31.7131 940.087 31.4124 940.348 31.0099C940.613 30.6075 940.743 30.0961 940.738 29.4759ZM950.424 34.2202C949.349 34.2202 948.424 33.9905 947.647 33.5312C946.875 33.0672 946.279 32.4162 945.857 31.5781C945.441 30.7353 945.232 29.7481 945.232 28.6165C945.232 27.4991 945.441 26.5142 945.857 25.6619C946.279 24.8097 946.866 24.1444 947.619 23.6662C948.376 23.188 949.262 22.9489 950.275 22.9489C950.891 22.9489 951.487 23.0507 952.065 23.2543C952.642 23.4579 953.161 23.7775 953.62 24.2131C954.079 24.6487 954.442 25.2145 954.707 25.9105C954.972 26.6018 955.105 27.4422 955.105 28.4318V29.1847H946.433V27.5938H953.024C953.024 27.035 952.91 26.5402 952.683 26.1094C952.455 25.6738 952.136 25.3305 951.724 25.0795C951.317 24.8286 950.838 24.7031 950.289 24.7031C949.693 24.7031 949.172 24.8499 948.727 25.1435C948.286 25.4323 947.945 25.8111 947.704 26.2798C947.467 26.7438 947.349 27.2481 947.349 27.7926V29.0355C947.349 29.7647 947.477 30.3849 947.732 30.8963C947.993 31.4077 948.355 31.7983 948.819 32.0682C949.283 32.3333 949.825 32.4659 950.445 32.4659C950.848 32.4659 951.215 32.4091 951.546 32.2955C951.878 32.1771 952.164 32.0019 952.406 31.7699C952.647 31.5379 952.832 31.2514 952.96 30.9105L954.97 31.2727C954.809 31.8646 954.52 32.383 954.103 32.8281C953.691 33.2685 953.173 33.6117 952.548 33.858C951.927 34.0994 951.22 34.2202 950.424 34.2202ZM958.86 34.1349C958.472 34.1349 958.138 33.9976 957.858 33.723C957.579 33.4437 957.439 33.1075 957.439 32.7145C957.439 32.3262 957.579 31.9948 957.858 31.7202C958.138 31.4408 958.472 31.3011 958.86 31.3011C959.248 31.3011 959.582 31.4408 959.861 31.7202C960.141 31.9948 960.28 32.3262 960.28 32.7145C960.28 32.9749 960.214 33.214 960.081 33.4318C959.954 33.6449 959.783 33.8153 959.57 33.9432C959.357 34.071 959.12 34.1349 958.86 34.1349ZM976.287 23.2756C976.211 22.6032 975.899 22.0824 975.35 21.7131C974.8 21.339 974.109 21.152 973.276 21.152C972.679 21.152 972.163 21.2467 971.727 21.4361C971.292 21.6207 970.953 21.8764 970.712 22.2031C970.475 22.5251 970.357 22.892 970.357 23.304C970.357 23.6496 970.437 23.9479 970.598 24.1989C970.764 24.4498 970.979 24.6605 971.244 24.831C971.514 24.9967 971.803 25.1364 972.111 25.25C972.419 25.3589 972.715 25.4489 972.999 25.5199L974.419 25.8892C974.883 26.0028 975.359 26.1567 975.847 26.3509C976.334 26.545 976.787 26.8007 977.203 27.1179C977.62 27.4351 977.956 27.8281 978.212 28.2969C978.472 28.7656 978.602 29.3267 978.602 29.9801C978.602 30.804 978.389 31.5355 977.963 32.1747C977.542 32.8139 976.929 33.3182 976.124 33.6875C975.324 34.0568 974.355 34.2415 973.219 34.2415C972.13 34.2415 971.188 34.0687 970.392 33.723C969.597 33.3774 968.974 32.8873 968.524 32.2528C968.075 31.6136 967.826 30.8561 967.779 29.9801H969.98C970.023 30.5057 970.193 30.9437 970.492 31.294C970.795 31.6397 971.181 31.8977 971.649 32.0682C972.123 32.2339 972.641 32.3168 973.205 32.3168C973.825 32.3168 974.377 32.2197 974.86 32.0256C975.347 31.8267 975.731 31.5521 976.01 31.2017C976.289 30.8466 976.429 30.4323 976.429 29.9588C976.429 29.5279 976.306 29.1752 976.06 28.9006C975.818 28.6259 975.489 28.3987 975.073 28.2188C974.661 28.0388 974.194 27.8802 973.673 27.7429L971.955 27.2741C970.79 26.9569 969.867 26.4905 969.185 25.875C968.508 25.2595 968.169 24.4451 968.169 23.4318C968.169 22.5937 968.396 21.8622 968.851 21.2372C969.306 20.6122 969.921 20.1269 970.698 19.7812C971.474 19.4309 972.35 19.2557 973.325 19.2557C974.31 19.2557 975.179 19.4285 975.932 19.7741C976.69 20.1198 977.286 20.5956 977.722 21.2017C978.157 21.803 978.385 22.4943 978.404 23.2756H976.287ZM983.178 27.5227V34H981.055V19.4545H983.15V24.8665H983.285C983.54 24.2794 983.931 23.813 984.456 23.4673C984.982 23.1217 985.669 22.9489 986.516 22.9489C987.264 22.9489 987.918 23.1027 988.476 23.4105C989.04 23.7183 989.475 24.1776 989.783 24.7884C990.096 25.3944 990.252 26.152 990.252 27.0611V34H988.128V27.3168C988.128 26.5166 987.922 25.8963 987.51 25.456C987.099 25.0109 986.526 24.7884 985.792 24.7884C985.29 24.7884 984.84 24.8949 984.442 25.108C984.049 25.321 983.739 25.6335 983.512 26.0455C983.289 26.4527 983.178 26.9451 983.178 27.5227ZM997.681 34.2202C996.658 34.2202 995.766 33.9858 995.003 33.517C994.241 33.0483 993.649 32.3925 993.228 31.5497C992.806 30.7069 992.596 29.7221 992.596 28.5952C992.596 27.4635 992.806 26.474 993.228 25.6264C993.649 24.7789 994.241 24.1207 995.003 23.652C995.766 23.1832 996.658 22.9489 997.681 22.9489C998.704 22.9489 999.596 23.1832 1000.36 23.652C1001.12 24.1207 1001.71 24.7789 1002.13 25.6264C1002.56 26.474 1002.77 27.4635 1002.77 28.5952C1002.77 29.7221 1002.56 30.7069 1002.13 31.5497C1001.71 32.3925 1001.12 33.0483 1000.36 33.517C999.596 33.9858 998.704 34.2202 997.681 34.2202ZM997.688 32.4375C998.351 32.4375 998.9 32.2623 999.336 31.9119C999.771 31.5616 1000.09 31.0952 1000.3 30.5128C1000.51 29.9304 1000.62 29.2888 1000.62 28.5881C1000.62 27.892 1000.51 27.2528 1000.3 26.6705C1000.09 26.0833 999.771 25.6122 999.336 25.2571C998.9 24.902 998.351 24.7244 997.688 24.7244C997.02 24.7244 996.466 24.902 996.026 25.2571C995.59 25.6122 995.266 26.0833 995.053 26.6705C994.845 27.2528 994.741 27.892 994.741 28.5881C994.741 29.2888 994.845 29.9304 995.053 30.5128C995.266 31.0952 995.59 31.5616 996.026 31.9119C996.466 32.2623 997.02 32.4375 997.688 32.4375ZM1005.14 38.0909V23.0909H1007.21V24.8594H1007.39C1007.51 24.6321 1007.69 24.3693 1007.92 24.071C1008.15 23.7727 1008.47 23.5123 1008.89 23.2898C1009.3 23.0625 1009.84 22.9489 1010.52 22.9489C1011.4 22.9489 1012.19 23.1714 1012.88 23.6165C1013.57 24.0616 1014.11 24.7031 1014.5 25.5412C1014.9 26.3793 1015.1 27.3878 1015.1 28.5668C1015.1 29.7457 1014.9 30.7566 1014.51 31.5994C1014.12 32.4375 1013.58 33.0838 1012.89 33.5384C1012.21 33.9882 1011.42 34.2131 1010.54 34.2131C1009.88 34.2131 1009.34 34.1018 1008.91 33.8793C1008.5 33.6567 1008.17 33.3963 1007.93 33.098C1007.7 32.7997 1007.52 32.5346 1007.39 32.3026H1007.26V38.0909H1005.14ZM1007.22 28.5455C1007.22 29.3125 1007.33 29.9848 1007.55 30.5625C1007.77 31.1402 1008.1 31.5923 1008.52 31.919C1008.94 32.241 1009.45 32.402 1010.07 32.402C1010.7 32.402 1011.23 32.2339 1011.66 31.8977C1012.08 31.5568 1012.4 31.0952 1012.62 30.5128C1012.84 29.9304 1012.96 29.2746 1012.96 28.5455C1012.96 27.8258 1012.85 27.1795 1012.63 26.6065C1012.42 26.0336 1012.09 25.5814 1011.66 25.25C1011.24 24.9186 1010.7 24.7528 1010.07 24.7528C1009.45 24.7528 1008.93 24.9115 1008.5 25.2287C1008.08 25.5459 1007.76 25.9886 1007.54 26.5568C1007.33 27.125 1007.22 27.7879 1007.22 28.5455ZM1034.68 19.4545V34H1032.67L1025.27 23.3324H1025.14V34H1022.94V19.4545H1024.97L1032.38 30.1364H1032.51V19.4545H1034.68ZM1042.31 34.2202C1041.29 34.2202 1040.39 33.9858 1039.63 33.517C1038.87 33.0483 1038.28 32.3925 1037.86 31.5497C1037.44 30.7069 1037.22 29.7221 1037.22 28.5952C1037.22 27.4635 1037.44 26.474 1037.86 25.6264C1038.28 24.7789 1038.87 24.1207 1039.63 23.652C1040.39 23.1832 1041.29 22.9489 1042.31 22.9489C1043.33 22.9489 1044.23 23.1832 1044.99 23.652C1045.75 24.1207 1046.34 24.7789 1046.76 25.6264C1047.18 26.474 1047.4 27.4635 1047.4 28.5952C1047.4 29.7221 1047.18 30.7069 1046.76 31.5497C1046.34 32.3925 1045.75 33.0483 1044.99 33.517C1044.23 33.9858 1043.33 34.2202 1042.31 34.2202ZM1042.32 32.4375C1042.98 32.4375 1043.53 32.2623 1043.96 31.9119C1044.4 31.5616 1044.72 31.0952 1044.93 30.5128C1045.14 29.9304 1045.25 29.2888 1045.25 28.5881C1045.25 27.892 1045.14 27.2528 1044.93 26.6705C1044.72 26.0833 1044.4 25.6122 1043.96 25.2571C1043.53 24.902 1042.98 24.7244 1042.32 24.7244C1041.65 24.7244 1041.1 24.902 1040.66 25.2571C1040.22 25.6122 1039.9 26.0833 1039.68 26.6705C1039.47 27.2528 1039.37 27.892 1039.37 28.5881C1039.37 29.2888 1039.47 29.9304 1039.68 30.5128C1039.9 31.0952 1040.22 31.5616 1040.66 31.9119C1041.1 32.2623 1041.65 32.4375 1042.32 32.4375ZM1051.8 34L1048.59 23.0909H1050.78L1052.92 31.1023H1053.03L1055.17 23.0909H1057.37L1059.5 31.0668H1059.6L1061.73 23.0909H1063.92L1060.72 34H1058.55L1056.34 26.1236H1056.17L1053.96 34H1051.8ZM1068.61 19.4545L1068.43 29.8168H1066.46L1066.28 19.4545H1068.61ZM1067.45 34.1349C1067.06 34.1349 1066.72 33.9976 1066.44 33.723C1066.16 33.4437 1066.02 33.1075 1066.03 32.7145C1066.02 32.3262 1066.16 31.9948 1066.44 31.7202C1066.72 31.4408 1067.06 31.3011 1067.45 31.3011C1067.83 31.3011 1068.17 31.4408 1068.44 31.7202C1068.72 31.9948 1068.87 32.3262 1068.87 32.7145C1068.87 32.9749 1068.8 33.214 1068.66 33.4318C1068.54 33.6449 1068.37 33.8153 1068.15 33.9432C1067.94 34.071 1067.71 34.1349 1067.45 34.1349Z" fill="black"/>
<path d="M482.207 72V61.0909H483.528V65.9489H489.345V61.0909H490.666V72H489.345V67.1207H483.528V72H482.207ZM498.297 68.6548V63.8182H499.554V72H498.297V70.6151H498.211C498.02 71.0305 497.721 71.3839 497.316 71.6751C496.912 71.9627 496.4 72.1065 495.782 72.1065C495.271 72.1065 494.816 71.9947 494.419 71.771C494.021 71.5437 493.708 71.2028 493.481 70.7482C493.254 70.2901 493.14 69.7131 493.14 69.017V63.8182H494.397V68.9318C494.397 69.5284 494.564 70.0043 494.898 70.3594C495.235 70.7145 495.665 70.892 496.187 70.892C496.5 70.892 496.818 70.8121 497.141 70.6523C497.467 70.4925 497.741 70.2475 497.961 69.9173C498.185 69.587 498.297 69.1662 498.297 68.6548ZM501.856 72V63.8182H503.071V65.054H503.156C503.305 64.6491 503.575 64.3207 503.966 64.0685C504.356 63.8164 504.796 63.6903 505.287 63.6903C505.379 63.6903 505.494 63.6921 505.633 63.6957C505.771 63.6992 505.876 63.7045 505.947 63.7116V64.9901C505.904 64.9794 505.807 64.9634 505.654 64.9421C505.505 64.9173 505.347 64.9048 505.18 64.9048C504.782 64.9048 504.427 64.9883 504.115 65.1552C503.806 65.3185 503.561 65.5458 503.38 65.837C503.202 66.1246 503.113 66.4531 503.113 66.8224V72H501.856ZM507.437 72V63.8182H508.652V65.054H508.737C508.886 64.6491 509.156 64.3207 509.547 64.0685C509.937 63.8164 510.378 63.6903 510.868 63.6903C510.96 63.6903 511.075 63.6921 511.214 63.6957C511.352 63.6992 511.457 63.7045 511.528 63.7116V64.9901C511.485 64.9794 511.388 64.9634 511.235 64.9421C511.086 64.9173 510.928 64.9048 510.761 64.9048C510.363 64.9048 510.008 64.9883 509.696 65.1552C509.387 65.3185 509.142 65.5458 508.961 65.837C508.783 66.1246 508.694 66.4531 508.694 66.8224V72H507.437ZM514.077 75.0682C513.864 75.0682 513.674 75.0504 513.507 75.0149C513.34 74.983 513.225 74.951 513.161 74.919L513.48 73.8111C513.786 73.8892 514.056 73.9176 514.29 73.8963C514.524 73.875 514.732 73.7702 514.913 73.582C515.098 73.3974 515.267 73.0973 515.419 72.6818L515.654 72.0426L512.628 63.8182H513.992L516.25 70.3381H516.335L518.594 63.8182H519.958L516.485 73.1932C516.328 73.6158 516.135 73.9656 515.904 74.2425C515.673 74.5231 515.405 74.7308 515.1 74.8658C514.798 75.0007 514.457 75.0682 514.077 75.0682ZM522.979 70.5085L522.894 71.0838C522.834 71.4886 522.741 71.9219 522.617 72.3835C522.496 72.8452 522.37 73.2802 522.239 73.6886C522.107 74.0969 521.999 74.4219 521.914 74.6634H520.955C521.001 74.4361 521.062 74.136 521.136 73.7631C521.211 73.3903 521.285 72.973 521.36 72.5114C521.438 72.0533 521.502 71.5845 521.552 71.1051L521.616 70.5085H522.979ZM535.663 63.8182C535.599 63.2784 535.34 62.8594 534.886 62.5611C534.431 62.2628 533.874 62.1136 533.213 62.1136C532.73 62.1136 532.308 62.1918 531.945 62.348C531.587 62.5043 531.306 62.7191 531.104 62.9925C530.905 63.266 530.805 63.5767 530.805 63.9247C530.805 64.2159 530.875 64.4663 531.013 64.6758C531.155 64.8817 531.336 65.054 531.557 65.1925C531.777 65.3274 532.008 65.4393 532.249 65.5281C532.49 65.6133 532.712 65.6825 532.915 65.7358L534.023 66.0341C534.307 66.1087 534.623 66.2116 534.971 66.343C535.322 66.4744 535.658 66.6538 535.978 66.881C536.301 67.1048 536.567 67.3924 536.777 67.744C536.986 68.0955 537.091 68.527 537.091 69.0384C537.091 69.6278 536.936 70.1605 536.628 70.6364C536.322 71.1122 535.875 71.4904 535.285 71.771C534.699 72.0515 533.987 72.1918 533.149 72.1918C532.368 72.1918 531.691 72.0657 531.12 71.8136C530.552 71.5614 530.104 71.2099 529.777 70.7589C529.454 70.3079 529.271 69.7841 529.229 69.1875H530.592C530.628 69.5994 530.766 69.9403 531.008 70.2102C531.253 70.4766 531.562 70.6754 531.935 70.8068C532.311 70.9347 532.716 70.9986 533.149 70.9986C533.653 70.9986 534.106 70.9169 534.508 70.7536C534.909 70.5866 535.227 70.3558 535.461 70.0611C535.695 69.7628 535.813 69.4148 535.813 69.017C535.813 68.6548 535.711 68.3601 535.509 68.1328C535.307 67.9055 535.04 67.7209 534.71 67.5788C534.38 67.4368 534.023 67.3125 533.639 67.206L532.297 66.8224C531.445 66.5774 530.77 66.2276 530.273 65.7731C529.776 65.3185 529.527 64.7237 529.527 63.9886C529.527 63.3778 529.692 62.8452 530.022 62.3906C530.356 61.9325 530.804 61.5774 531.365 61.3253C531.929 61.0696 532.56 60.9418 533.256 60.9418C533.959 60.9418 534.584 61.0678 535.131 61.32C535.678 61.5685 536.111 61.9094 536.43 62.3427C536.754 62.7759 536.924 63.2678 536.942 63.8182H535.663ZM541.5 72.1918C540.982 72.1918 540.511 72.0941 540.089 71.8988C539.666 71.6999 539.33 71.4141 539.082 71.0412C538.833 70.6648 538.709 70.2102 538.709 69.6776C538.709 69.2088 538.801 68.8288 538.986 68.5376C539.171 68.2429 539.417 68.0121 539.726 67.8452C540.035 67.6783 540.376 67.554 540.749 67.4723C541.125 67.3871 541.504 67.3196 541.884 67.2699C542.381 67.206 542.784 67.158 543.093 67.1261C543.405 67.0906 543.633 67.032 543.775 66.9503C543.92 66.8686 543.993 66.7266 543.993 66.5241V66.4815C543.993 65.956 543.849 65.5476 543.562 65.2564C543.277 64.9652 542.846 64.8196 542.267 64.8196C541.667 64.8196 541.197 64.951 540.856 65.2138C540.515 65.4766 540.275 65.7571 540.136 66.0554L538.943 65.6293C539.156 65.1321 539.44 64.745 539.796 64.468C540.154 64.1875 540.545 63.9922 540.967 63.8821C541.394 63.7685 541.813 63.7116 542.225 63.7116C542.487 63.7116 542.789 63.7436 543.13 63.8075C543.475 63.8679 543.807 63.994 544.126 64.1857C544.449 64.3775 544.717 64.6669 544.931 65.054C545.144 65.4411 545.25 65.9595 545.25 66.6094V72H543.993V70.892H543.929C543.844 71.0696 543.702 71.2596 543.503 71.462C543.304 71.6644 543.04 71.8366 542.709 71.9787C542.379 72.1207 541.976 72.1918 541.5 72.1918ZM541.692 71.0625C542.189 71.0625 542.608 70.9648 542.949 70.7695C543.293 70.5742 543.553 70.3221 543.727 70.0131C543.904 69.7042 543.993 69.3793 543.993 69.0384V67.8878C543.94 67.9517 543.823 68.0103 543.641 68.0636C543.464 68.1133 543.258 68.1577 543.024 68.1967C542.793 68.2322 542.567 68.2642 542.347 68.2926C542.13 68.3175 541.955 68.3388 541.82 68.3565C541.493 68.3991 541.188 68.4684 540.904 68.5643C540.623 68.6566 540.396 68.7969 540.222 68.9851C540.051 69.1697 539.966 69.4219 539.966 69.7415C539.966 70.1783 540.128 70.5085 540.451 70.7322C540.777 70.9524 541.191 71.0625 541.692 71.0625ZM548.802 61.0909V72H547.545V61.0909H548.802ZM554.535 72.1705C553.746 72.1705 553.066 71.9964 552.494 71.6484C551.926 71.2969 551.488 70.8068 551.179 70.1783C550.873 69.5462 550.721 68.8111 550.721 67.973C550.721 67.1349 550.873 66.3963 551.179 65.7571C551.488 65.1143 551.917 64.6136 552.468 64.255C553.022 63.8928 553.668 63.7116 554.407 63.7116C554.833 63.7116 555.254 63.7827 555.669 63.9247C556.085 64.0668 556.463 64.2976 556.804 64.6172C557.145 64.9332 557.416 65.3523 557.619 65.8743C557.821 66.3963 557.922 67.0391 557.922 67.8026V68.3352H551.616V67.2486H556.644C556.644 66.7869 556.552 66.375 556.367 66.0128C556.186 65.6506 555.927 65.3647 555.589 65.1552C555.255 64.9457 554.861 64.8409 554.407 64.8409C553.906 64.8409 553.473 64.9652 553.107 65.2138C552.745 65.4588 552.466 65.7784 552.271 66.1726C552.075 66.5668 551.978 66.9893 551.978 67.4403V68.1648C551.978 68.7827 552.084 69.3065 552.297 69.7362C552.514 70.1623 552.814 70.4872 553.198 70.7109C553.581 70.9311 554.027 71.0412 554.535 71.0412C554.865 71.0412 555.163 70.995 555.429 70.9027C555.699 70.8068 555.932 70.6648 556.127 70.4766C556.323 70.2848 556.473 70.0469 556.58 69.7628L557.795 70.1037C557.667 70.5156 557.452 70.8778 557.15 71.1903C556.848 71.4993 556.475 71.7408 556.031 71.9148C555.587 72.0852 555.089 72.1705 554.535 72.1705ZM567.484 72.1705C566.695 72.1705 566.015 71.9964 565.444 71.6484C564.875 71.2969 564.437 70.8068 564.128 70.1783C563.823 69.5462 563.67 68.8111 563.67 67.973C563.67 67.1349 563.823 66.3963 564.128 65.7571C564.437 65.1143 564.867 64.6136 565.417 64.255C565.971 63.8928 566.617 63.7116 567.356 63.7116C567.782 63.7116 568.203 63.7827 568.618 63.9247C569.034 64.0668 569.412 64.2976 569.753 64.6172C570.094 64.9332 570.366 65.3523 570.568 65.8743C570.77 66.3963 570.872 67.0391 570.872 67.8026V68.3352H564.565V67.2486H569.593C569.593 66.7869 569.501 66.375 569.316 66.0128C569.135 65.6506 568.876 65.3647 568.538 65.1552C568.205 64.9457 567.811 64.8409 567.356 64.8409C566.855 64.8409 566.422 64.9652 566.056 65.2138C565.694 65.4588 565.415 65.7784 565.22 66.1726C565.025 66.5668 564.927 66.9893 564.927 67.4403V68.1648C564.927 68.7827 565.034 69.3065 565.247 69.7362C565.463 70.1623 565.763 70.4872 566.147 70.7109C566.53 70.9311 566.976 71.0412 567.484 71.0412C567.814 71.0412 568.112 70.995 568.379 70.9027C568.649 70.8068 568.881 70.6648 569.076 70.4766C569.272 70.2848 569.423 70.0469 569.529 69.7628L570.744 70.1037C570.616 70.5156 570.401 70.8778 570.099 71.1903C569.797 71.4993 569.424 71.7408 568.981 71.9148C568.537 72.0852 568.038 72.1705 567.484 72.1705ZM574.041 67.0781V72H572.784V63.8182H573.998V65.0966H574.105C574.297 64.6811 574.588 64.3473 574.978 64.0952C575.369 63.8395 575.873 63.7116 576.491 63.7116C577.045 63.7116 577.53 63.8253 577.945 64.0526C578.361 64.2763 578.684 64.6172 578.915 65.0753C579.146 65.5298 579.261 66.1051 579.261 66.8011V72H578.004V66.8864C578.004 66.2436 577.837 65.7429 577.503 65.3842C577.17 65.022 576.711 64.8409 576.129 64.8409C575.728 64.8409 575.369 64.9279 575.053 65.1019C574.741 65.2759 574.494 65.5298 574.313 65.8636C574.132 66.1974 574.041 66.6023 574.041 67.0781ZM584.648 72.1705C583.966 72.1705 583.364 71.9982 582.842 71.6538C582.32 71.3058 581.912 70.8157 581.617 70.1836C581.322 69.5479 581.175 68.7969 581.175 67.9304C581.175 67.071 581.322 66.3253 581.617 65.6932C581.912 65.0611 582.322 64.5728 582.847 64.2283C583.373 63.8839 583.98 63.7116 584.669 63.7116C585.202 63.7116 585.623 63.8004 585.932 63.978C586.244 64.152 586.482 64.3509 586.645 64.5746C586.812 64.7947 586.942 64.9759 587.034 65.1179H587.141V61.0909H588.398V72H587.183V70.7429H587.034C586.942 70.892 586.81 71.0803 586.64 71.3075C586.47 71.5312 586.226 71.7319 585.91 71.9094C585.594 72.0835 585.173 72.1705 584.648 72.1705ZM584.818 71.0412C585.322 71.0412 585.749 70.9098 586.097 70.647C586.445 70.3807 586.709 70.0131 586.89 69.5444C587.071 69.0721 587.162 68.527 587.162 67.9091C587.162 67.2983 587.073 66.7638 586.896 66.3058C586.718 65.8441 586.455 65.4854 586.107 65.2298C585.759 64.9705 585.33 64.8409 584.818 64.8409C584.286 64.8409 583.842 64.9776 583.487 65.2511C583.135 65.521 582.87 65.8885 582.693 66.3537C582.519 66.8153 582.432 67.3338 582.432 67.9091C582.432 68.4915 582.521 69.0206 582.698 69.4964C582.879 69.9687 583.146 70.3452 583.497 70.6257C583.852 70.9027 584.293 71.0412 584.818 71.0412ZM596.67 65.6506L595.541 65.9702C595.47 65.782 595.365 65.5991 595.227 65.4215C595.092 65.2404 594.907 65.0913 594.673 64.9741C594.438 64.8569 594.138 64.7983 593.772 64.7983C593.272 64.7983 592.854 64.9137 592.521 65.1445C592.19 65.3718 592.025 65.6612 592.025 66.0128C592.025 66.3253 592.139 66.5721 592.366 66.7532C592.593 66.9343 592.949 67.0852 593.432 67.206L594.646 67.5043C595.378 67.6818 595.923 67.9535 596.281 68.3192C596.64 68.6815 596.819 69.1484 596.819 69.7202C596.819 70.1889 596.684 70.608 596.414 70.9773C596.148 71.3466 595.775 71.6378 595.296 71.8509C594.816 72.0639 594.259 72.1705 593.623 72.1705C592.789 72.1705 592.098 71.9893 591.551 71.6271C591.004 71.2649 590.658 70.7358 590.512 70.0398L591.706 69.7415C591.819 70.1818 592.034 70.5121 592.35 70.7322C592.67 70.9524 593.087 71.0625 593.602 71.0625C594.188 71.0625 594.653 70.9382 594.998 70.6896C595.346 70.4375 595.52 70.1357 595.52 69.7841C595.52 69.5 595.42 69.2621 595.221 69.0703C595.022 68.875 594.717 68.7294 594.305 68.6335L592.941 68.3139C592.192 68.1364 591.642 67.8612 591.29 67.4883C590.942 67.1119 590.768 66.6413 590.768 66.0767C590.768 65.6151 590.898 65.2067 591.157 64.8516C591.42 64.4964 591.777 64.2177 592.228 64.0153C592.682 63.8129 593.197 63.7116 593.772 63.7116C594.582 63.7116 595.218 63.8892 595.679 64.2443C596.145 64.5994 596.475 65.0682 596.67 65.6506ZM602.93 72V63.8182H604.187V72H602.93ZM603.57 62.4545C603.325 62.4545 603.113 62.3711 602.936 62.2042C602.762 62.0373 602.675 61.8366 602.675 61.6023C602.675 61.3679 602.762 61.1673 602.936 61.0004C603.113 60.8335 603.325 60.75 603.57 60.75C603.815 60.75 604.024 60.8335 604.198 61.0004C604.376 61.1673 604.464 61.3679 604.464 61.6023C604.464 61.8366 604.376 62.0373 604.198 62.2042C604.024 62.3711 603.815 62.4545 603.57 62.4545ZM607.747 67.0781V72H606.49V63.8182H607.704V65.0966H607.811C608.003 64.6811 608.294 64.3473 608.685 64.0952C609.075 63.8395 609.579 63.7116 610.197 63.7116C610.751 63.7116 611.236 63.8253 611.652 64.0526C612.067 64.2763 612.39 64.6172 612.621 65.0753C612.852 65.5298 612.967 66.1051 612.967 66.8011V72H611.71V66.8864C611.71 66.2436 611.543 65.7429 611.209 65.3842C610.876 65.022 610.417 64.8409 609.835 64.8409C609.434 64.8409 609.075 64.9279 608.759 65.1019C608.447 65.2759 608.2 65.5298 608.019 65.8636C607.838 66.1974 607.747 66.6023 607.747 67.0781Z" fill="black"/>
<path d="M680.124 72H676.758V61.0909H680.273C681.331 61.0909 682.237 61.3093 682.99 61.7461C683.743 62.1793 684.32 62.8026 684.721 63.6158C685.122 64.4254 685.323 65.3949 685.323 66.5241C685.323 67.6605 685.12 68.6388 684.716 69.4592C684.311 70.2759 683.721 70.9045 682.947 71.3448C682.173 71.7816 681.232 72 680.124 72ZM678.079 70.8281H680.039C680.941 70.8281 681.688 70.6541 682.281 70.3061C682.874 69.9581 683.316 69.4627 683.608 68.82C683.899 68.1772 684.044 67.4119 684.044 66.5241C684.044 65.6435 683.901 64.8853 683.613 64.2496C683.325 63.6104 682.896 63.1204 682.324 62.7795C681.752 62.435 681.04 62.2628 680.188 62.2628H678.079V70.8281ZM689.776 72.1918C689.258 72.1918 688.787 72.0941 688.364 71.8988C687.942 71.6999 687.606 71.4141 687.358 71.0412C687.109 70.6648 686.985 70.2102 686.985 69.6776C686.985 69.2088 687.077 68.8288 687.262 68.5376C687.446 68.2429 687.693 68.0121 688.002 67.8452C688.311 67.6783 688.652 67.554 689.025 67.4723C689.401 67.3871 689.78 67.3196 690.16 67.2699C690.657 67.206 691.06 67.158 691.369 67.1261C691.681 67.0906 691.908 67.032 692.051 66.9503C692.196 66.8686 692.269 66.7266 692.269 66.5241V66.4815C692.269 65.956 692.125 65.5476 691.837 65.2564C691.553 64.9652 691.122 64.8196 690.543 64.8196C689.943 64.8196 689.472 64.951 689.131 65.2138C688.791 65.4766 688.551 65.7571 688.412 66.0554L687.219 65.6293C687.432 65.1321 687.716 64.745 688.071 64.468C688.43 64.1875 688.821 63.9922 689.243 63.8821C689.669 63.7685 690.089 63.7116 690.5 63.7116C690.763 63.7116 691.065 63.7436 691.406 63.8075C691.75 63.8679 692.082 63.994 692.402 64.1857C692.725 64.3775 692.993 64.6669 693.206 65.054C693.419 65.4411 693.526 65.9595 693.526 66.6094V72H692.269V70.892H692.205C692.12 71.0696 691.978 71.2596 691.779 71.462C691.58 71.6644 691.315 71.8366 690.985 71.9787C690.655 72.1207 690.252 72.1918 689.776 72.1918ZM689.968 71.0625C690.465 71.0625 690.884 70.9648 691.225 70.7695C691.569 70.5742 691.829 70.3221 692.003 70.0131C692.18 69.7042 692.269 69.3793 692.269 69.0384V67.8878C692.216 67.9517 692.098 68.0103 691.917 68.0636C691.74 68.1133 691.534 68.1577 691.299 68.1967C691.069 68.2322 690.843 68.2642 690.623 68.2926C690.406 68.3175 690.231 68.3388 690.096 68.3565C689.769 68.3991 689.464 68.4684 689.179 68.5643C688.899 68.6566 688.672 68.7969 688.498 68.9851C688.327 69.1697 688.242 69.4219 688.242 69.7415C688.242 70.1783 688.403 70.5085 688.727 70.7322C689.053 70.9524 689.467 71.0625 689.968 71.0625ZM696.337 75.0682C696.124 75.0682 695.934 75.0504 695.767 75.0149C695.6 74.983 695.485 74.951 695.421 74.919L695.741 73.8111C696.046 73.8892 696.316 73.9176 696.55 73.8963C696.785 73.875 696.992 73.7702 697.173 73.582C697.358 73.3974 697.527 73.0973 697.68 72.6818L697.914 72.0426L694.888 63.8182H696.252L698.51 70.3381H698.596L700.854 63.8182H702.218L698.745 73.1932C698.589 73.6158 698.395 73.9656 698.164 74.2425C697.933 74.5231 697.665 74.7308 697.36 74.8658C697.058 75.0007 696.717 75.0682 696.337 75.0682ZM709.673 65.6506L708.543 65.9702C708.472 65.782 708.368 65.5991 708.229 65.4215C708.094 65.2404 707.909 65.0913 707.675 64.9741C707.441 64.8569 707.141 64.7983 706.775 64.7983C706.274 64.7983 705.857 64.9137 705.523 65.1445C705.193 65.3718 705.028 65.6612 705.028 66.0128C705.028 66.3253 705.141 66.5721 705.369 66.7532C705.596 66.9343 705.951 67.0852 706.434 67.206L707.648 67.5043C708.38 67.6818 708.925 67.9535 709.284 68.3192C709.642 68.6815 709.822 69.1484 709.822 69.7202C709.822 70.1889 709.687 70.608 709.417 70.9773C709.151 71.3466 708.778 71.6378 708.298 71.8509C707.819 72.0639 707.261 72.1705 706.626 72.1705C705.791 72.1705 705.1 71.9893 704.554 71.6271C704.007 71.2649 703.661 70.7358 703.515 70.0398L704.708 69.7415C704.822 70.1818 705.037 70.5121 705.353 70.7322C705.672 70.9524 706.089 71.0625 706.604 71.0625C707.19 71.0625 707.656 70.9382 708 70.6896C708.348 70.4375 708.522 70.1357 708.522 69.7841C708.522 69.5 708.423 69.2621 708.224 69.0703C708.025 68.875 707.719 68.7294 707.308 68.6335L705.944 68.3139C705.195 68.1364 704.644 67.8612 704.293 67.4883C703.945 67.1119 703.771 66.6413 703.771 66.0767C703.771 65.6151 703.9 65.2067 704.159 64.8516C704.422 64.4964 704.779 64.2177 705.23 64.0153C705.685 63.8129 706.2 63.7116 706.775 63.7116C707.585 63.7116 708.22 63.8892 708.682 64.2443C709.147 64.5994 709.477 65.0682 709.673 65.6506Z" fill="black"/>
<path d="M772.56 72V61.0909H773.881V65.9489H779.698V61.0909H781.019V72H779.698V67.1207H773.881V72H772.56ZM783.493 72V63.8182H784.708V65.054H784.793C784.942 64.6491 785.212 64.3207 785.603 64.0685C785.993 63.8164 786.434 63.6903 786.924 63.6903C787.016 63.6903 787.131 63.6921 787.27 63.6957C787.408 63.6992 787.513 63.7045 787.584 63.7116V64.9901C787.542 64.9794 787.444 64.9634 787.291 64.9421C787.142 64.9173 786.984 64.9048 786.817 64.9048C786.419 64.9048 786.064 64.9883 785.752 65.1552C785.443 65.3185 785.198 65.5458 785.017 65.837C784.839 66.1246 784.75 66.4531 784.75 66.8224V72H783.493ZM794.87 65.6506L793.741 65.9702C793.67 65.782 793.565 65.5991 793.426 65.4215C793.291 65.2404 793.107 65.0913 792.872 64.9741C792.638 64.8569 792.338 64.7983 791.972 64.7983C791.471 64.7983 791.054 64.9137 790.72 65.1445C790.39 65.3718 790.225 65.6612 790.225 66.0128C790.225 66.3253 790.339 66.5721 790.566 66.7532C790.793 66.9343 791.148 67.0852 791.631 67.206L792.846 67.5043C793.577 67.6818 794.122 67.9535 794.481 68.3192C794.84 68.6815 795.019 69.1484 795.019 69.7202C795.019 70.1889 794.884 70.608 794.614 70.9773C794.348 71.3466 793.975 71.6378 793.496 71.8509C793.016 72.0639 792.459 72.1705 791.823 72.1705C790.988 72.1705 790.298 71.9893 789.751 71.6271C789.204 71.2649 788.858 70.7358 788.712 70.0398L789.905 69.7415C790.019 70.1818 790.234 70.5121 790.55 70.7322C790.869 70.9524 791.287 71.0625 791.802 71.0625C792.388 71.0625 792.853 70.9382 793.197 70.6896C793.545 70.4375 793.719 70.1357 793.719 69.7841C793.719 69.5 793.62 69.2621 793.421 69.0703C793.222 68.875 792.917 68.7294 792.505 68.6335L791.141 68.3139C790.392 68.1364 789.841 67.8612 789.49 67.4883C789.142 67.1119 788.968 66.6413 788.968 66.0767C788.968 65.6151 789.097 65.2067 789.357 64.8516C789.619 64.4964 789.976 64.2177 790.427 64.0153C790.882 63.8129 791.397 63.7116 791.972 63.7116C792.782 63.7116 793.417 63.8892 793.879 64.2443C794.344 64.5994 794.675 65.0682 794.87 65.6506Z" fill="black"/>
<path d="M857.563 61.0909H859.14L862.847 70.1463H862.975L866.683 61.0909H868.259V72H867.023V63.7116H866.917L863.508 72H862.315L858.906 63.7116H858.799V72H857.563V61.0909ZM870.737 72V63.8182H871.995V72H870.737ZM871.377 62.4545C871.132 62.4545 870.92 62.3711 870.743 62.2042C870.569 62.0373 870.482 61.8366 870.482 61.6023C870.482 61.3679 870.569 61.1673 870.743 61.0004C870.92 60.8335 871.132 60.75 871.377 60.75C871.622 60.75 871.831 60.8335 872.005 61.0004C872.183 61.1673 872.272 61.3679 872.272 61.6023C872.272 61.8366 872.183 62.0373 872.005 62.2042C871.831 62.3711 871.622 62.4545 871.377 62.4545ZM875.554 67.0781V72H874.297V63.8182H875.512V65.0966H875.618C875.81 64.6811 876.101 64.3473 876.492 64.0952C876.882 63.8395 877.387 63.7116 878.004 63.7116C878.558 63.7116 879.043 63.8253 879.459 64.0526C879.874 64.2763 880.197 64.6172 880.428 65.0753C880.659 65.5298 880.774 66.1051 880.774 66.8011V72H879.517V66.8864C879.517 66.2436 879.35 65.7429 879.017 65.3842C878.683 65.022 878.225 64.8409 877.642 64.8409C877.241 64.8409 876.882 64.9279 876.566 65.1019C876.254 65.2759 876.007 65.5298 875.826 65.8636C875.645 66.1974 875.554 66.6023 875.554 67.0781ZM888.867 65.6506L887.738 65.9702C887.667 65.782 887.562 65.5991 887.423 65.4215C887.288 65.2404 887.104 65.0913 886.869 64.9741C886.635 64.8569 886.335 64.7983 885.969 64.7983C885.468 64.7983 885.051 64.9137 884.717 65.1445C884.387 65.3718 884.222 65.6612 884.222 66.0128C884.222 66.3253 884.336 66.5721 884.563 66.7532C884.79 66.9343 885.145 67.0852 885.628 67.206L886.843 67.5043C887.574 67.6818 888.119 67.9535 888.478 68.3192C888.837 68.6815 889.016 69.1484 889.016 69.7202C889.016 70.1889 888.881 70.608 888.611 70.9773C888.345 71.3466 887.972 71.6378 887.493 71.8509C887.013 72.0639 886.456 72.1705 885.82 72.1705C884.986 72.1705 884.295 71.9893 883.748 71.6271C883.201 71.2649 882.855 70.7358 882.709 70.0398L883.902 69.7415C884.016 70.1818 884.231 70.5121 884.547 70.7322C884.867 70.9524 885.284 71.0625 885.799 71.0625C886.385 71.0625 886.85 70.9382 887.194 70.6896C887.542 70.4375 887.716 70.1357 887.716 69.7841C887.716 69.5 887.617 69.2621 887.418 69.0703C887.219 68.875 886.914 68.7294 886.502 68.6335L885.138 68.3139C884.389 68.1364 883.839 67.8612 883.487 67.4883C883.139 67.1119 882.965 66.6413 882.965 66.0767C882.965 65.6151 883.095 65.2067 883.354 64.8516C883.617 64.4964 883.973 64.2177 884.424 64.0153C884.879 63.8129 885.394 63.7116 885.969 63.7116C886.779 63.7116 887.415 63.8892 887.876 64.2443C888.341 64.5994 888.672 65.0682 888.867 65.6506Z" fill="black"/>
<path d="M953.531 63.8182C953.467 63.2784 953.208 62.8594 952.753 62.5611C952.299 62.2628 951.741 62.1136 951.081 62.1136C950.598 62.1136 950.175 62.1918 949.813 62.348C949.454 62.5043 949.174 62.7191 948.971 62.9925C948.773 63.266 948.673 63.5767 948.673 63.9247C948.673 64.2159 948.742 64.4663 948.881 64.6758C949.023 64.8817 949.204 65.054 949.424 65.1925C949.644 65.3274 949.875 65.4393 950.117 65.5281C950.358 65.6133 950.58 65.6825 950.782 65.7358L951.89 66.0341C952.175 66.1087 952.491 66.2116 952.839 66.343C953.19 66.4744 953.526 66.6538 953.845 66.881C954.169 67.1048 954.435 67.3924 954.644 67.744C954.854 68.0955 954.959 68.527 954.959 69.0384C954.959 69.6278 954.804 70.1605 954.495 70.6364C954.19 71.1122 953.742 71.4904 953.153 71.771C952.567 72.0515 951.855 72.1918 951.017 72.1918C950.236 72.1918 949.559 72.0657 948.987 71.8136C948.419 71.5614 947.972 71.2099 947.645 70.7589C947.322 70.3079 947.139 69.7841 947.096 69.1875H948.46C948.496 69.5994 948.634 69.9403 948.876 70.2102C949.121 70.4766 949.43 70.6754 949.802 70.8068C950.179 70.9347 950.584 70.9986 951.017 70.9986C951.521 70.9986 951.974 70.9169 952.375 70.7536C952.776 70.5866 953.094 70.3558 953.329 70.0611C953.563 69.7628 953.68 69.4148 953.68 69.017C953.68 68.6548 953.579 68.3601 953.377 68.1328C953.174 67.9055 952.908 67.7209 952.578 67.5788C952.247 67.4368 951.89 67.3125 951.507 67.206L950.165 66.8224C949.312 66.5774 948.638 66.2276 948.14 65.7731C947.643 65.3185 947.395 64.7237 947.395 63.9886C947.395 63.3778 947.56 62.8452 947.89 62.3906C948.224 61.9325 948.671 61.5774 949.232 61.3253C949.797 61.0696 950.427 60.9418 951.123 60.9418C951.827 60.9418 952.452 61.0678 952.998 61.32C953.545 61.5685 953.979 61.9094 954.298 62.3427C954.621 62.7759 954.792 63.2678 954.809 63.8182H953.531ZM960.391 72.1705C959.602 72.1705 958.922 71.9964 958.35 71.6484C957.782 71.2969 957.344 70.8068 957.035 70.1783C956.729 69.5462 956.577 68.8111 956.577 67.973C956.577 67.1349 956.729 66.3963 957.035 65.7571C957.344 65.1143 957.773 64.6136 958.324 64.255C958.878 63.8928 959.524 63.7116 960.263 63.7116C960.689 63.7116 961.11 63.7827 961.525 63.9247C961.941 64.0668 962.319 64.2976 962.66 64.6172C963.001 64.9332 963.272 65.3523 963.475 65.8743C963.677 66.3963 963.778 67.0391 963.778 67.8026V68.3352H957.472V67.2486H962.5C962.5 66.7869 962.408 66.375 962.223 66.0128C962.042 65.6506 961.783 65.3647 961.445 65.1552C961.111 64.9457 960.717 64.8409 960.263 64.8409C959.762 64.8409 959.329 64.9652 958.963 65.2138C958.601 65.4588 958.322 65.7784 958.127 66.1726C957.931 66.5668 957.834 66.9893 957.834 67.4403V68.1648C957.834 68.7827 957.94 69.3065 958.153 69.7362C958.37 70.1623 958.67 70.4872 959.054 70.7109C959.437 70.9311 959.883 71.0412 960.391 71.0412C960.721 71.0412 961.019 70.995 961.285 70.9027C961.555 70.8068 961.788 70.6648 961.983 70.4766C962.179 70.2848 962.329 70.0469 962.436 69.7628L963.65 70.1037C963.523 70.5156 963.308 70.8778 963.006 71.1903C962.704 71.4993 962.331 71.7408 961.887 71.9148C961.443 72.0852 960.945 72.1705 960.391 72.1705ZM969.014 72.1705C968.247 72.1705 967.587 71.9893 967.033 71.6271C966.479 71.2649 966.053 70.766 965.755 70.1303C965.456 69.4947 965.307 68.7685 965.307 67.9517C965.307 67.1207 965.46 66.3874 965.765 65.7518C966.074 65.1126 966.504 64.6136 967.054 64.255C967.608 63.8928 968.255 63.7116 968.993 63.7116C969.568 63.7116 970.087 63.8182 970.549 64.0312C971.01 64.2443 971.388 64.5426 971.683 64.9261C971.978 65.3097 972.161 65.7571 972.232 66.2685H970.975C970.879 65.8956 970.666 65.5653 970.335 65.2777C970.009 64.9865 969.568 64.8409 969.014 64.8409C968.524 64.8409 968.095 64.9687 967.725 65.2244C967.36 65.4766 967.074 65.8335 966.868 66.2951C966.665 66.7532 966.564 67.2912 966.564 67.9091C966.564 68.5412 966.664 69.0916 966.862 69.5604C967.065 70.0291 967.349 70.3931 967.715 70.6523C968.084 70.9116 968.517 71.0412 969.014 71.0412C969.341 71.0412 969.638 70.9844 969.904 70.8707C970.17 70.7571 970.396 70.5938 970.581 70.3807C970.765 70.1676 970.897 69.9119 970.975 69.6136H972.232C972.161 70.0966 971.985 70.5316 971.704 70.9187C971.427 71.3022 971.06 71.6076 970.602 71.8349C970.147 72.0586 969.618 72.1705 969.014 72.1705ZM979.865 65.6506L978.736 65.9702C978.665 65.782 978.56 65.5991 978.421 65.4215C978.286 65.2404 978.102 65.0913 977.867 64.9741C977.633 64.8569 977.333 64.7983 976.967 64.7983C976.467 64.7983 976.049 64.9137 975.715 65.1445C975.385 65.3718 975.22 65.6612 975.22 66.0128C975.22 66.3253 975.334 66.5721 975.561 66.7532C975.788 66.9343 976.143 67.0852 976.626 67.206L977.841 67.5043C978.572 67.6818 979.117 67.9535 979.476 68.3192C979.835 68.6815 980.014 69.1484 980.014 69.7202C980.014 70.1889 979.879 70.608 979.609 70.9773C979.343 71.3466 978.97 71.6378 978.491 71.8509C978.011 72.0639 977.454 72.1705 976.818 72.1705C975.984 72.1705 975.293 71.9893 974.746 71.6271C974.199 71.2649 973.853 70.7358 973.707 70.0398L974.9 69.7415C975.014 70.1818 975.229 70.5121 975.545 70.7322C975.865 70.9524 976.282 71.0625 976.797 71.0625C977.383 71.0625 977.848 70.9382 978.192 70.6896C978.54 70.4375 978.714 70.1357 978.714 69.7841C978.714 69.5 978.615 69.2621 978.416 69.0703C978.217 68.875 977.912 68.7294 977.5 68.6335L976.136 68.3139C975.387 68.1364 974.837 67.8612 974.485 67.4883C974.137 67.1119 973.963 66.6413 973.963 66.0767C973.963 65.6151 974.093 65.2067 974.352 64.8516C974.615 64.4964 974.972 64.2177 975.422 64.0153C975.877 63.8129 976.392 63.7116 976.967 63.7116C977.777 63.7116 978.413 63.8892 978.874 64.2443C979.339 64.5994 979.67 65.0682 979.865 65.6506Z" fill="black"/>
<rect x="625" y="53" width="21" height="27" rx="3" fill="#E9E9E9"/>
<rect x="650" y="53" width="21" height="27" rx="3" fill="#E9E9E9"/>
<rect x="715" y="53" width="21" height="27" rx="3" fill="#E9E9E9"/>
<rect x="740" y="53" width="21" height="27" rx="3" fill="#E9E9E9"/>
<rect x="805" y="53" width="21" height="27" rx="3" fill="#E9E9E9"/>
<rect x="830" y="53" width="21" height="27" rx="3" fill="#E9E9E9"/>
<rect x="895" y="53" width="21" height="27" rx="3" fill="#E9E9E9"/>
<rect x="920" y="53" width="21" height="27" rx="3" fill="#E9E9E9"/>
<path d="M636 72.1491C635.197 72.1491 634.514 71.9308 633.949 71.494C633.385 71.0536 632.953 70.4162 632.655 69.5817C632.357 68.7436 632.207 67.7315 632.207 66.5455C632.207 65.3665 632.357 64.3597 632.655 63.5252C632.957 62.6871 633.39 62.0479 633.955 61.6076C634.523 61.1637 635.205 60.9418 636 60.9418C636.795 60.9418 637.475 61.1637 638.04 61.6076C638.608 62.0479 639.042 62.6871 639.34 63.5252C639.642 64.3597 639.793 65.3665 639.793 66.5455C639.793 67.7315 639.643 68.7436 639.345 69.5817C639.047 70.4162 638.615 71.0536 638.051 71.494C637.486 71.9308 636.803 72.1491 636 72.1491ZM636 70.9773C636.795 70.9773 637.413 70.5937 637.854 69.8267C638.294 69.0597 638.514 67.9659 638.514 66.5455C638.514 65.6009 638.413 64.7965 638.211 64.1325C638.012 63.4684 637.724 62.9624 637.348 62.6143C636.975 62.2663 636.526 62.0923 636 62.0923C635.212 62.0923 634.596 62.4812 634.152 63.2589C633.708 64.033 633.486 65.1286 633.486 66.5455C633.486 67.4901 633.585 68.2926 633.784 68.9531C633.983 69.6136 634.269 70.1161 634.642 70.4606C635.018 70.805 635.471 70.9773 636 70.9773Z" fill="black"/>
<path d="M661.978 61.0909V72H660.657V62.4759H660.593L657.93 64.2443V62.902L660.657 61.0909H661.978Z" fill="black"/>
<path d="M747.588 72V71.0412L751.189 67.0994C751.612 66.6378 751.96 66.2365 752.233 65.8956C752.507 65.5511 752.709 65.228 752.84 64.9261C752.975 64.6207 753.043 64.3011 753.043 63.9673C753.043 63.5838 752.95 63.2518 752.766 62.9712C752.585 62.6907 752.336 62.4741 752.02 62.3214C751.704 62.1687 751.349 62.0923 750.955 62.0923C750.536 62.0923 750.17 62.1793 749.857 62.3533C749.548 62.5238 749.309 62.7635 749.138 63.0724C748.971 63.3814 748.888 63.7436 748.888 64.1591H747.631C747.631 63.5199 747.778 62.9588 748.073 62.4759C748.368 61.9929 748.769 61.6165 749.277 61.3466C749.788 61.0767 750.362 60.9418 750.997 60.9418C751.637 60.9418 752.203 61.0767 752.697 61.3466C753.19 61.6165 753.577 61.9805 753.858 62.4386C754.138 62.8967 754.279 63.4062 754.279 63.9673C754.279 64.3686 754.206 64.761 754.06 65.1445C753.918 65.5245 753.67 65.9489 753.314 66.4176C752.963 66.8828 752.475 67.451 751.85 68.1222L749.399 70.7429V70.8281H754.47V72H747.588Z" fill="black"/>
<path d="M726.978 61.0909V72H725.657V62.4759H725.593L722.93 64.2443V62.902L725.657 61.0909H726.978Z" fill="black"/>
<path d="M840.922 60.9418C841.37 60.9453 841.817 61.0305 842.264 61.1974C842.712 61.3643 843.12 61.6413 843.49 62.0284C843.859 62.4119 844.155 62.9357 844.379 63.5998C844.603 64.2638 844.715 65.0966 844.715 66.098C844.715 67.0675 844.622 67.9286 844.438 68.6815C844.257 69.4308 843.994 70.0629 843.649 70.5778C843.308 71.0927 842.893 71.4833 842.403 71.7496C841.916 72.016 841.366 72.1491 840.752 72.1491C840.141 72.1491 839.596 72.0284 839.116 71.7869C838.64 71.5419 838.25 71.2028 837.944 70.7695C837.643 70.3327 837.449 69.8267 837.364 69.2514H838.664C838.781 69.7521 839.013 70.1658 839.361 70.4925C839.713 70.8157 840.176 70.9773 840.752 70.9773C841.593 70.9773 842.257 70.6097 842.744 69.8746C843.234 69.1396 843.479 68.1009 843.479 66.7585H843.394C843.195 67.0568 842.959 67.3143 842.685 67.5309C842.412 67.7475 842.108 67.9144 841.774 68.0316C841.441 68.1488 841.085 68.2074 840.709 68.2074C840.084 68.2074 839.511 68.0529 838.989 67.744C838.47 67.4315 838.055 67.0036 837.742 66.4602C837.433 65.9134 837.279 65.2884 837.279 64.5852C837.279 63.9176 837.428 63.3068 837.726 62.7528C838.028 62.1953 838.451 61.7514 838.994 61.4212C839.541 61.0909 840.183 60.9311 840.922 60.9418ZM840.922 62.1136C840.475 62.1136 840.072 62.2255 839.713 62.4492C839.358 62.6694 839.076 62.9677 838.866 63.3441C838.66 63.717 838.557 64.1307 838.557 64.5852C838.557 65.0398 838.656 65.4535 838.855 65.8263C839.058 66.1957 839.333 66.4904 839.681 66.7106C840.033 66.9272 840.432 67.0355 840.879 67.0355C841.217 67.0355 841.531 66.9698 841.822 66.8384C842.114 66.7035 842.367 66.5206 842.584 66.2898C842.804 66.0554 842.976 65.7908 843.101 65.4961C843.225 65.1978 843.287 64.8871 843.287 64.5639C843.287 64.1378 843.184 63.7383 842.978 63.3654C842.776 62.9925 842.495 62.6907 842.137 62.4599C841.781 62.229 841.377 62.1136 840.922 62.1136Z" fill="black"/>
<path d="M930.922 60.9418C931.37 60.9453 931.817 61.0305 932.264 61.1974C932.712 61.3643 933.12 61.6413 933.49 62.0284C933.859 62.4119 934.155 62.9357 934.379 63.5998C934.603 64.2638 934.715 65.0966 934.715 66.098C934.715 67.0675 934.622 67.9286 934.438 68.6815C934.257 69.4308 933.994 70.0629 933.649 70.5778C933.308 71.0927 932.893 71.4833 932.403 71.7496C931.916 72.016 931.366 72.1491 930.752 72.1491C930.141 72.1491 929.596 72.0284 929.116 71.7869C928.64 71.5419 928.25 71.2028 927.944 70.7695C927.643 70.3327 927.449 69.8267 927.364 69.2514H928.664C928.781 69.7521 929.013 70.1658 929.361 70.4925C929.713 70.8157 930.176 70.9773 930.752 70.9773C931.593 70.9773 932.257 70.6097 932.744 69.8746C933.234 69.1396 933.479 68.1009 933.479 66.7585H933.394C933.195 67.0568 932.959 67.3143 932.685 67.5309C932.412 67.7475 932.108 67.9144 931.774 68.0316C931.441 68.1488 931.085 68.2074 930.709 68.2074C930.084 68.2074 929.511 68.0529 928.989 67.744C928.47 67.4315 928.055 67.0036 927.742 66.4602C927.433 65.9134 927.279 65.2884 927.279 64.5852C927.279 63.9176 927.428 63.3068 927.726 62.7528C928.028 62.1953 928.451 61.7514 928.994 61.4212C929.541 61.0909 930.183 60.9311 930.922 60.9418ZM930.922 62.1136C930.475 62.1136 930.072 62.2255 929.713 62.4492C929.358 62.6694 929.076 62.9677 928.866 63.3441C928.66 63.717 928.557 64.1307 928.557 64.5852C928.557 65.0398 928.656 65.4535 928.855 65.8263C929.058 66.1957 929.333 66.4904 929.681 66.7106C930.033 66.9272 930.432 67.0355 930.879 67.0355C931.217 67.0355 931.531 66.9698 931.822 66.8384C932.114 66.7035 932.367 66.5206 932.584 66.2898C932.804 66.0554 932.976 65.7908 933.101 65.4961C933.225 65.1978 933.287 64.8871 933.287 64.5639C933.287 64.1378 933.184 63.7383 932.978 63.3654C932.776 62.9925 932.495 62.6907 932.137 62.4599C931.781 62.229 931.377 62.1136 930.922 62.1136Z" fill="black"/>
<path d="M902.588 72V71.0412L906.189 67.0994C906.612 66.6378 906.96 66.2365 907.233 65.8956C907.507 65.5511 907.709 65.228 907.84 64.9261C907.975 64.6207 908.043 64.3011 908.043 63.9673C908.043 63.5838 907.95 63.2518 907.766 62.9712C907.585 62.6907 907.336 62.4741 907.02 62.3214C906.704 62.1687 906.349 62.0923 905.955 62.0923C905.536 62.0923 905.17 62.1793 904.857 62.3533C904.548 62.5238 904.309 62.7635 904.138 63.0724C903.971 63.3814 903.888 63.7436 903.888 64.1591H902.631C902.631 63.5199 902.778 62.9588 903.073 62.4759C903.368 61.9929 903.769 61.6165 904.277 61.3466C904.788 61.0767 905.362 60.9418 905.997 60.9418C906.637 60.9418 907.203 61.0767 907.697 61.3466C908.19 61.6165 908.577 61.9805 908.858 62.4386C909.138 62.8967 909.279 63.4062 909.279 63.9673C909.279 64.3686 909.206 64.761 909.06 65.1445C908.918 65.5245 908.67 65.9489 908.314 66.4176C907.963 66.8828 907.475 67.451 906.85 68.1222L904.399 70.7429V70.8281H909.47V72H902.588Z" fill="black"/>
<path d="M816.04 72.1491C815.337 72.1491 814.71 72.0284 814.16 71.7869C813.613 71.5455 813.178 71.2099 812.855 70.7802C812.535 70.3469 812.361 69.8445 812.333 69.2727H813.675C813.703 69.6243 813.824 69.9279 814.037 70.1836C814.25 70.4357 814.529 70.631 814.873 70.7695C815.218 70.908 815.6 70.9773 816.019 70.9773C816.487 70.9773 816.903 70.8956 817.265 70.7322C817.627 70.5689 817.911 70.3416 818.117 70.0504C818.323 69.7592 818.426 69.4219 818.426 69.0384C818.426 68.6371 818.327 68.2837 818.128 67.9783C817.929 67.6694 817.638 67.4279 817.254 67.2539C816.871 67.0799 816.402 66.9929 815.848 66.9929H814.975V65.821H815.848C816.281 65.821 816.661 65.7429 816.988 65.5866C817.318 65.4304 817.576 65.2102 817.76 64.9261C817.949 64.642 818.043 64.3082 818.043 63.9247C818.043 63.5554 817.961 63.234 817.798 62.9606C817.634 62.6871 817.404 62.4741 817.105 62.3214C816.811 62.1687 816.463 62.0923 816.061 62.0923C815.685 62.0923 815.33 62.1616 814.996 62.3001C814.666 62.435 814.396 62.6321 814.186 62.8913C813.977 63.147 813.863 63.456 813.845 63.8182H812.567C812.588 63.2464 812.76 62.7457 813.084 62.3161C813.407 61.8828 813.829 61.5455 814.351 61.304C814.877 61.0625 815.454 60.9418 816.083 60.9418C816.757 60.9418 817.336 61.0785 817.819 61.3519C818.302 61.6218 818.673 61.9787 818.932 62.4226C819.192 62.8665 819.321 63.3459 819.321 63.8608C819.321 64.4751 819.16 64.9989 818.836 65.4322C818.517 65.8654 818.082 66.1655 817.531 66.3324V66.4176C818.22 66.5312 818.758 66.8242 819.145 67.2965C819.532 67.7653 819.726 68.3459 819.726 69.0384C819.726 69.6314 819.564 70.1641 819.241 70.6364C818.922 71.1051 818.485 71.4744 817.931 71.7443C817.377 72.0142 816.747 72.1491 816.04 72.1491Z" fill="black"/>
</svg>
